<?xml version="1.0" encoding="UTF-8"?>
<svg id="Layer_2" data-name="Layer 2" xmlns="http://www.w3.org/2000/svg" viewBox="0 0 128.8 186.57">
  <defs>
    <style>
      .cls-1 {
        fill: #ce3d3d;
      }

      .cls-2 {
        fill: #ffe2cf;
      }

      .cls-3 {
        fill: #c4fffe;
      }

      .cls-4 {
        fill: #ffe6d5;
      }

      .cls-5 {
        fill: #ff9f40;
      }

      .cls-6 {
        fill: #f25c80;
      }

      .cls-6, .cls-7 {
        opacity: .3;
      }

      .cls-8 {
        fill: #fcdb8a;
      }

      .cls-9 {
        fill: #acdeea;
      }

      .cls-10 {
        fill: #8dc2d5;
      }

      .cls-11 {
        fill: #6c3534;
      }

      .cls-12 {
        fill: #eefffe;
        opacity: .77;
      }

      .cls-7 {
        fill: #f98787;
      }
    </style>
  </defs>
  <g id="OBJECTS">
    <g>
      <g>
        <path class="cls-4" d="M88.65,102.9l-24.34-2.05-24.34,2.05S-3.68,124.7.25,136.63c3.93,11.93,18.25,5.22,20.41,4.1,2.16-1.12,1.77,43.42,7.85,44.73,6.08,1.3,14.33,1.68,14.92,0,.59-1.68,3.73-13.23,4.12-13.79.39-.56,15.11,0,15.11,0,0,0,14.72-.56,15.11,0,.39.56,3.53,12.11,4.12,13.79.59,1.68,8.83,1.3,14.92,0,6.08-1.3,5.69-45.84,7.85-44.73,2.16,1.12,16.49,7.83,20.41-4.1,3.92-11.93-36.42-33.72-36.42-33.72Z"/>
        <polygon class="cls-1" points="39.98 102.9 23.02 112.48 20.66 140.72 23.02 161.03 102.3 161.03 104.66 140.72 106.32 113.86 89.63 102.14 39.98 102.9"/>
        <ellipse class="cls-2" cx="65.58" cy="108.6" rx="21.54" ry="13.92"/>
        <path class="cls-4" d="M128.57,58.58c0,32.09-28.2,48.65-62.99,48.65S2.59,90.67,2.59,58.58,30.79.48,65.58.48s62.99,26.01,62.99,58.1Z"/>
      </g>
      <path class="cls-1" d="M80.73,181.53l19.13-1.75s-.61,3.95-2.24,5.22c-1.64,1.27-13.68,2.14-15.72.45l-1.16-3.92Z"/>
      <path class="cls-1" d="M44.61,181.53l-19.13-1.75s.61,3.95,2.24,5.22c1.64,1.27,13.68,2.14,15.72.45l1.16-3.92Z"/>
      <polygon class="cls-10" points="77.77 171.66 101.57 168.91 102.3 161.03 23.02 161.03 23.89 170.11 47.55 171.66 77.77 171.66"/>
      <path class="cls-11" d="M92.19,74.7c0,5.25-2.01,6-4.5,6s-4.5-.75-4.5-6,2.01-9.5,4.5-9.5,4.5,4.25,4.5,9.5Z"/>
      <path class="cls-11" d="M46.46,74.7c0,5.25-2.01,6-4.5,6s-4.5-.75-4.5-6,2.01-9.5,4.5-9.5,4.5,4.25,4.5,9.5Z"/>
      <path class="cls-6" d="M104.28,85.12c0,.64-2.79,1.17-6.24,1.17s-6.24-.52-6.24-1.17,2.79-1.17,6.24-1.17,6.24.52,6.24,1.17Z"/>
      <path class="cls-6" d="M39.35,86.29c0,.64-2.79,1.17-6.24,1.17s-6.24-.52-6.24-1.17,2.79-1.17,6.24-1.17,6.24.52,6.24,1.17Z"/>
      <path class="cls-7" d="M71.17,88.48c0,2.78-2.41,5.03-5.39,5.03s-5.39-2.25-5.39-5.03,2.41-2.13,5.39-2.13,5.39-.65,5.39,2.13Z"/>
      <polygon class="cls-8" points="63.49 127.79 67.78 136.48 77.37 137.88 70.43 144.64 72.07 154.2 63.49 149.69 54.91 154.2 56.55 144.64 49.6 137.88 59.2 136.48 63.49 127.79"/>
      <path class="cls-10" d="M6.84,78.33s5.73-47.48,28.2-36.23c13.99,7.01,27.46,9.75,65.97-1,13.52-3.77,22.04,24.19,24.33,34.9,0,0,2.58-5.24,3.23-13.74,1.6-20.87-3.88-58.05-54.56-61.27C1.79-3.59,2.44,55.86,2.59,62.85s4.26,15.48,4.26,15.48Z"/>
      <path class="cls-9" d="M22.37,14.25s58.67,21.4,93.59,4.14c0,0-24.16-30.47-79.04-12.95-5.22,1.67-11.42,6.27-14.55,8.82Z"/>
      <path class="cls-8" d="M106.08,27.79c0,9.9-9.1,9.91-18.99,9.91s-16.84-.02-16.84-9.91,8.02-17.92,17.92-17.92,17.92,8.02,17.92,17.92Z"/>
      <path class="cls-5" d="M103.41,27.19c0,8.42-7.74,8.44-16.17,8.44s-14.33-.02-14.33-8.44,6.83-15.25,15.25-15.25,15.25,6.83,15.25,15.25Z"/>
      <path class="cls-3" d="M102.08,26.89c0,7.69-7.07,7.7-14.75,7.7s-13.08-.02-13.08-7.7,6.23-13.92,13.92-13.92,13.92,6.23,13.92,13.92Z"/>
      <path class="cls-8" d="M60.91,27.55c0,9.9-9.1,9.91-18.99,9.91s-16.84-.02-16.84-9.91,8.02-17.92,17.92-17.92,17.92,8.02,17.92,17.92Z"/>
      <path class="cls-5" d="M58.24,26.95c0,8.42-7.74,8.44-16.17,8.44s-14.33-.02-14.33-8.44,6.83-15.25,15.25-15.25,15.25,6.83,15.25,15.25Z"/>
      <path class="cls-3" d="M56.91,26.66c0,7.69-7.07,7.7-14.75,7.7s-13.08-.02-13.08-7.7,6.23-13.92,13.92-13.92,13.92,6.23,13.92,13.92Z"/>
      <path class="cls-8" d="M59.38,22.26s8-5.88,13,0v3.5s-8.99-4.26-11.99.5l-1.01-4Z"/>
      <path class="cls-8" d="M105.57,23.55s17.32,4.96,18.19,18.96c0,0-10.7-12.06-20.35-8.16"/>
      <path class="cls-8" d="M26.09,24.5s-17.32,4.96-18.19,18.96c0,0,10.7-12.06,20.35-8.16"/>
      <path class="cls-12" d="M91.8,13.46l-15.01,19.57s1.99,1.48,5.36,1.45l16.48-16.75s-4.21-4.41-6.84-4.27Z"/>
      <path class="cls-12" d="M47.08,13.46l-15.01,19.57s2.18,1.28,5.56,1.25l16.29-16.55s-4.21-4.41-6.84-4.27Z"/>
    </g>
  </g>
</svg>