<?xml version="1.0" encoding="UTF-8"?>
<svg id="Layer_2" data-name="Layer 2" xmlns="http://www.w3.org/2000/svg" viewBox="0 0 162.09 186.15">
  <defs>
    <style>
      .cls-1 {
        fill: #ffe2cf;
      }

      .cls-2 {
        fill: #ebd199;
      }

      .cls-3 {
        fill: #94a842;
      }

      .cls-4 {
        fill: none;
      }

      .cls-5 {
        fill: #ffe6d5;
      }

      .cls-6 {
        fill: #f25c80;
      }

      .cls-6, .cls-7 {
        opacity: .3;
      }

      .cls-8 {
        fill: #8b4f28;
      }

      .cls-9 {
        fill: #333;
      }

      .cls-10 {
        fill: #6c3534;
      }

      .cls-11 {
        fill: #88a233;
      }

      .cls-7 {
        fill: #f98787;
      }
    </style>
  </defs>
  <g id="OBJECTS">
    <g>
      <g>
        <g>
          <path class="cls-5" d="M88.65,102.48l-24.34-2.05-24.34,2.05S-3.68,124.27.25,136.2c3.93,11.93,18.25,5.22,20.41,4.1,2.16-1.12,1.77,43.42,7.85,44.73,6.08,1.3,14.33,1.68,14.92,0,.59-1.68,3.73-13.23,4.12-13.79.39-.56,15.11,0,15.11,0,0,0,14.72-.56,15.11,0,.39.56,3.53,12.11,4.12,13.79.59,1.68,8.83,1.3,14.92,0,6.08-1.3,5.69-45.84,7.85-44.73,2.16,1.12,16.49,7.83,20.41-4.1,3.92-11.93-36.42-33.72-36.42-33.72Z"/>
          <path class="cls-2" d="M39.44,102.75s-25.43,12.71-28.36,17.55c-2.52,4.16,9.58,20,9.58,20l2.44,21.31h78.41l3.15-21.31s9.6-14.07,9.56-20.89c0,0-22.54-18.15-25.54-17.82s-49.24,1.16-49.24,1.16Z"/>
          <path class="cls-1" d="M82.26,108.03c0,5.83-6.77,10.55-15.12,10.55s-15.12-4.72-15.12-10.55,7.34-6.45,15.7-6.45,14.55.62,14.55,6.45Z"/>
          <path class="cls-5" d="M128.57,58.15c0,32.09-28.2,48.65-62.99,48.65S2.59,90.24,2.59,58.15,30.79.05,65.58.05s62.99,26.01,62.99,58.1Z"/>
        </g>
        <path class="cls-10" d="M92.45,78.67c0,5.25-2.01,6-4.5,6s-4.5-.75-4.5-6,2.01-9.5,4.5-9.5,4.5,4.25,4.5,9.5Z"/>
        <path class="cls-10" d="M46.45,78.67c0,5.25-2.01,6-4.5,6s-4.5-.75-4.5-6,2.01-9.5,4.5-9.5,4.5,4.25,4.5,9.5Z"/>
        <path class="cls-6" d="M107.75,90.25c0,.64-2.79,1.17-6.24,1.17s-6.24-.52-6.24-1.17,2.79-1.17,6.24-1.17,6.24.52,6.24,1.17Z"/>
        <path class="cls-6" d="M39.44,91.42c0,.64-2.79,1.17-6.24,1.17s-6.24-.52-6.24-1.17,2.79-1.17,6.24-1.17,6.24.52,6.24,1.17Z"/>
        <path class="cls-9" d="M65.62,32.59s52.17,29.67,62.94,28c0,0,0-41-29.11-48C70.34,5.59,14.06,24.12,8.26,34.59c-5.8,10.46-5.64,18.25-5.51,27.61s62.88-29.61,62.88-29.61Z"/>
        <path class="cls-7" d="M73.1,92.45c0,2.78-2.41,5.03-5.39,5.03s-5.39-2.25-5.39-5.03,2.41-2.13,5.39-2.13,5.39-.65,5.39,2.13Z"/>
        <path class="cls-11" d="M21.24,145.34s3.54,33.36,4.8,36.07,18.29.6,18.29.6l3.22-10.78h30.22l3.17,10.6s17.24.73,18.45-.76c1.21-1.49,4.35-34.53,4.35-34.53l-82.5-1.21Z"/>
        <path class="cls-9" d="M80.73,181.24l19.13-1.75s-.61,3.95-2.24,5.22c-1.64,1.27-13.68,2.14-15.72.45l-1.16-3.92Z"/>
        <path class="cls-9" d="M44.61,181.24l-19.13-1.75s.61,3.95,2.24,5.22c1.64,1.27,13.68,2.14,15.72.45l1.16-3.92Z"/>
        <polygon class="cls-8" points="134.7 134.3 109.88 118.03 113.33 112.78 118.7 116.3 138.14 129.05 134.7 134.3"/>
        <polyline class="cls-8" points="115.86 118.39 140.56 76.15 159.04 71.23 162.09 87.08 133 129.63"/>
        <path class="cls-8" d="M120.85,138.43c-.96,1.68-3.1,2.26-4.77,1.3h0c-1.68-.96-2.26-3.1-1.3-4.77l5.83-10.21c.96-1.68,3.1-2.26,4.77-1.3h0c1.68.96,2.26,3.1,1.3,4.78l-5.83,10.2Z"/>
      </g>
      <g>
        <path class="cls-4" d="M52.08,21.95c-9.54,5.29-10.56,15.14-10.56,15.14l48.13-.86s-.57-5.81-5.13-10.74c-11.31.13-22.67-1.47-32.44-3.53Z"/>
        <path class="cls-11" d="M123.36,32.28c-1.73-4.07-4.29-8.67-8.01-13.11-9.27,4.45-20.02,6.18-30.83,6.31,4.57,4.94,5.13,10.74,5.13,10.74l-48.13.86s1.03-9.84,10.56-15.14c-16.13-3.4-27.91-8.01-27.91-8.01,5.57-3.11,8.68-5.95,13.67-8.2,3.11-1.41,6.16-2.55,9.15-3.48C7.58,11.62,3.88,47.09,3.88,47.09l123.04-2.2s-.53-5.48-3.56-12.6Z"/>
        <path class="cls-11" d="M89.58,2.88c9.78,3.43,17.22,8.45,21.64,11.96"/>
        <path class="cls-3" d="M46.99,2.25c4.7-1.12,9.91-1.87,15.68-2.14,10.63-.5,19.5.61,26.92,2.76"/>
        <path class="cls-3" d="M24.17,13.94s11.78,4.62,27.91,8.01c3.14-1.74,7.19-2.99,12.44-3.24,10.29-.48,16.39,2.87,20,6.77,10.81-.13,21.57-1.86,30.83-6.31-1.24-1.47-2.61-2.93-4.12-4.33-4.42-3.51-11.85-8.53-21.64-11.96C82.16.73,73.3-.38,62.67.12c-5.77.27-10.98,1.02-15.68,2.14-2.98.93-6.03,2.07-9.15,3.48-4.99,2.26-8.1,5.09-13.67,8.2Z"/>
      </g>
    </g>
  </g>
</svg>