<?xml version="1.0" encoding="UTF-8"?>
<svg id="Layer_2" data-name="Layer 2" xmlns="http://www.w3.org/2000/svg" viewBox="0 0 125.98 210.33">
  <defs>
    <style>
      .cls-1 {
        fill: #e69b81;
      }

      .cls-2 {
        fill: #e8e2cc;
      }

      .cls-3 {
        fill: #fa757c;
      }

      .cls-4 {
        fill: #403f37;
      }

      .cls-5 {
        stroke-width: 2.69px;
      }

      .cls-5, .cls-6, .cls-7 {
        stroke: #383731;
      }

      .cls-5, .cls-6, .cls-7, .cls-8 {
        fill: none;
        stroke-linecap: round;
        stroke-linejoin: round;
      }

      .cls-9 {
        fill: #383731;
      }

      .cls-10 {
        fill: #f69a79;
      }

      .cls-11 {
        fill: #f6ae94;
      }

      .cls-12 {
        fill: #262621;
      }

      .cls-6 {
        stroke-width: .78px;
      }

      .cls-7 {
        stroke-width: 2.64px;
      }

      .cls-8 {
        stroke: #e8e2cc;
        stroke-width: 4.7px;
      }

      .cls-13 {
        fill: #dbd4b6;
      }
    </style>
  </defs>
  <g id="OBJECTS">
    <g>
      <g>
        <path class="cls-9" d="M76.16,210.33h0c-5.45,0-9.86-4.41-9.86-9.86v-19.46h19.72v19.46c0,5.44-4.41,9.86-9.86,9.86Z"/>
        <path class="cls-12" d="M70.88,200.47v-19.46h-4.58v19.46c0,5.45,4.41,9.86,9.86,9.86h0c.79,0,1.55-.1,2.29-.28-4.34-1.03-7.57-4.93-7.57-9.58Z"/>
        <path class="cls-11" d="M66.3,200.51c0,.81.11,1.6.3,2.35h19.11c.19-.76.3-1.54.3-2.35h-19.71Z"/>
        <path class="cls-1" d="M66.3,200.51c0,.81.11,1.6.3,2.35h4.38c-.19-.76-.3-1.54-.3-2.35h-4.38Z"/>
      </g>
      <g>
        <g>
          <path class="cls-11" d="M122.83,124.3c3.58-2.98,4.2-8.24,1.43-11.98-2.8-3.77-8.06-4.67-11.96-2.05l-4.56,3.07,11.97,13.56,3.12-2.6Z"/>
          <path class="cls-1" d="M112.22,110.33c3.17-.55,6.52.66,8.56,3.41,2.78,3.74,2.15,9-1.43,11.98l-.4.34.75.86,3.12-2.6c3.58-2.98,4.2-8.24,1.43-11.98-2.8-3.77-8.06-4.67-11.96-2.05l-.07.05Z"/>
        </g>
        <g>
          <path class="cls-9" d="M84.09,145.16h0c-3.36-4.07-2.78-10.08,1.29-13.44l22.26-18.37c1.38-1.14,3.43-.94,4.57.44l8.03,9.72c1.14,1.38.94,3.43-.44,4.57l-22.26,18.37c-4.07,3.36-10.08,2.78-13.44-1.29Z"/>
          <path class="cls-12" d="M120.34,123.65l-8.25-10c-.4-.48-.91-.81-1.47-.98l5.94,7.2c1.08,1.31.89,3.24-.41,4.31l-22.8,18.82c-2.98,2.46-7.06,2.67-10.23.86.2.3.4.6.64.89l.67.82c3.17,3.84,8.85,4.39,12.7,1.22l22.8-18.82c1.3-1.08,1.49-3.01.41-4.31Z"/>
        </g>
      </g>
      <g>
        <g>
          <path class="cls-11" d="M3.16,123.33c-3.58-2.98-4.2-8.24-1.43-11.98,2.8-3.77,8.07-4.67,11.96-2.05l4.56,3.07-11.97,13.56-3.12-2.6Z"/>
          <path class="cls-1" d="M13.76,109.35c-3.17-.55-6.52.66-8.56,3.41-2.78,3.74-2.15,9,1.43,11.98l.4.34-.75.86-3.12-2.6c-3.58-2.98-4.2-8.24-1.43-11.98,2.8-3.77,8.07-4.67,11.96-2.05l.07.05Z"/>
        </g>
        <g>
          <path class="cls-9" d="M41.89,144.18h0c3.36-4.07,2.78-10.08-1.29-13.44l-22.26-18.37c-1.38-1.14-3.43-.94-4.57.44l-8.03,9.72c-1.14,1.38-.94,3.43.44,4.57l22.26,18.37c4.07,3.36,10.08,2.78,13.44-1.29Z"/>
          <path class="cls-12" d="M33.22,142.03l-22.8-18.82c-1.31-1.08-1.49-3.01-.41-4.31l6.04-7.32c-.81.06-1.59.43-2.15,1.1l-8.25,10c-1.08,1.3-.89,3.24.41,4.31l22.81,18.82c3.84,3.17,9.53,2.63,12.7-1.22l.67-.82c.12-.14.22-.29.33-.44-3.01,1.31-6.63.92-9.33-1.31Z"/>
        </g>
      </g>
      <g>
        <g>
          <path class="cls-2" d="M88.87,184.47h-50.57c-5.17,0-9.21-4.48-8.67-9.62l4.82-46.18c.46-4.44,4.21-7.81,8.67-7.81h39.32c4.35,0,8.03,3.21,8.63,7.51l6.43,46.18c.73,5.24-3.34,9.92-8.63,9.92Z"/>
          <path class="cls-13" d="M93.73,175.5c-29.38,0-52.29-25.43-49.24-54.65h-1.36c-4.46,0-8.21,3.37-8.67,7.81l-4.82,46.18c-.54,5.14,3.5,9.62,8.67,9.62h50.57c4.97,0,8.86-4.12,8.71-8.96h-3.86Z"/>
          <path class="cls-11" d="M49.85,117.89s-8.06,23.68,13.04,23.68,14.27-26.83,14.27-26.83l-27.31,3.16Z"/>
        </g>
        <g>
          <path class="cls-9" d="M74.69,148.96c3.02,3.66,3.53,8.22,1.15,10.19-2.39,1.97-6.77.6-9.79-3.06s-3.53-8.22-1.15-10.19,6.77-.6,9.79,3.06Z"/>
          <path class="cls-9" d="M49.82,148.89c-3.02,3.66-3.53,8.22-1.15,10.19,2.39,1.97,6.77.6,9.79-3.06,3.02-3.66,3.53-8.22,1.15-10.19-2.39-1.97-6.77-.6-9.79,3.06Z"/>
          <path class="cls-9" d="M61.09,161.88h2.56c.96,0,1.59,1,1.18,1.86l-1.28,2.69c-.47.99-1.88.99-2.36,0l-1.28-2.69c-.41-.87.22-1.86,1.18-1.86Z"/>
          <path class="cls-6" d="M62.37,167.18s2.65,5.24,6.42,1.18"/>
          <path class="cls-6" d="M62.37,167.18s-2.65,5.24-6.42,1.18"/>
          <path class="cls-3" d="M76.52,163.73c0,1.28-1.04,2.32-2.32,2.32s-2.32-1.04-2.32-2.32,1.04-2.32,2.32-2.32,2.32,1.04,2.32,2.32Z"/>
          <path class="cls-3" d="M50.86,163.73c0,1.28-1.04,2.32-2.32,2.32s-2.32-1.04-2.32-2.32,1.04-2.32,2.32-2.32,2.32,1.04,2.32,2.32Z"/>
        </g>
      </g>
      <g>
        <path class="cls-11" d="M60.11,42.58h4.53c26.68,0,48.35,21.66,48.35,48.35h0c0,21.55-17.5,39.05-39.05,39.05h-23.13c-21.55,0-39.05-17.5-39.05-39.05h0c0-26.68,21.66-48.35,48.35-48.35Z"/>
        <path class="cls-1" d="M111.17,77.79c.28,2.1.44,4.24.44,6.42h0c0,21.57-17.48,39.05-39.05,39.05h-23.13c-17.65,0-32.56-11.71-37.39-27.79,2.25,19.42,18.75,34.5,38.78,34.5h23.13c21.57,0,39.05-17.48,39.05-39.05h0c0-4.56-.64-8.96-1.82-13.14Z"/>
      </g>
      <g>
        <path class="cls-9" d="M62.93,118.46c3.81,0,7.11-2.18,8.73-5.35.86-1.69-.69-3.57-2.5-3.04-1.63.48-3.61.86-5.87.9-2.27.04-4.27-.28-5.95-.72-1.87-.49-3.37,1.56-2.35,3.2,1.9,3.07,4.87,5.02,7.94,5.02Z"/>
        <path class="cls-3" d="M62.93,113.18c-2.3,0-4.25,1.47-4.97,3.52,1.5,1.11,3.22,1.75,4.97,1.75,1.86,0,3.59-.52,5.07-1.42-.62-2.22-2.65-3.85-5.07-3.85Z"/>
      </g>
      <g>
        <g>
          <path class="cls-9" d="M87.59,34.03c0,14.69-11.91,26.6-26.6,26.6s-26.6-11.91-26.6-26.6,11.94-23.52,26.64-23.52,26.57,8.83,26.57,23.52Z"/>
          <path class="cls-12" d="M35.9,42.13c0-14.69,11.94-23.52,26.64-23.52,11.57,0,21.38,5.47,25.04,14.97-.24-14.42-12.02-23.07-26.56-23.07s-26.64,8.83-26.64,23.52c0,3.13.55,6.14,1.54,8.93,0-.28-.02-.55-.02-.83Z"/>
          <path class="cls-12" d="M58.76,14.2s5.08-15.39,13.13-11.73c8.06,3.66-13.13,11.73-13.13,11.73Z"/>
          <path class="cls-12" d="M62.07,12.29S56.99-3.1,48.93.56c-8.06,3.66,13.13,11.73,13.13,11.73Z"/>
        </g>
        <g>
          <path class="cls-9" d="M98.88,55.06s-.05-.04-.07-.06c-8.13-7.35-18.65-11.2-26.09-13.13-6.06-1.57-12.41-1.68-18.48-.16C15.28,51.45,12.04,82.09,11.78,88.09c-.02.56.43,1.03.99,1.03h4.99c.42,0,.79-.26.93-.65l3.39-9.19c.41-1.1,2.05-.71,1.92.45l-.78,7.06c-.07.61.43,1.13,1.04,1.1l27.54-1.58c.36-.02.68-.23.84-.56l4.29-8.88c.38-.79,1.52-.73,1.82.09l3.81,10.35c.14.39.52.65.93.65h7.59c.47,0,.87-.33.97-.78l2.11-9.77c.2-.9,1.41-1.07,1.84-.26l4.61,8.61c.17.32.51.52.87.52h23c.39,0,.75-.23.91-.59l3.43-7.79,4.14,6.87s1.13-17.41-14.11-29.7Z"/>
          <g>
            <path class="cls-12" d="M12.4,89.04c1.95-10.97,9.85-33.05,41.84-41.04,6.07-1.52,12.42-1.41,18.48.16,7.44,1.93,17.97,5.78,26.09,13.13.02.02.05.04.07.06,8.91,7.19,12.22,16.12,13.43,22.3l.67,1.12s1.13-17.41-14.11-29.7c-.02-.02-.05-.04-.07-.06-8.13-7.35-18.65-11.2-26.09-13.13-6.06-1.57-12.41-1.68-18.48-.16C15.28,51.45,12.04,82.09,11.78,88.09c-.02.43.24.8.62.95Z"/>
            <path class="cls-12" d="M23.42,85.02l-.2,1.78c-.05.45.21.84.58,1.01l.2-1.78c.06-.5-.22-.85-.58-1Z"/>
          </g>
          <g>
            <path class="cls-4" d="M22.71,78.21l.78-7.06c.13-1.16-1.51-1.55-1.92-.45l-3.39,9.19c-.14.39-.52.65-.93.65h-4.4c-.78,3.46-1.01,6.17-1.07,7.56-.02.56.43,1.03.99,1.03h4.99c.42,0,.79-.26.93-.65l3.39-9.19c.13-.35.39-.54.68-.61-.06-.14-.08-.3-.07-.46Z"/>
            <path class="cls-4" d="M111.78,75.05l-3.46-5.74-3.43,7.79c-.16.36-.51.59-.91.59h-23c-.37,0-.7-.2-.87-.52l-4.61-8.61c-.44-.81-1.65-.64-1.84.26l-2.11,9.77c-.1.46-.5.78-.97.78h-7.59c-.42,0-.79-.26-.93-.65l-3.81-10.35c-.3-.82-1.44-.88-1.82-.09l-4.29,8.88c-.16.32-.48.54-.84.56l-27.33,1.57c.04.13.07.27.05.44l-.78,7.06c-.07.61.43,1.13,1.04,1.1l27.54-1.58c.36-.02.68-.23.84-.56l4.29-8.88c.38-.79,1.52-.73,1.82.09l3.81,10.35c.14.39.52.65.93.65h7.59c.47,0,.87-.33.97-.78l2.11-9.77c.2-.9,1.41-1.07,1.84-.26l4.61,8.61c.17.32.51.52.87.52h23c.39,0,.75-.23.91-.59l3.43-7.79,4.14,6.87s.26-4.1-1.2-9.72Z"/>
          </g>
        </g>
        <path class="cls-8" d="M34.38,47.59s27.76-15.24,54.97-.69"/>
      </g>
      <g>
        <path class="cls-9" d="M53.24,203.13h0c-5.45,0-9.86-4.41-9.86-9.86v-9.6c0-5.45,4.41-9.86,9.86-9.86h0c5.45,0,9.86,4.41,9.86,9.86v9.6c0,5.45-4.41,9.86-9.86,9.86Z"/>
        <path class="cls-12" d="M46.58,193.27v-9.6c0-4.9,3.58-8.95,8.26-9.72-.52-.09-1.05-.14-1.6-.14-5.45,0-9.86,4.41-9.86,9.86v9.6c0,5.44,4.41,9.86,9.86,9.86.55,0,1.08-.06,1.6-.14-4.68-.77-8.26-4.82-8.26-9.72Z"/>
        <path class="cls-11" d="M43.38,193.32c0,.81.11,1.6.3,2.35h19.11c.19-.75.3-1.54.3-2.35h-19.71Z"/>
        <path class="cls-1" d="M43.38,193.32c0,.81.11,1.6.3,2.35h3.2c-.19-.75-.3-1.54-.3-2.35h-3.2Z"/>
      </g>
      <g>
        <ellipse class="cls-10" cx="40.53" cy="105.33" rx="6.58" ry="3.29"/>
        <ellipse class="cls-10" cx="89.39" cy="105.33" rx="6.58" ry="3.29"/>
      </g>
      <g>
        <path class="cls-5" d="M36.28,97.17s8.51-7.58,16.18,0"/>
        <path class="cls-9" d="M41.68,93.8s-4.52-.39-3.62-4.76c0,0-2.65,2.03-.12,5.5,0,0-3.42.23-3.35-1.81,0,0-.75,3.54,1.13,4.07,1.88.53,5.95-3,5.95-3Z"/>
      </g>
      <g>
        <path class="cls-7" d="M75.29,97.17s8.19-7.58,15.59,0"/>
        <path class="cls-9" d="M86.44,93.35s4.52-.39,3.62-4.76c0,0,2.65,2.03.12,5.5,0,0,3.42.23,3.35-1.81,0,0,.75,3.54-1.13,4.07-1.88.53-5.95-3-5.95-3Z"/>
      </g>
    </g>
  </g>
</svg>