<?xml version="1.0" encoding="UTF-8"?>
<svg id="Layer_2" data-name="Layer 2" xmlns="http://www.w3.org/2000/svg" viewBox="0 0 170.91 194.17">
  <defs>
    <style>
      .cls-1 {
        fill: #ffe2cf;
      }

      .cls-2 {
        fill: #ac5b28;
        opacity: .71;
      }

      .cls-3 {
        fill: none;
        stroke: #f8d355;
        stroke-miterlimit: 10;
        stroke-width: 3px;
      }

      .cls-4 {
        fill: #e2b979;
      }

      .cls-5 {
        fill: #f8d355;
      }

      .cls-6 {
        fill: #ffe6d5;
      }

      .cls-7 {
        fill: #f25c80;
      }

      .cls-7, .cls-8 {
        opacity: .3;
      }

      .cls-9 {
        fill: #efbe6d;
      }

      .cls-10 {
        fill: #8d5039;
      }

      .cls-11 {
        fill: #6c3534;
      }

      .cls-12 {
        fill: #984a1f;
      }

      .cls-8 {
        fill: #f98787;
      }
    </style>
  </defs>
  <g id="OBJECTS">
    <g>
      <g>
        <path class="cls-1" d="M108.53,110.5l-24.34-2.05-24.34,2.05s-43.65,21.79-39.73,33.72c3.93,11.93,18.25,5.22,20.41,4.1,2.16-1.12,1.77,43.42,7.85,44.73,6.08,1.3,14.33,1.68,14.92,0,.59-1.68,3.73-13.23,4.12-13.79s15.11,0,15.11,0c0,0,14.72-.56,15.11,0,.39.56,3.53,12.11,4.12,13.79.59,1.68,8.83,1.3,14.91,0s5.69-45.84,7.85-44.73c2.16,1.12,16.49,7.83,20.41-4.1,3.92-11.93-36.42-33.72-36.42-33.72Z"/>
        <path class="cls-4" d="M69.63,113.61s14.43,16.79,34.55-.52l7.63-2.48,19.43,14.54-2.11,25.02-11.77-5.44-76.82,3.59-1.69.79-10.32-18.8s19.88-15.37,32.05-19.87"/>
        <path class="cls-10" d="M70.65,109.23s-5.75,17.75,5.75,20,31.5,0,27.25-20l7.81,1.7,13.09,37.01-4.67,38.83-19.39,1.51-2.83-9.02-30.21-.38-2.49,9.31-20.05-1.62-4.34-38.63s17.48-33.25,18.16-37.23c.68-3.98,11.93-1.48,11.93-1.48Z"/>
        <path class="cls-6" d="M148.44,66.18c0,32.09-28.2,48.65-62.99,48.65s-62.99-16.57-62.99-48.65S50.66,8.08,85.45,8.08s62.99,26.01,62.99,58.1Z"/>
        <path class="cls-11" d="M113.48,88.2c0,5.25-2.01,6-4.5,6s-4.5-.75-4.5-6,2.01-9.5,4.5-9.5,4.5,4.25,4.5,9.5Z"/>
        <path class="cls-11" d="M67.75,88.2c0,5.25-2.01,6-4.5,6s-4.5-.75-4.5-6,2.01-9.5,4.5-9.5,4.5,4.25,4.5,9.5Z"/>
        <path class="cls-7" d="M125.57,98.61c0,.64-2.79,1.17-6.24,1.17s-6.24-.52-6.24-1.17,2.79-1.17,6.24-1.17,6.24.52,6.24,1.17Z"/>
        <path class="cls-7" d="M60.64,99.78c0,.64-2.79,1.17-6.24,1.17s-6.24-.52-6.24-1.17,2.79-1.17,6.24-1.17,6.24.52,6.24,1.17Z"/>
        <g>
          <path class="cls-12" d="M24.11,69.84l25.08-27.66,38.18,10.09,27.57-15.49,35.07,35.84S161.38.24,87.07.77C12.76,1.31,24.11,69.84,24.11,69.84Z"/>
          <path class="cls-12" d="M81.77,38.85c0,13.3-10.78,24.08-24.08,24.08s-24.08-10.78-24.08-24.08,10.78-24.08,24.08-24.08,24.08,10.78,24.08,24.08Z"/>
          <path class="cls-12" d="M114.94,29.85c0,13.3-10.78,24.08-24.08,24.08s-24.08-10.78-24.08-24.08,10.78-24.08,24.08-24.08,24.08,10.78,24.08,24.08Z"/>
          <path class="cls-12" d="M145.02,40.79c0,13.3-10.78,24.08-24.08,24.08s-24.08-10.78-24.08-24.08,10.78-24.08,24.08-24.08,24.08,10.78,24.08,24.08Z"/>
          <path class="cls-12" d="M170.91,53.93c0,13.3-10.78,24.08-24.08,24.08s-24.08-10.78-24.08-24.08,10.78-24.08,24.08-24.08,24.08,10.78,24.08,24.08Z"/>
          <path class="cls-12" d="M48.16,60.87c0,13.3-10.78,24.08-24.08,24.08S0,74.17,0,60.87s10.78-24.08,24.08-24.08,24.08,10.78,24.08,24.08Z"/>
        </g>
        <path class="cls-2" d="M42.97,13.98s57.33,21.16,92.25,3.9c0,0-30.59-30.18-78.58-12.1-5.13,1.93-8.11,5.09-13.67,8.2Z"/>
        <path class="cls-9" d="M100.6,189.13l19.13-1.75s-.61,3.95-2.24,5.22c-1.64,1.27-13.68,2.14-15.72.45l-1.16-3.92Z"/>
        <path class="cls-9" d="M64.48,189.13l-19.13-1.75s.61,3.95,2.24,5.22c1.64,1.27,13.68,2.14,15.72.45l1.16-3.92Z"/>
        <circle class="cls-5" cx="19.88" cy="142.11" r="5"/>
        <path class="cls-3" d="M140.15,110.44s13,12.19,11.33,20.01c-1.67,7.82,9.49,18.56,13.16,10.56,3.67-8-5.83-23.65-5.83-23.65"/>
        <polygon class="cls-10" points="140.14 123.88 131.64 155.63 139.23 158.61 146.83 128.11 140.14 123.88"/>
        <path class="cls-10" d="M158.56,115.96c-3.89,5.8-8.62,9.01-12.15,7.66-3.53-1.35-4.91-6.9-3.94-13.81l-6.08-2.33c-4.05,10.57-1,21.57,6.8,24.55,7.8,2.99,17.41-3.17,21.45-13.74l-6.08-2.33Z"/>
        <path class="cls-4" d="M68.23,137.11h34.23s3.81,13.25-16.38,13.75c-20.19.5-17.86-13.75-17.86-13.75Z"/>
      </g>
      <path class="cls-8" d="M92.45,101.97c0,2.78-2.41,5.03-5.39,5.03s-5.39-2.25-5.39-5.03,2.41-2.13,5.39-2.13,5.39-.65,5.39,2.13Z"/>
    </g>
  </g>
</svg>