<?xml version="1.0" encoding="UTF-8"?>
<svg id="Layer_2" data-name="Layer 2" xmlns="http://www.w3.org/2000/svg" viewBox="0 0 150.1 186.7">
  <defs>
    <style>
      .cls-1 {
        fill: #ffe2cf;
      }

      .cls-2 {
        fill: #8acfd3;
      }

      .cls-3 {
        fill: #ff9d9d;
      }

      .cls-4 {
        fill: #fff;
      }

      .cls-5 {
        fill: #ffe6d5;
      }

      .cls-6 {
        fill: #f25c80;
      }

      .cls-6, .cls-7 {
        opacity: .3;
      }

      .cls-8 {
        fill: #a472a5;
      }

      .cls-9 {
        fill: #2a1c16;
      }

      .cls-10 {
        fill: none;
        stroke: #ff9d9d;
        stroke-miterlimit: 10;
      }

      .cls-11 {
        fill: #6c3534;
      }

      .cls-7 {
        fill: #f98787;
      }
    </style>
  </defs>
  <g id="OBJECTS">
    <g>
      <g>
        <g>
          <path class="cls-2" d="M22.24,27.91c-6.2,5.65-28.72,53.26-17.72,77.3,11,24.04-14.33,37.89,0,54.47,0,0,16.67,12.55,40.54,4.5,23.87-8.05,34.65-87.04,34.65-87.04"/>
          <path class="cls-2" d="M126.33,20.44c5.05,2.48,30.26,51.52,19.26,75.56-11,24.04,14.33,37.89,0,54.47,0,0-16.67,12.55-40.54,4.5-23.87-8.05-34.65-87.04-34.65-87.04"/>
          <path class="cls-5" d="M98.74,102.81l-24.34-2.05-24.33,2.05S6.41,124.6,10.34,136.53c3.92,11.93,18.25,5.22,20.41,4.1,2.16-1.12,1.77,43.42,7.85,44.73,6.08,1.3,14.33,1.68,14.92,0,.59-1.68,3.73-13.23,4.12-13.79.39-.56,15.11,0,15.11,0,0,0,14.72-.56,15.11,0s3.53,12.11,4.12,13.79c.59,1.68,8.83,1.3,14.92,0s5.69-45.84,7.85-44.73c2.16,1.12,16.49,7.83,20.41-4.1,3.93-11.93-36.42-33.72-36.42-33.72Z"/>
          <path class="cls-3" d="M49.44,102.92s-25.15,12.88-28.08,17.71c-2.52,4.16,9.58,20,9.58,20l2.44,21.31,78.97-.28,2.58-21.03s9.6-14.07,9.56-20.89c0,0-22.54-18.15-25.54-17.82s-49.51,1-49.51,1Z"/>
          <path class="cls-9" d="M109.54,79c0,5.25-2.01,6-4.5,6s-4.5-.75-4.5-6,2.01-9.5,4.5-9.5,4.5,4.25,4.5,9.5Z"/>
          <path class="cls-9" d="M50.79,79c0,5.25-2.01,6-4.5,6s-4.5-.75-4.5-6,2.01-9.5,4.5-9.5,4.5,4.25,4.5,9.5Z"/>
          <path class="cls-6" d="M122.02,91.75c0,.64-2.79,1.17-6.24,1.17s-6.24-.52-6.24-1.17,2.79-1.17,6.24-1.17,6.24.52,6.24,1.17Z"/>
          <path class="cls-6" d="M44.03,91.75c0,.64-2.79,1.17-6.24,1.17s-6.24-.52-6.24-1.17,2.79-1.17,6.24-1.17,6.24.52,6.24,1.17Z"/>
          <path class="cls-1" d="M89,106.12c0,5.83-6.77,10.55-15.12,10.55s-15.12-4.72-15.12-10.55,7.34-6.45,15.7-6.45,14.55.62,14.55,6.45Z"/>
          <path class="cls-5" d="M138.66,58.49c0,32.09-28.21,49.68-63,49.68S12.68,90.57,12.68,58.49,40.88.39,75.67.39s62.99,26.01,62.99,58.1Z"/>
          <path class="cls-8" d="M12.68,54.28S14.87,3.37,76.15.13c62.99-3.33,61.71,57.78,61.71,57.78l-33.55-30.3-25.38-11.28L12.68,54.28Z"/>
          <path class="cls-2" d="M75.44,28.76c5.69,36.41,54.47,8.44,50.47,48.5s-8.49,33.16-8.49,33.16c0,0,30.39-3.29,21.24-57.89C130.5,3.89,77.33,15.39,77.33,15.39c0,0-74.41-6.69-64.65,58.03,1.56,10.35,5.68,22.36,12.41,36.59,1.24,2.62,5.18,1.37,4.68-1.49-2.23-12.86-3.07-29.52,2.57-44.55,5.77-15.37,30.66-.48,43.09-35.22Z"/>
        </g>
        <g>
          <path class="cls-11" d="M102.07,79c0,5.25-2.01,6-4.5,6s-4.5-.75-4.5-6,2.01-9.5,4.5-9.5,4.5,4.25,4.5,9.5Z"/>
          <path class="cls-11" d="M56.07,79c0,5.25-2.01,6-4.5,6s-4.5-.75-4.5-6,2.01-9.5,4.5-9.5,4.5,4.25,4.5,9.5Z"/>
          <path class="cls-6" d="M117.37,90.59c0,.64-2.79,1.17-6.24,1.17s-6.24-.52-6.24-1.17,2.79-1.17,6.24-1.17,6.24.52,6.24,1.17Z"/>
          <path class="cls-6" d="M49.06,91.75c0,.64-2.79,1.17-6.24,1.17s-6.24-.52-6.24-1.17,2.79-1.17,6.24-1.17,6.24.52,6.24,1.17Z"/>
          <path class="cls-7" d="M82.71,92.78c0,2.78-2.41,5.03-5.39,5.03s-5.39-2.25-5.39-5.03,2.41-2.13,5.39-2.13,5.39-.65,5.39,2.13Z"/>
        </g>
        <path class="cls-8" d="M89.39,176.2l21.39-.63s1.41-11.8,1.58-13.92c.17-2.11-79.19-.62-79.19-.62,0,0,1.5,14.06,1.86,15.87.37,1.8,20.6,1.23,20.6,1.23l2.05-6.69h30.22l1.49,4.76Z"/>
        <path class="cls-4" d="M79.36,126.92h7.86l-8.57,9.57,9.35,10.84h-7.74l-5.5-6.9-5.54,6.9h-7.7l9.31-10.84-8.56-9.57h7.94l4.56,5.66,4.6-5.66Z"/>
        <path class="cls-3" d="M91.48,184.21s9.52,1.49,17.27-1.16c0,0-.17,1.41-1.63,2.19s-13.16,2.61-15.16.32l-.47-1.35Z"/>
        <path class="cls-10" d="M108.75,183.06s-6.21-4.33-17.27,1.02"/>
        <path class="cls-10" d="M36.48,182.94s6.31-4.27,17.37,1.08"/>
        <path class="cls-3" d="M53.85,184.23s-9.46,1.41-17.27-1.16c0,0,.17,1.41,1.63,2.19,1.46.78,13.16,2.61,15.16.32l.47-1.35Z"/>
        <g>
          <g>
            <path class="cls-4" d="M77.91,3.91c0,1.38-.33,2.49-.74,2.49s-.74-1.12-.74-2.49.33-2.49.74-2.49.74,1.12.74,2.49Z"/>
            <path class="cls-4" d="M75.85,4.07c.69,1.19.96,2.32.61,2.52-.35.2-1.19-.6-1.88-1.79-.69-1.19-.96-2.32-.61-2.52.35-.2,1.19.6,1.88,1.79Z"/>
            <path class="cls-4" d="M74.14,5.25c1.19.69,1.99,1.53,1.79,1.88-.2.35-1.33.08-2.52-.61-1.19-.69-1.99-1.53-1.79-1.88.2-.35,1.33-.08,2.52.61Z"/>
            <path class="cls-4" d="M73.25,7.12c1.38,0,2.49.33,2.49.74s-1.12.74-2.49.74-2.49-.33-2.49-.74,1.12-.74,2.49-.74Z"/>
            <path class="cls-4" d="M73.42,9.19c1.19-.69,2.32-.96,2.52-.61.2.35-.6,1.19-1.79,1.88-1.19.69-2.32.96-2.52.61-.2-.35.6-1.19,1.79-1.88Z"/>
            <path class="cls-4" d="M74.6,10.89c.69-1.19,1.53-1.99,1.88-1.79.35.2.08,1.33-.61,2.52-.69,1.19-1.53,1.99-1.88,1.79-.35-.2-.08-1.33.61-2.52Z"/>
            <path class="cls-4" d="M76.47,11.78c0-1.38.33-2.49.74-2.49s.74,1.12.74,2.49-.33,2.49-.74,2.49-.74-1.12-.74-2.49Z"/>
            <path class="cls-4" d="M78.53,11.62c-.69-1.19-.96-2.32-.61-2.52.35-.2,1.19.6,1.88,1.79.69,1.19.96,2.32.61,2.52-.35.2-1.19-.6-1.88-1.79Z"/>
            <path class="cls-4" d="M80.24,10.44c-1.19-.69-1.99-1.53-1.79-1.88.2-.35,1.33-.08,2.52.61,1.19.69,1.99,1.53,1.79,1.88-.2.35-1.33.08-2.52-.61Z"/>
            <path class="cls-4" d="M81.13,8.57c-1.38,0-2.49-.33-2.49-.74s1.12-.74,2.49-.74,2.49.33,2.49.74-1.12.74-2.49.74Z"/>
            <path class="cls-4" d="M80.96,6.5c-1.19.69-2.32.96-2.52.61-.2-.35.6-1.19,1.79-1.88,1.19-.69,2.32-.96,2.52-.61.2.35-.6,1.19-1.79,1.88Z"/>
            <path class="cls-4" d="M79.79,4.8c-.69,1.19-1.53,1.99-1.88,1.79-.35-.2-.08-1.33.61-2.52.69-1.19,1.53-1.99,1.88-1.79.35.2.08,1.33-.61,2.52Z"/>
          </g>
          <g>
            <path class="cls-4" d="M77.07,3.85c.4,1.32.41,2.48.02,2.6-.39.12-1.03-.85-1.43-2.17s-.41-2.48-.02-2.6c.39-.12,1.03.85,1.43,2.17Z"/>
            <path class="cls-4" d="M75.14,4.61c1,.94,1.59,1.94,1.31,2.24-.28.3-1.32-.23-2.32-1.17-1-.94-1.59-1.94-1.31-2.24.28-.3,1.32.23,2.32,1.17Z"/>
            <path class="cls-4" d="M73.85,6.23c1.34.31,2.35.89,2.26,1.28-.09.4-1.25.46-2.59.15-1.34-.31-2.35-.89-2.26-1.28.09-.4,1.25-.46,2.59-.15Z"/>
            <path class="cls-4" d="M73.54,8.28c1.32-.4,2.48-.41,2.6-.02.12.39-.85,1.03-2.17,1.43s-2.48.41-2.6.02c-.12-.39.85-1.03,2.17-1.43Z"/>
            <path class="cls-4" d="M74.3,10.21c.94-1,1.94-1.59,2.24-1.31.3.28-.23,1.32-1.17,2.32-.94,1-1.94,1.59-2.24,1.31-.3-.28.23-1.32,1.17-2.32Z"/>
            <path class="cls-4" d="M75.92,11.5c.31-1.34.89-2.35,1.28-2.26.4.09.46,1.25.15,2.59-.31,1.34-.89,2.35-1.28,2.26-.4-.09-.46-1.25-.15-2.59Z"/>
            <path class="cls-4" d="M77.97,11.81c-.4-1.32-.41-2.48-.02-2.6.39-.12,1.03.85,1.43,2.17s.41,2.48.02,2.6c-.39.12-1.03-.85-1.43-2.17Z"/>
            <path class="cls-4" d="M79.9,11.05c-1-.94-1.59-1.94-1.31-2.24s1.32.23,2.32,1.17,1.59,1.94,1.31,2.24c-.28.3-1.32-.23-2.32-1.17Z"/>
            <path class="cls-4" d="M81.19,9.43c-1.34-.31-2.35-.89-2.26-1.28.09-.4,1.25-.46,2.59-.15,1.34.31,2.35.89,2.26,1.28s-1.25.46-2.59.15Z"/>
            <path class="cls-4" d="M81.5,7.38c-1.32.4-2.48.41-2.6.02-.12-.39.85-1.03,2.17-1.43s2.48-.41,2.6-.02c.12.39-.85,1.03-2.17,1.43Z"/>
            <path class="cls-4" d="M80.74,5.45c-.94,1-1.94,1.59-2.24,1.31-.3-.28.23-1.32,1.17-2.32.94-1,1.94-1.59,2.24-1.31.3.28-.23,1.32-1.17,2.32Z"/>
            <path class="cls-4" d="M79.12,4.16c-.31,1.34-.89,2.35-1.28,2.26-.4-.09-.46-1.25-.15-2.59.31-1.34.89-2.35,1.28-2.26s.46,1.25.15,2.59Z"/>
          </g>
          <path class="cls-3" d="M79.79,7.52c0,1.44-1.17,2.61-2.61,2.61s-2.61-1.17-2.61-2.61,1.17-2.61,2.61-2.61,2.61,1.17,2.61,2.61Z"/>
        </g>
      </g>
      <g>
        <g>
          <path class="cls-4" d="M99.85,7.42c0,.76-.18,1.38-.41,1.38s-.41-.62-.41-1.38.18-1.38.41-1.38.41.62.41,1.38Z"/>
          <path class="cls-4" d="M98.71,7.51c.38.66.53,1.28.34,1.4-.19.11-.66-.33-1.04-.99-.38-.66-.53-1.28-.34-1.4s.66.33,1.04.99Z"/>
          <path class="cls-4" d="M97.76,8.16c.66.38,1.1.85.99,1.04-.11.19-.74.04-1.4-.34-.66-.38-1.1-.85-.99-1.04s.74-.04,1.4.34Z"/>
          <path class="cls-4" d="M97.27,9.19c.76,0,1.38.18,1.38.41s-.62.41-1.38.41-1.38-.18-1.38-.41.62-.41,1.38-.41Z"/>
          <path class="cls-4" d="M97.36,10.34c.66-.38,1.28-.53,1.4-.34.11.19-.33.66-.99,1.04-.66.38-1.28.53-1.4.34-.11-.19.33-.66.99-1.04Z"/>
          <path class="cls-4" d="M98.02,11.28c.38-.66.85-1.1,1.04-.99.19.11.04.74-.34,1.4s-.85,1.1-1.04.99c-.19-.11-.04-.74.34-1.4Z"/>
          <path class="cls-4" d="M99.05,11.77c0-.76.18-1.38.41-1.38s.41.62.41,1.38-.18,1.38-.41,1.38-.41-.62-.41-1.38Z"/>
          <path class="cls-4" d="M100.19,11.68c-.38-.66-.53-1.28-.34-1.4.19-.11.66.33,1.04.99.38.66.53,1.28.34,1.4-.19.11-.66-.33-1.04-.99Z"/>
          <path class="cls-4" d="M101.14,11.03c-.66-.38-1.1-.85-.99-1.04.11-.19.74-.04,1.4.34.66.38,1.1.85.99,1.04-.11.19-.74.04-1.4-.34Z"/>
          <path class="cls-4" d="M101.63,9.99c-.76,0-1.38-.18-1.38-.41s.62-.41,1.38-.41,1.38.18,1.38.41-.62.41-1.38.41Z"/>
          <path class="cls-4" d="M101.54,8.85c-.66.38-1.28.53-1.4.34-.11-.19.33-.66.99-1.04.66-.38,1.28-.53,1.4-.34.11.19-.33.66-.99,1.04Z"/>
          <path class="cls-4" d="M100.89,7.91c-.38.66-.85,1.1-1.04.99-.19-.11-.04-.74.34-1.4s.85-1.1,1.04-.99c.19.11.04.74-.34,1.4Z"/>
        </g>
        <g>
          <path class="cls-4" d="M99.38,7.39c.22.73.22,1.37,0,1.44-.22.07-.57-.47-.79-1.2s-.22-1.37,0-1.44c.22-.07.57.47.79,1.2Z"/>
          <path class="cls-4" d="M98.32,7.8c.55.52.88,1.08.73,1.24-.15.16-.73-.13-1.28-.65-.55-.52-.88-1.08-.73-1.24.15-.16.73.13,1.28.65Z"/>
          <path class="cls-4" d="M97.6,8.7c.74.17,1.3.49,1.25.71s-.69.26-1.43.08c-.74-.17-1.3-.49-1.25-.71.05-.22.69-.26,1.43-.08Z"/>
          <path class="cls-4" d="M97.43,9.83c.73-.22,1.37-.22,1.44,0,.07.22-.47.57-1.2.79-.73.22-1.37.22-1.44,0-.06-.22.47-.57,1.2-.79Z"/>
          <path class="cls-4" d="M97.85,10.9c.52-.55,1.08-.88,1.24-.73s-.13.73-.65,1.28c-.52.55-1.08.88-1.24.73-.16-.15.13-.73.65-1.28Z"/>
          <path class="cls-4" d="M98.75,11.62c.17-.74.49-1.3.71-1.25s.26.69.08,1.43c-.17.74-.49,1.3-.71,1.25-.22-.05-.26-.69-.08-1.43Z"/>
          <path class="cls-4" d="M99.88,11.79c-.22-.73-.22-1.37,0-1.44.22-.07.57.47.79,1.2.22.73.22,1.37,0,1.44-.22.07-.57-.47-.79-1.2Z"/>
          <path class="cls-4" d="M100.95,11.37c-.55-.52-.88-1.08-.73-1.24.15-.16.73.13,1.28.65.55.52.88,1.08.73,1.24-.15.16-.73-.13-1.28-.65Z"/>
          <path class="cls-4" d="M101.66,10.47c-.74-.17-1.3-.49-1.25-.71.05-.22.69-.26,1.43-.08.74.17,1.3.49,1.25.71-.05.22-.69.26-1.43.08Z"/>
          <path class="cls-4" d="M101.83,9.34c-.73.22-1.37.22-1.44,0-.07-.22.47-.57,1.2-.79.73-.22,1.37-.22,1.44,0s-.47.57-1.2.79Z"/>
          <path class="cls-4" d="M101.41,8.27c-.52.55-1.08.88-1.24.73s.13-.73.65-1.28c.52-.55,1.08-.88,1.24-.73s-.13.73-.65,1.28Z"/>
          <path class="cls-4" d="M100.52,7.56c-.17.74-.49,1.3-.71,1.25-.22-.05-.26-.69-.08-1.43.17-.74.49-1.3.71-1.25.22.05.26.69.08,1.43Z"/>
        </g>
        <path class="cls-3" d="M100.89,9.41c0,.8-.65,1.44-1.44,1.44s-1.44-.65-1.44-1.44.65-1.44,1.44-1.44,1.44.65,1.44,1.44Z"/>
      </g>
      <g>
        <g>
          <path class="cls-4" d="M57.56,8.68c0,.76-.18,1.38-.41,1.38s-.41-.62-.41-1.38.18-1.38.41-1.38.41.62.41,1.38Z"/>
          <path class="cls-4" d="M56.42,8.77c.38.66.53,1.28.34,1.4-.19.11-.66-.33-1.04-.99-.38-.66-.53-1.28-.34-1.4.19-.11.66.33,1.04.99Z"/>
          <path class="cls-4" d="M55.48,9.42c.66.38,1.1.85.99,1.04-.11.19-.74.04-1.4-.34-.66-.38-1.1-.85-.99-1.04.11-.19.74-.04,1.4.34Z"/>
          <ellipse class="cls-4" cx="54.99" cy="10.86" rx="1.38" ry=".41"/>
          <path class="cls-4" d="M55.08,11.6c.66-.38,1.28-.53,1.4-.34.11.19-.33.66-.99,1.04s-1.28.53-1.4.34c-.11-.19.33-.66.99-1.04Z"/>
          <path class="cls-4" d="M55.73,12.54c.38-.66.85-1.1,1.04-.99.19.11.04.74-.34,1.4-.38.66-.85,1.1-1.04.99-.19-.11-.04-.74.34-1.4Z"/>
          <path class="cls-4" d="M56.77,13.03c0-.76.18-1.38.41-1.38s.41.62.41,1.38-.18,1.38-.41,1.38-.41-.62-.41-1.38Z"/>
          <path class="cls-4" d="M57.91,12.94c-.38-.66-.53-1.28-.34-1.4.19-.11.66.33,1.04.99.38.66.53,1.28.34,1.4-.19.11-.66-.33-1.04-.99Z"/>
          <path class="cls-4" d="M58.85,12.29c-.66-.38-1.1-.85-.99-1.04.11-.19.74-.04,1.4.34.66.38,1.1.85.99,1.04-.11.19-.74.04-1.4-.34Z"/>
          <path class="cls-4" d="M59.34,11.26c-.76,0-1.38-.18-1.38-.41s.62-.41,1.38-.41,1.38.18,1.38.41-.62.41-1.38.41Z"/>
          <path class="cls-4" d="M59.25,10.11c-.66.38-1.28.53-1.4.34-.11-.19.33-.66.99-1.04.66-.38,1.28-.53,1.4-.34.11.19-.33.66-.99,1.04Z"/>
          <path class="cls-4" d="M58.6,9.17c-.38.66-.85,1.1-1.04.99-.19-.11-.04-.74.34-1.4.38-.66.85-1.1,1.04-.99.19.11.04.74-.34,1.4Z"/>
        </g>
        <g>
          <path class="cls-4" d="M57.1,8.65c.22.73.22,1.37,0,1.44-.22.07-.57-.47-.79-1.2-.22-.73-.22-1.37,0-1.44.21-.07.57.47.79,1.2Z"/>
          <path class="cls-4" d="M56.03,9.07c.55.52.88,1.08.73,1.24-.15.16-.73-.13-1.28-.65-.55-.52-.88-1.08-.73-1.24.15-.16.73.13,1.28.65Z"/>
          <path class="cls-4" d="M55.32,9.96c.74.17,1.3.49,1.25.71s-.69.26-1.43.08c-.74-.17-1.3-.49-1.25-.71s.69-.26,1.43-.08Z"/>
          <path class="cls-4" d="M55.15,11.1c.73-.22,1.37-.22,1.44,0,.06.21-.47.57-1.2.79-.73.22-1.37.22-1.44,0-.07-.22.47-.57,1.2-.79Z"/>
          <path class="cls-4" d="M55.56,12.16c.52-.55,1.08-.88,1.24-.73.16.15-.13.73-.65,1.28-.52.55-1.08.88-1.24.73-.16-.15.13-.73.65-1.28Z"/>
          <path class="cls-4" d="M56.46,12.88c.17-.74.49-1.3.71-1.25s.26.69.08,1.43c-.17.74-.49,1.3-.71,1.25s-.26-.69-.08-1.43Z"/>
          <path class="cls-4" d="M57.59,13.05c-.22-.73-.22-1.37,0-1.44.22-.07.57.47.79,1.2s.22,1.37,0,1.44c-.22.07-.57-.47-.79-1.2Z"/>
          <path class="cls-4" d="M58.66,12.63c-.55-.52-.88-1.08-.73-1.24.15-.16.73.13,1.28.65.55.52.88,1.08.73,1.24-.15.16-.73-.13-1.28-.65Z"/>
          <path class="cls-4" d="M59.38,11.73c-.74-.17-1.3-.49-1.25-.71.05-.22.69-.26,1.43-.08.74.17,1.3.49,1.25.71s-.69.26-1.43.08Z"/>
          <path class="cls-4" d="M59.55,10.6c-.73.22-1.37.22-1.44,0-.06-.22.47-.57,1.2-.79.73-.22,1.37-.22,1.44,0,.06.22-.47.57-1.2.79Z"/>
          <path class="cls-4" d="M59.13,9.53c-.52.55-1.08.88-1.24.73-.16-.15.13-.73.65-1.28s1.08-.88,1.24-.73-.13.73-.65,1.28Z"/>
          <path class="cls-4" d="M58.23,8.82c-.17.74-.49,1.3-.71,1.25-.22-.05-.26-.69-.08-1.43.17-.74.49-1.3.71-1.25.22.05.26.69.08,1.43Z"/>
        </g>
        <path class="cls-3" d="M58.6,10.68c0,.8-.65,1.44-1.44,1.44s-1.44-.65-1.44-1.44.65-1.44,1.44-1.44,1.44.65,1.44,1.44Z"/>
      </g>
    </g>
  </g>
</svg>