<?xml version="1.0" encoding="UTF-8"?>
<svg id="Layer_2" data-name="Layer 2" xmlns="http://www.w3.org/2000/svg" viewBox="0 0 134.75 187.41">
  <defs>
    <style>
      .cls-1 {
        fill: #ffe2cf;
      }

      .cls-2 {
        fill: #424242;
      }

      .cls-3 {
        fill: #393734;
      }

      .cls-4 {
        fill: #ffb339;
      }

      .cls-5 {
        fill: #c94733;
      }

      .cls-6 {
        fill: #ffe6d5;
      }

      .cls-7 {
        fill: #f25c80;
      }

      .cls-7, .cls-8 {
        opacity: .3;
      }

      .cls-9 {
        fill: #6c3534;
      }

      .cls-8 {
        fill: #f98787;
      }
    </style>
  </defs>
  <g id="OBJECTS">
    <g>
      <g>
        <path class="cls-3" d="M6.43,56.21s-14.68,103.86.32,120.35c15,16.49,113.46,11.62,121.49,2.33,9.67-11.17,5.69-118.19,5.69-118.19"/>
        <g>
          <path class="cls-1" d="M93.79,103.53l-24.34-2.05-24.34,2.05S1.46,125.33,5.39,137.25c3.93,11.93,18.25,5.22,20.41,4.1,2.16-1.12,1.77,43.42,7.85,44.73,6.08,1.3,14.33,1.68,14.92,0,.59-1.68,3.88-14.5,4.27-15.06s15.31.31,15.31.31c0,0,14.37.4,14.76.96.39.56,3.53,12.11,4.12,13.79.59,1.68,8.83,1.3,14.92,0,6.08-1.3,5.69-45.84,7.85-44.73,2.16,1.12,16.49,7.83,20.41-4.1,3.92-11.93-36.42-33.72-36.42-33.72Z"/>
          <path class="cls-5" d="M54.83,102.24s-5.75,17.75,5.75,20,31.5,0,27.25-20l7.81,1.7,14.17,37.16-3.4,30.82-24.58.34-30.21-.38-22.61-1.31-3.2-29.47s16.4-33.41,17.08-37.39c.68-3.98,11.93-1.48,11.93-1.48Z"/>
          <path class="cls-6" d="M133.7,59.21c0,32.09-28.2,48.65-62.99,48.65S7.72,91.29,7.72,59.21,35.93,1.11,70.71,1.11s62.99,26.01,62.99,58.1Z"/>
          <path class="cls-4" d="M50.59,133.26h34.23s3.81,13.25-16.38,13.75-17.86-13.75-17.86-13.75Z"/>
        </g>
        <path class="cls-3" d="M9.15,79.89L75.97,31.78l54.5,48.11s2.86-9.04,3.47-19.19C135.27,38.38,127.37,1.74,71.03,0c-.02,0-12.12-.32-23.77,3.99C24.81,12.3-4.2,38.18,9.9,76.27"/>
        <path class="cls-5" d="M85.87,182.56l19.13-1.75s-.61,3.95-2.24,5.22c-1.64,1.27-13.68,2.14-15.72.45l-1.16-3.92Z"/>
        <path class="cls-5" d="M49.74,182.56l-19.13-1.75s.61,3.95,2.24,5.22c1.64,1.27,13.68,2.14,15.72.45l1.16-3.92Z"/>
        <path class="cls-4" d="M32.29,28.78c8.64,3.7,10.6,19.05,6.11,20.61-4.49,1.56-16.43-2.3-16.43-2.3l-3.52-4.28s6.8-17.04,13.84-14.03Z"/>
        <path class="cls-4" d="M1.25,51.35c.48,9.39,14.19,16.55,17.21,12.88,3.02-3.67,3.54-16.21,3.54-16.21l-2.79-4.79s-18.34.47-17.96,8.12Z"/>
        <path class="cls-5" d="M25.1,43.18c1.52,2.18.98,5.19-1.2,6.71-2.18,1.52-5.19.98-6.71-1.2-1.52-2.18-.98-5.19,1.2-6.71,2.18-1.52,5.19-.98,6.71,1.2Z"/>
      </g>
      <path class="cls-2" d="M28.55,13.98s57.33,21.16,92.25,3.9c0,0-30.59-30.18-78.58-12.1-5.13,1.93-8.1,5.09-13.67,8.2Z"/>
      <path class="cls-9" d="M96.74,78.67c0,5.25-2.01,6-4.5,6s-4.5-.75-4.5-6,2.01-9.5,4.5-9.5,4.5,4.25,4.5,9.5Z"/>
      <path class="cls-9" d="M51.01,78.67c0,5.25-2.01,6-4.5,6s-4.5-.75-4.5-6,2.01-9.5,4.5-9.5,4.5,4.25,4.5,9.5Z"/>
      <path class="cls-7" d="M108.83,89.08c0,.64-2.79,1.17-6.24,1.17s-6.24-.52-6.24-1.17,2.79-1.17,6.24-1.17,6.24.52,6.24,1.17Z"/>
      <path class="cls-7" d="M43.9,90.25c0,.64-2.79,1.17-6.24,1.17s-6.24-.52-6.24-1.17,2.79-1.17,6.24-1.17,6.24.52,6.24,1.17Z"/>
      <path class="cls-8" d="M75.72,92.44c0,2.78-2.41,5.03-5.39,5.03s-5.39-2.25-5.39-5.03,2.41-2.13,5.39-2.13,5.39-.65,5.39,2.13Z"/>
    </g>
  </g>
</svg>