<?xml version="1.0" encoding="UTF-8"?>
<svg id="Layer_2" data-name="Layer 2" xmlns="http://www.w3.org/2000/svg" viewBox="0 0 118.39 187.05">
  <defs>
    <style>
      .cls-1 {
        fill: #e69b81;
      }

      .cls-2 {
        fill: #695756;
      }

      .cls-3 {
        fill: #fa757c;
      }

      .cls-4 {
        fill: #6e5b5a;
      }

      .cls-5 {
        fill: #403f38;
      }

      .cls-6 {
        stroke-width: 2.69px;
      }

      .cls-6, .cls-7 {
        fill: none;
        stroke: #383731;
        stroke-linecap: round;
        stroke-linejoin: round;
      }

      .cls-8 {
        fill: #2e2e27;
      }

      .cls-9 {
        fill: #806a69;
      }

      .cls-10 {
        fill: #383731;
      }

      .cls-11 {
        fill: #f69a79;
      }

      .cls-12 {
        fill: #f6ae94;
      }

      .cls-13 {
        fill: #262621;
      }

      .cls-14 {
        fill: #ebc1c0;
      }

      .cls-7 {
        stroke-width: 2.64px;
      }
    </style>
  </defs>
  <g id="OBJECTS">
    <g>
      <g>
        <g>
          <path class="cls-10" d="M90.25,174.64c1.17,5.32,6.42,8.68,11.74,7.52h0c5.28-1.16,8.63-6.36,7.53-11.64l-19.42,3.46.15.66Z"/>
          <path class="cls-13" d="M93.81,173.93l-.13-.59-3.58.64.15.66c1.17,5.32,6.42,8.68,11.74,7.52h0c.53-.12,1.04-.28,1.53-.48-4.56.04-8.69-3.11-9.71-7.75Z"/>
          <path class="cls-10" d="M105.85,153.74c-.28-1.29-1.56-2.11-2.85-1.82l-14.59,3.2c-1.29.28-2.11,1.56-1.82,2.85l2.66,12.12,19.43-3.46-2.83-12.89Z"/>
          <path class="cls-13" d="M90.16,157.97c-.28-1.29.53-2.57,1.82-2.85l12.89-2.83c-.53-.36-1.19-.52-1.87-.37l-14.59,3.2c-1.29.28-2.11,1.56-1.82,2.85l2.66,12.12,3.43-.61-2.53-11.51Z"/>
          <path class="cls-12" d="M108.68,166.63l-19.43,3.46.85,3.88,19.42-3.46s0-.07-.02-.1l-.83-3.78Z"/>
          <path class="cls-1" d="M93.49,173.32l-.84-3.83-3.4.6.85,3.88,19.42-3.46s0-.03,0-.05l-16.03,2.85Z"/>
        </g>
        <g>
          <path class="cls-10" d="M56.51,177.19c0,5.45,4.41,9.86,9.86,9.86s9.86-4.41,9.86-9.86v-1.45l-19.72-.1v1.54Z"/>
          <path class="cls-13" d="M60.36,177.19v-1.52l-3.85-.02v1.54c0,5.45,4.41,9.86,9.86,9.86.66,0,1.3-.07,1.92-.19-4.52-.9-7.94-4.88-7.94-9.67Z"/>
          <path class="cls-10" d="M76.23,160.12c0-1.32-1.07-2.39-2.39-2.39h-14.94c-1.32,0-2.39,1.07-2.39,2.39v12.81l19.72.1v-12.9Z"/>
          <path class="cls-13" d="M60.35,172.93v-12.81c0-1.32,1.07-2.39,2.39-2.39h-3.84c-1.32,0-2.39,1.07-2.39,2.39v12.81l19.72.1v-.02l-15.88-.08Z"/>
          <polygon class="cls-12" points="56.51 172.93 56.51 175.65 76.23 175.74 76.23 173.02 56.51 172.93"/>
          <polygon class="cls-1" points="56.51 172.93 56.51 175.65 60.36 175.74 60.36 173.02 56.51 172.93"/>
        </g>
      </g>
      <g>
        <path class="cls-9" d="M49.76,108.99h0c-3.5-3.94-9.54-4.3-13.48-.8l-16.99,15.09c-3.94,3.5-4.3,9.53-.8,13.48h0c3.5,3.94,9.53,4.3,13.48.8l16.99-15.09c3.94-3.5,4.3-9.53.8-13.48Z"/>
        <path class="cls-12" d="M19.29,123.28c-3.94,3.5-4.3,9.53-.8,13.48,3.5,3.94,9.53,4.3,13.48.8l2.04-1.81-12.63-14.32-2.09,1.85Z"/>
        <path class="cls-1" d="M30.97,132.3l-.43.38c-3.94,3.5-9.98,3.14-13.48-.8-.37-.42-.69-.86-.97-1.32.03,2.2.82,4.41,2.4,6.19,3.5,3.94,9.53,4.3,13.48.8l2.04-1.81-3.04-3.44Z"/>
        <path class="cls-9" d="M49.76,108.99c-3.5-3.94-9.53-4.3-13.48-.8l-14.91,13.23,12.63,14.32,14.95-13.28c3.94-3.5,4.3-9.53.8-13.48Z"/>
        <path class="cls-4" d="M49.76,108.99c-.5-.56-1.06-1.05-1.65-1.46,1.48,3.64.61,7.97-2.5,10.73l-14.95,13.28-9.08-10.3-.2.18,12.63,14.32,14.95-13.28c3.94-3.5,4.3-9.53.8-13.48Z"/>
      </g>
      <g>
        <path class="cls-9" d="M96.65,158.29l-36.4,4.4c-8.76,1.06-16.51-5.7-16.65-14.52l-.78-47.45,54.37-6.58,12.06,45.58c2.31,8.73-3.63,17.48-12.59,18.56Z"/>
        <path class="cls-4" d="M102.89,150.12h0c-28.22,3.41-53.19-18.35-53.66-46.78l-.06-3.39-6.36.77.78,47.45c.14,8.82,7.89,15.58,16.65,14.52l36.4-4.4c6.07-.73,10.74-4.99,12.41-10.37-1.8,1.14-3.89,1.92-6.17,2.2Z"/>
        <path class="cls-14" d="M75.7,121.76l.65,1.99c.22.69.86,1.15,1.58,1.15h2.09c1.61,0,2.28,2.06.98,3.01l-1.69,1.23c-.58.42-.83,1.17-.6,1.86l.65,1.99c.5,1.53-1.26,2.81-2.56,1.86l-1.69-1.23c-.58-.42-1.37-.42-1.96,0l-1.69,1.23c-1.3.95-3.06-.33-2.56-1.86l.65-1.99c.22-.69-.02-1.44-.6-1.86l-1.69-1.23c-1.3-.95-.63-3.01.98-3.01h2.09c.72,0,1.36-.46,1.58-1.15l.65-1.99c.5-1.53,2.67-1.53,3.16,0Z"/>
      </g>
      <g>
        <path class="cls-12" d="M81.38,104.95l-22.59,4.96c-21.07,4.62-41.89-8.71-46.51-29.77h0c-5.72-26.08,10.78-51.86,36.86-57.59l4.43-.97c26.08-5.72,51.86,10.78,57.59,36.86h0c4.62,21.07-8.71,41.89-29.77,46.51Z"/>
        <path class="cls-1" d="M106.56,46c.72,1.99,1.34,4.05,1.8,6.18h0c4.62,21.07-8.71,41.89-29.77,46.51l-22.59,4.96c-17.24,3.78-34.31-4.46-42.48-19.13,6.36,18.49,25.71,29.68,45.27,25.39l22.59-4.96c21.07-4.62,34.4-25.45,29.77-46.51h0c-.98-4.45-2.55-8.61-4.6-12.44Z"/>
      </g>
      <g>
        <g>
          <path class="cls-9" d="M105.99,120.51l-2.02,1.11c-5.07,2.78-11.43.76-13.97-4.43l-9.92-20.29c-2.38-4.86-.51-10.73,4.24-13.33h0c4.71-2.58,10.62-1.03,13.45,3.53l11.94,19.18c3.07,4.93,1.37,11.43-3.73,14.23Z"/>
          <path class="cls-2" d="M105.02,113.55l-2.02,1.11c-5.07,2.78-11.43.76-13.97-4.43l-9.74-19.93c-.47,2.16-.25,4.48.79,6.61l9.92,20.29c2.54,5.19,8.9,7.21,13.97,4.43l2.02-1.11c4.9-2.69,6.65-8.81,4.04-13.66-.61,2.74-2.33,5.23-5,6.69Z"/>
        </g>
        <g>
          <path class="cls-12" d="M97.78,87.11c-2.84-4.56-8.74-6.11-13.45-3.53-4.75,2.6-6.61,8.47-4.24,13.33l2.78,5.69,17.39-11.51-2.48-3.98Z"/>
          <path class="cls-1" d="M80.13,97c-.13-3.71,1.79-7.34,5.25-9.23,4.71-2.58,10.62-1.03,13.45,3.53l.32.52,1.1-.73-2.48-3.98c-2.84-4.56-8.74-6.11-13.45-3.53-4.75,2.6-6.61,8.47-4.24,13.33l.05.09Z"/>
        </g>
      </g>
      <g>
        <g>
          <path class="cls-10" d="M91.57,29.15S32.98,86.77,6.59,67.38C-17.89,49.4,30.13-8.66,80.1,1.1c3.14.61,3.25,5.05.18,5.91-6.25,1.75-13.5,4.65-17.48,9.28,0,0,31.08-15.29,46.95,10.82,15.09,24.84,5.85,25.06,5.85,25.06,0,0-7.5-8.16-9.03-6.17,0,0,6.83,10.33,5.51,18.48,0,0-28.22-4.42-20.5-35.33Z"/>
          <g>
            <path class="cls-8" d="M80.28,14.23c-6.25,1.75-13.5,4.65-17.48,9.28,0,0,31.08-15.29,46.95,10.82,4.59,7.55,6.92,12.82,7.95,16.5,1.41-2.22,1.54-8.1-7.95-23.72-7.36-12.11-17.99-15.31-27.28-15.26-.19,1.06-.91,2.03-2.18,2.39Z"/>
            <path class="cls-8" d="M90.29,37.6c-.08,1.82-.02,3.51.17,5.1.21-1.98.56-4.08,1.12-6.33,0,0-.46.45-1.29,1.24Z"/>
            <path class="cls-8" d="M77.44,7.87c.96-.31,1.91-.6,2.83-.86,3.08-.86,2.96-5.3-.18-5.91C37.35-7.25-3.96,34.03.31,57.4,3.96,34.27,39.78,2.29,77.44,7.87Z"/>
            <path class="cls-8" d="M106.56,53.22s3.45,5.21,4.97,11.16c.34.07.54.1.54.1.5-3.11-.18-6.54-1.22-9.59-1.82-1.48-3.63-2.54-4.29-1.67Z"/>
          </g>
          <g>
            <path class="cls-5" d="M109.1,38.8s3.78,5.71,5.17,12c.8.8,1.32,1.37,1.32,1.37,0,0,4.03-.1,2.42-7.33-.96-1.03-7.49-7.89-8.91-6.04Z"/>
            <path class="cls-5" d="M94.11,21.95S35.52,79.57,9.13,60.19c-6.11-4.49-7.7-11.47-5.88-19.27-4.91,10.58-4.6,20.63,3.34,26.47,26.39,19.39,84.98-38.24,84.98-38.24-7.73,30.91,20.5,35.33,20.5,35.33.42-2.59.02-5.4-.73-8.03-7.19-2.29-23.3-10.22-17.23-34.5Z"/>
          </g>
        </g>
        <g>
          <path class="cls-10" d="M6.59,57.87s-11.46,29.3,13.55,38.54c0,0,10.63-28.67-5.29-45.15-15.92-16.48-8.26,3.74-8.26,3.74v2.88Z"/>
          <path class="cls-5" d="M14.85,51.26c-6.54-6.77-9.1-7.35-9.85-5.68,1.22,1,2.69,2.37,4.44,4.18,14.23,14.73,7.26,39.18,5.61,44.22,1.5.91,3.19,1.73,5.09,2.44,0,0,10.63-28.67-5.29-45.16Z"/>
        </g>
      </g>
      <g>
        <g>
          <path class="cls-10" d="M66.98,87.75c3.68-.97,6.32-3.91,7.08-7.39.4-1.85-1.57-3.28-3.19-2.3-1.45.88-3.27,1.75-5.45,2.35-2.18.61-4.21.81-5.93.81-1.93,0-2.86,2.36-1.46,3.69,2.62,2.48,5.98,3.62,8.96,2.84Z"/>
          <path class="cls-3" d="M65.65,82.65c-2.22.58-3.73,2.5-3.91,4.67,1.74.69,3.56.87,5.25.43,1.8-.47,3.34-1.42,4.55-2.66-1.16-1.99-3.54-3.05-5.88-2.44Z"/>
        </g>
        <g>
          <path class="cls-11" d="M46.2,79.88c.54,1.73-1.82,4.02-5.29,5.11-3.46,1.09-6.71.57-7.26-1.17-.54-1.73,1.82-4.02,5.29-5.11,3.46-1.09,6.71-.57,7.26,1.17Z"/>
          <path class="cls-11" d="M92.82,65.24c.54,1.73-1.82,4.02-5.29,5.11-3.46,1.09-6.71.57-7.26-1.17-.54-1.73,1.82-4.02,5.29-5.11,3.46-1.09,6.71-.57,7.26,1.17Z"/>
        </g>
        <g>
          <path class="cls-6" d="M33.43,75.34s5.84-9.78,15.44-4.85"/>
          <path class="cls-7" d="M70.65,63.65s5.55-9.69,14.87-4.67"/>
        </g>
      </g>
    </g>
  </g>
</svg>