<?xml version="1.0" encoding="UTF-8"?>
<svg id="Layer_2" data-name="Layer 2" xmlns="http://www.w3.org/2000/svg" viewBox="0 0 116.49 181.71">
  <defs>
    <style>
      .cls-1 {
        fill: #e69b81;
      }

      .cls-2 {
        fill: #fff;
      }

      .cls-3 {
        fill: #fa757c;
      }

      .cls-4 {
        fill: #735f5e;
      }

      .cls-5 {
        fill: #fca9c8;
      }

      .cls-6 {
        fill: #fa676e;
      }

      .cls-7 {
        fill: #806a69;
      }

      .cls-8 {
        stroke: #fcbcd4;
        stroke-width: 5.64px;
      }

      .cls-8, .cls-9 {
        fill: none;
        stroke-linecap: round;
        stroke-linejoin: round;
      }

      .cls-10 {
        fill: #fcbcd4;
      }

      .cls-11 {
        fill: #f25e65;
      }

      .cls-12 {
        fill: #fa5059;
      }

      .cls-13 {
        fill: #383731;
      }

      .cls-14 {
        fill: #f69a79;
      }

      .cls-15 {
        fill: #f6ae94;
      }

      .cls-16 {
        fill: #e03941;
      }

      .cls-17 {
        fill: #ffe3ed;
      }

      .cls-18 {
        fill: #c9333a;
      }

      .cls-9 {
        stroke: #383731;
        stroke-width: .88px;
      }
    </style>
  </defs>
  <g id="OBJECTS">
    <g>
      <g>
        <g>
          <path class="cls-7" d="M46.55,181.71h0c-5.45,0-9.86-4.41-9.86-9.86v-17.07c0-1.32,1.07-2.39,2.39-2.39h14.94c1.32,0,2.39,1.07,2.39,2.39v17.07c0,5.44-4.41,9.86-9.86,9.86Z"/>
          <path class="cls-4" d="M40.31,171.86v-17.07c0-1.32,1.07-2.39,2.39-2.39h-3.62c-1.32,0-2.39,1.07-2.39,2.39v17.07c0,5.45,4.41,9.86,9.86,9.86.62,0,1.22-.06,1.81-.17-4.58-.85-8.05-4.86-8.05-9.69Z"/>
          <rect class="cls-15" x="36.7" y="162.3" width="19.72" height="8.72"/>
          <rect class="cls-1" x="36.7" y="162.3" width="3.62" height="8.72"/>
        </g>
        <g>
          <path class="cls-7" d="M73.4,181.71h0c-5.45,0-9.86-4.41-9.86-9.86v-17.07c0-1.32,1.07-2.39,2.39-2.39h14.94c1.32,0,2.39,1.07,2.39,2.39v17.07c0,5.44-4.41,9.86-9.86,9.86Z"/>
          <path class="cls-4" d="M67.16,171.86v-17.07c0-1.32,1.07-2.39,2.39-2.39h-3.62c-1.32,0-2.39,1.07-2.39,2.39v17.07c0,5.45,4.41,9.86,9.86,9.86.62,0,1.22-.06,1.81-.17-4.58-.85-8.05-4.86-8.05-9.69Z"/>
          <rect class="cls-15" x="63.54" y="162.3" width="19.72" height="8.72"/>
          <rect class="cls-1" x="63.54" y="162.3" width="3.62" height="8.72"/>
        </g>
      </g>
      <g>
        <path class="cls-15" d="M59.04,116.7c14.57,0,15.82-12.8,15.2-20.72h-29.01c-1.36,6.35-2.62,20.72,13.82,20.72Z"/>
        <g>
          <g>
            <g>
              <path class="cls-15" d="M90.82,129.27l-3.59-25.77c-.43-3.06-2.41-5.56-5.09-6.75-2.51,8.38-4.04,22.43,8.67,32.52Z"/>
              <path class="cls-15" d="M35.77,96.73c-2.78,1.23-4.83,3.87-5.16,7.07l-2.58,24.71c11.72-10.03,10.19-23.6,7.74-31.78Z"/>
            </g>
            <path class="cls-10" d="M93.63,149.68l-2.84-20.41c-12.71-10.09-11.18-24.14-8.67-32.52-1.09-.49-2.29-.76-3.55-.76h-4.36c.62,7.92-.63,20.72-15.2,20.72-16.43,0-15.17-14.36-13.82-20.72h-5.95c-1.25,0-2.43.27-3.51.75,2.45,8.17,3.98,21.74-7.74,31.78l-2.24,21.47c-.54,5.14,3.5,9.62,8.67,9.62h50.57c5.29,0,9.36-4.68,8.63-9.92Z"/>
            <g>
              <path class="cls-6" d="M73.84,104.73h3.86c.99,0,1.95.18,2.84.49.24-3.14.88-6.05,1.61-8.48-1.09-.49-2.29-.76-3.55-.76h-4.36c.2,2.6.2,5.72-.4,8.75Z"/>
              <path class="cls-5" d="M89.91,138.01l2.44,17.56c1.08-1.68,1.6-3.73,1.3-5.89l-2.84-20.41c-7.76-6.16-10.21-13.79-10.37-20.71-1.87,8.46-1.8,20.51,9.47,29.46Z"/>
              <path class="cls-5" d="M38.37,104.73h5.95c-1.36,6.35-2.62,20.72,13.82,20.72,13.58,0,15.59-11.12,15.29-19.04-1.57,5.52-5.5,10.3-14.39,10.3-16.43,0-15.17-14.36-13.82-20.72h-5.95c-1.25,0-2.43.27-3.51.75.7,2.32,1.32,5.08,1.58,8.07.34-.04.68-.07,1.03-.07Z"/>
              <path class="cls-5" d="M27.13,137.25c7.78-6.66,9.72-14.88,9.43-22.05-1.22,4.62-3.79,9.25-8.52,13.3l-2.24,21.47c0,.07,0,.14-.01.21l1.35-12.93Z"/>
            </g>
          </g>
          <g>
            <g>
              <g>
                <path class="cls-2" d="M56.01,134.66c-1.22.96-3.01.67-3.84-.65-2.36-3.73-6.22-10.57-3.63-11.7,2.7-1.18,6.49,5.66,8.2,9.13.55,1.11.24,2.45-.73,3.22h0Z"/>
                <path class="cls-17" d="M55.93,134.64c-.78.62-1.92.43-2.45-.41-1.51-2.38-3.98-6.76-2.32-7.48,1.72-.75,4.15,3.62,5.24,5.84.35.71.15,1.57-.47,2.06h0Z"/>
              </g>
              <g>
                <path class="cls-2" d="M62.84,134.66c1.22.96,3.01.67,3.84-.65,2.36-3.73,6.22-10.57,3.63-11.7-2.7-1.18-6.49,5.66-8.2,9.13-.55,1.11-.24,2.45.73,3.22h0Z"/>
                <path class="cls-17" d="M62.92,134.64c.78.62,1.92.43,2.45-.41,1.51-2.38,3.98-6.76,2.32-7.48-1.72-.75-4.15,3.62-5.24,5.84-.35.71-.15,1.57.47,2.06h0Z"/>
              </g>
            </g>
            <circle class="cls-13" cx="54.18" cy="141.13" r="1.39"/>
            <circle class="cls-13" cx="65.71" cy="141.13" r="1.39"/>
            <g>
              <path class="cls-13" d="M59.12,145.31h1.44c.54,0,.88.58.63,1.05l-.72,1.34c-.27.5-.99.5-1.25,0l-.72-1.34c-.26-.47.09-1.05.63-1.05Z"/>
              <path class="cls-9" d="M59.89,147.42s.46,3.55,4.2,1.63"/>
              <path class="cls-9" d="M59.89,147.42s-.46,3.55-4.2,1.63"/>
            </g>
          </g>
        </g>
      </g>
      <g>
        <g>
          <path class="cls-15" d="M60.88,134.59h0c-3.73-3.73-3.73-9.77,0-13.5l17.91-17.91c3.73-3.73,9.77-3.73,13.5,0h0c3.73,3.73,3.73,9.77,0,13.5l-17.91,17.91c-3.73,3.73-9.77,3.73-13.5,0Z"/>
          <path class="cls-1" d="M93.54,104.71c.23,2.71-.68,5.5-2.76,7.57l-17.91,17.91c-3.73,3.73-9.77,3.73-13.5,0-.48-.48-.89-.99-1.24-1.53.19,2.16,1.1,4.27,2.76,5.93,3.73,3.73,9.77,3.73,13.5,0l17.91-17.91c3.25-3.25,3.67-8.27,1.24-11.97Z"/>
        </g>
        <g>
          <rect class="cls-15" x="30.72" y="96.67" width="19.09" height="44.42" rx="9.55" ry="9.55" transform="translate(152.8 174.47) rotate(135)"/>
          <path class="cls-1" d="M57.28,130.19c-3.73,3.73-9.77,3.73-13.5,0l-17.91-17.91c-1.98-1.98-2.89-4.6-2.78-7.19-2.15,3.66-1.67,8.44,1.47,11.59l17.91,17.91c3.73,3.73,9.77,3.73,13.5,0,1.75-1.75,2.67-4.02,2.78-6.31-.4.68-.88,1.33-1.47,1.92Z"/>
        </g>
      </g>
      <path class="cls-15" d="M73.31,89.86l-27.31,3.16s-.39,1.16-.78,2.96h29.01c-.28-3.55-.93-6.12-.93-6.12Z"/>
      <path class="cls-15" d="M70.4,105.11h-23.13c-21.57,0-39.05-17.48-39.05-39.05h0c0-26.7,21.65-48.35,48.35-48.35h4.53c26.7,0,48.35,21.65,48.35,48.35h0c0,21.57-17.48,39.05-39.05,39.05Z"/>
      <path class="cls-3" d="M59.99,89.61c-2.3,0-4.25,1.47-4.97,3.52.02.01.04.03.06.04,1.37-.32,2.93-.55,4.66-.58,1.95-.03,3.69.21,5.2.55-.72-2.05-2.66-3.53-4.96-3.53Z"/>
      <g>
        <g>
          <circle class="cls-16" cx="25.68" cy="25.68" r="25.68" transform="translate(-5.16 44.85) rotate(-76.86)"/>
          <path class="cls-11" d="M29.54,16.67c9.1,0,17.09,4.74,21.65,11.88.11-.94.16-1.9.16-2.87C51.36,11.5,39.86,0,25.68,0S0,11.5,0,25.68c0,5.08,1.48,9.81,4.02,13.79,1.43-12.83,12.3-22.8,25.51-22.8Z"/>
          <path class="cls-18" d="M2.35,33.66C2.35,19.48,13.85,7.98,28.03,7.98c10.17,0,18.97,5.92,23.12,14.5C49.58,9.81,38.78,0,25.68,0,11.5,0,0,11.5,0,25.68c0,4.01.92,7.8,2.56,11.18-.13-1.05-.2-2.11-.2-3.19Z"/>
        </g>
        <g>
          <circle class="cls-16" cx="90.82" cy="25.68" r="25.68" transform="translate(-2.81 13.78) rotate(-8.55)"/>
          <path class="cls-11" d="M86.95,16.67c-9.1,0-17.09,4.74-21.65,11.88-.11-.94-.16-1.9-.16-2.87,0-14.18,11.5-25.68,25.68-25.68s25.68,11.5,25.68,25.68c0,5.08-1.48,9.81-4.02,13.79-1.43-12.83-12.3-22.8-25.51-22.8Z"/>
          <path class="cls-18" d="M114.14,33.66c0-14.18-11.5-25.68-25.68-25.68-10.17,0-18.97,5.92-23.12,14.5,1.57-12.67,12.37-22.48,25.47-22.48,14.18,0,25.68,11.5,25.68,25.68,0,4.01-.92,7.8-2.56,11.18.13-1.05.2-2.11.2-3.19Z"/>
        </g>
      </g>
      <g>
        <path class="cls-12" d="M58.84,43.23s19.75,30.17,50.61,22.83c0,0,.61-47.95-54.44-48.35,0,0-50.64,2.1-46.52,58.54,0,0,42.83-11.52,50.34-33.02Z"/>
        <path class="cls-18" d="M55.02,26.16c40.53.3,50.89,26.37,53.53,40.1.3-.07.6-.13.91-.2,0,0,.61-47.95-54.44-48.35,0,0-49.39,2.05-46.64,56.48C10.88,28,55.02,26.16,55.02,26.16Z"/>
        <path class="cls-6" d="M58.84,37.01c-7.51,21.5-50.34,33.02-50.34,33.02-.08-1.1-.13-2.17-.17-3.22-.12,2.97-.07,6.11.17,9.44,0,0,42.83-11.52,50.34-33.02,0,0,19.75,30.17,50.61,22.83,0,0,.03-2.39-.54-6.1-30.56,6.87-50.08-22.95-50.08-22.95Z"/>
        <path class="cls-8" d="M12.22,55.76S20.83,17.71,61.1,17.71s44.66,35.21,44.66,35.21"/>
      </g>
      <g>
        <path class="cls-1" d="M107.63,52.92c.28,2.1.44,4.24.44,6.42h0c0,21.57-17.48,39.05-39.05,39.05h-23.13c-17.65,0-32.56-11.71-37.39-27.79,2.25,19.42,18.75,34.5,38.78,34.5h23.13c21.57,0,39.05-17.48,39.05-39.05h0c0-4.56-.64-8.96-1.82-13.14Z"/>
        <g>
          <path class="cls-13" d="M68.03,90.12c-1.9-3.07-4.87-5.02-7.94-5.02-3.81,0-7.11,2.18-8.73,5.35-.86,1.69.69,3.57,2.5,3.04.38-.11.79-.22,1.2-.32-.02-.01-.04-.02-.06-.04.72-2.05,2.67-3.52,4.97-3.52s4.23,1.48,4.96,3.53c.25.06.51.11.74.17,1.87.49,3.37-1.56,2.35-3.2Z"/>
          <g>
            <path class="cls-14" d="M41.57,85c0,1.82-2.94,3.29-6.58,3.29s-6.58-1.47-6.58-3.29,2.94-3.29,6.58-3.29,6.58,1.47,6.58,3.29Z"/>
            <path class="cls-14" d="M90.44,85c0,1.82-2.94,3.29-6.58,3.29s-6.58-1.47-6.58-3.29,2.94-3.29,6.58-3.29,6.58,1.47,6.58,3.29Z"/>
          </g>
          <g>
            <g>
              <circle class="cls-13" cx="78.97" cy="72.22" r="8.17"/>
              <path class="cls-13" d="M83.16,65.2s2.84,1.36,5.82-.11c.71-.35,1.44.48.99,1.14-.87,1.29-2.06,2.5-3.52,2.69,0,0,1.09,1.76,2.96,2.41.69.24.7,1.21.02,1.47-1.76.68-3.64,1.04-4.24-.16-1.22-2.46-2.86-7.88-2.86-7.88l.82.43Z"/>
              <path class="cls-2" d="M85.2,68.93c0,2.06-1.67,3.72-3.72,3.72s-3.72-1.67-3.72-3.72,1.67-3.72,3.72-3.72,3.72,1.67,3.72,3.72Z"/>
              <path class="cls-2" d="M79.1,74.11c0,1.18-.96,2.14-2.14,2.14s-2.14-.96-2.14-2.14.96-2.14,2.14-2.14,2.14.96,2.14,2.14Z"/>
            </g>
            <g>
              <circle class="cls-13" cx="40.26" cy="72.22" r="8.17"/>
              <path class="cls-13" d="M36.07,65.2s-2.84,1.36-5.82-.11c-.71-.35-1.44.48-.99,1.14.87,1.29,2.06,2.5,3.52,2.69,0,0-1.09,1.76-2.96,2.41-.69.24-.7,1.21-.02,1.47,1.76.68,3.64,1.04,4.24-.16,1.22-2.46,2.86-7.88,2.86-7.88l-.82.43Z"/>
              <path class="cls-2" d="M34.03,68.93c0,2.06,1.67,3.72,3.72,3.72s3.72-1.67,3.72-3.72-1.67-3.72-3.72-3.72-3.72,1.67-3.72,3.72Z"/>
              <path class="cls-2" d="M40.13,74.11c0,1.18.96,2.14,2.14,2.14s2.14-.96,2.14-2.14-.96-2.14-2.14-2.14-2.14.96-2.14,2.14Z"/>
            </g>
          </g>
        </g>
      </g>
    </g>
  </g>
</svg>