<?xml version="1.0" encoding="UTF-8"?>
<svg xmlns="http://www.w3.org/2000/svg" viewBox="0 0 137.37 128.74">
  <defs>
    <style>
      .cls-1, .cls-2, .cls-3 {
        mix-blend-mode: multiply;
      }

      .cls-1, .cls-4 {
        fill: #e6e6e6;
      }

      .cls-5 {
        fill: #fff;
      }

      .cls-6 {
        fill: #df6747;
      }

      .cls-2, .cls-7 {
        fill: #f5d6b8;
      }

      .cls-8 {
        isolation: isolate;
      }

      .cls-9 {
        fill: #42210b;
      }

      .cls-10 {
        fill: #ccc;
      }
    </style>
  </defs>
  <g class="cls-8">
    <g id="Layer_2" data-name="Layer 2">
      <g id="OBJECTS">
        <g>
          <path class="cls-4" d="M96.22,124.78c0,2.19-12.09,3.96-27.01,3.96s-27.01-1.77-27.01-3.96,12.09-3.96,27.01-3.96,27.01,1.77,27.01,3.96Z"/>
          <g>
            <path class="cls-10" d="M137.24,34.99c-.63-7.4-3.52-15-8.05-19.54-4.3-4.3-10.64-6.34-16.69-5.75-5.27.51-10.39,2.94-14.25,6.55-3.6,3.37-3.4,9.62-2.93,14.18.61,5.95,2.69,11.78,4.24,17.54,1.72,6.38,3.44,12.76,5.16,19.14.86,3.17,6.64-3.54,7.47-4.48,3.04-3.43,5.61-7.35,7.41-11.58-.48,1.12,2.39,10.16,3.79,9.81,2.2-.55,3.3-4.7,3.91-6.54.98-2.95,1.57-6.02,2.38-9.02.14-.51.29-1.04.61-1.47,2.2-2.94,3,2.68,3.37,3.72.49,1.38,1.45,1.54,2.02.12,1.48-3.65,1.95-8.13,1.56-12.69Z"/>
            <path class="cls-6" d="M114.5,21.5c-7.88-.14-15.28,8.96-20.02,14.02v-2.67c-2.76,4.22-8.02,18,.02,20.06,6.05,1.55,19.42-10.46,22.86-14.75,4.32-5.37,7.88-16.47-2.87-16.67Z"/>
            <path class="cls-10" d="M.13,34.99c.63-7.4,3.52-15,8.05-19.54,4.3-4.3,10.64-6.34,16.69-5.75,5.27.51,10.39,2.94,14.25,6.55,3.6,3.37,3.4,9.62,2.93,14.18-.61,5.95-2.69,11.78-4.24,17.54-1.72,6.38-3.44,12.76-5.16,19.14-.86,3.17-6.64-3.54-7.47-4.48-3.04-3.43-5.61-7.35-7.41-11.58.48,1.12-2.39,10.16-3.79,9.81-2.2-.55-3.3-4.7-3.91-6.54-.98-2.95-1.57-6.02-2.38-9.02-.14-.51-.29-1.04-.61-1.47-2.2-2.94-3,2.68-3.37,3.72-.49,1.38-1.45,1.54-2.02.12-1.47-3.65-1.95-8.13-1.56-12.69Z"/>
            <path class="cls-6" d="M37.83,53.05c-4.47.08-10.31-3.58-14.53-6.77-5-3.78-8.57-9.24-9.53-15.42-.65-4.23.04-8.19,4.06-9.22,6.05-1.55,19.42,10.46,22.86,14.75,4.32,5.37,7.88,16.47-2.87,16.67Z"/>
            <g>
              <path class="cls-10" d="M82.58,100.51c-.01.26.04.51.15.74.16.07.34.15.52.26l-.67-1Z"/>
              <path class="cls-10" d="M82.73,101.25c-2.29-.97-2.36,1.77-1.81,3.76.54,1.95,2.05,4.64,4.2,5.17,1.39.34,5.09-.44,5.71-1.84,1.64-3.68-6.89-4.38-8.1-7.1Z"/>
            </g>
            <g>
              <path class="cls-10" d="M93.38,98.71l-3.78,2.56c-1.34-1.62-2.68-3.15-3.99-4.52-4.6-4.79-7.22-11.14-7.22-17.78v-2.92c5.38,2.2,10.2,11.63,14.89,22.66h.1Z"/>
              <path class="cls-7" d="M97.1,100.45l-3.27,2.36c-1.05.76-2.51.56-3.33-.44-.3-.37-.6-.73-.9-1.09l3.78-2.56,3.27.19c.81.04,1.11,1.08.46,1.55Z"/>
            </g>
            <g>
              <path class="cls-10" d="M46.98,98.71l3.78,2.56c1.34-1.62,2.68-3.15,3.99-4.52,4.6-4.79,7.22-11.14,7.22-17.78v-2.92c-5.38,2.2-10.2,11.63-14.89,22.66h-.1Z"/>
              <path class="cls-7" d="M43.25,100.45l3.27,2.36c1.05.76,2.51.56,3.33-.44.3-.37.6-.73.9-1.09l-3.78-2.56-3.27.19c-.81.04-1.11,1.08-.46,1.55Z"/>
            </g>
            <path class="cls-10" d="M87.55,124.91c-.14,1.7-10.62,1.01-12.59.54-.19-.04-.37-.1-.55-.15-.59-.18-.99-.51-1.21-.92l-.11-.63-.16-.9-2.43-13.42,4.78.57,9.26,1.1-.99,9.36c1.96.51,4.17,2.58,4,4.44Z"/>
            <polygon class="cls-1" points="75.28 110 73.09 123.74 72.93 122.85 70.5 109.43 75.28 110"/>
            <path class="cls-10" d="M68.37,109.43l-2.54,14.06c-.1.52-.35.97-.72,1.3-.43.42-1.01.66-1.64.66-1.01.24-4.29.55-7.25.55-2.76,0-5.22-.26-5.3-1.08-.18-1.99,2.37-4.21,4.4-4.52l-.99-9.28,8.43-1,5.61-.67Z"/>
            <path class="cls-1" d="M68.37,109.43l-2.54,14.06c-.1.52-.35.97-.72,1.3l-2.35-14.68,5.61-.67Z"/>
            <path class="cls-10" d="M84.53,111.1h-30.2c1.23-28.21,7.94-37.22,9-37.37h15.1c4.33,10.84,5.79,23.71,6.1,37.37Z"/>
            <g>
              <path class="cls-1" d="M58.89,111.1h-4.56c1.23-28.21,7.94-37.22,9-37.37h3.35c-2.96,6.56-8.85,21.82-7.79,37.37Z"/>
              <path class="cls-1" d="M80.51,111.1c1.06-15.54-4.84-30.81-7.79-37.37h5.71c4.33,10.84,5.79,23.71,6.1,37.37h-4.02Z"/>
            </g>
            <path class="cls-9" d="M69.77,76.92s-.02,0-.02,0c-.01,0-.03,0-.04,0-.01,0-.03,0-.04,0,0,0-.02,0-.02,0-3.85.11-10.58,6.18-5.32,9.13,1.93,1.08,3.87.58,4.83-1.45.25-.53.42-1.08.55-1.64.13.56.3,1.11.55,1.64.95,2.03,2.89,2.54,4.83,1.45,5.27-2.95-1.47-9.02-5.32-9.13ZM66.12,84.85c-2.22-.28-2.14-2.24-1-3.6.86-1.02,2.18-2.02,3.56-2.39-.32,2.17-.6,6.23-2.57,5.98ZM73.29,84.85c-1.97.25-2.25-3.81-2.57-5.98,1.38.37,2.7,1.37,3.56,2.39,1.14,1.36,1.22,3.32-1,3.6Z"/>
            <path class="cls-7" d="M107.47,64.74c-1.92,1.1-3.92,1.72-5.79,1.89-1.68,6.14-15.57,10.93-32.47,10.93s-30.9-4.83-32.49-11c-1.7-.23-3.5-.82-5.22-1.82-5.05-2.92-7.54-8.09-5.55-11.54,1.14-1.97,3.49-2.96,6.23-2.9-.06-.2-.13-.39-.18-.6-1.08-3.66-1.64-7.56-1.56-11.6C30.82,16.83,48.57-.32,69.83.02c21.13.33,38.15,17.56,38.15,38.77,0,3.99-.61,7.83-1.71,11.44-.02.04-.03.07-.04.11,2.97-.22,5.57.76,6.78,2.87,1.99,3.45-.49,8.62-5.55,11.54Z"/>
            <path class="cls-2" d="M107.46,64.73c-1.92,1.1-3.92,1.72-5.79,1.89-.85,3.12-4.85,5.89-10.8,7.86,5.8-4.52,9.4-10.86,9.4-17.86,0-13.73-13.79-24.84-30.8-24.84s-30.79,11.12-30.79,24.84c0,7.16,3.75,13.62,9.77,18.15-6.5-1.99-10.89-4.91-11.74-8.22-1.7-.23-3.5-.82-5.22-1.82-5.05-2.92-7.54-8.09-5.55-11.54,1.14-1.97,3.49-2.96,6.23-2.9-.06-.2-.13-.39-.18-.6-1.08-3.66-1.64-7.56-1.56-11.6C30.81,16.82,48.57-.33,69.83,0c21.13.33,38.15,17.56,38.15,38.77,0,3.99-.61,7.83-1.71,11.44-.02.04-.03.07-.04.11,2.97-.22,5.57.76,6.78,2.87,1.99,3.45-.49,8.62-5.55,11.54Z"/>
            <path class="cls-9" d="M47.57,43.21c1.55-2.01,3.43-3.51,5.94-2.07,1,.58,1.91-.97.9-1.55-3.43-1.97-6.24-.1-8.39,2.71-.7.91.85,1.81,1.55.9h0Z"/>
            <path class="cls-9" d="M80.65,41c1.44-.7,2.61-1.44,4.27-.89,1.11.37,2.63,1.14,3.08,2.3.41,1.06,2.15.6,1.73-.48-.67-1.72-2.29-2.78-3.96-3.41-2.3-.88-3.94-.08-6.02.94-1.04.51-.13,2.05.9,1.55h0Z"/>
            <g>
              <ellipse class="cls-9" cx="52.11" cy="52.79" rx="5.1" ry="8.03"/>
              <circle class="cls-5" cx="52.04" cy="49.35" r="1.7"/>
              <circle class="cls-5" cx="53.74" cy="56.82" r="1.7"/>
            </g>
            <g>
              <ellipse class="cls-9" cx="85.42" cy="52.79" rx="5.1" ry="8.03"/>
              <circle class="cls-5" cx="85.35" cy="49.35" r="1.7"/>
              <circle class="cls-5" cx="87.05" cy="56.82" r="1.7"/>
            </g>
            <g>
              <path class="cls-6" d="M40.73,64.67c1.36-1.56,2.71-3.14,4.04-4.73.5-.6-.36-1.47-.86-.86-1.32,1.6-2.67,3.17-4.04,4.73-.51.59.35,1.46.86.86h0Z"/>
              <path class="cls-6" d="M44.49,64.67c1.36-1.56,2.71-3.14,4.04-4.73.5-.6-.36-1.47-.86-.86-1.32,1.6-2.67,3.17-4.04,4.73-.51.59.35,1.46.86.86h0Z"/>
              <path class="cls-6" d="M48.25,64.67c1.36-1.56,2.71-3.14,4.04-4.73.5-.6-.36-1.47-.86-.86-1.32,1.6-2.67,3.17-4.04,4.73-.51.59.35,1.46.86.86h0Z"/>
            </g>
            <g>
              <path class="cls-6" d="M85.18,64.67c1.36-1.56,2.71-3.14,4.04-4.73.5-.6-.36-1.47-.86-.86-1.32,1.6-2.67,3.17-4.04,4.73-.51.59.35,1.46.86.86h0Z"/>
              <path class="cls-6" d="M88.94,64.67c1.36-1.56,2.71-3.14,4.04-4.73.5-.6-.36-1.47-.86-.86-1.32,1.6-2.67,3.17-4.04,4.73-.51.59.35,1.46.86.86h0Z"/>
              <path class="cls-6" d="M92.71,64.67c1.36-1.56,2.71-3.14,4.04-4.73.5-.6-.36-1.47-.86-.86-1.32,1.6-2.67,3.17-4.04,4.73-.51.59.35,1.46.86.86h0Z"/>
            </g>
            <path class="cls-10" d="M107.98,38.78c0,3.99-.61,7.83-1.71,11.44-.7.16-1.63-.16-2.33-.05-.97.16-1.87.63-2.66,1.18-.18.13-.35.26-.53.4-.92.76-2.28.27-2.47-.91-.51-3.28-2.22-6.81-3.13-9.15-5.38-13.94-37.69-9.92-44.47-7.78-7.18,2.27-10.6,9.2-10.93,16.27v.05c-.06,1.27-1.51,1.92-2.54,1.16-.94-.7-1.96-1.24-2.88-1.54-.65-.22-1.51-.17-2.35-.16-1.08-3.66-1.64-7.56-1.56-11.6C30.82,16.83,48.57-.32,69.83.02c21.13.33,38.15,17.56,38.15,38.77Z"/>
            <g class="cls-3">
              <path class="cls-4" d="M107.98,38.78c0,3.99-.61,7.83-1.71,11.44-.7.16-1.63-.16-2.33-.05-.97.16-1.87.63-2.66,1.18-.18.13-.36.26-.53.4-.91.76-2.28.27-2.46-.91-.51-3.27-2.23-6.81-3.13-9.15-.67-1.76-1.78-3.23-3.21-4.44,3.35-3.8,5.33-8.46,5.33-13.51,0-12.72-12.57-23.03-28.08-23.03s-28.07,10.31-28.07,23.03c0,4.74,1.75,9.15,4.73,12.8-3.92,3.24-5.86,8.4-6.1,13.65v.05c-.06,1.27-1.51,1.92-2.54,1.16-.94-.7-1.96-1.24-2.88-1.54-.65-.22-1.51-.17-2.35-.16-1.08-3.66-1.64-7.56-1.56-11.6C30.82,16.83,48.57-.32,69.83.02c21.13.33,38.15,17.56,38.15,38.77Z"/>
            </g>
            <path class="cls-9" d="M71.66,61.02c1.16-1.44,1.63-3.92,1.72-5.96.1-2.33.07-4.95-1.55-6.82-1.08-1.24-2.89-1.91-4.43-1.35-4.61,1.69-4.4,12.31-.47,14.56,2.21,1.26,3.72.8,4.72-.44Z"/>
            <g>
              <path class="cls-6" d="M62.06,63.21c-1.01.63-1.82,2.05-2.3,3.27-.55,1.4-1.09,3.01-.49,4.48.4.98,1.36,1.77,2.42,1.75,3.17-.06,5.28-6.58,3.35-8.78-1.08-1.24-2.1-1.27-2.97-.73Z"/>
              <path class="cls-9" d="M62.89,63.6c-1.11,1.44-1.91,2.99-1.97,4.84-.04,1.29,1.96,1.29,2,0,.05-1.49.82-2.68,1.7-3.83.78-1.02-.95-2.02-1.73-1.01h0Z"/>
            </g>
            <path class="cls-9" d="M68.76,67.44c-3.49,0-6.46-2.68-6.75-6.22-.03-.32-.03-.64-.01-.95.03-.5.45-.89.97-.86.5.03.89.46.86.97-.01.23,0,.46.01.7.23,2.72,2.63,4.74,5.34,4.52,2.72-.23,4.75-2.62,4.52-5.34-.04-.5.33-.95.84-.99.5-.04.95.33.99.84.31,3.72-2.47,7.01-6.19,7.32-.19.02-.38.02-.57.02Z"/>
          </g>
        </g>
      </g>
    </g>
  </g>
</svg>