<?xml version="1.0" encoding="UTF-8"?>
<svg xmlns="http://www.w3.org/2000/svg" viewBox="0 0 112.06 128.74">
  <defs>
    <style>
      .cls-1 {
        fill: #fff;
      }

      .cls-2 {
        fill: #c69c6d;
      }

      .cls-3 {
        fill: #df6747;
      }

      .cls-4 {
        fill: #f5d6b8;
      }

      .cls-4, .cls-5, .cls-6 {
        mix-blend-mode: multiply;
      }

      .cls-7 {
        isolation: isolate;
      }

      .cls-8, .cls-5 {
        fill: #ab6f2b;
      }

      .cls-9 {
        fill: #603813;
      }

      .cls-10 {
        fill: #42210b;
      }

      .cls-11, .cls-6 {
        opacity: .5;
      }

      .cls-12 {
        fill: #e6e6e6;
      }
    </style>
  </defs>
  <g class="cls-7">
    <g id="Layer_2" data-name="Layer 2">
      <g id="OBJECTS">
        <g>
          <path class="cls-12" d="M84.02,124.78c0,2.19-12.09,3.96-27.01,3.96s-27.01-1.77-27.01-3.96,12.09-3.96,27.01-3.96,27.01,1.77,27.01,3.96Z"/>
          <g>
            <path class="cls-8" d="M78.85,93.27c-2.55,2.36-5.45,4.35-8.46,5.91-1.76.91-4.9,2.49-3.6,4.97.61,1.15.96,2.38,1.43,3.57,11.46-1.84,18.39-8.75,18.39-25.86-2.17,4.58-4.34,8.23-7.76,11.41Z"/>
            <g class="cls-6">
              <path class="cls-8" d="M82.47,89.19c-2.1,9.13-7.44,13.67-15.13,15.49-.11-.26-.23-.5-.36-.75-1.31-2.47,1.84-4.06,3.59-4.96,3.02-1.56,5.92-3.55,8.47-5.91,1.3-1.22,2.43-2.49,3.43-3.86Z"/>
            </g>
            <g>
              <path class="cls-9" d="M81.18,98.71l-3.78,2.56c-1.34-1.62-2.68-3.15-3.99-4.52-4.6-4.79-7.22-11.14-7.22-17.78v-2.92c5.38,2.2,10.2,11.63,14.89,22.66h.1Z"/>
              <path class="cls-2" d="M84.91,100.45l-3.27,2.36c-1.05.76-2.51.56-3.33-.44-.3-.37-.6-.73-.9-1.09l3.78-2.56,3.27.19c.81.04,1.11,1.08.46,1.55Z"/>
            </g>
            <g>
              <path class="cls-9" d="M34.78,98.71l3.78,2.56c1.34-1.62,2.68-3.15,3.99-4.52,4.6-4.79,7.22-11.14,7.22-17.78v-2.92c-5.38,2.2-10.2,11.63-14.89,22.66h-.1Z"/>
              <path class="cls-2" d="M31.06,100.45l3.27,2.36c1.05.76,2.51.56,3.33-.44.3-.37.6-.73.9-1.09l-3.78-2.56-3.27.19c-.81.04-1.11,1.08-.46,1.55Z"/>
            </g>
            <path class="cls-8" d="M23.76,74.97c1.93-4.03,1.15-7.51.67-11.69-1.04-9.03-.9-17.92.25-27.02.08-.64.22-1.39.37-2.18.66-3.39,1.6-7.81-.34-10.3-.29-.37-.61-.65-.97-.84-4.75-2.61-14.66,10.08-16.7,13.01C1.85,43.44-1.14,52.72.41,61.86c1.3,7.56,5.87,17.67,14.71,18.11,3.75.19,7.05-1.66,8.64-5Z"/>
            <path class="cls-8" d="M88.3,74.97c-1.93-4.03-1.15-7.51-.67-11.69,1.04-9.03.9-17.92-.25-27.02-.08-.64-.22-1.39-.37-2.18-.66-3.39-1.6-7.81.34-10.3.29-.37.61-.65.97-.84,4.75-2.61,14.66,10.08,16.7,13.01,5.19,7.5,8.19,16.78,6.63,25.92-1.3,7.56-5.87,17.67-14.71,18.11-3.75.19-7.05-1.66-8.64-5Z"/>
            <path class="cls-9" d="M75.35,124.91c-.14,1.7-10.62,1.01-12.59.54-.19-.04-.37-.1-.55-.15-.59-.18-.99-.51-1.21-.92l-.11-.63-.16-.9-2.43-13.42,4.78.57,9.26,1.1-.99,9.36c1.96.51,4.17,2.58,4,4.44Z"/>
            <polygon class="cls-5" points="63.08 110 60.9 123.74 60.74 122.85 58.31 109.43 63.08 110"/>
            <path class="cls-9" d="M56.18,109.43l-2.54,14.06c-.1.52-.35.97-.72,1.3-.43.42-1.01.66-1.64.66-1.01.24-4.29.55-7.25.55-2.76,0-5.22-.26-5.29-1.08-.18-1.99,2.37-4.21,4.4-4.52l-.99-9.28,8.43-1,5.61-.67Z"/>
            <path class="cls-5" d="M56.18,109.43l-2.54,14.06c-.1.52-.35.97-.72,1.3l-2.35-14.68,5.61-.67Z"/>
            <path class="cls-8" d="M72.34,111.1h-30.2c1.23-28.21,7.94-37.22,9-37.37h15.1c4.33,10.84,5.79,23.71,6.1,37.37Z"/>
            <g class="cls-11">
              <path class="cls-5" d="M46.7,111.1h-4.56c1.23-28.21,7.94-37.22,9-37.37h3.35c-2.96,6.56-8.85,21.82-7.79,37.37Z"/>
              <path class="cls-5" d="M68.32,111.1c1.06-15.54-4.84-30.81-7.79-37.37h5.71c4.33,10.84,5.79,23.71,6.1,37.37h-4.02Z"/>
            </g>
            <path class="cls-10" d="M57.57,76.92s-.02,0-.02,0c-.01,0-.03,0-.04,0-.01,0-.03,0-.04,0,0,0-.02,0-.02,0-3.85.11-10.58,6.18-5.32,9.13,1.93,1.08,3.87.58,4.83-1.45.25-.53.42-1.08.55-1.64.13.56.3,1.11.55,1.64.95,2.03,2.89,2.54,4.83,1.45,5.27-2.95-1.47-9.02-5.32-9.13ZM53.92,84.85c-2.22-.28-2.14-2.24-1-3.6.86-1.02,2.18-2.02,3.56-2.39-.32,2.17-.6,6.23-2.57,5.98ZM61.1,84.85c-1.97.25-2.25-3.81-2.57-5.98,1.38.37,2.7,1.37,3.56,2.39,1.14,1.36,1.22,3.32-1,3.6Z"/>
            <path class="cls-2" d="M95.28,64.74c-1.92,1.1-3.92,1.72-5.79,1.89-1.68,6.14-15.57,10.93-32.47,10.93s-30.9-4.83-32.49-11c-1.7-.23-3.5-.82-5.22-1.82-5.05-2.92-7.54-8.09-5.55-11.54,1.14-1.97,3.49-2.96,6.23-2.9-.06-.2-.13-.39-.18-.6-1.08-3.66-1.64-7.56-1.56-11.6C18.62,16.83,36.38-.32,57.64.02c21.13.33,38.15,17.56,38.15,38.77,0,3.99-.61,7.83-1.71,11.44-.02.04-.03.07-.04.11,2.97-.22,5.57.76,6.78,2.87,1.99,3.45-.49,8.62-5.55,11.54Z"/>
            <g>
              <path class="cls-3" d="M58.7,66.74c1.01-.63,1.82-2.05,2.3-3.27.55-1.4,1.09-3.01.49-4.48-.4-.98-1.36-1.77-2.42-1.75-3.17.06-5.28,6.58-3.35,8.78,1.08,1.24,2.1,1.27,2.97.73Z"/>
              <path class="cls-10" d="M57.88,66.35c1.11-1.44,1.91-2.99,1.97-4.84.04-1.29-1.96-1.29-2,0-.05,1.49-.82,2.68-1.7,3.83-.78,1.02.95,2.02,1.73,1.01h0Z"/>
            </g>
            <path class="cls-10" d="M56.56,67.44c-3.49,0-6.46-2.68-6.75-6.22-.03-.32-.03-.64-.01-.95.03-.5.45-.89.97-.86.5.03.89.46.86.97-.01.23,0,.46.01.7.23,2.72,2.63,4.74,5.34,4.52,2.72-.23,4.75-2.62,4.52-5.34-.04-.5.33-.95.84-.99.5-.04.95.33.99.84.31,3.72-2.47,7.01-6.19,7.32-.19.02-.38.02-.57.02Z"/>
            <path class="cls-10" d="M25.28,47.69c-1.03,2.27,1.65,4.33,3.83,4.56,2.97.32,4.7-4.16,2.27-5.95,2.65.94,4.06-4.99,2.65-6.33,2.41,2.1,5.76-2.17,6.52-4.13-.66,4.11,10.7,2.74,11.79-.75,1.08,1.86,1.83,3.01,4.35,2.88,3.12-.16,4.47-1.84,6.54-3.77,1.5,3.51,7.51,3.14,10.12,1.2-.41,1.56-.72,2.93.67,4.06,1.71,1.39,4.22,1.15,6.22.89-1.32,1.3-2.18,2.73-1.87,4.68.4,2.53,2.33,2.21,4.22,2.79-1.53,1.57-3.27,3.58-.26,4.98,1.76.82,3.85.13,5.45-.71,3.44-1.8,6.23-8.53,1.18-10.13,1.1-2.29,1.16-4.91.29-7.34-.58-1.61-2.95-4.06-4.87-2.89.33-5.9-12.43-8.84-12.04-4.22.08-4.23-12.77-6-12.48-3.23-2.28-4.61-19.94-1.55-16.49,2.92-.21-2.94-8.28-.42-9.7.2-1.08.48-4.86,2.18-3.09,3.8-1.68.53-3.59,1.35-4.76,2.73-1.11,1.31-1.92,4.3-.74,5.8-2.59.45-3.87,3-3.3,5.45.21.9,2.58,4.05,3.37,2.51"/>
            <path class="cls-4" d="M95.27,64.73c-1.92,1.1-3.92,1.72-5.79,1.89-.85,3.12-4.85,5.89-10.8,7.86,5.8-4.52,9.4-10.86,9.4-17.86,0-13.73-13.79-24.84-30.8-24.84s-30.79,11.12-30.79,24.84c0,7.16,3.75,13.62,9.77,18.15-6.5-1.99-10.89-4.91-11.74-8.22-1.7-.23-3.5-.82-5.22-1.82-5.05-2.92-7.54-8.09-5.55-11.54,1.14-1.97,3.49-2.96,6.23-2.9-.06-.2-.13-.39-.18-.6-1.08-3.66-1.64-7.56-1.56-11.6C18.61,16.82,36.37-.33,57.63,0c21.13.33,38.15,17.56,38.15,38.77,0,3.99-.61,7.83-1.71,11.44-.02.04-.03.07-.04.11,2.97-.21,5.57.76,6.78,2.87,1.99,3.45-.49,8.62-5.55,11.54Z"/>
            <path class="cls-10" d="M35.37,43.21c1.55-2.01,3.43-3.51,5.94-2.07,1,.57,1.91-.97.9-1.55-3.43-1.97-6.24-.1-8.39,2.71-.7.91.85,1.81,1.55.9h0Z"/>
            <path class="cls-10" d="M68.45,41c1.44-.7,2.61-1.44,4.27-.89,1.11.37,2.63,1.14,3.08,2.3.41,1.06,2.15.6,1.73-.48-.67-1.72-2.29-2.78-3.96-3.41-2.3-.88-3.94-.08-6.02.94-1.04.51-.13,2.05.9,1.55h0Z"/>
            <g>
              <path class="cls-10" d="M45.01,52.79c0,4.44-2.28,8.03-5.1,8.03s-5.1-3.6-5.1-8.03,2.28-8.03,5.1-8.03,5.1,3.6,5.1,8.03Z"/>
              <circle class="cls-1" cx="39.85" cy="49.35" r="1.7"/>
              <circle class="cls-1" cx="41.54" cy="56.82" r="1.7"/>
            </g>
            <g>
              <ellipse class="cls-10" cx="73.22" cy="52.79" rx="5.1" ry="8.03"/>
              <circle class="cls-1" cx="73.16" cy="49.35" r="1.7"/>
              <circle class="cls-1" cx="74.85" cy="56.82" r="1.7"/>
            </g>
            <g>
              <path class="cls-3" d="M28.53,64.67c1.36-1.56,2.71-3.14,4.04-4.73.5-.6-.36-1.47-.86-.86-1.32,1.6-2.67,3.17-4.04,4.73-.51.59.35,1.46.86.86h0Z"/>
              <path class="cls-3" d="M32.29,64.67c1.36-1.56,2.71-3.14,4.04-4.73.5-.6-.36-1.47-.86-.86-1.32,1.6-2.67,3.17-4.04,4.73-.51.59.35,1.46.86.86h0Z"/>
              <path class="cls-3" d="M36.05,64.67c1.36-1.56,2.71-3.14,4.04-4.73.5-.6-.36-1.47-.86-.86-1.32,1.6-2.67,3.17-4.04,4.73-.51.59.35,1.46.86.86h0Z"/>
            </g>
            <g>
              <path class="cls-3" d="M72.99,64.67c1.36-1.56,2.71-3.14,4.04-4.73.5-.6-.36-1.47-.86-.86-1.32,1.6-2.67,3.17-4.04,4.73-.51.59.35,1.46.86.86h0Z"/>
              <path class="cls-3" d="M76.75,64.67c1.36-1.56,2.71-3.14,4.04-4.73.5-.6-.36-1.47-.86-.86-1.32,1.6-2.67,3.17-4.04,4.73-.51.59.35,1.46.86.86h0Z"/>
              <path class="cls-3" d="M80.51,64.67c1.36-1.56,2.71-3.14,4.04-4.73.5-.6-.36-1.47-.86-.86-1.32,1.6-2.67,3.17-4.04,4.73-.51.59.35,1.46.86.86h0Z"/>
            </g>
            <path class="cls-8" d="M95.79,38.78c0,3.99-.61,7.83-1.71,11.44-.7.16-1.63-.16-2.33-.05-.97.16-1.87.63-2.66,1.18-.18.13-.35.26-.53.4-.92.76-2.28.27-2.47-.91-.51-3.28-2.22-6.81-3.13-9.15-5.38-13.94-37.69-9.92-44.47-7.78-7.18,2.27-10.6,9.2-10.93,16.27v.05c-.06,1.27-1.51,1.92-2.54,1.16-.94-.7-1.96-1.24-2.88-1.54-.65-.22-1.51-.17-2.35-.16-1.08-3.66-1.64-7.56-1.56-11.6C18.62,16.83,36.38-.32,57.64.02c21.13.33,38.15,17.56,38.15,38.77Z"/>
            <g class="cls-6">
              <path class="cls-8" d="M95.79,38.78c0,3.99-.61,7.83-1.71,11.44-.7.16-1.63-.16-2.33-.05-.97.16-1.87.63-2.66,1.18-.18.13-.36.26-.53.4-.91.76-2.28.27-2.46-.91-.51-3.27-2.23-6.81-3.13-9.15-.67-1.76-1.78-3.23-3.21-4.44,3.35-3.8,5.33-8.46,5.33-13.51,0-12.72-12.57-23.03-28.08-23.03s-28.07,10.31-28.07,23.03c0,4.74,1.75,9.15,4.73,12.8-3.92,3.24-5.86,8.4-6.1,13.65v.05c-.06,1.27-1.51,1.92-2.54,1.16-.94-.7-1.96-1.24-2.88-1.54-.65-.22-1.51-.17-2.35-.16-1.08-3.66-1.64-7.56-1.56-11.6C18.62,16.83,36.38-.32,57.64.02c21.13.33,38.15,17.56,38.15,38.77Z"/>
            </g>
            <path class="cls-10" d="M59.29,53.19c-.61-.49-1.66-.69-2.53-.73-.99-.04-2.1-.03-2.9.66-.53.46-.81,1.23-.57,1.88.72,1.96,5.23,1.87,6.18.2.54-.94.34-1.58-.19-2Z"/>
          </g>
        </g>
      </g>
    </g>
  </g>
</svg>