<?xml version="1.0" encoding="UTF-8"?>
<svg id="Layer_2" data-name="Layer 2" xmlns="http://www.w3.org/2000/svg" viewBox="0 0 121.9 210.2">
  <defs>
    <style>
      .cls-1 {
        fill: #54534a;
      }

      .cls-2 {
        fill: #faccbb;
      }

      .cls-3 {
        fill: #e69b81;
      }

      .cls-4 {
        fill: none;
        stroke: #c7a79b;
        stroke-linecap: round;
        stroke-linejoin: round;
        stroke-width: 1.11px;
      }

      .cls-5 {
        fill: #fff;
      }

      .cls-6 {
        fill: #e8e2cc;
      }

      .cls-7 {
        fill: #fa757c;
      }

      .cls-8 {
        fill: #fabca5;
      }

      .cls-9 {
        fill: #fad2c3;
      }

      .cls-10 {
        fill: #fac9b6;
      }

      .cls-11 {
        fill: #403f38;
      }

      .cls-12 {
        fill: #f0bba8;
      }

      .cls-13 {
        fill: #383731;
      }

      .cls-14 {
        fill: #f69a79;
      }

      .cls-15 {
        fill: #f6ae94;
      }

      .cls-16 {
        fill: #d9d3bf;
      }

      .cls-17 {
        fill: #292824;
      }

      .cls-18 {
        fill: #dbd4b6;
      }
    </style>
  </defs>
  <g id="OBJECTS">
    <g>
      <g>
        <g>
          <path class="cls-13" d="M52.06,210.2h0c-5.45,0-9.86-4.41-9.86-9.86v-17.07c0-1.32,1.07-2.39,2.39-2.39h14.94c1.32,0,2.39,1.07,2.39,2.39v17.07c0,5.45-4.41,9.86-9.86,9.86Z"/>
          <path class="cls-17" d="M45.82,200.34v-17.07c0-1.32,1.07-2.39,2.39-2.39h-3.62c-1.32,0-2.39,1.07-2.39,2.39v17.07c0,5.45,4.41,9.86,9.86,9.86.62,0,1.22-.06,1.81-.17-4.58-.85-8.05-4.86-8.05-9.69Z"/>
          <rect class="cls-15" x="42.2" y="190.78" width="19.72" height="8.72"/>
          <rect class="cls-3" x="42.2" y="190.78" width="3.62" height="8.72"/>
        </g>
        <g>
          <path class="cls-13" d="M78.91,210.2h0c-5.45,0-9.86-4.41-9.86-9.86v-17.07c0-1.32,1.07-2.39,2.39-2.39h14.94c1.32,0,2.39,1.07,2.39,2.39v17.07c0,5.45-4.41,9.86-9.86,9.86Z"/>
          <path class="cls-17" d="M72.67,200.34v-17.07c0-1.32,1.07-2.39,2.39-2.39h-3.62c-1.32,0-2.39,1.07-2.39,2.39v17.07c0,5.45,4.41,9.86,9.86,9.86.62,0,1.22-.06,1.81-.17-4.58-.85-8.05-4.86-8.05-9.69Z"/>
          <rect class="cls-15" x="69.05" y="190.78" width="19.72" height="8.72"/>
          <rect class="cls-3" x="69.05" y="190.78" width="3.62" height="8.72"/>
        </g>
      </g>
      <g>
        <g>
          <g>
            <polygon class="cls-9" points="99.73 181.99 29.48 181.99 36.12 118.38 90.88 118.38 99.73 181.99"/>
            <polygon class="cls-2" points="90.88 118.38 82.96 118.38 91.44 179.3 29.76 179.3 29.48 181.99 99.73 181.99 90.88 118.38"/>
          </g>
          <line class="cls-4" x1="56.03" y1="139.95" x2="56.03" y2="178.12"/>
          <g>
            <g>
              <path class="cls-1" d="M69.05,151.52c0,2.61-2.11,4.72-4.72,4.72s-4.72-2.11-4.72-4.72,2.11-4.72,4.72-4.72,4.72,2.11,4.72,4.72Z"/>
              <path class="cls-13" d="M68.36,151.52c0,2.22-1.8,4.02-4.02,4.02s-4.02-1.8-4.02-4.02,1.8-4.02,4.02-4.02,4.02,1.8,4.02,4.02Z"/>
              <g>
                <circle class="cls-9" cx="62.77" cy="151.52" r=".89"/>
                <path class="cls-9" d="M66.79,151.52c0,.49-.4.89-.89.89s-.89-.4-.89-.89.4-.89.89-.89.89.4.89.89Z"/>
              </g>
            </g>
            <g>
              <path class="cls-1" d="M69.05,166.55c0,2.61-2.11,4.72-4.72,4.72s-4.72-2.11-4.72-4.72,2.11-4.72,4.72-4.72,4.72,2.11,4.72,4.72Z"/>
              <path class="cls-13" d="M68.36,166.55c0,2.22-1.8,4.02-4.02,4.02s-4.02-1.8-4.02-4.02,1.8-4.02,4.02-4.02,4.02,1.8,4.02,4.02Z"/>
              <g>
                <circle class="cls-9" cx="62.77" cy="166.55" r=".89"/>
                <path class="cls-9" d="M66.79,166.55c0,.49-.4.89-.89.89s-.89-.4-.89-.89.4-.89.89-.89.89.4.89.89Z"/>
              </g>
            </g>
          </g>
        </g>
        <g>
          <g>
            <path class="cls-6" d="M54.93,188.07h-22.68c-4.58,0-8.3-3.71-8.3-8.3h0c0-4.58,3.71-8.3,8.3-8.3h22.68c4.58,0,8.3,3.71,8.3,8.3h0c0,4.58-3.71,8.3-8.3,8.3Z"/>
            <path class="cls-18" d="M54.93,183.65h-22.68c-3.81,0-7.02-2.58-7.99-6.08-.2.71-.31,1.45-.31,2.21,0,4.58,3.71,8.3,8.3,8.3h22.68c4.58,0,8.3-3.71,8.3-8.3,0-.77-.11-1.51-.31-2.21-.97,3.51-4.17,6.08-7.99,6.08Z"/>
          </g>
          <g>
            <path class="cls-6" d="M94.2,188.07h-22.68c-4.58,0-8.3-3.71-8.3-8.3h0c0-4.58,3.71-8.3,8.3-8.3h22.68c4.58,0,8.3,3.71,8.3,8.3h0c0,4.58-3.71,8.3-8.3,8.3Z"/>
            <path class="cls-18" d="M94.2,183.65h-22.68c-3.81,0-7.02-2.58-7.99-6.08-.19.71-.31,1.45-.31,2.21,0,4.58,3.71,8.3,8.3,8.3h22.68c4.58,0,8.3-3.71,8.3-8.3,0-.77-.11-1.51-.31-2.21-.97,3.51-4.17,6.08-7.99,6.08Z"/>
          </g>
        </g>
      </g>
      <g>
        <g>
          <path class="cls-9" d="M1.82,81.31S-3.11,10.11,63.78,13.83c69.7,3.87,55.87,76.34,55.87,76.34L1.82,81.31Z"/>
          <path class="cls-10" d="M63.78,20.5c47.41,2.63,56.17,37,56.92,58.71.71-20.4-4.27-62.46-56.92-65.39C-1.87,10.18,1.67,78.7,1.82,81.24c.74-17.67,7.82-63.74,61.96-60.73Z"/>
        </g>
        <path class="cls-13" d="M64.88,139.95s51.26-7.31,52.55-55.87c0,0-16.59-52-56.42-48.12C21.18,39.83,2.23,85.26,6.25,100.68c6.64,25.45,58.63,39.27,58.63,39.27"/>
        <path class="cls-15" d="M60.96,40.1h4.53c26.68,0,48.35,21.66,48.35,48.35h0c0,21.55-17.5,39.05-39.05,39.05h-23.13c-21.55,0-39.05-17.5-39.05-39.05h0c0-26.68,21.66-48.35,48.35-48.35Z"/>
        <g>
          <path class="cls-13" d="M78.16,59.74s-3.32,31.63,37.61,38.77c0,0,11.01-26.97-23.26-54.17-34.27-27.2-14.35,15.4-14.35,15.4Z"/>
          <path class="cls-11" d="M85.28,52.26s-4.21-9.01-5.43-16.09c-15.69-6.38-1.69,23.57-1.69,23.57,0,0-3.32,31.63,37.61,38.77,0,0,1.33-3.26,1.62-8.65-35.13-8.88-32.12-37.61-32.12-37.61Z"/>
          <path class="cls-13" d="M82.86,40.74s2.3,35.89-40.3,39.44c0,0-27.66,8.25-18.61,38.19,0,0-23.07-9.1-15.38-37.14,7.69-28.04,30.63-59.06,74.29-40.5Z"/>
          <path class="cls-11" d="M82.86,40.74c-3.11-1.32-6.12-2.39-9.03-3.23-.17,7.1-3.23,34.69-40.31,37.78,0,0-26.37,7.87-19.19,36.12,4.58,4.97,9.61,6.96,9.61,6.96-9.04-29.94,18.61-38.19,18.61-38.19,42.6-3.55,40.3-39.44,40.3-39.44Z"/>
        </g>
        <g>
          <path class="cls-6" d="M70.02,145.96c-2.74,0-5.56-.15-8.44-.45h0c-2.92-.31-5.98-.78-9.09-1.39-19.97-3.96-33.97-13.36-45.4-30.5-12.83-19.24-6.27-43.75,4.15-60.27,11.97-18.99,31.87-28.28,53.22-24.85,23.15,3.71,39.6,12.91,48.91,27.34,9.36,14.51,11.06,34.14,4.91,56.76-4.33,15.91-16.3,27.42-32.86,31.56-4.78,1.2-9.93,1.8-15.39,1.8ZM62.86,133.27c7.2.76,13.78.4,19.56-1.04,12.29-3.08,20.81-11.2,23.98-22.86,3.63-13.37,6-32.35-3.37-46.87-7.34-11.37-20.97-18.73-40.53-21.87-16.33-2.62-31.61,4.58-40.87,19.27-8.36,13.25-13.88,32.53-4.32,46.88,9.59,14.39,20.82,21.94,37.55,25.26,2.75.55,5.44.96,7.99,1.23h0Z"/>
          <g>
            <path class="cls-18" d="M118.9,107.29c-4.33,15.91-16.3,27.42-32.86,31.56-4.78,1.2-9.93,1.8-15.39,1.8-2.74,0-5.56-.15-8.44-.45h0c-2.92-.31-5.98-.78-9.09-1.39-19.97-3.96-33.97-13.36-45.4-30.5C1.91,99.6.08,89.82.78,80.18c-1.87,11.29-.57,23.11,6.31,33.42,11.42,17.14,25.43,26.55,45.4,30.5,3.12.62,6.18,1.09,9.09,1.39h0c2.88.3,5.7.45,8.44.45,5.46,0,10.61-.6,15.39-1.8,16.56-4.15,28.54-15.65,32.86-31.56,1.69-6.22,2.79-12.21,3.29-17.94-.6,4.09-1.49,8.31-2.67,12.63Z"/>
            <path class="cls-18" d="M103.66,57.2c-7.34-11.37-20.97-18.73-40.53-21.87-16.33-2.62-31.61,4.58-40.87,19.27-4.84,7.68-8.73,17.38-9.28,26.98,1.39-7.8,4.7-15.41,8.66-21.67,9.26-14.69,24.54-21.89,40.87-19.27,19.55,3.14,33.19,10.49,40.53,21.87,6,9.3,7.18,20.42,6.31,30.73,1.77-11.68,1.36-25.11-5.68-36.03Z"/>
          </g>
        </g>
        <g>
          <path class="cls-13" d="M63.78,115.98c3.81,0,7.11-2.18,8.73-5.35.86-1.69-.69-3.57-2.5-3.04-1.63.48-3.61.86-5.87.9-2.27.04-4.27-.28-5.95-.72-1.87-.49-3.37,1.56-2.35,3.2,1.9,3.07,4.87,5.02,7.94,5.02Z"/>
          <path class="cls-7" d="M63.78,110.71c-2.3,0-4.25,1.47-4.97,3.52,1.5,1.11,3.22,1.75,4.97,1.75,1.86,0,3.59-.52,5.07-1.42-.62-2.22-2.65-3.85-5.07-3.85Z"/>
        </g>
        <g>
          <path class="cls-9" d="M75.43,25.24S89.52-1.99,100.42,2.49s-5.77,33.64-5.77,33.64l-19.22-10.89Z"/>
          <path class="cls-8" d="M78.95,25.88s9.52-18.4,16.88-15.37c7.36,3.03-3.9,22.73-3.9,22.73l-12.99-7.36Z"/>
        </g>
        <g>
          <path class="cls-9" d="M47.15,23.24S33.05-3.99,22.16.5c-10.89,4.48,5.77,33.64,5.77,33.64l19.22-10.89Z"/>
          <path class="cls-8" d="M43.62,23.89s-9.52-18.4-16.88-15.37c-7.36,3.03,3.9,22.73,3.9,22.73l12.99-7.36Z"/>
        </g>
        <g>
          <ellipse class="cls-14" cx="40.5" cy="105.43" rx="6.58" ry="3.29"/>
          <ellipse class="cls-14" cx="89.37" cy="105.43" rx="6.58" ry="3.29"/>
        </g>
        <g>
          <path class="cls-13" d="M41.03,87.37s-2.31,1.11-4.73-.09c-.58-.29-1.17.39-.81.93.71,1.05,1.68,2.04,2.86,2.19,0,0-.89,1.43-2.41,1.96-.56.2-.57.98-.02,1.2,1.44.56,2.96.85,3.45-.13.99-2,2.32-6.41,2.32-6.41l-.67.35Z"/>
          <g>
            <circle class="cls-13" cx="44.94" cy="93.23" r="7.12"/>
            <circle class="cls-5" cx="43.43" cy="90.76" r="2.47"/>
          </g>
        </g>
        <g>
          <path class="cls-13" d="M87.45,87.37s2.31,1.11,4.73-.09c.58-.29,1.17.39.81.93-.71,1.05-1.68,2.04-2.86,2.19,0,0,.89,1.43,2.41,1.96.56.2.57.98.02,1.2-1.44.56-2.96.85-3.45-.13-.99-2-2.32-6.41-2.32-6.41l.67.35Z"/>
          <g>
            <circle class="cls-13" cx="83.54" cy="93.23" r="7.12"/>
            <path class="cls-5" d="M82.59,90.76c0,1.36,1.1,2.47,2.47,2.47s2.47-1.1,2.47-2.47-1.1-2.47-2.47-2.47-2.47,1.1-2.47,2.47Z"/>
          </g>
        </g>
      </g>
      <g>
        <g>
          <path class="cls-9" d="M100.62,148.29l-1.94.5c-4.85,1.26-9.77-1.79-10.8-6.7l-4.02-19.17c-.96-4.59,1.85-9.13,6.4-10.31h0c4.51-1.17,9.15,1.39,10.56,5.83l5.96,18.67c1.53,4.8-1.28,9.9-6.16,11.17Z"/>
          <path class="cls-12" d="M101.29,142.22l-1.94.5c-4.85,1.26-9.77-1.79-10.8-6.7l-3.95-18.84c-.86,1.71-1.16,3.72-.74,5.73l4.02,19.17c1.03,4.91,5.95,7.96,10.8,6.7l1.94-.5c4.7-1.22,7.47-5.99,6.3-10.63-1.09,2.18-3.07,3.9-5.63,4.57Z"/>
        </g>
        <g>
          <path class="cls-15" d="M100.82,118.45c-1.42-4.44-6.05-7-10.56-5.83-4.54,1.17-7.36,5.71-6.4,10.31l1.13,5.38,17.07-5.98-1.24-3.87Z"/>
          <path class="cls-3" d="M83.87,123.01c.68-3.15,3.07-5.79,6.38-6.65,4.51-1.17,9.15,1.39,10.56,5.83l.16.5,1.08-.38-1.24-3.87c-1.42-4.44-6.05-7-10.56-5.83-4.54,1.17-7.36,5.71-6.4,10.31l.02.09Z"/>
        </g>
        <g>
          <path class="cls-6" d="M101.84,126.51l-14.55,5.02c-1.9.66-3.98-.35-4.63-2.26h0c-.66-1.9.35-3.98,2.26-4.63l14.55-5.02c1.9-.66,3.98.35,4.63,2.26h0c.66,1.9-.35,3.98-2.26,4.63Z"/>
          <path class="cls-16" d="M104.1,121.88c-.08-.25-.19-.48-.32-.69.05,1.56-.9,3.04-2.45,3.57l-14.55,5.02c-1.66.57-3.44-.12-4.31-1.56.01.35.08.71.2,1.06h0c.66,1.9,2.73,2.91,4.63,2.26l14.55-5.02c1.9-.66,2.91-2.73,2.26-4.63Z"/>
        </g>
      </g>
      <g>
        <g>
          <path class="cls-9" d="M28.14,149.31l1.94.5c4.85,1.26,9.77-1.79,10.8-6.7l4.02-19.17c.96-4.59-1.85-9.13-6.4-10.31h0c-4.51-1.17-9.15,1.39-10.56,5.83l-5.96,18.67c-1.53,4.8,1.28,9.9,6.16,11.17Z"/>
          <path class="cls-12" d="M27.48,143.25l1.94.5c4.85,1.26,9.77-1.79,10.8-6.7l3.95-18.84c.86,1.71,1.16,3.72.74,5.73l-4.02,19.17c-1.03,4.91-5.95,7.96-10.8,6.7l-1.94-.5c-4.7-1.22-7.47-5.99-6.3-10.63,1.09,2.18,3.07,3.9,5.63,4.57Z"/>
        </g>
        <g>
          <path class="cls-15" d="M27.95,119.47c1.42-4.44,6.05-7,10.56-5.83,4.54,1.17,7.36,5.71,6.4,10.31l-1.13,5.38-17.07-5.98,1.24-3.87Z"/>
          <path class="cls-3" d="M44.89,124.04c-.68-3.15-3.07-5.79-6.38-6.65-4.51-1.17-9.15,1.39-10.56,5.83l-.16.5-1.08-.38,1.24-3.87c1.42-4.44,6.05-7,10.56-5.83,4.54,1.17,7.36,5.71,6.4,10.31l-.02.09Z"/>
        </g>
        <g>
          <path class="cls-6" d="M26.92,127.54l14.55,5.02c1.9.66,3.98-.35,4.63-2.26h0c.66-1.9-.35-3.98-2.26-4.63l-14.55-5.02c-1.9-.66-3.98.35-4.63,2.26h0c-.66,1.9.35,3.98,2.26,4.63Z"/>
          <path class="cls-16" d="M24.66,122.91c.08-.25.19-.48.32-.69-.06,1.56.9,3.04,2.45,3.57l14.55,5.02c1.66.57,3.44-.12,4.31-1.56-.01.35-.08.71-.2,1.06h0c-.66,1.9-2.73,2.91-4.63,2.26l-14.55-5.02c-1.9-.66-2.91-2.73-2.26-4.63Z"/>
        </g>
      </g>
    </g>
  </g>
</svg>