<?xml version="1.0" encoding="UTF-8"?>
<svg id="Layer_2" data-name="Layer 2" xmlns="http://www.w3.org/2000/svg" viewBox="0 0 135.56 188.89">
  <defs>
    <style>
      .cls-1 {
        fill: #fcd2d7;
      }

      .cls-2 {
        fill: #ddb483;
      }

      .cls-3 {
        fill: #a179a1;
      }

      .cls-4 {
        fill: #a1d0c6;
      }

      .cls-5 {
        fill: #424242;
      }

      .cls-6 {
        fill: #fdc0c6;
      }

      .cls-7 {
        fill: #ffe6d5;
      }

      .cls-8 {
        fill: #f25c80;
      }

      .cls-8, .cls-9 {
        opacity: .3;
      }

      .cls-10 {
        fill: #2a1c16;
      }

      .cls-11 {
        fill: #cb8947;
      }

      .cls-12 {
        fill: #f4f4f4;
      }

      .cls-13 {
        fill: #fcdb8a;
      }

      .cls-14 {
        fill: #fae37b;
      }

      .cls-15 {
        fill: #6c3534;
      }

      .cls-9 {
        fill: #f98787;
      }
    </style>
  </defs>
  <g id="OBJECTS">
    <g>
      <path class="cls-5" d="M28.21,16.34s57.33,21.16,92.25,3.9c0,0-30.59-30.18-78.58-12.1-5.13,1.93-8.11,5.09-13.67,8.2Z"/>
      <g>
        <g>
          <g>
            <g>
              <path class="cls-6" d="M6.43,48.82s-14.68,103.86.32,120.35c15,16.49,113.46,11.62,121.49,2.33,9.67-11.17,5.98-99.58,5.98-99.58"/>
              <path class="cls-7" d="M92.81,105.22l-24.34-2.05-24.33,2.05S.49,127.02,4.41,138.94c3.92,11.93,18.25,5.22,20.41,4.1,2.16-1.12,1.77,43.42,7.85,44.73,6.08,1.3,14.33,1.68,14.92,0,.59-1.68,3.73-13.23,4.12-13.79.39-.56,15.11,0,15.11,0,0,0,14.72-.56,15.11,0,.39.56,3.53,12.11,4.12,13.79.59,1.68,8.83,1.3,14.92,0,6.08-1.3,5.69-45.84,7.85-44.73,2.16,1.12,16.49,7.83,20.41-4.1,3.93-11.93-36.42-33.72-36.42-33.72Z"/>
              <path class="cls-10" d="M103.61,81.42c0,5.25-2.01,6-4.5,6s-4.5-.75-4.5-6,2.01-9.5,4.5-9.5,4.5,4.25,4.5,9.5Z"/>
              <path class="cls-10" d="M44.86,81.42c0,5.25-2.01,6-4.5,6s-4.5-.75-4.5-6,2.01-9.5,4.5-9.5,4.5,4.25,4.5,9.5Z"/>
              <path class="cls-8" d="M116.1,94.17c0,.64-2.79,1.17-6.24,1.17s-6.24-.52-6.24-1.17,2.79-1.17,6.24-1.17,6.24.52,6.24,1.17Z"/>
              <path class="cls-8" d="M38.1,94.17c0,.64-2.79,1.17-6.24,1.17s-6.24-.52-6.24-1.17,2.79-1.17,6.24-1.17,6.24.52,6.24,1.17Z"/>
              <path class="cls-12" d="M54.93,104.18s-3.52,11.24,7.98,13.49c11.5,2.25,25.15,3.5,25.02-13.49l7.81,1.7,13.09,37.01-3.16,26.28-19.92-2-5.17,2.25-28.86,4.41-4.97-4.83-18.69,3.43-3.22-29.54s17.48-33.25,18.16-37.23c.68-3.98,11.93-1.48,11.93-1.48Z"/>
              <polygon class="cls-11" points="81.94 173.98 105.74 171.23 107.35 155.17 26.17 155.17 28.06 172.43 51.72 173.98 81.94 173.98"/>
              <polygon class="cls-11" points="93.75 106.32 102.06 163.33 95.31 163.33 88.06 106.32 93.75 106.32"/>
              <polygon class="cls-11" points="44.86 104.46 34.35 162.33 41.1 162.33 50.56 104.46 44.86 104.46"/>
              <path class="cls-14" d="M102.2,162.33c0,1.64-1.33,2.97-2.97,2.97s-2.97-1.33-2.97-2.97,1.33-2.97,2.97-2.97,2.97,1.33,2.97,2.97Z"/>
              <path class="cls-14" d="M40.29,163.33c0,1.64-1.33,2.97-2.97,2.97s-2.97-1.33-2.97-2.97,1.33-2.97,2.97-2.97,2.97,1.33,2.97,2.97Z"/>
              <path class="cls-7" d="M132.73,60.9c0,32.09-28.2,48.65-62.99,48.65S6.75,92.99,6.75,60.9,34.95,2.8,69.74,2.8s62.99,26.01,62.99,58.1Z"/>
              <path class="cls-6" d="M133.57,75.64s-56.36,3.87-105.11-32.33l-19.38,37.34S-6.08,30.62,25.44,11.8c27.41-16.37,99.77-5.36,107.33-7.3,0,0-3.81,9.55-16.42,7.83,0,0,26.27,15.72,17.22,63.3Z"/>
            </g>
            <rect class="cls-4" x="16.37" y="25.2" width="9.25" height="25.5" rx="2.8" ry="2.8" transform="translate(-21.6 29.8) rotate(-50.22)"/>
            <rect class="cls-4" x="9.81" y="45.57" width="8.27" height="16.76" rx="2.9" ry="2.9" transform="translate(-36.44 30.15) rotate(-50.22)"/>
            <path class="cls-15" d="M96.35,83.95c0,5.25-2.01,6-4.5,6s-4.5-.75-4.5-6,2.01-9.5,4.5-9.5,4.5,4.25,4.5,9.5Z"/>
            <path class="cls-15" d="M50.62,83.95c0,5.25-2.01,6-4.5,6s-4.5-.75-4.5-6,2.01-9.5,4.5-9.5,4.5,4.25,4.5,9.5Z"/>
            <path class="cls-8" d="M108.44,94.37c0,.64-2.79,1.17-6.24,1.17s-6.24-.52-6.24-1.17,2.79-1.17,6.24-1.17,6.24.52,6.24,1.17Z"/>
            <path class="cls-8" d="M43.52,95.53c0,.64-2.79,1.17-6.24,1.17s-6.24-.52-6.24-1.17,2.79-1.17,6.24-1.17,6.24.52,6.24,1.17Z"/>
            <path class="cls-9" d="M75.33,97.73c0,2.78-2.41,5.03-5.39,5.03s-5.39-2.25-5.39-5.03,2.41-2.13,5.39-2.13,5.39-.65,5.39,2.13Z"/>
            <path class="cls-13" d="M75.03,143.46c-6.81,0-12.33-5.52-12.33-12.33,0-1.55.3-3.02.82-4.39-3.02,2.25-4.98,5.83-4.98,9.89,0,6.81,5.52,12.33,12.33,12.33,5.26,0,9.74-3.3,11.52-7.95-2.05,1.53-4.59,2.45-7.35,2.45Z"/>
            <polygon class="cls-2" points="117.74 115.33 121.08 148.17 135.47 119.5 117.74 115.33"/>
            <path class="cls-3" d="M126.71,115.39c-.27,1.37-1.61,2.27-2.98,2-1.37-.27-2.27-1.61-2-2.98.27-1.37,1.61-2.27,2.98-2,1.37.27,2.27,1.61,2,2.98Z"/>
            <path class="cls-3" d="M129.84,116.26c-.27,1.37-1.61,2.27-2.98,2s-2.27-1.61-2-2.98c.27-1.37,1.61-2.27,2.98-2s2.27,1.61,2,2.98Z"/>
            <path class="cls-3" d="M132.97,116.86c-.27,1.37-1.61,2.27-2.98,2-1.37-.27-2.27-1.61-2-2.98.27-1.37,1.61-2.27,2.98-2,1.37.27,2.27,1.61,2,2.98Z"/>
            <path class="cls-3" d="M135.51,119.13c-.27,1.37-1.61,2.27-2.98,2-1.37-.27-2.27-1.61-2-2.98.27-1.37,1.61-2.27,2.98-2,1.37.27,2.27,1.61,2,2.98Z"/>
            <path class="cls-3" d="M122.77,115.68c-.27,1.37-1.61,2.27-2.98,2-1.37-.27-2.27-1.61-2-2.98.27-1.37,1.61-2.27,2.98-2,1.37.27,2.27,1.61,2,2.98Z"/>
            <path class="cls-3" d="M119.11,112.94s3.67-8.48,11.38-4.65c6.91,3.44,4.37,9.43,4.37,9.43"/>
          </g>
          <path class="cls-4" d="M84.89,183.85l19.13-1.75s-.61,3.95-2.24,5.22c-1.64,1.27-13.68,2.14-15.72.45l-1.16-3.92Z"/>
          <path class="cls-4" d="M48.77,183.85l-19.13-1.75s.61,3.95,2.24,5.22c1.64,1.27,13.68,2.14,15.72.45l1.16-3.92Z"/>
        </g>
        <path class="cls-1" d="M118.66,13.62s-65.69,21.2-100.61,3.94c0,0,30.92-29.82,78.91-11.73,5.13,1.93,16.13,4.68,21.7,7.8Z"/>
        <path class="cls-1" d="M85.5,2.3s47.75,1.54,49.41-.96c0,0-3.53,13.69-19.08,12.16"/>
      </g>
    </g>
  </g>
</svg>