<?xml version="1.0" encoding="UTF-8"?>
<svg id="Layer_2" data-name="Layer 2" xmlns="http://www.w3.org/2000/svg" viewBox="0 0 137.84 192.35">
  <defs>
    <style>
      .cls-1 {
        fill: #ffe2cf;
      }

      .cls-2 {
        fill: #ffd683;
      }

      .cls-3 {
        fill: #393734;
      }

      .cls-4 {
        fill: #3c75ab;
      }

      .cls-5 {
        fill: #ffd278;
      }

      .cls-6 {
        fill: #ffe6d5;
      }

      .cls-7 {
        fill: #f25c80;
      }

      .cls-7, .cls-8 {
        opacity: .3;
      }

      .cls-9 {
        fill: #ffcf5d;
      }

      .cls-10 {
        fill: #f9ebb8;
      }

      .cls-11 {
        fill: #6c3534;
      }

      .cls-8 {
        fill: #f98787;
      }
    </style>
  </defs>
  <g id="OBJECTS">
    <g>
      <g>
        <g>
          <g>
            <g>
              <path class="cls-1" d="M88.65,108.68l-24.34-2.05-24.33,2.05S-3.68,130.47.25,142.4c3.92,11.93,18.25,5.22,20.41,4.1,2.16-1.12,1.77,43.42,7.85,44.73,6.08,1.3,14.33,1.68,14.92,0,.59-1.68,3.73-13.23,4.12-13.79.39-.56,15.11,0,15.11,0,0,0,14.72-.56,15.11,0s3.53,12.11,4.12,13.79c.59,1.68,8.83,1.3,14.92,0s5.69-45.84,7.85-44.73c2.16,1.12,16.49,7.83,20.41-4.1,3.93-11.93-36.42-33.72-36.42-33.72Z"/>
              <path class="cls-4" d="M39.98,108.68S5.87,127.05,1.9,135.67l6.85,13.82s8.32.39,11.91-2.99l2.27,20.29,79.55-2.36,2.17-17.93s7.35,3.56,10.76,2.99c3.41-.57,9.02-12.71,8.11-14.06s-11.78-16.03-34.11-26.75c-22.33-10.72-49.44,0-49.44,0Z"/>
              <polygon class="cls-3" points="90.61 109.77 98.92 166.79 92.17 166.79 84.92 109.77 90.61 109.77"/>
              <polygon class="cls-3" points="39.51 108.77 31.2 165.79 37.95 165.79 45.2 108.77 39.51 108.77"/>
              <path class="cls-4" d="M80.73,187.49l19.13-1.75s-.61,3.95-2.24,5.22c-1.64,1.27-13.68,2.14-15.72.45l-1.16-3.92Z"/>
              <path class="cls-4" d="M44.61,187.49l-19.13-1.75s.61,3.95,2.24,5.22c1.64,1.27,13.68,2.14,15.72.45l1.16-3.92Z"/>
              <path class="cls-3" d="M98.96,188.5l-17.56,1.13-3.77-12.7h-30.22l-3.56,12.93s-16.44-.03-17.08-.67c-2.17-2.16-3.84-23.45-3.84-23.45l79.55-1.32s-.48,6.55-1.27,13.27c-.86,7.28-2.26,10.8-2.26,10.8Z"/>
              <path class="cls-10" d="M81.17,116.78c4.04,6.48-1.78,17.62-5.5,16.58-3.72-1.04-9.89-9.17-9.89-9.17l-.36-4.49s12.45-8.21,15.74-2.93Z"/>
              <path class="cls-10" d="M49.99,117.42c-4.04,6.48,1.78,17.62,5.5,16.58,3.72-1.04,9.89-9.17,9.89-9.17l.36-4.49s-12.45-8.2-15.74-2.93Z"/>
              <path class="cls-9" d="M69.69,123.04c0,2.16-1.75,3.92-3.92,3.92s-3.92-1.75-3.92-3.92,1.75-3.92,3.92-3.92,3.92,1.75,3.92,3.92Z"/>
              <path class="cls-6" d="M128.57,64.35c0,32.09-28.2,48.65-62.99,48.65S2.59,96.44,2.59,64.35,30.79,6.25,65.58,6.25s62.99,26.01,62.99,58.1Z"/>
            </g>
            <path class="cls-11" d="M93.92,84.87c0,5.25-2.01,6-4.5,6s-4.5-.75-4.5-6,2.01-9.5,4.5-9.5,4.5,4.25,4.5,9.5Z"/>
            <path class="cls-11" d="M45.2,84.87c0,5.25-2.01,6-4.5,6s-4.5-.75-4.5-6,2.01-9.5,4.5-9.5,4.5,4.25,4.5,9.5Z"/>
            <path class="cls-7" d="M107.03,95.29c0,.64-2.79,1.17-6.24,1.17s-6.24-.52-6.24-1.17,2.79-1.17,6.24-1.17,6.24.52,6.24,1.17Z"/>
            <path class="cls-7" d="M39.44,96.46c0,.64-2.79,1.17-6.24,1.17s-6.24-.52-6.24-1.17,2.79-1.17,6.24-1.17,6.24.52,6.24,1.17Z"/>
            <path class="cls-9" d="M3.8,75.37s56.36,3.87,105.11-32.33l17.35,36.21s17.19-48.89-14.33-67.71C84.53-4.83,12.17,6.17,4.61,4.24c0,0,3.81,9.55,16.42,7.83,0,0-26.27,15.72-17.22,63.3Z"/>
            <path class="cls-8" d="M72.63,98.65c0,2.78-2.41,5.03-5.39,5.03s-5.39-2.25-5.39-5.03,2.41-2.13,5.39-2.13,5.39-.65,5.39,2.13Z"/>
            <path class="cls-10" d="M99.06,165.79c0,1.64-1.33,2.97-2.97,2.97s-2.97-1.33-2.97-2.97,1.33-2.97,2.97-2.97,2.97,1.33,2.97,2.97Z"/>
            <path class="cls-10" d="M37.15,166.79c0,1.64-1.33,2.97-2.97,2.97s-2.97-1.33-2.97-2.97,1.33-2.97,2.97-2.97,2.97,1.33,2.97,2.97Z"/>
            <rect class="cls-10" x="107.35" y="138.88" width="34.7" height="3.01" transform="translate(-41.42 227.94) rotate(-76.18)"/>
            <path class="cls-9" d="M137.84,118c0,4.16-3.38,7.54-7.54,7.54s-7.54-3.38-7.54-7.54,3.38-7.54,7.54-7.54,7.54,3.38,7.54,7.54Z"/>
          </g>
          <path class="cls-5" d="M21.03,12.07s64.16,23.06,99.08,5.8c0,0-30.59-30.18-78.58-12.1-5.13,1.93-14.94,3.18-20.5,6.3Z"/>
          <path class="cls-5" d="M53,2.25S5.25,3.79,3.58,1.29c0,0,1.88,12.31,17.44,10.78"/>
        </g>
        <path class="cls-2" d="M129.49,119.63c3.58,0,6.5-2.79,6.71-6.32-1.38-1.74-3.51-2.86-5.91-2.86-3.24,0-6,2.05-7.06,4.92.99,2.49,3.41,4.26,6.26,4.26Z"/>
      </g>
      <path class="cls-5" d="M21.03,12.07s64.16,23.06,99.08,5.8c0,0-30.59-30.18-78.58-12.1-5.13,1.93-14.94,3.18-20.5,6.3Z"/>
      <path class="cls-5" d="M53,2.25S5.25,3.79,3.58,1.29c0,0,1.88,12.31,17.44,10.78"/>
    </g>
  </g>
</svg>