<?xml version="1.0" encoding="UTF-8"?>
<svg xmlns="http://www.w3.org/2000/svg" viewBox="0 0 96.03 146.24">
  <defs>
    <style>
      .cls-1, .cls-2, .cls-3, .cls-4, .cls-5 {
        mix-blend-mode: multiply;
      }

      .cls-1, .cls-6 {
        fill: #e6e6e6;
      }

      .cls-2, .cls-7 {
        fill: #ccc;
      }

      .cls-8 {
        fill: #fff;
      }

      .cls-9 {
        opacity: .53;
      }

      .cls-3, .cls-10 {
        fill: #42210b;
      }

      .cls-3, .cls-5 {
        opacity: .5;
      }

      .cls-11 {
        fill: #df6747;
      }

      .cls-4, .cls-12 {
        fill: #f5d6b8;
      }

      .cls-13 {
        isolation: isolate;
      }

      .cls-14 {
        fill: #f7931e;
      }
    </style>
  </defs>
  <g class="cls-13">
    <g id="Layer_2" data-name="Layer 2">
      <g id="OBJECTS">
        <g>
          <path class="cls-6" d="M73.58,142.28c0,2.19-12.09,3.96-27.01,3.96s-27.01-1.77-27.01-3.96,12.09-3.96,27.01-3.96,27.01,1.77,27.01,3.96Z"/>
          <g>
            <path class="cls-10" d="M59.1,119.49c-1.69,1.37-1.67,7.06-1.67,7.06l15.82,5.01c1.1.35,1.82-1.13.87-1.79l-15.01-10.29Z"/>
            <g>
              <g class="cls-9">
                <path class="cls-7" d="M94.95,121.51c-3.41,5.56-13.1.67-17.19-.97-9.46-3.8-17.44-10.81-25.65-18.03-1.79-1.57-4.44-3.52-4.25-6.95.15-2.64,0-5.3.27-7.88,7.01-.33,15.42,4.56,21.92,7.72,7.46,3.62,14.69,8.14,21.41,13.88,1.3,1.11,2.61,2.31,3.53,3.99,1.25,2.29,1.42,5.25.28,7.66-.1.2-.2.39-.31.57Z"/>
              </g>
              <path class="cls-2" d="M84.15,108.61c-1.53.66-3.06,1.31-4.59,2.01-.39.18-.81.42-1.22.62,1.36.64,2.72,1.14,4.08,1.41,1,.2.57,2.26-.42,2.07-1.66-.33-3.3-.99-4.94-1.84.4,1.7.99,3.43,1.52,4.98.42,1.24-.93,2.33-1.36,1.08-.38-1.13-.76-2.25-1.05-3.43-.29-1.16-.71-2.25-.91-3.45-.01-.07,0-.13,0-.19-1.93-1.16-3.84-2.51-5.71-3.84.28,1.85,1.09,3.47,1.11,5.43.01,1.38-1.56,1.38-1.57,0-.02-2.1-1.01-3.95-1.19-6.04-.02-.2.01-.37.06-.51-.93-.65-1.86-1.27-2.77-1.83-1.09-.67-2.18-1.3-3.28-1.93.12.3.23.62.34.93.44,1.24.93,2.54,1.51,3.68.58,1.14-.78,2.21-1.36,1.08-.5-.98-.9-2.09-1.32-3.14-.29-.75-.51-2-1.04-2.51-.35-.33-.41-.85-.3-1.28-1.19-.69-2.38-1.39-3.55-2.15-2.72-1.77-5.45-5-8.36-5.97-.98-.33-.57-2.4.42-2.07,2.34.78,4.2,3.01,6.3,4.53,1.85,1.34,3.77,2.5,5.69,3.61.06-.2.15-.39.34-.51.89-.62,1.77-1.26,2.62-1.99.58-.5,1.32-1.16,2.03-.84.96.43.55,2.5-.42,2.07.12.05,0,0-.11.07-.13.07-.26.18-.38.28-.26.21-.51.45-.77.67-.52.44-1.08.84-1.64,1.22.84.48,1.69.97,2.53,1.46,1.34.79,2.7,1.71,4.09,2.68.12-.3.32-.53.64-.54.84-.04,1.62-.58,2.41-.9,1.04-.41,2.1-.7,3.15-1.05.98-.33,1.4,1.74.42,2.07-1.14.38-2.31.68-3.43,1.17-.44.19-.87.41-1.31.57,1.83,1.29,3.69,2.58,5.56,3.68.17-.31.45-.52.8-.42.37.1.94-.36,1.27-.52.59-.28,1.18-.53,1.77-.8,1.3-.61,2.61-1.13,3.92-1.69.97-.42,1.38,1.66.42,2.07Z"/>
            </g>
            <g>
              <g class="cls-9">
                <path class="cls-7" d="M1.08,120.57c3.41,5.56,13.1.67,17.19-.97,9.46-3.8,17.44-10.81,25.65-18.03,1.79-1.57,4.44-3.52,4.25-6.95-.15-2.64,0-5.3-.27-7.88-7.01-.33-15.42,4.56-21.92,7.72-7.46,3.62-14.69,8.14-21.41,13.88-1.3,1.11-2.61,2.31-3.53,3.99-1.25,2.29-1.42,5.25-.28,7.66.1.2.2.39.31.57Z"/>
              </g>
              <path class="cls-2" d="M11.87,107.66c1.53.66,3.06,1.31,4.59,2.01.39.18.81.42,1.22.62-1.36.64-2.72,1.14-4.08,1.41-1,.2-.57,2.26.42,2.07,1.66-.33,3.3-.99,4.94-1.84-.4,1.7-.99,3.43-1.52,4.98-.42,1.24.93,2.33,1.36,1.08.38-1.13.76-2.25,1.05-3.43.29-1.16.71-2.25.91-3.45.01-.07,0-.13,0-.19,1.93-1.16,3.84-2.51,5.71-3.84-.28,1.85-1.09,3.47-1.11,5.43-.01,1.38,1.56,1.38,1.57,0,.02-2.1,1.01-3.95,1.19-6.04.02-.2-.01-.37-.06-.51.93-.65,1.86-1.27,2.77-1.83,1.09-.67,2.18-1.3,3.28-1.93-.12.3-.23.62-.34.93-.44,1.24-.93,2.54-1.51,3.68-.58,1.14.78,2.21,1.36,1.08.5-.98.9-2.09,1.32-3.14.29-.75.51-2,1.04-2.51.35-.33.41-.85.3-1.28,1.19-.69,2.38-1.39,3.55-2.15,2.72-1.77,5.45-5,8.36-5.97.98-.33.57-2.4-.42-2.07-2.34.78-4.2,3.01-6.3,4.53-1.85,1.34-3.77,2.5-5.69,3.61-.06-.2-.15-.39-.34-.51-.89-.62-1.77-1.26-2.62-1.99-.58-.5-1.32-1.16-2.03-.84-.96.43-.55,2.5.42,2.07-.12.05,0,0,.11.07.13.07.26.18.38.28.26.21.51.45.77.67.52.44,1.08.84,1.64,1.22-.84.48-1.69.97-2.53,1.46-1.34.79-2.7,1.71-4.09,2.68-.12-.3-.32-.53-.64-.54-.84-.04-1.62-.58-2.41-.9-1.04-.41-2.1-.7-3.15-1.05-.98-.33-1.4,1.74-.42,2.07,1.14.38,2.31.68,3.43,1.17.44.19.87.41,1.31.57-1.83,1.29-3.69,2.58-5.56,3.68-.17-.31-.45-.52-.8-.42-.37.1-.94-.36-1.27-.52-.59-.28-1.18-.53-1.77-.8-1.3-.61-2.61-1.13-3.92-1.69-.97-.42-1.38,1.66-.42,2.07Z"/>
            </g>
            <path class="cls-10" d="M64.91,142.4c-.14,1.7-10.62,1.01-12.59.54-.19-.04-.37-.1-.55-.15-.59-.18-.99-.51-1.21-.92l-.11-.63-.16-.9-2.43-13.42,4.78.57,9.26,1.1-.99,9.36c1.96.51,4.17,2.58,4,4.44Z"/>
            <polygon class="cls-3" points="52.64 127.5 50.46 141.24 50.29 140.34 47.87 126.92 52.64 127.5"/>
            <path class="cls-10" d="M45.73,126.92l-2.54,14.06c-.1.52-.35.97-.72,1.3-.43.42-1.01.66-1.64.66-1.01.24-4.29.55-7.25.55-2.76,0-5.22-.26-5.29-1.08-.18-1.99,2.37-4.21,4.4-4.52l-.99-9.28,8.43-1,5.61-.67Z"/>
            <path class="cls-3" d="M45.73,126.92l-2.54,14.06c-.1.52-.35.97-.72,1.3l-2.35-14.68,5.61-.67Z"/>
            <g>
              <path class="cls-10" d="M35.28,105.46l-2.51,2.13,2.6,6.81c.04.09.06.18.08.27-1.37-.18-2.95-.39-4.5-.58l-5.27-6.2c-1.16-1.36-1.04-3.4.26-4.62l12.36-11.68.5,1.56c1.42,4.44.03,9.31-3.53,12.32Z"/>
              <path class="cls-12" d="M34.46,117.27c-2.06,1.34-4.33,1.25-6.73.22-1.09-.47-1.01-2.06.13-2.42l3.1-.98h0c1.55.19,3.13.39,4.5.57.26.98-.13,2.04-.99,2.61Z"/>
            </g>
            <g>
              <path class="cls-10" d="M59.56,105.46l2.51,2.13-2.6,6.81c-.04.09-.06.18-.08.27,1.37-.18,2.95-.39,4.5-.58l5.27-6.2c1.16-1.36,1.04-3.4-.26-4.62l-12.36-11.68-.5,1.56c-1.42,4.44-.03,9.31,3.53,12.32Z"/>
              <path class="cls-12" d="M60.37,117.27c2.06,1.34,4.33,1.25,6.73.22,1.09-.47,1.01-2.06-.13-2.42l-3.1-.98h0c-1.55.19-3.13.39-4.5.57-.26.98.13,2.04.99,2.61Z"/>
            </g>
            <path class="cls-14" d="M61.89,128.59h-30.2c.08-1.9.19-3.71.32-5.44.14-1.81.29-3.52.48-5.14.21-1.97.45-3.81.72-5.53.28-1.85.59-3.56.92-5.14.43-2.07.89-3.91,1.37-5.53.59-2.04,1.19-3.74,1.77-5.14,1.59-3.81,2.99-5.38,3.43-5.45h15.09c.7,1.76,1.33,3.58,1.88,5.45.51,1.67.96,3.39,1.36,5.14.41,1.81.77,3.65,1.07,5.53.29,1.69.53,3.4.73,5.14.22,1.82.4,3.66.54,5.53.14,1.7.24,3.41.32,5.14.09,1.79.16,3.61.2,5.44Z"/>
            <g>
              <path class="cls-10" d="M61.69,123.15h-29.68c.14-1.81.29-3.52.48-5.14h28.88c.14,1.7.24,3.41.32,5.14Z"/>
              <path class="cls-10" d="M60.83,112.48h-27.62c.28-1.85.59-3.56.92-5.14h25.97c.29,1.69.53,3.4.73,5.14Z"/>
              <path class="cls-10" d="M59.03,101.81h-23.53c.59-2.04,1.19-3.74,1.77-5.14h20.4c.51,1.67.96,3.39,1.36,5.14Z"/>
            </g>
            <g class="cls-5">
              <path class="cls-1" d="M36.25,128.6h-4.56c1.23-28.21,7.94-37.22,9-37.37h3.35c-2.96,6.56-8.85,21.82-7.79,37.37Z"/>
              <path class="cls-1" d="M57.87,128.6c1.06-15.54-4.84-30.81-7.79-37.37h5.71c4.33,10.84,5.79,23.71,6.1,37.37h-4.02Z"/>
            </g>
            <path class="cls-11" d="M47.13,94.41s-.02,0-.02,0c-.01,0-.03,0-.04,0-.01,0-.03,0-.04,0,0,0-.02,0-.02,0-3.85.11-10.58,6.18-5.32,9.13,1.93,1.08,3.87.58,4.83-1.45.25-.53.42-1.08.55-1.64.13.56.3,1.11.55,1.64.95,2.03,2.89,2.54,4.83,1.45,5.27-2.95-1.47-9.02-5.32-9.13ZM43.48,102.35c-2.22-.28-2.14-2.24-1-3.6.86-1.02,2.18-2.02,3.56-2.39-.32,2.17-.6,6.23-2.57,5.98ZM50.66,102.35c-1.96.25-2.25-3.81-2.57-5.98,1.38.37,2.7,1.37,3.56,2.39,1.14,1.36,1.22,3.32-1,3.6Z"/>
            <path class="cls-12" d="M84.83,82.23c-1.92,1.1-3.92,1.72-5.79,1.89-1.68,6.14-15.57,10.93-32.47,10.93s-30.9-4.83-32.49-11c-1.7-.23-3.5-.82-5.22-1.82-5.05-2.92-7.54-8.09-5.55-11.54,1.14-1.97,3.49-2.96,6.23-2.9-.06-.2-.13-.39-.18-.6-1.08-3.66-1.64-7.56-1.56-11.6.37-21.26,18.12-38.41,39.39-38.08,21.13.33,38.15,17.56,38.15,38.77,0,3.99-.61,7.83-1.71,11.44-.02.04-.03.07-.04.11,2.97-.22,5.57.76,6.78,2.87,1.99,3.45-.49,8.62-5.55,11.54Z"/>
            <path class="cls-4" d="M84.83,82.22c-1.92,1.1-3.92,1.72-5.79,1.89-.85,3.12-4.85,5.89-10.8,7.86,5.8-4.52,9.4-10.86,9.4-17.86,0-13.73-13.79-24.84-30.8-24.84s-30.79,11.12-30.79,24.84c0,7.16,3.75,13.62,9.77,18.15-6.5-1.99-10.89-4.91-11.74-8.22-1.7-.23-3.5-.82-5.22-1.82-5.05-2.92-7.54-8.09-5.55-11.54,1.14-1.97,3.49-2.96,6.23-2.9-.06-.2-.13-.39-.18-.6-1.08-3.66-1.64-7.56-1.56-11.6.37-21.26,18.12-38.41,39.39-38.08,21.13.33,38.15,17.56,38.15,38.77,0,3.99-.61,7.83-1.71,11.44-.02.04-.03.07-.04.11,2.97-.22,5.57.76,6.78,2.87,1.99,3.45-.49,8.62-5.55,11.54Z"/>
            <g>
              <path class="cls-14" d="M17.41,59.5c-.11-2.39.28-5.85-1.51-7.76-1.71-1.82-4.82.98-5.49,2.81-.74,2,.18,4.35-.49,6.26l-.27-.67c.17,1.6-.18,3.28-.03,4.92.21,2.28,1.01,3.99,2.36,5.87,1.25,1.74,3.03,2.97,4.84,4.03,1.32.77,2.66.83,4.01,1.39-.46-2.29-1.74-4.52-2.24-6.89-.69-3.3-1.03-6.62-1.18-9.97Z"/>
              <path class="cls-14" d="M82.83,58.64l-.27.67c-.67-1.91.25-4.26-.49-6.26-.68-1.82-3.79-4.63-5.49-2.81-1.78,1.9-1.4,5.37-1.51,7.76-.15,3.35-.5,6.67-1.18,9.97-.5,2.37-1.77,4.6-2.24,6.89,1.35-.56,2.69-.62,4.01-1.39,1.81-1.06,3.59-2.29,4.84-4.03,1.35-1.88,2.15-3.59,2.36-5.87.15-1.64-.2-3.32-.03-4.92Z"/>
            </g>
            <path class="cls-14" d="M78.76,45.47c-1.68-4.81-6.37-8.9-10.89-10.63-5.41-2.07-12.02-2.66-17.79-2.66-8.15,0-16.82,1.06-24.05,5.08-4.02,2.23-7.53,5.5-9.88,9.47-1.77,3-4.81,9.97-1.88,13.06,1.03,1.09,2.64,1.34,4.14,1.43,4.53.26,8.53-.79,12.85-1.94,2.57-.68,6.59-.66,8.52-2.75-1.31,1.42-3.7,2.95-5.41,3.83,8.02-.19,15.09-2.9,21.94-6.81.11,2.91-.48,5.07-1.8,7.61,3.11.15,6.25-.31,9.3-.73,5.44-.76,11.91-1.26,14.58-6.88,1.3-2.73,1.26-5.51.36-8.08Z"/>
            <path class="cls-10" d="M24.93,60.71c1.55-2.01,3.43-3.51,5.94-2.07,1,.58,1.91-.97.9-1.55-3.43-1.97-6.24-.1-8.39,2.71-.7.91.85,1.81,1.55.9h0Z"/>
            <path class="cls-10" d="M58.01,58.49c1.44-.7,2.61-1.44,4.27-.89,1.11.37,2.63,1.14,3.08,2.3.41,1.06,2.15.6,1.73-.48-.67-1.72-2.29-2.78-3.96-3.41-2.3-.88-3.94-.08-6.02.94-1.04.51-.13,2.05.9,1.55h0Z"/>
            <g>
              <ellipse class="cls-10" cx="29.47" cy="70.28" rx="5.1" ry="8.03"/>
              <circle class="cls-8" cx="29.4" cy="66.85" r="1.7"/>
              <path class="cls-8" d="M32.8,74.32c0,.94-.76,1.7-1.7,1.7s-1.7-.76-1.7-1.7.76-1.7,1.7-1.7,1.7.76,1.7,1.7Z"/>
            </g>
            <g>
              <path class="cls-10" d="M67.88,70.28c0,4.44-2.28,8.03-5.1,8.03s-5.1-3.6-5.1-8.03,2.28-8.03,5.1-8.03,5.1,3.6,5.1,8.03Z"/>
              <circle class="cls-8" cx="62.71" cy="66.85" r="1.7"/>
              <circle class="cls-8" cx="64.41" cy="74.32" r="1.7"/>
            </g>
            <g>
              <path class="cls-11" d="M18.09,82.16c1.36-1.56,2.71-3.14,4.04-4.73.5-.6-.36-1.47-.86-.86-1.32,1.6-2.67,3.17-4.04,4.73-.51.59.35,1.46.86.86h0Z"/>
              <path class="cls-11" d="M21.85,82.16c1.36-1.56,2.71-3.14,4.04-4.73.5-.6-.36-1.47-.86-.86-1.32,1.6-2.67,3.17-4.04,4.73-.51.59.35,1.46.86.86h0Z"/>
              <path class="cls-11" d="M25.61,82.16c1.36-1.56,2.71-3.14,4.04-4.73.5-.6-.36-1.47-.86-.86-1.32,1.6-2.67,3.17-4.04,4.73-.51.59.35,1.46.86.86h0Z"/>
            </g>
            <g>
              <path class="cls-11" d="M62.55,82.16c1.36-1.56,2.71-3.14,4.04-4.73.5-.6-.36-1.47-.86-.86-1.32,1.6-2.67,3.17-4.04,4.73-.51.59.35,1.46.86.86h0Z"/>
              <path class="cls-11" d="M66.31,82.16c1.36-1.56,2.71-3.14,4.04-4.73.5-.6-.36-1.47-.86-.86-1.32,1.6-2.67,3.17-4.04,4.73-.51.59.35,1.46.86.86h0Z"/>
              <path class="cls-11" d="M70.07,82.16c1.36-1.56,2.71-3.14,4.04-4.73.5-.6-.36-1.47-.86-.86-1.32,1.6-2.67,3.17-4.04,4.73-.51.59.35,1.46.86.86h0Z"/>
            </g>
            <path class="cls-10" d="M46.12,83.45c-3.49,0-6.46-2.68-6.75-6.22-.03-.32-.03-.64-.01-.95.03-.5.45-.89.97-.86.5.03.89.46.86.97-.01.23,0,.46.01.7.23,2.72,2.63,4.74,5.34,4.52,2.72-.23,4.75-2.62,4.52-5.34-.04-.5.33-.95.84-.99.5-.04.95.33.99.84.31,3.72-2.47,7.01-6.19,7.32-.19.02-.38.02-.57.02Z"/>
            <path class="cls-10" d="M85.34,56.28c0,3.99-.61,7.83-1.71,11.44-.7.16-1.63-.16-2.33-.05-.97.16-1.87.63-2.66,1.18-.18.13-.35.26-.53.4-.92.76-2.28.27-2.47-.91-.51-3.28-2.22-6.81-3.13-9.15-5.37-13.94-37.69-9.92-44.47-7.78-7.18,2.27-10.6,9.2-10.93,16.27v.05c-.06,1.27-1.51,1.92-2.54,1.16-.94-.7-1.96-1.24-2.88-1.54-.65-.22-1.51-.17-2.35-.16-1.08-3.66-1.64-7.56-1.56-11.6.37-21.26,18.12-38.41,39.39-38.08,21.13.33,38.15,17.56,38.15,38.77Z"/>
            <g class="cls-5">
              <path class="cls-10" d="M85.34,56.28c0,3.99-.61,7.83-1.71,11.44-.7.16-1.63-.16-2.33-.05-.97.16-1.87.63-2.66,1.18-.18.13-.36.26-.53.4-.91.76-2.28.27-2.46-.91-.51-3.27-2.23-6.81-3.13-9.15-.67-1.76-1.78-3.23-3.21-4.44,3.35-3.8,5.33-8.46,5.33-13.51,0-12.72-12.57-23.03-28.08-23.03s-28.07,10.31-28.07,23.03c0,4.74,1.75,9.15,4.73,12.8-3.92,3.24-5.86,8.4-6.1,13.65v.05c-.06,1.27-1.51,1.92-2.54,1.16-.94-.7-1.96-1.24-2.88-1.54-.64-.22-1.51-.17-2.35-.16-1.08-3.66-1.64-7.56-1.56-11.6.37-21.26,18.12-38.41,39.39-38.08,21.13.33,38.15,17.56,38.15,38.77Z"/>
            </g>
            <path class="cls-11" d="M48.84,70.68c-.61-.49-1.66-.69-2.53-.73-.99-.04-2.1-.03-2.89.66-.53.46-.81,1.23-.57,1.88.72,1.96,5.23,1.87,6.18.2.54-.94.34-1.58-.19-2Z"/>
            <g>
              <path class="cls-10" d="M58.55,30.11c1.16-4.17,5-9.17,7.7-12.37,3.71-4.39,7.77-8.74,12.84-11.53,1.13-.62.12-2.35-1.01-1.73-5.67,3.13-10.32,8.1-14.31,13.14-2.53,3.19-6.03,7.92-7.15,11.96-.34,1.24,1.59,1.77,1.93.53h0Z"/>
              <path class="cls-14" d="M76.37,4.73c-.3,1.11-.3,2.3.09,3.39,1.93,5.37,9.56,3.9,11.59-.54.71-1.56.7-3.48-.22-4.93-1.77-2.78-5.76-3.37-8.58-1.74-1.42.82-2.45,2.25-2.88,3.83Z"/>
            </g>
            <g>
              <path class="cls-10" d="M33.59,30.11c-1.15-4.17-5-9.17-7.7-12.37-3.71-4.39-7.77-8.74-12.84-11.53-1.13-.62-.12-2.35,1.01-1.73,5.67,3.13,10.32,8.1,14.31,13.14,2.53,3.19,6.03,7.92,7.15,11.96.34,1.24-1.59,1.77-1.93.53h0Z"/>
              <path class="cls-14" d="M15.76,4.73c.3,1.11.3,2.3-.09,3.39-1.93,5.37-9.56,3.9-11.59-.54-.71-1.56-.7-3.48.22-4.93C6.07-.14,10.07-.73,12.88.9c1.42.82,2.45,2.25,2.88,3.83Z"/>
            </g>
          </g>
        </g>
      </g>
    </g>
  </g>
</svg>