<?xml version="1.0" encoding="UTF-8"?>
<svg id="Layer_2" data-name="Layer 2" xmlns="http://www.w3.org/2000/svg" xmlns:xlink="http://www.w3.org/1999/xlink" viewBox="0 0 146.48 186.46">
  <defs>
    <style>
      .cls-1 {
        fill: #f2a34a;
      }

      .cls-2, .cls-3 {
        fill: none;
      }

      .cls-4 {
        fill: #ffe6d5;
      }

      .cls-5 {
        fill: #f25c80;
      }

      .cls-5, .cls-6 {
        opacity: .3;
      }

      .cls-3 {
        stroke: #f2a34a;
        stroke-miterlimit: 10;
      }

      .cls-7 {
        fill: #90d5f0;
      }

      .cls-8 {
        fill: #f9961e;
      }

      .cls-9 {
        fill: #f4f4f4;
      }

      .cls-10 {
        fill: #f4ac4e;
        opacity: .53;
      }

      .cls-11 {
        fill: #6c3534;
      }

      .cls-12 {
        clip-path: url(#clippath);
      }

      .cls-13 {
        fill: #88a233;
      }

      .cls-6 {
        fill: #f98787;
      }
    </style>
    <clipPath id="clippath">
      <path class="cls-2" d="M47.29,101.22l-19.32,37.82,2.38,20.53,79.19.62,2.43-21.16-14.2-37.82h-11.63s-9.25,20.36-14.25,21.36-15.75-21.36-15.75-21.36h-8.85Z"/>
    </clipPath>
  </defs>
  <g id="OBJECTS">
    <g>
      <g>
        <g>
          <path class="cls-8" d="M136.11,58.32s-5.13,47.43,10.37,50.43c0,0-13.64,16.91-40.83,7.5-27.2-9.42-28.17-18.67-28.17-18.67"/>
          <path class="cls-8" d="M9.55,57.84S18.15,104.01,0,107.24c0,0,13.64,16.92,40.83,7.5s28.17-18.67,28.17-18.67"/>
          <g>
            <path class="cls-4" d="M95.95,102.65l-24.34-2.05-24.33,2.05S3.63,124.44,7.55,136.37c3.92,11.93,18.25,5.22,20.41,4.1,2.16-1.12,1.77,43.42,7.85,44.73,6.08,1.3,14.33,1.68,14.92,0,.59-1.68,3.73-13.23,4.12-13.79.39-.56,15.11,0,15.11,0,0,0,14.72-.56,15.11,0,.39.56,3.53,12.11,4.12,13.79.59,1.68,8.83,1.3,14.92,0,6.08-1.3,5.69-45.84,7.85-44.73,2.16,1.12,16.49,7.83,20.41-4.1,3.93-11.93-36.42-33.72-36.42-33.72Z"/>
            <path class="cls-9" d="M28.56,140.43l-2.42.89-10.48-19.05s19.88-15.37,32.05-19.87"/>
            <polyline class="cls-9" points="97.94 102.13 118.36 117.11 116.25 142.12 104.19 137.55"/>
            <path class="cls-9" d="M47.29,101.22l-19.32,37.82,2.38,20.53,79.19.62,2.43-21.16-14.2-37.82h-11.63s-9.25,20.36-14.25,21.36-15.75-21.36-15.75-21.36h-8.85Z"/>
            <g class="cls-12">
              <path class="cls-7" d="M50.56,100.6c-.11.12,17.92,25.95,17.92,25.95h6.83l16.25-25.79-7.58-.25s-29.77-3.83-33.42.09Z"/>
            </g>
            <path class="cls-4" d="M135.87,58.32c0,32.09-28.2,48.65-62.99,48.65S9.89,90.41,9.89,58.32,38.09.22,72.88.22s62.99,26.01,62.99,58.1Z"/>
          </g>
          <path class="cls-8" d="M13.4,77.07l59.73-23.47,5.02-21.59,4.25,21.59,49.61,24.16s3.5-6.69,4.11-16.83c1.34-22.33-6.57-58.96-62.91-60.7-.02,0-12.12-.32-23.77,3.99C26.99,12.52-1.14,37.92,12.96,76.01"/>
          <path class="cls-11" d="M98.81,79.78c0,5.25-2.01,6-4.5,6s-4.5-.75-4.5-6,2.01-9.5,4.5-9.5,4.5,4.25,4.5,9.5Z"/>
          <path class="cls-11" d="M53.08,79.78c0,5.25-2.01,6-4.5,6s-4.5-.75-4.5-6,2.01-9.5,4.5-9.5,4.5,4.25,4.5,9.5Z"/>
          <path class="cls-5" d="M110.9,90.2c0,.64-2.79,1.17-6.24,1.17s-6.24-.52-6.24-1.17,2.79-1.17,6.24-1.17,6.24.52,6.24,1.17Z"/>
          <path class="cls-5" d="M45.98,91.37c0,.64-2.79,1.17-6.24,1.17s-6.24-.52-6.24-1.17,2.79-1.17,6.24-1.17,6.24.52,6.24,1.17Z"/>
          <path class="cls-6" d="M77.79,93.56c0,2.78-2.41,5.03-5.39,5.03s-5.39-2.25-5.39-5.03,2.41-2.13,5.39-2.13,5.39-.65,5.39,2.13Z"/>
          <path class="cls-7" d="M110.7,150.12s-18.97,8.64-81.36,1.79l.72,6.24s56.78,6.29,79.83-1.09l.81-6.94"/>
          <path class="cls-7" d="M109.89,157.06s-47.89,6.09-79.86,0l.89,10.35.76,5.9,76.92-.74.1-2.43,1.19-13.08Z"/>
          <path class="cls-1" d="M88.79,183.97s9.52,1.49,17.27-1.16c0,0-.17,1.41-1.63,2.19-1.46.78-13.16,2.61-15.16.32l-.47-1.36Z"/>
          <path class="cls-3" d="M106.06,182.82s-6.21-4.33-17.27,1.02"/>
          <path class="cls-3" d="M33.8,182.7s6.31-4.27,17.37,1.08"/>
          <path class="cls-1" d="M51.17,183.99s-9.46,1.41-17.27-1.16c0,0,.17,1.41,1.63,2.19,1.46.78,13.16,2.61,15.16.32l.47-1.36Z"/>
          <circle class="cls-9" cx="107.2" cy="159.62" r="1.41"/>
          <circle class="cls-9" cx="107.2" cy="166.3" r="1.41"/>
          <path class="cls-9" d="M33.8,159.39c.1.77-.44,1.48-1.21,1.57-.77.1-1.48-.44-1.57-1.21s.44-1.48,1.21-1.58,1.48.44,1.58,1.21Z"/>
          <path class="cls-9" d="M34.66,166.03c.1.77-.44,1.48-1.21,1.58-.77.1-1.48-.44-1.58-1.21s.44-1.48,1.21-1.57c.77-.1,1.48.44,1.57,1.21Z"/>
          <polygon class="cls-7" points="118.36 117.11 116.25 142.12 111.4 140.26 114.48 114.09 118.36 117.11"/>
          <path class="cls-7" d="M15.66,122.26l10.48,19.05,3.89-1.64s-10.85-20.06-11.05-19.91c-.2.15-3.33,2.49-3.33,2.49Z"/>
        </g>
        <path class="cls-1" d="M78.35,142.92c-.83,3.85-4.62,6.29-8.47,5.46-3.85-.83-6.29-4.62-5.46-8.47.83-3.85,4.62-6.29,8.47-5.46,3.85.83,6.29,4.62,5.46,8.47Z"/>
        <path class="cls-13" d="M73.03,135.6s4.1-3.21,7.84-1.98c0,0-.78,5.2-7.84,1.98h0Z"/>
      </g>
      <path class="cls-10" d="M30.83,13.98s57.33,21.16,92.25,3.9c0,0-30.59-30.18-78.58-12.1-5.13,1.93-8.1,5.09-13.67,8.2Z"/>
    </g>
  </g>
</svg>