<?xml version="1.0" encoding="UTF-8"?>
<svg id="Layer_2" data-name="Layer 2" xmlns="http://www.w3.org/2000/svg" viewBox="0 0 134.14 186.04">
  <defs>
    <style>
      .cls-1 {
        fill: #ffe2cf;
      }

      .cls-2 {
        fill: #ffec9c;
      }

      .cls-3 {
        fill: #393734;
      }

      .cls-4 {
        fill: #ffe6d5;
      }

      .cls-5 {
        fill: #f25c80;
      }

      .cls-5, .cls-6 {
        opacity: .3;
      }

      .cls-7 {
        fill: #333;
      }

      .cls-8 {
        fill: #ffcf5d;
      }

      .cls-9 {
        stroke: #393734;
        stroke-width: 2px;
      }

      .cls-9, .cls-10 {
        fill: none;
        stroke-miterlimit: 10;
      }

      .cls-11 {
        fill: #fae37b;
      }

      .cls-12 {
        fill: #6c3534;
      }

      .cls-10 {
        stroke: #333;
      }

      .cls-13 {
        fill: #f4f4f4;
        opacity: .63;
      }

      .cls-6 {
        fill: #f98787;
      }
    </style>
  </defs>
  <g id="OBJECTS">
    <g>
      <g>
        <path class="cls-11" d="M5.08,53.33s-12.79,53.6,2.21,66.11c15,12.5,113.46,8.81,121.49,1.77,9.67-8.47,3.29-67.33,3.29-67.33"/>
        <path class="cls-4" d="M90.95,102.25l-24.34-2.05-24.33,2.05S-1.38,124.04,2.55,135.97c3.92,11.93,18.25,5.22,20.41,4.1,2.16-1.12,1.77,43.42,7.85,44.73s14.33,1.68,14.92,0c.59-1.68,3.73-13.23,4.12-13.79.39-.56,15.11,0,15.11,0,0,0,14.72-.56,15.11,0s3.53,12.11,4.12,13.79c.59,1.68,8.83,1.3,14.92,0s5.69-45.84,7.85-44.73c2.16,1.12,16.49,7.83,20.41-4.1,3.93-11.93-36.42-33.72-36.42-33.72Z"/>
        <path class="cls-8" d="M104.97,154.56s-41.97-1.79-80.02,1.43l.77,9.04.65,6.02,77.24-.38.1-2.43,1.26-13.68Z"/>
        <path class="cls-3" d="M4.28,129.1l6.83,13.99s9.07-.51,11.73-2.85l2.19,16.3,79.89-1.39s.42-4.35.73-8.4c.27-3.55.64-6.94,1.47-6.55,1.78.82,7.22,2.93,10.13,2.93.63,0,8.41-14.02,8.41-14.02,0,0-4.41-9.45-33.79-26.7l-49.72.02S7.81,119.8,4.28,129.1Z"/>
        <path class="cls-1" d="M81.94,101.27c0,5.83-7.63,21.96-15.98,21.96s-14.27-16.13-14.27-21.96,7.34-6.45,15.7-6.45,14.55.62,14.55,6.45Z"/>
        <path class="cls-4" d="M130.87,57.92c0,32.09-28.2,48.65-62.99,48.65S4.89,90.01,4.89,57.92,34.21,1.9,69,1.9s61.87,23.93,61.87,56.02Z"/>
        <g>
          <path class="cls-9" d="M110.51,70.14c0-10.49-8.5-13.14-19-13.14s-19,2.65-19,13.14,8.5,19,19,19,19-8.5,19-19Z"/>
          <path class="cls-9" d="M63.55,70.14c0-10.49-9.84-12.27-20.33-12.27s-17.66,1.78-17.66,12.27,8.5,19,19,19,19-8.5,19-19Z"/>
          <path class="cls-9" d="M63.5,70.95s4.39-4.92,9.01,0"/>
          <line class="cls-9" x1="110.12" y1="66.55" x2="127.3" y2="76"/>
          <line class="cls-9" x1="26.1" y1="65.62" x2="13.64" y2="71.4"/>
        </g>
        <path class="cls-11" d="M117.79,62.07c-4.1,40.05-15.79,37.69-15.79,37.69,1.53,5.7,39.1,4.81,30.09-49.81C124.06,1.29,69.36.08,69.36.08,69.36.08,6.84.66,4.57,57.95c-.41,10.46,1.73,21.79,8.43,36.04,1.23,2.62,14.31,4.13,13.02,1.54-6.77-13.6-7.44-31.95-1.75-46.97,5.81-15.36,97.63-26.54,93.53,13.51Z"/>
        <path class="cls-12" d="M94.45,78.89c0,5.25-2.01,6-4.5,6s-4.5-.75-4.5-6,2.01-9.5,4.5-9.5,4.5,4.25,4.5,9.5Z"/>
        <path class="cls-12" d="M48.72,78.89c0,5.25-2.01,6-4.5,6s-4.5-.75-4.5-6,2.01-9.5,4.5-9.5,4.5,4.25,4.5,9.5Z"/>
        <path class="cls-5" d="M106.54,90.47c0,.64-2.79,1.17-6.24,1.17s-6.24-.52-6.24-1.17,2.79-1.17,6.24-1.17,6.24.52,6.24,1.17Z"/>
        <path class="cls-5" d="M41.61,90.47c0,.64-2.79,1.17-6.24,1.17s-6.24-.52-6.24-1.17,2.79-1.17,6.24-1.17,6.24.52,6.24,1.17Z"/>
        <path class="cls-6" d="M73.42,92.66c0,2.78-2.41,5.03-5.39,5.03s-5.39-2.25-5.39-5.03,2.41-2.13,5.39-2.13,5.39-.65,5.39,2.13Z"/>
        <path class="cls-7" d="M83.92,183.56s10.03,2.37,17.27-1.16c0,0-.17,1.41-1.63,2.19-1.46.78-13.16,2.61-15.16.32l-.47-1.36Z"/>
        <path class="cls-10" d="M101.61,181.3s-8.39-1.93-8.76,3.65"/>
        <path class="cls-10" d="M93.93,184.96s0-4.35-10.5-3.08"/>
        <path class="cls-7" d="M46.15,183.57s-10.03,2.37-17.27-1.16c0,0,.17,1.41,1.63,2.19,1.46.78,13.16,2.61,15.16.32l.47-1.36Z"/>
        <path class="cls-10" d="M28.47,181.32s8.39-1.93,8.76,3.65"/>
        <path class="cls-10" d="M36.15,184.97s0-4.35,10.5-3.08"/>
        <path class="cls-13" d="M110.51,70.14c0-10.49-8.5-13.14-19-13.14s-19,2.65-19,13.14,8.5,19,19,19,19-8.5,19-19Z"/>
        <path class="cls-13" d="M63.55,70.14c0-10.49-9.84-12.27-20.33-12.27s-17.66,1.78-17.66,12.27,8.5,19,19,19,19-8.5,19-19Z"/>
      </g>
      <path class="cls-2" d="M25.56,14.88s56.77,22.26,91.69,5c0,0-32.28-33.85-78.01-13.2-5,2.26-8.11,5.09-13.67,8.2Z"/>
    </g>
  </g>
</svg>