<?xml version="1.0" encoding="UTF-8"?>
<svg xmlns="http://www.w3.org/2000/svg" viewBox="0 0 93.64 134.69">
  <defs>
    <style>
      .cls-1, .cls-2, .cls-3, .cls-4 {
        mix-blend-mode: multiply;
      }

      .cls-1, .cls-3, .cls-5 {
        fill: #ea9c87;
      }

      .cls-6 {
        fill: #df6747;
      }

      .cls-2, .cls-7 {
        fill: #f5d6b8;
      }

      .cls-8 {
        isolation: isolate;
      }

      .cls-3, .cls-9, .cls-4 {
        opacity: .5;
      }

      .cls-10 {
        fill: #42210b;
      }

      .cls-11 {
        fill: #f7931e;
      }

      .cls-12 {
        fill: #e6e6e6;
      }
    </style>
  </defs>
  <g class="cls-8">
    <g id="Layer_2" data-name="Layer 2">
      <g id="OBJECTS">
        <g>
          <path class="cls-12" d="M75.64,130.73c0,2.19-12.09,3.96-27.01,3.96s-27.01-1.77-27.01-3.96,12.09-3.96,27.01-3.96,27.01,1.77,27.01,3.96Z"/>
          <g>
            <path class="cls-5" d="M37.16,109.49c-1.37,2.31-7.77,1.34-8.64-.91,2.52.58,5.42.11,5.93-2.33.67-3.19-5.16-2.2-6.52-1.13-.32.25-.58.52-.79.79-.44-.35-.79-.82-.99-1.43-.44-1.36-.29-3.65,1.52-3.85.56-.06.97-.41,1-1,0-.16.03-.32.02-.48-.07-1.59-7.9.83-3.71,7.44.3.48.84.87,1.47,1.21-.02,1.52,1.09,3.01,2.7,3.87,2.88,1.53,7.82,2.06,9.75-1.18.66-1.11-1.07-2.12-1.73-1.01ZM31.12,106.09c.47-.04,1.36-.22,1.04.14-.47.52-1.89.56-2.53.53-.16,0-.33-.03-.49-.05.55-.41,1.32-.57,1.98-.62Z"/>
            <g>
              <path class="cls-5" d="M93.64.16c.04-.37-7.55.33-8.26.47-4.23.82-8.39,2.57-11.94,5.11-3.5,2.5-7.88,6.35-7.83,11.02.02,2.37.89,4.72,1.76,6.89,1.48,3.7,4.8,11.42,8.66,12.97,3.45,1.39,8.57-5.63,10.65-8.58,5.25-7.42,5.99-18.98,6.97-27.89Z"/>
              <path class="cls-6" d="M87.68,6.88c.02-.23-4.6.2-5.03.29-2.58.5-5.11,1.57-7.27,3.11-2.13,1.52-4.8,3.87-4.77,6.71.01,1.44.54,2.87,1.07,4.2.9,2.26,2.92,6.95,5.27,7.9,2.1.84,5.22-3.43,6.49-5.22,3.19-4.52,3.65-11.56,4.24-16.98Z"/>
            </g>
            <g>
              <path class="cls-5" d="M0,.08c-.02-.37,7.53.68,8.23.85,4.19,1.02,8.26,2.96,11.69,5.65,3.39,2.66,7.58,6.7,7.32,11.37-.13,2.37-1.1,4.67-2.07,6.8-1.65,3.63-5.32,11.19-9.24,12.56-3.51,1.23-8.3-6.02-10.25-9.06C.78,20.61.57,9.03,0,.08Z"/>
              <path class="cls-6" d="M5.65,7.07c-.01-.23,4.58.41,5.01.52,2.55.62,5.03,1.8,7.12,3.44,2.06,1.62,4.61,4.08,4.46,6.93-.08,1.44-.67,2.85-1.26,4.14-1,2.21-3.24,6.81-5.63,7.65-2.13.75-5.06-3.67-6.24-5.52-2.98-4.66-3.11-11.71-3.46-17.16Z"/>
            </g>
            <path class="cls-5" d="M66.97,129.64c-.14,1.7-10.62,1.01-12.59.54-.19-.04-.37-.1-.55-.15-.59-.18-.99-.51-1.21-.92l-.27-1.52-2.43-13.42,14.03,1.68-.99,9.36c1.96.51,4.17,2.58,4,4.44Z"/>
            <polygon class="cls-3" points="54.75 114.74 52.57 128.48 52.41 127.59 49.98 114.16 54.75 114.74"/>
            <path class="cls-5" d="M47.79,114.16l-2.55,14.05c-.21,1.14-1.2,1.97-2.35,1.97h0c-1.96.47-12.4,1.16-12.54-.54-.18-1.99,2.37-4.21,4.4-4.52l-.99-9.28,14.04-1.68Z"/>
            <path class="cls-3" d="M47.85,114.16l-2.54,14.06c-.1.52-.35.97-.72,1.3l-2.35-14.68,5.61-.67Z"/>
            <g>
              <path class="cls-5" d="M37.34,92.7l-2.51,2.13,2.6,6.81c.04.09.06.18.08.27-1.37-.18-2.95-.39-4.5-.58l-5.27-6.2c-1.16-1.36-1.04-3.4.26-4.62l12.36-11.68.5,1.56c1.42,4.44.03,9.31-3.53,12.32Z"/>
              <path class="cls-7" d="M36.52,104.51c-2.06,1.34-4.33,1.25-6.73.22-1.09-.47-1.01-2.06.13-2.42l3.1-.98h0c1.55.19,3.13.39,4.5.57.26.98-.13,2.04-.99,2.61Z"/>
            </g>
            <path class="cls-5" d="M42.76,78.47c-1.07.15-7.78,9.15-9,37.37h30.2c-.31-13.67-1.77-26.53-6.1-37.37h-15.1Z"/>
            <g class="cls-9">
              <path class="cls-1" d="M38.37,115.84h-4.56c1.23-28.21,7.94-37.22,9-37.37h3.35c-2.96,6.56-8.85,21.82-7.79,37.37Z"/>
              <path class="cls-1" d="M59.99,115.84c1.06-15.54-4.84-30.81-7.79-37.37h5.71c4.33,10.84,5.79,23.71,6.1,37.37h-4.02Z"/>
            </g>
            <path class="cls-6" d="M49.19,81.65s-.02,0-.02,0c-.01,0-.03,0-.04,0-.01,0-.03,0-.04,0,0,0-.02,0-.02,0-3.85.11-10.58,6.18-5.32,9.13,1.93,1.08,3.87.58,4.83-1.45.25-.53.42-1.08.55-1.64.13.56.3,1.11.55,1.64.95,2.03,2.89,2.54,4.83,1.45,5.27-2.95-1.47-9.02-5.32-9.13ZM45.54,89.58c-2.22-.28-2.14-2.24-1-3.6.86-1.02,2.18-2.02,3.56-2.39-.32,2.17-.6,6.23-2.57,5.98ZM52.71,89.58c-1.96.25-2.25-3.81-2.57-5.98,1.38.37,2.7,1.37,3.56,2.39,1.14,1.36,1.22,3.32-1,3.6Z"/>
            <g>
              <path class="cls-5" d="M73.1,100.25l-3.78,2.56c-1.34-1.62-2.68-3.15-3.99-4.52-4.6-4.79-7.22-11.14-7.22-17.78v-2.92c5.38,2.2,10.2,11.63,14.89,22.66h.1Z"/>
              <path class="cls-7" d="M76.83,101.99l-3.27,2.36c-1.05.76-2.51.56-3.33-.44-.3-.37-.6-.73-.9-1.09l3.78-2.56,3.27.19c.81.04,1.11,1.08.46,1.55Z"/>
            </g>
            <path class="cls-7" d="M86.89,69.47c-1.92,1.1-3.92,1.72-5.79,1.89-1.68,6.14-15.57,10.93-32.47,10.93s-30.9-4.83-32.49-11c-1.7-.23-3.5-.82-5.22-1.82-5.05-2.92-7.54-8.09-5.55-11.54,1.14-1.97,3.49-2.96,6.23-2.9-.06-.2-.13-.39-.18-.6-1.08-3.66-1.64-7.56-1.56-11.6C10.24,21.57,27.99,4.42,49.25,4.75c21.13.33,38.15,17.56,38.15,38.77,0,3.99-.61,7.83-1.71,11.44-.02.04-.03.07-.04.11,2.97-.22,5.57.76,6.78,2.87,1.99,3.45-.49,8.62-5.55,11.54Z"/>
            <path class="cls-2" d="M86.9,69.46c-1.92,1.1-3.92,1.72-5.79,1.89-.85,3.12-4.85,5.89-10.8,7.86,5.8-4.52,9.4-10.86,9.4-17.86,0-13.73-13.79-24.84-30.8-24.84s-30.79,11.12-30.79,24.84c0,7.16,3.75,13.62,9.77,18.15-6.5-1.99-10.89-4.91-11.74-8.22-1.7-.23-3.5-.82-5.22-1.82-5.05-2.92-7.54-8.09-5.55-11.54,1.14-1.97,3.49-2.96,6.23-2.9-.06-.2-.13-.39-.18-.6-1.08-3.66-1.64-7.56-1.56-11.6C10.25,21.56,28,4.41,49.27,4.74c21.13.33,38.15,17.56,38.15,38.77,0,3.99-.61,7.83-1.71,11.44-.02.04-.03.07-.04.11,2.97-.22,5.57.76,6.78,2.87,1.99,3.45-.49,8.62-5.55,11.54Z"/>
            <path class="cls-11" d="M81.79,47.55c-1-4.66-3.26-8.53-6.93-11.56-5.39-4.45-11.31-7.05-18.08-8.76-4.74-1.19-10.25-1.16-15.02-.26-4.01.75-7.89.85-11.78,2.18-6.79,2.32-12.96,5.73-16.41,12.28-1.07,2.02-1.57,5.05-1.23,7.35.24,1.62,1.51,2.64,2.4,3.92.67.96.92,2.37,1.67,3.22v-2.27c0,4.02,1.51,10.16,6.78,9.55-.38-1.48-1.26-2.63-1.4-4.29-.16-1.82.35-3.37.99-5.02.68-1.77,1.61-3.63,1.04-5.56,1.06,2.31,5.92,1,7.67.63,2.28-.48,4.61-.8,6.86-1.4,1.37-.37,1.68-.25,2.82.56,1.05-2.82-2.25-3.87-3.54-5.69,1.76.4,3.68,1.4,5.35,2.14,1.02.45,2.02,1.01,2.84,1.79.63.61,1.2,1.81,2.04,2.02,1.2-2.15,3.44-2.21,5.55-2.68,2.53-.56,3.36-2.21,4.97-3.97.88,2.46-1.11,5.23-3.21,6.26,1.24-.46,2.61-.78,3.92-.79,1.79-.02,2.91,1.02,4.52,1.52,3.14.99,7.54,1.05,10.62-.16-2.57,1.95-1.45,4.49-.53,6.87.43,1.12.67,2.45.48,3.64-.17,1.08,1.14,1.79,2,1.12,1.34-1.04,2.55-2.36,3.38-3.31,2.18-2.5,2.93-6.1,2.24-9.33Z"/>
            <g>
              <path class="cls-6" d="M20.15,69.4c1.36-1.56,2.71-3.14,4.04-4.73.5-.6-.36-1.47-.86-.86-1.32,1.6-2.67,3.17-4.04,4.73-.51.59.35,1.46.86.86h0Z"/>
              <path class="cls-6" d="M23.91,69.4c1.36-1.56,2.71-3.14,4.04-4.73.5-.6-.36-1.47-.86-.86-1.32,1.6-2.67,3.17-4.04,4.73-.51.59.35,1.46.86.86h0Z"/>
              <path class="cls-6" d="M27.67,69.4c1.36-1.56,2.71-3.14,4.04-4.73.5-.6-.36-1.47-.86-.86-1.32,1.6-2.67,3.17-4.04,4.73-.51.59.35,1.46.86.86h0Z"/>
            </g>
            <g>
              <path class="cls-6" d="M64.6,69.4c1.36-1.56,2.71-3.14,4.04-4.73.5-.6-.36-1.47-.86-.86-1.32,1.6-2.67,3.17-4.04,4.73-.51.59.35,1.46.86.86h0Z"/>
              <path class="cls-6" d="M68.36,69.4c1.36-1.56,2.71-3.14,4.04-4.73.5-.6-.36-1.47-.86-.86-1.32,1.6-2.67,3.17-4.04,4.73-.51.59.35,1.46.86.86h0Z"/>
              <path class="cls-6" d="M72.13,69.4c1.36-1.56,2.71-3.14,4.04-4.73.5-.6-.36-1.47-.86-.86-1.32,1.6-2.67,3.17-4.04,4.73-.51.59.35,1.46.86.86h0Z"/>
            </g>
            <path class="cls-10" d="M48.18,73.69c-3.49,0-6.46-2.68-6.75-6.22-.03-.32-.03-.64-.01-.95.03-.5.45-.89.97-.86.5.03.89.46.86.97-.01.23,0,.46.01.7.23,2.72,2.63,4.74,5.34,4.52,2.72-.23,4.75-2.62,4.52-5.34-.04-.5.33-.95.84-.99.5-.04.95.33.99.84.31,3.72-2.47,7.01-6.19,7.32-.19.02-.38.02-.57.02Z"/>
            <path class="cls-10" d="M30.75,52.77c3.49,0,6.46,2.68,6.75,6.22.03.32.03.64.01.95-.03.5-.45.89-.97.86-.5-.03-.89-.46-.86-.97.01-.23,0-.46-.01-.7-.23-2.72-2.63-4.74-5.34-4.52-2.72.23-4.75,2.62-4.52,5.34.04.5-.33.95-.84.99-.5.04-.95-.33-.99-.84-.31-3.72,2.47-7.01,6.19-7.32.19-.02.38-.02.57-.02Z"/>
            <path class="cls-10" d="M66.33,52.77c3.49,0,6.46,2.68,6.75,6.22.03.32.03.64.01.95-.03.5-.45.89-.97.86-.5-.03-.89-.46-.86-.97.01-.23,0-.46-.01-.7-.23-2.72-2.63-4.74-5.34-4.52-2.72.23-4.75,2.62-4.52,5.34.04.5-.33.95-.84.99-.5.04-.95-.33-.99-.84-.31-3.72,2.47-7.01,6.19-7.32.19-.02.38-.02.57-.02Z"/>
            <path class="cls-5" d="M87.4,43.52c0,3.99-.61,7.83-1.71,11.44-.7.16-1.63-.16-2.33-.05-.97.16-1.87.63-2.66,1.18-.18.13-.35.26-.53.4-.92.76-2.28.27-2.47-.91-.51-3.28-2.22-6.81-3.13-9.15-5.37-13.94-37.69-9.92-44.47-7.78-7.18,2.27-10.6,9.2-10.93,16.27v.05c-.06,1.27-1.51,1.92-2.54,1.16-.94-.7-1.96-1.24-2.88-1.54-.64-.22-1.51-.17-2.35-.16-1.08-3.66-1.64-7.56-1.56-11.6C10.24,21.57,27.99,4.42,49.25,4.75c21.13.33,38.15,17.56,38.15,38.77Z"/>
            <g class="cls-4">
              <path class="cls-5" d="M87.4,43.52c0,3.99-.61,7.83-1.71,11.44-.7.16-1.63-.16-2.33-.05-.97.16-1.87.63-2.66,1.18-.18.13-.36.26-.53.4-.91.76-2.28.27-2.46-.91-.51-3.27-2.23-6.81-3.13-9.15-.67-1.76-1.78-3.23-3.21-4.44,3.35-3.8,5.33-8.46,5.33-13.51,0-12.72-12.57-23.03-28.08-23.03s-28.07,10.31-28.07,23.03c0,4.74,1.75,9.15,4.73,12.8-3.92,3.24-5.86,8.4-6.1,13.65v.05c-.06,1.27-1.51,1.92-2.54,1.16-.94-.7-1.96-1.24-2.88-1.54-.65-.22-1.51-.17-2.35-.16-1.08-3.66-1.64-7.56-1.56-11.6C10.24,21.57,27.99,4.42,49.25,4.75c21.13.33,38.15,17.56,38.15,38.77Z"/>
            </g>
            <g>
              <path class="cls-5" d="M56.56,56.28c-1.73-1.4-4.73-1.97-7.19-2.07-2.81-.12-5.97-.09-8.22,1.86-1.49,1.3-2.31,3.48-1.62,5.34,2.04,5.57,14.85,5.31,17.56.56,1.52-2.67.96-4.49-.53-5.69Z"/>
              <path class="cls-6" d="M45.86,58.37c-.09-.44-.25-.86-.51-1.25-.16-.24-.43-.48-.73-.51-.35-.03-.53.26-.64.55-.56,1.54-.61,3.25-.13,4.81.12.39.42.84.89.67.27-.09.47-.36.62-.58.29-.43.38-.91.46-1.41.12-.76.17-1.54.03-2.28Z"/>
              <path class="cls-6" d="M50.89,58.37c.09-.44.25-.86.51-1.25.16-.24.43-.48.73-.51.35-.03.53.26.64.55.56,1.54.61,3.25.13,4.81-.12.39-.42.84-.89.67-.27-.09-.47-.36-.62-.58-.29-.43-.38-.91-.46-1.41-.12-.76-.17-1.54-.03-2.28Z"/>
            </g>
          </g>
        </g>
      </g>
    </g>
  </g>
</svg>