<?xml version="1.0" encoding="UTF-8"?>
<svg id="Layer_2" data-name="Layer 2" xmlns="http://www.w3.org/2000/svg" viewBox="0 0 160.1 186.57">
  <defs>
    <style>
      .cls-1 {
        fill: #674136;
      }

      .cls-2 {
        fill: #424242;
      }

      .cls-3 {
        fill: #393734;
      }

      .cls-4 {
        fill: #f2f2f2;
      }

      .cls-5 {
        fill: #ffe6d5;
      }

      .cls-6 {
        fill: #a0b762;
      }

      .cls-7 {
        fill: #f25c80;
      }

      .cls-7, .cls-8 {
        opacity: .3;
      }

      .cls-9 {
        fill: #a472a5;
      }

      .cls-10 {
        fill: #b0c87c;
      }

      .cls-11 {
        fill: #ccc;
      }

      .cls-12 {
        fill: #eaeaea;
      }

      .cls-13 {
        fill: #6c3534;
      }

      .cls-14 {
        fill: #d16db3;
      }

      .cls-8 {
        fill: #f98787;
      }
    </style>
  </defs>
  <g id="OBJECTS">
    <g>
      <g>
        <g>
          <g>
            <path class="cls-5" d="M96.07,102.9l-24.34-2.05-24.33,2.05S3.75,124.7,7.67,136.63c3.92,11.93,18.25,5.22,20.41,4.1,2.16-1.12,1.77,43.42,7.85,44.73,6.08,1.3,14.33,1.68,14.92,0,.59-1.68,3.73-13.23,4.12-13.79.39-.56,15.11,0,15.11,0,0,0,14.72-.56,15.11,0,.39.56,3.53,12.11,4.12,13.79.59,1.68,8.83,1.3,14.92,0,6.08-1.3,5.69-45.84,7.85-44.73,2.16,1.12,16.49,7.83,20.41-4.1,3.93-11.93-36.42-33.72-36.42-33.72Z"/>
            <path class="cls-3" d="M136.11,57.91s-5.13,29.09,10.37,30.93c0,0-13.64,10.37-40.83,4.6-27.2-5.77-28.17-11.45-28.17-11.45"/>
            <path class="cls-3" d="M9.55,57.62s8.6,28.31-9.55,30.29c0,0,13.64,10.37,40.83,4.6,27.2-5.77,28.17-11.45,28.17-11.45"/>
            <path class="cls-9" d="M57.1,101.86s-5.75,17.75,5.75,20c11.5,2.25,31.5,0,27.25-20l7.81,1.7,14.17,37.16-3.4,30.82-24.58.34-30.21-.38-25.8-1.49v-29.29s16.39-33.41,17.08-37.39c.68-3.98,11.93-1.48,11.93-1.48Z"/>
            <path class="cls-5" d="M135.99,58.58c0,32.09-28.2,48.65-62.99,48.65S10.01,90.67,10.01,58.58,38.21.48,73,.48s62.99,26.01,62.99,58.1Z"/>
            <path class="cls-3" d="M13.4,76.85l30.34-22.31,6.24-22.75,2.77,21.59h20.37l5.02-21.59,4.25,21.59,19.18,1.66,8.57-20.12v22.37l21.86,20.25s3.5-6.69,4.11-16.83C137.45,38.38,129.54,1.74,73.2,0c-.02,0-12.12-.32-23.77,3.99C26.99,12.3-1.14,37.7,12.96,75.78"/>
          </g>
          <path class="cls-13" d="M98.93,80.04c0,5.25-2.01,6-4.5,6s-4.5-.75-4.5-6,2.01-9.5,4.5-9.5,4.5,4.25,4.5,9.5Z"/>
          <path class="cls-13" d="M53.2,80.04c0,5.25-2.01,6-4.5,6s-4.5-.75-4.5-6,2.01-9.5,4.5-9.5,4.5,4.25,4.5,9.5Z"/>
          <path class="cls-7" d="M111.02,90.45c0,.64-2.79,1.17-6.24,1.17s-6.24-.52-6.24-1.17,2.79-1.17,6.24-1.17,6.24.52,6.24,1.17Z"/>
          <path class="cls-7" d="M46.09,91.62c0,.64-2.79,1.17-6.24,1.17s-6.24-.52-6.24-1.17,2.79-1.17,6.24-1.17,6.24.52,6.24,1.17Z"/>
          <path class="cls-8" d="M77.9,93.81c0,2.78-2.41,5.03-5.39,5.03s-5.39-2.25-5.39-5.03,2.41-2.13,5.39-2.13,5.39-.65,5.39,2.13Z"/>
        </g>
        <path class="cls-1" d="M88.15,181.72l19.13-1.75s-.61,3.95-2.24,5.22c-1.64,1.27-13.68,2.14-15.72.45l-1.16-3.92Z"/>
        <path class="cls-1" d="M52.03,181.72l-19.13-1.75s.61,3.95,2.24,5.22c1.64,1.27,13.68,2.14,15.72.45l1.16-3.92Z"/>
        <polygon class="cls-6" points="127.43 109.68 114.43 159.68 148.6 164.68 160.1 113.18 127.43 109.68"/>
        <polygon class="cls-14" points="112.08 158.01 114.43 159.68 127.98 108.32 112.08 158.01"/>
        <polyline class="cls-11" points="126.96 109.14 113.08 158.44 113.96 159.14 148.13 164.14"/>
        <polygon class="cls-12" points="158.09 111.98 159.56 112.92 148.13 164.14 146.39 163.36 158.09 111.98"/>
        <polygon class="cls-4" points="126.08 108.44 113.08 158.44 146.39 163.36 158.09 111.98 126.08 108.44"/>
        <polygon class="cls-10" points="125.08 108.01 112.08 158.01 146.24 163.01 157.74 111.51 125.08 108.01"/>
        <path class="cls-6" d="M151.17,124.61c-.31,2.5-6.11,3.84-12.97,2.99-6.85-.85-12.15-3.56-11.85-6.06.31-2.5,6.11-3.84,12.97-2.99,6.85.85,12.15,3.56,11.85,6.06Z"/>
        <polygon class="cls-6" points="148.3 153.87 114.29 149.52 113.37 153.04 147.39 157.92 148.3 153.87"/>
      </g>
      <path class="cls-2" d="M30.77,13.98s57.33,21.93,92.25,4.67c0,0-30.59-30.96-78.58-12.87-5.13,1.93-8.1,5.09-13.67,8.2Z"/>
    </g>
  </g>
</svg>