<?xml version="1.0" encoding="UTF-8"?>
<svg xmlns="http://www.w3.org/2000/svg" viewBox="0 0 103.44 129.95">
  <defs>
    <style>
      .cls-1, .cls-2, .cls-3, .cls-4, .cls-5 {
        mix-blend-mode: multiply;
      }

      .cls-1, .cls-6 {
        fill: #e6e6e6;
      }

      .cls-7 {
        fill: #fff;
      }

      .cls-8 {
        fill: #df6747;
      }

      .cls-2, .cls-9 {
        fill: #f5d6b8;
      }

      .cls-10 {
        isolation: isolate;
      }

      .cls-3, .cls-11 {
        fill: #603813;
      }

      .cls-3, .cls-4 {
        opacity: .3;
      }

      .cls-12 {
        fill: #42210b;
      }

      .cls-13 {
        fill: #ccc;
      }

      .cls-14 {
        fill: #f7931e;
      }

      .cls-15 {
        fill: #8c6239;
      }

      .cls-5 {
        opacity: .5;
      }
    </style>
  </defs>
  <g class="cls-10">
    <g id="Layer_2" data-name="Layer 2">
      <g id="OBJECTS">
        <g>
          <path class="cls-6" d="M78.07,125.99c0,2.19-12.09,3.96-27.01,3.96s-27.01-1.77-27.01-3.96,12.09-3.96,27.01-3.96,27.01,1.77,27.01,3.96Z"/>
          <g>
            <path class="cls-14" d="M18.79,55.63c-2.66.07-5.47,3.08-5.91,5.62-.62,3.56,2.38,4.62,4.14,7.22,1.64,2.41,1.44,4.89-.8,6.87-1.78,1.57-5.47,1.79-6.54,4.06,2.77.58,3.87-.61,6.06,1.99,1.97,2.35,5.06,3.1,8.12,2.97,4.48-.19,6.8-1.6,10.47-3.89,3.61-2.25,8.53-3.69,12.76-2.67,5.16,1.24,9.27,8.86,14.93,6.56,3.06-1.24,5.67-3.53,8.92-4.29,3.31-.78,5.48.18,8.5,1.4,2.67,1.08,4.21,2.33,7.14,1.14,2.14-.87,4.7-2.52,6.3-4.29-2.48-.36-4.43-.64-4.77-3.68-.23-2.06.67-3.8.96-5.75.3-2.01.55-4.43-1.6-5.52-2.45-1.24-5.15-.21-6.86-2.6-1.62-2.25-2.92-5.16-5-7.05-3.65-3.31-10.5-3.74-15.12-3.99-8.71-.46-18.18-.79-26.79.85-2.87.55-5.7,1.35-8.5,2.13-2.38.66-5.52,1.33-7.54,2.77"/>
            <path class="cls-15" d="M69.4,124.91c-.14,1.7-10.62,1.01-12.59.54-.19-.04-.37-.1-.55-.15-.59-.18-.99-.51-1.21-.92l-.27-1.52-2.43-13.42,14.03,1.68-.99,9.36c1.96.51,4.17,2.58,4,4.44Z"/>
            <polygon class="cls-3" points="57.19 110 55 123.75 54.84 122.85 52.41 109.43 57.19 110"/>
            <path class="cls-15" d="M50.23,109.43l-2.55,14.05c-.21,1.14-1.2,1.97-2.35,1.97h0c-1.96.47-12.4,1.16-12.54-.54-.18-1.99,2.37-4.21,4.4-4.52l-.99-9.28,14.04-1.68Z"/>
            <path class="cls-3" d="M50.28,109.43l-2.54,14.06c-.1.52-.35.97-.72,1.3l-2.35-14.68,5.61-.67Z"/>
            <g>
              <path class="cls-15" d="M39.77,87.96l-2.51,2.13,2.6,6.81c.04.09.06.18.08.27-1.37-.18-2.95-.39-4.5-.58l-5.27-6.2c-1.16-1.36-1.04-3.4.26-4.62l12.36-11.68.5,1.56c1.42,4.44.03,9.31-3.53,12.32Z"/>
              <path class="cls-9" d="M38.96,99.78c-2.06,1.34-4.33,1.25-6.73.22-1.09-.47-1.01-2.06.13-2.42l3.1-.98h0c1.55.19,3.13.39,4.5.57.26.98-.13,2.04-.99,2.61Z"/>
            </g>
            <path class="cls-15" d="M70.42,99.98c-1.32-.93-7.07-6.68-8.29-6.19-2.2.89-.28,7.79,1.57,8.21l-.67.45c2.06,2.51,4.63,4.05,8.12,3.58,4.52-.6,1.73-4.32-.73-6.05Z"/>
            <path class="cls-11" d="M45.19,73.74c-1.07.15-7.78,9.15-9,37.37h30.2c-.31-13.67-1.77-26.53-6.1-37.37h-15.1Z"/>
            <g class="cls-4">
              <path class="cls-1" d="M40.8,111.1h-4.56c1.23-28.21,7.94-37.22,9-37.37h3.35c-2.96,6.56-8.85,21.82-7.79,37.37Z"/>
              <path class="cls-1" d="M62.42,111.1c1.06-15.54-4.84-30.81-7.79-37.37h5.71c4.33,10.84,5.79,23.71,6.1,37.37h-4.02Z"/>
            </g>
            <path class="cls-8" d="M51.63,76.92s-.02,0-.02,0c-.01,0-.03,0-.04,0-.01,0-.03,0-.04,0,0,0-.02,0-.02,0-3.85.11-10.58,6.18-5.32,9.13,1.93,1.08,3.87.58,4.83-1.45.25-.53.42-1.08.55-1.64.13.56.3,1.11.55,1.64.95,2.03,2.89,2.54,4.83,1.45,5.27-2.95-1.47-9.02-5.32-9.13ZM47.98,84.85c-2.22-.28-2.14-2.24-1-3.6.86-1.02,2.18-2.02,3.56-2.39-.32,2.17-.6,6.23-2.57,5.98ZM55.15,84.85c-1.96.25-2.25-3.81-2.57-5.98,1.38.37,2.7,1.37,3.56,2.39,1.14,1.36,1.22,3.32-1,3.6Z"/>
            <g>
              <path class="cls-15" d="M75.54,95.51l-3.78,2.56c-1.34-1.62-2.68-3.15-3.99-4.52-4.6-4.79-7.22-11.14-7.22-17.78v-2.92c5.38,2.2,10.2,11.63,14.89,22.66h.1Z"/>
              <path class="cls-9" d="M79.27,97.25l-3.27,2.36c-1.05.76-2.51.56-3.33-.44-.3-.37-.6-.73-.9-1.09l3.78-2.56,3.27.19c.81.04,1.11,1.08.46,1.55Z"/>
            </g>
            <g>
              <path class="cls-15" d="M97.22,5.85c-3.63-2.52-7.31-3.04-11.59-3-4.01.04-8.02,1.96-9.5,5.29-.71.74-1.3,1.64-1.73,2.78-.84,2.23-.64,4.85-.4,7.19.82,7.93,7.55,12.73,15.19,13.45,7.55.71,14.65-5.79,14.22-13.63-.28-5.02-1.95-9.14-6.2-12.08Z"/>
              <path class="cls-8" d="M92.03,12.15c-2.2-1.53-4.43-1.84-7.02-1.82-2.43.02-4.86,1.19-5.75,3.21-.43.45-.79.99-1.05,1.68-.51,1.35-.39,2.94-.24,4.36.49,4.8,4.57,7.71,9.2,8.14,4.57.43,8.87-3.51,8.61-8.25-.17-3.04-1.18-5.54-3.75-7.32Z"/>
            </g>
            <g>
              <path class="cls-15" d="M6.22,5.85c3.63-2.52,7.31-3.04,11.59-3,4.01.04,8.02,1.96,9.5,5.29.71.74,1.3,1.64,1.73,2.78.84,2.23.64,4.85.4,7.19-.82,7.93-7.55,12.73-15.19,13.45C6.68,32.27-.41,25.77.02,17.93c.28-5.02,1.95-9.14,6.2-12.08Z"/>
              <path class="cls-8" d="M11.4,12.15c2.2-1.53,4.43-1.84,7.02-1.82,2.43.02,4.86,1.19,5.75,3.21.43.45.79.99,1.05,1.68.51,1.35.39,2.94.24,4.36-.49,4.8-4.57,7.71-9.2,8.14-4.57.43-8.87-3.51-8.61-8.25.17-3.04,1.18-5.54,3.75-7.32Z"/>
            </g>
            <path class="cls-9" d="M89.33,64.74c-1.92,1.1-3.92,1.72-5.79,1.89-1.68,6.14-15.57,10.93-32.47,10.93s-30.9-4.83-32.49-11c-1.7-.23-3.5-.82-5.22-1.82-5.05-2.92-7.54-8.09-5.55-11.54,1.14-1.97,3.49-2.96,6.23-2.9-.06-.2-.13-.39-.18-.6-1.08-3.66-1.64-7.56-1.56-11.6C12.67,16.83,30.43-.32,51.69.02c21.13.33,38.15,17.56,38.15,38.77,0,3.99-.61,7.83-1.71,11.44-.02.04-.03.07-.04.11,2.97-.22,5.57.76,6.78,2.87,1.99,3.45-.49,8.62-5.55,11.54Z"/>
            <path class="cls-2" d="M89.34,64.73c-1.92,1.1-3.92,1.72-5.79,1.89-.85,3.12-4.85,5.89-10.8,7.86,5.8-4.52,9.4-10.86,9.4-17.86,0-13.73-13.79-24.84-30.8-24.84s-30.79,11.12-30.79,24.84c0,7.16,3.75,13.62,9.77,18.15-6.5-1.99-10.89-4.91-11.74-8.22-1.7-.23-3.5-.82-5.22-1.82-5.05-2.92-7.54-8.09-5.55-11.54,1.14-1.97,3.49-2.96,6.23-2.9-.06-.2-.13-.39-.18-.6-1.08-3.66-1.64-7.56-1.56-11.6C12.68,16.82,30.44-.33,51.7,0c21.13.33,38.15,17.56,38.15,38.77,0,3.99-.61,7.83-1.71,11.44-.02.04-.03.07-.04.11,2.97-.22,5.57.76,6.78,2.87,1.99,3.45-.49,8.62-5.55,11.54Z"/>
            <path class="cls-12" d="M29.42,43.21c1.55-2.01,3.43-3.51,5.94-2.07,1,.57,1.91-.97.9-1.55-3.43-1.97-6.24-.1-8.39,2.71-.7.91.85,1.81,1.55.9h0Z"/>
            <path class="cls-12" d="M62.51,41c1.44-.7,2.61-1.44,4.27-.89,1.11.37,2.63,1.14,3.08,2.3.41,1.06,2.15.6,1.73-.48-.67-1.72-2.29-2.78-3.96-3.41-2.3-.88-3.94-.08-6.02.94-1.04.51-.13,2.05.9,1.55h0Z"/>
            <path class="cls-14" d="M72.26,25.63c-13-8.37-28.07-6.52-40.59,1.69-2.17,1.42-5.38,3.18-6.51,5.69-.57,1.26-.71,2.73-.87,4.18-.71,1.42-1.14,2.94-.91,4.17.91,4.73,6.52-.66,6.94-3.36.33,1.61,3.14,2.09,4.58,1.96,1.9-.18,2.84-.93,3.44-2.86-.17,2.46-1.19,5.26,1.48,6.89,2.42,1.48,4.39-.39,5.57-2.41-.04,3.61,5.56,3.68,7.97,2.71,3.19-1.29,3.19-2.48,3.17-5.38-.11,1.65,2.43,3.62,4.04,3.05.94-.33,1.89-1.87,1.86-3.07.69.77,1.92.89,2.95.36,1.34-.69,1.4-2.25,2.31-3.08.14,2.34.7,6.09,4.04,4.36-.64,5.87,9.4,10.37,10.11,2.51.65-7.22-3.8-13.68-9.58-17.4Z"/>
            <g>
              <ellipse class="cls-12" cx="33.97" cy="52.79" rx="5.1" ry="8.03"/>
              <circle class="cls-7" cx="33.9" cy="49.35" r="1.7"/>
              <path class="cls-7" d="M37.29,56.82c0,.94-.76,1.7-1.7,1.7s-1.7-.76-1.7-1.7.76-1.7,1.7-1.7,1.7.76,1.7,1.7Z"/>
            </g>
            <g>
              <ellipse class="cls-12" cx="67.28" cy="52.79" rx="5.1" ry="8.03"/>
              <circle class="cls-7" cx="67.21" cy="49.35" r="1.7"/>
              <path class="cls-7" d="M70.6,56.82c0,.94-.76,1.7-1.7,1.7s-1.7-.76-1.7-1.7.76-1.7,1.7-1.7,1.7.76,1.7,1.7Z"/>
            </g>
            <g>
              <path class="cls-8" d="M22.58,64.67c1.36-1.56,2.71-3.14,4.04-4.73.5-.6-.36-1.47-.86-.86-1.32,1.6-2.67,3.17-4.04,4.73-.51.59.35,1.46.86.86h0Z"/>
              <path class="cls-8" d="M26.35,64.67c1.36-1.56,2.71-3.14,4.04-4.73.5-.6-.36-1.47-.86-.86-1.32,1.6-2.67,3.17-4.04,4.73-.51.59.35,1.46.86.86h0Z"/>
              <path class="cls-8" d="M30.11,64.67c1.36-1.56,2.71-3.14,4.04-4.73.5-.6-.36-1.47-.86-.86-1.32,1.6-2.67,3.17-4.04,4.73-.51.59.35,1.46.86.86h0Z"/>
            </g>
            <g>
              <path class="cls-8" d="M67.04,64.67c1.36-1.56,2.71-3.14,4.04-4.73.5-.6-.36-1.47-.86-.86-1.32,1.6-2.67,3.17-4.04,4.73-.51.59.35,1.46.86.86h0Z"/>
              <path class="cls-8" d="M70.8,64.67c1.36-1.56,2.71-3.14,4.04-4.73.5-.6-.36-1.47-.86-.86-1.32,1.6-2.67,3.17-4.04,4.73-.51.59.35,1.46.86.86h0Z"/>
              <path class="cls-8" d="M74.56,64.67c1.36-1.56,2.71-3.14,4.04-4.73.5-.6-.36-1.47-.86-.86-1.32,1.6-2.67,3.17-4.04,4.73-.51.59.35,1.46.86.86h0Z"/>
            </g>
            <path class="cls-12" d="M50.62,65.95c-3.49,0-6.46-2.68-6.75-6.22-.03-.32-.03-.64-.01-.95.03-.5.45-.89.97-.86.5.03.89.46.86.97-.01.23,0,.46.01.7.23,2.72,2.63,4.74,5.34,4.52,2.72-.23,4.75-2.62,4.52-5.34-.04-.5.33-.95.84-.99.5-.04.95.33.99.84.31,3.72-2.47,7.01-6.19,7.32-.19.02-.38.02-.57.02Z"/>
            <path class="cls-11" d="M89.84,38.78c0,3.99-.61,7.83-1.71,11.44-.7.16-1.63-.16-2.33-.05-.97.16-1.87.63-2.66,1.18-.18.13-.35.26-.53.4-.92.76-2.28.27-2.47-.91-.51-3.28-2.22-6.81-3.13-9.15-5.37-13.94-37.69-9.92-44.47-7.78-7.18,2.27-10.6,9.2-10.93,16.27v.05c-.06,1.27-1.51,1.92-2.54,1.16-.94-.7-1.96-1.24-2.88-1.54-.64-.22-1.51-.17-2.35-.16-1.08-3.66-1.64-7.56-1.56-11.6C12.67,16.83,30.43-.32,51.69.02c21.13.33,38.15,17.56,38.15,38.77Z"/>
            <g class="cls-5">
              <path class="cls-13" d="M89.84,38.78c0,3.99-.61,7.83-1.71,11.44-.7.16-1.63-.16-2.33-.05-.97.16-1.87.63-2.66,1.18-.18.13-.36.26-.53.4-.91.76-2.28.27-2.46-.91-.51-3.27-2.23-6.81-3.13-9.15-.67-1.76-1.78-3.23-3.21-4.44,3.35-3.8,5.33-8.46,5.33-13.51,0-12.72-12.57-23.03-28.08-23.03s-28.07,10.31-28.07,23.03c0,4.74,1.75,9.15,4.73,12.8-3.92,3.24-5.86,8.4-6.1,13.65v.05c-.06,1.27-1.51,1.92-2.54,1.16-.94-.7-1.96-1.24-2.88-1.54-.65-.22-1.51-.17-2.35-.16-1.08-3.66-1.64-7.56-1.56-11.6C12.67,16.83,30.43-.32,51.69.02c21.13.33,38.15,17.56,38.15,38.77Z"/>
            </g>
            <path class="cls-12" d="M53.34,53.19c-.61-.49-1.66-.69-2.53-.73-.99-.04-2.1-.03-2.89.66-.53.46-.81,1.23-.57,1.88.72,1.96,5.23,1.87,6.18.2.54-.94.34-1.58-.19-2Z"/>
          </g>
        </g>
      </g>
    </g>
  </g>
</svg>