<?xml version="1.0" encoding="UTF-8"?>
<svg id="Layer_2" data-name="Layer 2" xmlns="http://www.w3.org/2000/svg" viewBox="0 0 149.99 197.18">
  <defs>
    <style>
      .cls-1 {
        fill: #f2a34a;
      }

      .cls-2 {
        fill: #424242;
      }

      .cls-3 {
        fill: #ffa3e6;
        opacity: .25;
      }

      .cls-4 {
        fill: #393734;
      }

      .cls-5 {
        fill: #ffe6d5;
      }

      .cls-6 {
        fill: #f25c80;
      }

      .cls-6, .cls-7 {
        opacity: .3;
      }

      .cls-8 {
        fill: #f13788;
        opacity: .66;
      }

      .cls-9 {
        fill: #fae37b;
      }

      .cls-10 {
        fill: #6c3534;
      }

      .cls-11 {
        fill: none;
        stroke: #f2a34a;
        stroke-miterlimit: 10;
        stroke-width: 2px;
      }

      .cls-7 {
        fill: #f98787;
      }
    </style>
  </defs>
  <g id="OBJECTS">
    <g>
      <g>
        <g>
          <g>
            <path class="cls-5" d="M96.6,113.52l-24.34-2.05-24.33,2.05s-43.65,21.79-39.73,33.72c3.92,11.93,18.25,5.22,20.41,4.1,2.16-1.12,1.77,43.42,7.85,44.73,6.08,1.3,14.33,1.68,14.92,0,.59-1.68,3.73-13.23,4.12-13.79.39-.56,15.11,0,15.11,0,0,0,14.72-.56,15.11,0,.39.56,3.53,12.11,4.12,13.79.59,1.68,8.83,1.3,14.92,0,6.08-1.3,5.69-45.84,7.85-44.73,2.16,1.12,16.49,7.83,20.41-4.1,3.93-11.93-36.42-33.72-36.42-33.72Z"/>
            <path class="cls-4" d="M88.68,192.22l19.13-1.64s-.61,3.95-2.24,5.22c-1.64,1.27-13.68,2.14-15.72.45l-1.16-4.03Z"/>
            <path class="cls-4" d="M52.48,192.41l-18.28-1.83s-.16,3.95,1.48,5.22c1.64,1.27,13.68,2.14,15.72.45l1.09-3.84Z"/>
            <path class="cls-1" d="M31.25,174.89l78.67.68s-1.22,16.37-3.09,18.43l-17.29,1.1-3.82-12.82h-30.22l-3.69,12.39-16.94.06s-2.66-4.2-3.63-19.83"/>
            <path class="cls-4" d="M10.06,140.2l6.83,13.99s9.07-.51,11.73-2.85l1.79,24.41,80.38.62s.06-25.86,1.83-25.04c1.78.82,7.51,2.89,10.42,2.88.63,0,8.41-14.02,8.41-14.02,0,0-4.41-9.45-33.79-26.7l-49.72.02s-34.35,17.37-37.87,26.68Z"/>
            <path class="cls-5" d="M136.52,69.19c0,32.09-28.2,48.65-62.99,48.65S10.54,101.28,10.54,69.19,38.74,11.09,73.53,11.09s62.99,26.01,62.99,58.1Z"/>
          </g>
          <path class="cls-10" d="M100.14,89.91c0,5.25-2.01,6-4.5,6s-4.5-.75-4.5-6,2.01-9.5,4.5-9.5,4.5,4.25,4.5,9.5Z"/>
          <path class="cls-10" d="M54.41,89.91c0,5.25-2.01,6-4.5,6s-4.5-.75-4.5-6,2.01-9.5,4.5-9.5,4.5,4.25,4.5,9.5Z"/>
          <circle class="cls-8" cx="96.05" cy="81.67" r="19.09"/>
          <circle class="cls-8" cx="48.69" cy="81.67" r="19.09"/>
          <circle class="cls-11" cx="95.64" cy="81.67" r="19"/>
          <circle class="cls-11" cx="48.69" cy="81.67" r="19"/>
          <path class="cls-11" d="M67.64,83.04s4.39-4.92,9.01,0"/>
          <line class="cls-11" x1="114.64" y1="86.19" x2="131.44" y2="75.81"/>
          <line class="cls-11" x1="30.24" y1="86.19" x2="17.77" y2="80.41"/>
          <g>
            <path class="cls-4" d="M14.69,88.67s12.34-41.92,30.5-42.92c8.14-.45,17.54-17.59,27.83-17.12,9.47.43,15.13,19.65,33.58,14.5,13.52-3.77,24.28,32.5,26.57,43.22,0,0,2.58-5.24,3.23-13.74,1.6-20.87-3.88-58.05-54.56-61.27C9.64,6.76,10.28,66.21,10.43,73.19c.15,6.98,4.26,15.48,4.26,15.48Z"/>
            <g>
              <circle class="cls-4" cx="84.46" cy="33.06" r="7.23"/>
              <path class="cls-4" d="M103.28,37.67c0,3.99-3.24,7.23-7.23,7.23s-7.23-3.24-7.23-7.23,3.24-7.23,7.23-7.23,7.23,3.24,7.23,7.23Z"/>
              <path class="cls-4" d="M115.36,45.45c0,3.99-3.96,6.68-7.95,6.68s-7.23-3.24-7.23-7.23,3.24-7.23,7.23-7.23,7.95,3.79,7.95,7.78Z"/>
              <circle class="cls-4" cx="118.13" cy="52.13" r="7.23"/>
              <path class="cls-4" d="M135.53,61.23c0,3.99-3.24,7.23-7.23,7.23s-7.23-3.24-7.23-7.23,3.24-7.23,7.23-7.23,7.23,3.24,7.23,7.23Z"/>
              <path class="cls-4" d="M140.52,70.96c0,3.99-3.24,7.23-7.23,7.23s-7.23-3.24-7.23-7.23,3.24-7.23,7.23-7.23,7.23,3.24,7.23,7.23Z"/>
              <circle class="cls-4" cx="135.53" cy="83.04" r="7.23"/>
              <path class="cls-4" d="M64.4,31.81c0,3.99,3.24,7.23,7.23,7.23s7.23-3.24,7.23-7.23-3.24-7.23-7.23-7.23-7.23,3.24-7.23,7.23Z"/>
              <path class="cls-4" d="M52.82,36.42c0,3.99,3.24,7.23,7.23,7.23s7.23-3.24,7.23-7.23-3.24-7.23-7.23-7.23-7.23,3.24-7.23,7.23Z"/>
              <path class="cls-4" d="M41.46,43.65c0,3.99,3.24,7.23,7.23,7.23s7.23-3.24,7.23-7.23-3.24-7.23-7.23-7.23-7.23,3.24-7.23,7.23Z"/>
              <path class="cls-4" d="M30.74,50.88c0,3.99,3.24,7.23,7.23,7.23s7.23-3.24,7.23-7.23-3.24-7.23-7.23-7.23-7.23,3.24-7.23,7.23Z"/>
              <path class="cls-4" d="M20.57,59.98c0,3.99,3.24,7.23,7.23,7.23s7.23-3.24,7.23-7.23-3.24-7.23-7.23-7.23-7.23,3.24-7.23,7.23Z"/>
              <path class="cls-4" d="M15.58,69.71c0,3.99,3.24,7.23,7.23,7.23s7.23-3.24,7.23-7.23-3.24-7.23-7.23-7.23-7.23,3.24-7.23,7.23Z"/>
              <path class="cls-4" d="M11.49,78.96c0,3.99,3.24,7.23,7.23,7.23s7.23-3.24,7.23-7.23-3.24-7.23-7.23-7.23-7.23,3.24-7.23,7.23Z"/>
              <circle class="cls-4" cx="12.38" cy="86.19" r="7.23"/>
            </g>
            <g>
              <circle class="cls-2" cx="84.46" cy="8.48" r="7.23"/>
              <path class="cls-2" d="M103.28,13.08c0,3.99-3.24,7.23-7.23,7.23s-7.23-3.24-7.23-7.23,3.24-7.23,7.23-7.23,7.23,3.24,7.23,7.23Z"/>
              <path class="cls-2" d="M115.36,20.87c0,3.99-3.96,6.68-7.95,6.68s-7.23-3.24-7.23-7.23,3.24-7.23,7.23-7.23,7.95,3.79,7.95,7.78Z"/>
              <circle class="cls-4" cx="118.13" cy="27.54" r="7.23"/>
              <path class="cls-4" d="M135.53,36.65c0,3.99-3.24,7.23-7.23,7.23s-7.23-3.24-7.23-7.23,3.24-7.23,7.23-7.23,7.23,3.24,7.23,7.23Z"/>
              <path class="cls-4" d="M140.52,46.38c0,3.99-3.24,7.23-7.23,7.23s-7.23-3.24-7.23-7.23,3.24-7.23,7.23-7.23,7.23,3.24,7.23,7.23Z"/>
              <circle class="cls-4" cx="137.38" cy="55.63" r="7.23"/>
              <path class="cls-2" d="M64.4,7.23c0,3.99,3.24,7.23,7.23,7.23s7.23-3.24,7.23-7.23-3.24-7.23-7.23-7.23-7.23,3.24-7.23,7.23Z"/>
              <path class="cls-2" d="M52.82,11.83c0,3.99,3.24,7.23,7.23,7.23s7.23-3.24,7.23-7.23-3.24-7.23-7.23-7.23-7.23,3.24-7.23,7.23Z"/>
              <path class="cls-2" d="M40.21,15.19c0,3.99,3.24,7.23,7.23,7.23s7.23-3.24,7.23-7.23-3.24-7.23-7.23-7.23-7.23,3.24-7.23,7.23Z"/>
              <path class="cls-4" d="M30.04,22.42c0,3.99,3.24,7.23,7.23,7.23s7.23-3.24,7.23-7.23-3.24-7.23-7.23-7.23-7.23,3.24-7.23,7.23Z"/>
              <circle class="cls-4" cx="26.84" cy="29.65" r="7.23"/>
              <path class="cls-4" d="M11.49,40.29c0,3.99,3.24,7.23,7.23,7.23s7.23-3.24,7.23-7.23-3.24-7.23-7.23-7.23-7.23,3.24-7.23,7.23Z"/>
              <path class="cls-4" d="M6.11,49.88c0,3.99,3.24,7.23,7.23,7.23s7.23-3.24,7.23-7.23-3.24-7.23-7.23-7.23-7.23,3.24-7.23,7.23Z"/>
              <circle class="cls-4" cx="9.61" cy="58.85" r="7.23"/>
            </g>
            <path class="cls-4" d="M146.74,64.47c0,3.99-3.24,7.23-7.23,7.23s-7.23-3.24-7.23-7.23,3.24-7.23,7.23-7.23,7.23,3.24,7.23,7.23Z"/>
            <path class="cls-4" d="M149.99,74.44c0,3.99-3.24,7.23-7.23,7.23s-7.23-3.24-7.23-7.23,3.24-7.23,7.23-7.23,7.23,3.24,7.23,7.23Z"/>
            <circle class="cls-4" cx="8.35" cy="67.85" r="7.23"/>
            <circle class="cls-4" cx="7.23" cy="77.96" r="7.23"/>
            <path class="cls-4" d="M17.77,71.73c0,3.99-3.24,7.23-7.23,7.23s-7.23-3.24-7.23-7.23,3.24-7.23,7.23-7.23,7.23,3.24,7.23,7.23Z"/>
          </g>
          <path class="cls-6" d="M112.24,100.33c0,.64-2.79,1.17-6.24,1.17s-6.24-.52-6.24-1.17,2.79-1.17,6.24-1.17,6.24.52,6.24,1.17Z"/>
          <path class="cls-6" d="M47.31,101.49c0,.64-2.79,1.17-6.24,1.17s-6.24-.52-6.24-1.17,2.79-1.17,6.24-1.17,6.24.52,6.24,1.17Z"/>
          <path class="cls-7" d="M79.12,103.69c0,2.78-2.41,5.03-5.39,5.03s-5.39-2.25-5.39-5.03,2.41-2.13,5.39-2.13,5.39-.65,5.39,2.13Z"/>
        </g>
        <polyline class="cls-9" points="57.88 150.62 86.88 150.62 91.57 133.99 78.34 141.87 71.9 130.5 65.98 141.57 52.36 134.3 57.82 150.36"/>
        <circle class="cls-3" cx="88.02" cy="76.94" r="8.03" transform="translate(-28.62 84.77) rotate(-45)"/>
        <circle class="cls-3" cx="55.98" cy="77.74" r="8.03" transform="translate(-38.57 62.35) rotate(-45)"/>
        <path class="cls-3" d="M100.96,97.88s10.81-2.81,11.87-15.56l-5.94-.36s3.81,7.86-5.94,15.93Z"/>
        <path class="cls-3" d="M43.9,97.88s-10.81-2.81-11.88-15.56l5.94-.36s-3.81,7.86,5.94,15.93Z"/>
      </g>
      <path class="cls-2" d="M26.84,22.42s63.39,20.68,98.31,3.42c0,0-28.78-30.23-83.66-12.71-5.22,1.67-11.51,6.75-14.65,9.3Z"/>
      <path class="cls-2" d="M125.15,25.83s-.75-6.96-10.52-7.8"/>
      <path class="cls-2" d="M40.41,13.51s-12.01-.05-13.57,8.91"/>
    </g>
  </g>
</svg>