<?xml version="1.0" encoding="UTF-8"?>
<svg id="Layer_2" data-name="Layer 2" xmlns="http://www.w3.org/2000/svg" viewBox="0 0 154.24 188.19">
  <defs>
    <style>
      .cls-1 {
        fill: #ffb339;
      }

      .cls-2 {
        fill: #c94733;
      }

      .cls-3 {
        fill: #ffe6d5;
      }

      .cls-4 {
        fill: #f25c80;
      }

      .cls-4, .cls-5 {
        opacity: .3;
      }

      .cls-6 {
        fill: #333;
      }

      .cls-7 {
        fill: #2a1c16;
      }

      .cls-8 {
        fill: #859ec7;
      }

      .cls-9 {
        fill: #f9bb62;
      }

      .cls-10 {
        fill: #6c3534;
      }

      .cls-11 {
        fill: none;
        stroke: #333;
        stroke-miterlimit: 10;
      }

      .cls-5 {
        fill: #f98787;
      }
    </style>
  </defs>
  <g id="OBJECTS">
    <g>
      <g>
        <g>
          <g>
            <path class="cls-3" d="M101.42,102.42l-24.34-2.05-24.33,2.05s-43.65,21.79-39.73,33.72c3.92,11.93,18.25,5.22,20.41,4.1,2.16-1.12,1.77,43.42,7.85,44.73s14.33,1.68,14.92,0c.59-1.68,3.73-13.23,4.12-13.79.39-.56,15.11,0,15.11,0,0,0,14.72-.56,15.11,0s3.53,12.11,4.12,13.79c.59,1.68,8.83,1.3,14.92,0s5.69-45.84,7.85-44.73c2.16,1.12,16.49,7.83,20.41-4.1,3.93-11.93-36.42-33.72-36.42-33.72Z"/>
            <path class="cls-3" d="M141.33,58.1c0,32.09-28.2,48.65-62.99,48.65S15.35,90.19,15.35,58.1,43.56,0,78.34,0s62.99,26.01,62.99,58.1Z"/>
          </g>
          <path class="cls-2" d="M52.74,102.42l-19.32,37.82,2.38,20.53,79.19.62,2.43-21.16-14.2-37.82h-11.63s-9.25,20.36-14.25,21.36-15.75-21.36-15.75-21.36h-8.85Z"/>
          <path class="cls-8" d="M92.03,175.94l21.38-.63s1.41-11.8,1.58-13.92c.17-2.11-79.19-.62-79.19-.62,0,0,1.5,14.06,1.86,15.87.37,1.8,20.6,1.23,20.6,1.23l2.05-6.69h30.22l1.49,4.76Z"/>
          <path class="cls-6" d="M94.29,183.8s10.03,2.37,17.27-1.16c0,0-.17,1.41-1.63,2.19-1.46.78-13.16,2.61-15.16.32l-.47-1.36Z"/>
          <path class="cls-11" d="M111.98,181.55s-8.39-1.93-8.76,3.65"/>
          <path class="cls-11" d="M104.3,185.2s0-4.35-10.5-3.08"/>
          <path class="cls-6" d="M56.52,183.82s-10.03,2.37-17.27-1.16c0,0,.17,1.41,1.63,2.19,1.46.78,13.16,2.61,15.16.32l.47-1.36Z"/>
          <path class="cls-11" d="M38.83,181.57s8.39-1.93,8.76,3.65"/>
          <path class="cls-11" d="M46.51,185.22s0-4.35,10.5-3.08"/>
          <path class="cls-7" d="M77.59,49.87l59.39,28.18s13.3-17.18,1.12-34.52c-12.18-17.33-121.45-3.81-121.45-3.81,0,0-5.96,25.22,3.53,39.27l57.41-29.12Z"/>
          <path class="cls-10" d="M103.81,78.62c0,5.25-2.01,6-4.5,6s-4.5-.75-4.5-6,2.01-9.5,4.5-9.5,4.5,4.25,4.5,9.5Z"/>
          <path class="cls-10" d="M57.81,78.62c0,5.25-2.01,6-4.5,6s-4.5-.75-4.5-6,2.01-9.5,4.5-9.5,4.5,4.25,4.5,9.5Z"/>
          <path class="cls-7" d="M133.17,58.84s19.74,5.37,21.07-5.46c0,0-.67,27.5-22,20"/>
          <path class="cls-7" d="M22.98,47.27S3.24,52.65,1.91,41.81c0,0,.67,27.5,22,20"/>
          <path class="cls-7" d="M21.07,61.03S1.33,66.4,0,55.57c0,0,.67,27.5,22,20"/>
          <path class="cls-7" d="M131.26,45.08s19.74,5.37,21.07-5.46c0,0-.67,27.5-22,20"/>
          <path class="cls-4" d="M119.11,90.2c0,.64-2.79,1.17-6.24,1.17s-6.24-.52-6.24-1.17,2.79-1.17,6.24-1.17,6.24.52,6.24,1.17Z"/>
          <path class="cls-4" d="M50.8,91.37c0,.64-2.79,1.17-6.24,1.17s-6.24-.52-6.24-1.17,2.79-1.17,6.24-1.17,6.24.52,6.24,1.17Z"/>
          <path class="cls-5" d="M84.45,92.39c0,2.78-2.41,5.03-5.39,5.03s-5.39-2.25-5.39-5.03,2.41-2.13,5.39-2.13,5.39-.65,5.39,2.13Z"/>
          <path class="cls-1" d="M134.52,54.29c-.83,7.28-25.66,13.25-57.32,13.25s-56.83-5.94-57.32-13.25c-1.24-18.58,26.81-17,58.46-17s58.72-5.34,56.17,17Z"/>
          <path class="cls-1" d="M14.18,48.87s84.48-21.13,126.15-2.46c0,0-10.56-49.12-66.66-46.24C19.84,2.92,14.18,48.87,14.18,48.87Z"/>
          <path class="cls-2" d="M15.35,43.52s67.86-26.36,123.47-1.71l1.51,5.05s-36.52-19.33-126.15,2l1.17-5.35Z"/>
        </g>
        <rect class="cls-1" x="127.14" y="97.03" width="6.39" height="92.4" transform="translate(50.16 -33.05) rotate(17.84)"/>
      </g>
      <path class="cls-9" d="M32.94,14.7s57.33,21.16,92.25,3.9c0,0-30.59-30.18-78.58-12.1-5.13,1.93-8.1,5.09-13.67,8.2Z"/>
    </g>
  </g>
</svg>