<?xml version="1.0" encoding="UTF-8"?>
<svg xmlns="http://www.w3.org/2000/svg" viewBox="0 0 123 154.53">
  <defs>
    <style>
      .cls-1, .cls-2, .cls-3, .cls-4 {
        mix-blend-mode: multiply;
      }

      .cls-1, .cls-5 {
        fill: #e6e6e6;
      }

      .cls-6 {
        fill: #df6747;
      }

      .cls-2, .cls-7 {
        fill: #f5d6b8;
      }

      .cls-8 {
        isolation: isolate;
      }

      .cls-9 {
        fill: #603813;
      }

      .cls-10 {
        fill: #42210b;
      }

      .cls-11, .cls-3 {
        fill: #ccc;
      }

      .cls-3, .cls-12, .cls-4 {
        opacity: .5;
      }
    </style>
  </defs>
  <g class="cls-8">
    <g id="Layer_2" data-name="Layer 2">
      <g id="OBJECTS">
        <g>
          <path class="cls-5" d="M87.62,150.57c0,2.19-12.09,3.96-27.01,3.96s-27.01-1.77-27.01-3.96,12.09-3.96,27.01-3.96,27.01,1.77,27.01,3.96Z"/>
          <g>
            <g>
              <path class="cls-5" d="M82.31,138.51c-1.44.33-3.05.06-4.39-.65l.96.75c-.1,1.42-6.55,1.08-6.18-1.58,1.12.15,2.26-.04,2.29-.54l-.68-.55c.95.51,2.1.71,3.14.47,1.64-.38,3.11-2.59.75-3.18,1.71-.26,2.08-2.85,1.66-4.15-.21-.63-1.16-1.2-1.51-.88.11-1.38-.45-2.56-2.02-2.85-1.2-.22-2.79.19-2.89,1.62-.52-.92-2.29-.56-3.66.27,1.61-2.12,5.92-3.72,6.93-1.95.14-2,2.37-2.57,4.05-2.27,2.2.39,2.97,2.05,2.82,3.99.49-.45,1.82.34,2.11,1.23.59,1.82.08,5.44-2.32,5.81,3.31.82,1.25,3.92-1.06,4.45Z"/>
              <path class="cls-11" d="M77.45,136.42c-1.04.24-2.19.04-3.14-.47l.68.55c-.04.5-1.17.69-2.29.54-.69-.1-1.36-.34-1.76-.72-1.15-.31-2.17-.83-2.77-1.95t0,0c-.08-.13-.14-.29-.21-.44-.54-1.4-.05-3.66,1.72-3.88-.78-.88-.58-1.88.11-2.79,1.37-.83,3.14-1.19,3.66-.27.11-1.43,1.69-1.84,2.89-1.62,1.57.29,2.12,1.47,2.02,2.85.35-.32,1.3.25,1.51.88.42,1.3.05,3.89-1.66,4.15,2.36.59.89,2.8-.75,3.18Z"/>
            </g>
            <g>
              <path class="cls-11" d="M121.4,15.79c-2.56,3.66-5.98,4.69-9.86,6.33-8.38,3.53-16.05,8.02-23.41,13.49-.52.39-1.1.87-1.72,1.4-2.63,2.24-6.02,5.23-9.14,4.77-.47-.07-.87-.22-1.21-.43-4.61-2.86,1.58-17.72,3.13-20.94,3.98-8.21,10.59-15.37,19.32-18.51,7.22-2.58,18.28-3.57,23,3.92,2.01,3.17,2.02,6.95-.11,9.98Z"/>
              <path class="cls-6" d="M94.31,16.33c-4.34,2.87-20.29,21.87-17.07,25.25.68.71,1.86.48,2.78.12,6.75-2.66,10.16-9.8,15.54-14.31,2.51-2.11,5.25-3.84,7.89-5.75,1.51-1.1,5.14-3.59,5.94-5.52,3.32-8.05-6.13-5.7-15.07.21ZM76.83,40.88l.83-1.67c-.26.56-.53,1.12-.83,1.67Z"/>
            </g>
            <g>
              <path class="cls-11" d="M1.6,15.79c2.56,3.66,5.98,4.69,9.86,6.33,8.38,3.53,16.05,8.02,23.41,13.49.52.39,1.1.87,1.72,1.4,2.63,2.24,6.02,5.23,9.14,4.77.47-.07.87-.22,1.21-.43,4.61-2.86-1.58-17.72-3.13-20.94-3.98-8.21-10.59-15.37-19.32-18.51C17.27-.68,6.22-1.67,1.5,5.81c-2.01,3.17-2.02,6.95.11,9.98Z"/>
              <path class="cls-6" d="M13.63,16.11c.79,1.93,4.42,4.42,5.94,5.52,2.64,1.92,5.37,3.65,7.89,5.75,5.38,4.51,8.79,11.65,15.54,14.31.92.36,2.1.59,2.78-.12,3.21-3.37-12.73-22.38-17.07-25.25-8.94-5.91-18.38-8.26-15.07-.21ZM45.34,39.21l.83,1.67c-.3-.55-.57-1.1-.83-1.67Z"/>
            </g>
            <path class="cls-11" d="M78.95,150.7c-.14,1.7-10.62,1.01-12.59.54-.19-.04-.37-.1-.55-.15-.59-.18-.99-.51-1.21-.92l-.11-.63-.16-.9-2.43-13.42,4.78.57,9.26,1.1-.99,9.36c1.96.51,4.17,2.58,4,4.44Z"/>
            <polygon class="cls-3" points="66.69 135.79 64.5 149.53 64.34 148.63 61.91 135.21 66.69 135.79"/>
            <path class="cls-11" d="M59.78,135.21l-2.54,14.06c-.1.52-.35.97-.72,1.3-.43.42-1.01.66-1.64.66-1.01.24-4.29.55-7.25.55-2.76,0-5.22-.26-5.29-1.08-.18-1.99,2.37-4.21,4.4-4.52l-.99-9.28,8.43-1,5.61-.67Z"/>
            <path class="cls-3" d="M59.78,135.21l-2.54,14.06c-.1.52-.35.97-.72,1.3l-2.35-14.68,5.61-.67Z"/>
            <g>
              <path class="cls-11" d="M49.32,113.75l-2.51,2.13,2.6,6.81c.04.09.06.18.08.27-1.37-.18-2.95-.39-4.5-.58l-5.27-6.2c-1.16-1.36-1.04-3.4.26-4.62l12.36-11.68.5,1.56c1.42,4.44.03,9.31-3.53,12.32Z"/>
              <path class="cls-7" d="M48.51,125.56c-2.06,1.34-4.33,1.25-6.73.22-1.09-.47-1.01-2.06.13-2.42l3.1-.98h0c1.55.19,3.13.39,4.5.57.26.98-.13,2.04-.99,2.61Z"/>
            </g>
            <g>
              <path class="cls-11" d="M73.6,113.75l2.51,2.13-2.6,6.81c-.04.09-.06.18-.08.27,1.37-.18,2.95-.39,4.5-.58l5.27-6.2c1.16-1.36,1.04-3.4-.26-4.62l-12.36-11.68-.5,1.56c-1.42,4.44-.03,9.31,3.53,12.32Z"/>
              <path class="cls-7" d="M74.42,125.56c2.06,1.34,4.33,1.25,6.73.22,1.09-.47,1.01-2.06-.13-2.42l-3.1-.98h0c-1.55.19-3.13.39-4.5.57-.26.98.13,2.04.99,2.61Z"/>
            </g>
            <path class="cls-5" d="M75.94,136.89h-30.2c1.23-28.21,7.94-37.22,9-37.37h15.1c4.33,10.84,5.79,23.71,6.1,37.37Z"/>
            <g class="cls-12">
              <path class="cls-1" d="M50.3,136.89h-4.56c1.23-28.21,7.94-37.22,9-37.37h3.35c-2.96,6.56-8.85,21.82-7.79,37.37Z"/>
              <path class="cls-1" d="M71.92,136.89c1.06-15.54-4.84-30.81-7.79-37.37h5.71c4.33,10.84,5.79,23.71,6.1,37.37h-4.02Z"/>
            </g>
            <path class="cls-6" d="M61.18,102.71s-.02,0-.02,0c-.01,0-.03,0-.04,0-.01,0-.03,0-.04,0,0,0-.02,0-.02,0-3.85.11-10.58,6.18-5.32,9.13,1.93,1.08,3.87.58,4.83-1.45.25-.53.42-1.08.55-1.64.13.56.3,1.11.55,1.64.95,2.03,2.89,2.54,4.83,1.45,5.27-2.95-1.47-9.02-5.32-9.13ZM57.52,110.64c-2.22-.28-2.14-2.24-1-3.6.86-1.02,2.18-2.02,3.56-2.39-.32,2.17-.6,6.23-2.57,5.98ZM64.7,110.64c-1.96.25-2.25-3.81-2.57-5.98,1.38.37,2.7,1.37,3.56,2.39,1.14,1.36,1.22,3.32-1,3.6Z"/>
            <path class="cls-7" d="M98.88,90.52c-1.92,1.1-3.92,1.72-5.79,1.89-1.68,6.14-15.57,10.93-32.47,10.93s-30.9-4.83-32.49-11c-1.7-.23-3.5-.82-5.22-1.82-5.05-2.92-7.54-8.09-5.55-11.54,1.14-1.97,3.49-2.96,6.23-2.9-.06-.2-.13-.39-.18-.6-1.08-3.66-1.64-7.56-1.56-11.6.37-21.26,18.12-38.41,39.39-38.08,21.13.33,38.15,17.56,38.15,38.77,0,3.99-.61,7.83-1.71,11.44-.02.04-.03.07-.04.11,2.97-.22,5.57.76,6.78,2.87,1.99,3.45-.49,8.62-5.55,11.54Z"/>
            <path class="cls-2" d="M98.87,90.51c-1.92,1.1-3.92,1.72-5.79,1.89-.85,3.12-4.85,5.89-10.8,7.86,5.8-4.52,9.4-10.86,9.4-17.86,0-13.73-13.79-24.84-30.8-24.84s-30.79,11.12-30.79,24.84c0,7.16,3.75,13.62,9.77,18.15-6.5-1.99-10.89-4.91-11.74-8.22-1.7-.23-3.5-.82-5.22-1.82-5.05-2.92-7.54-8.09-5.55-11.54,1.14-1.97,3.49-2.96,6.23-2.9-.06-.2-.13-.39-.18-.6-1.08-3.66-1.64-7.56-1.56-11.6.37-21.26,18.12-38.41,39.39-38.08,21.13.33,38.15,17.56,38.15,38.77,0,3.99-.61,7.83-1.71,11.44-.02.04-.03.07-.04.11,2.97-.21,5.57.76,6.78,2.87,1.99,3.45-.49,8.62-5.55,11.54Z"/>
            <path class="cls-10" d="M38.97,69c1.55-2.01,3.43-3.51,5.94-2.07,1,.57,1.91-.97.9-1.55-3.43-1.97-6.24-.1-8.39,2.71-.7.91.85,1.81,1.55.9h0Z"/>
            <path class="cls-10" d="M72.06,66.78c1.44-.7,2.61-1.44,4.27-.89,1.11.37,2.63,1.14,3.08,2.3.41,1.06,2.15.6,1.73-.48-.67-1.72-2.29-2.78-3.96-3.41-2.3-.88-3.94-.08-6.02.94-1.04.51-.13,2.05.9,1.55h0Z"/>
            <path class="cls-9" d="M85.08,47.67c-6.86-7.6-19.38-9.51-29.07-9.04-12.1.58-26.32,8.73-26.89,21.99-.13,2.93.23,5.84.68,8.69.5,3.25,2.79,5.08,4.45,7.75.39-3.78-.16-8.01,1.06-11.49.41,1.08.88,2.1,1.42,3.01,1.7-2.13,3.44-4.69,5.62-6.32,2.63,4.08,6.71,6.74,10.98,8.77.8-2.33,1.05-6.15.85-8.72,3.21,3.81,6.9,6.45,6.54,11.97,4.06-1.3,5.44-7.15,8.16-10.1,1.58-1.72,2.18-1.14,3.7.87.88,1.17,1.29,2.15,1.6,3.58,2.3-1.73,3.59-4.49,5.78-6.21,2.13,1.72,4.54,3.38,5.72,5.96.87,1.9.61,4.05,1.3,5.91,3.59-8.14,4.55-19.5-1.88-26.64Z"/>
            <g>
              <path class="cls-6" d="M32.13,90.45c1.36-1.56,2.71-3.14,4.04-4.73.5-.6-.36-1.47-.86-.86-1.32,1.6-2.67,3.17-4.04,4.73-.51.59.35,1.46.86.86h0Z"/>
              <path class="cls-6" d="M35.89,90.45c1.36-1.56,2.71-3.14,4.04-4.73.5-.6-.36-1.47-.86-.86-1.32,1.6-2.67,3.17-4.04,4.73-.51.59.35,1.46.86.86h0Z"/>
              <path class="cls-6" d="M39.66,90.45c1.36-1.56,2.71-3.14,4.04-4.73.5-.6-.36-1.47-.86-.86-1.32,1.6-2.67,3.17-4.04,4.73-.51.59.35,1.46.86.86h0Z"/>
            </g>
            <g>
              <path class="cls-6" d="M76.59,90.45c1.36-1.56,2.71-3.14,4.04-4.73.5-.6-.36-1.47-.86-.86-1.32,1.6-2.67,3.17-4.04,4.73-.51.59.35,1.46.86.86h0Z"/>
              <path class="cls-6" d="M80.35,90.45c1.36-1.56,2.71-3.14,4.04-4.73.5-.6-.36-1.47-.86-.86-1.32,1.6-2.67,3.17-4.04,4.73-.51.59.35,1.46.86.86h0Z"/>
              <path class="cls-6" d="M84.11,90.45c1.36-1.56,2.71-3.14,4.04-4.73.5-.6-.36-1.47-.86-.86-1.32,1.6-2.67,3.17-4.04,4.73-.51.59.35,1.46.86.86h0Z"/>
            </g>
            <path class="cls-10" d="M60.17,91.74c-3.49,0-6.46-2.68-6.75-6.22-.03-.32-.03-.64-.01-.95.03-.5.45-.89.97-.86.5.03.89.46.86.97-.01.23,0,.46.01.7.23,2.72,2.63,4.74,5.34,4.52,2.72-.23,4.75-2.62,4.52-5.34-.04-.5.33-.95.84-.99.5-.04.95.33.99.84.31,3.72-2.47,7.01-6.19,7.32-.19.02-.38.02-.57.02Z"/>
            <path class="cls-10" d="M43.84,83.17c-3.49,0-6.46-2.68-6.75-6.22-.03-.32-.03-.64-.01-.95.03-.5.45-.89.97-.86.5.03.89.46.86.97-.01.23,0,.46.01.7.23,2.72,2.63,4.74,5.34,4.52,2.72-.23,4.75-2.62,4.52-5.34-.04-.5.33-.95.84-.99.5-.04.95.33.99.84.31,3.72-2.47,7.01-6.19,7.32-.19.02-.38.02-.57.02Z"/>
            <path class="cls-10" d="M75.94,83.17c-3.49,0-6.46-2.68-6.75-6.22-.03-.32-.03-.64-.01-.95.03-.5.45-.89.97-.86.5.03.89.46.86.97-.01.23,0,.46.01.7.23,2.72,2.63,4.74,5.34,4.52,2.72-.23,4.75-2.62,4.52-5.34-.04-.5.33-.95.84-.99.5-.04.95.33.99.84.31,3.72-2.47,7.01-6.19,7.32-.19.02-.38.02-.57.02Z"/>
            <path class="cls-5" d="M99.39,64.57c0,3.99-.61,7.83-1.71,11.44-.7.16-1.63-.16-2.33-.05-.97.16-1.87.63-2.66,1.18-.18.13-.35.26-.53.4-.92.76-2.28.27-2.47-.91-.51-3.28-2.22-6.81-3.13-9.15-5.37-13.94-37.69-9.92-44.47-7.78-7.18,2.27-10.6,9.2-10.93,16.27v.05c-.06,1.27-1.51,1.92-2.54,1.16-.94-.7-1.96-1.24-2.88-1.54-.64-.22-1.51-.17-2.35-.16-1.08-3.66-1.64-7.56-1.56-11.6.37-21.26,18.12-38.41,39.39-38.08,21.13.33,38.15,17.56,38.15,38.77Z"/>
            <g class="cls-4">
              <path class="cls-5" d="M99.39,64.57c0,3.99-.61,7.83-1.71,11.44-.7.16-1.63-.16-2.33-.05-.97.16-1.87.63-2.66,1.18-.18.13-.36.26-.53.4-.91.76-2.28.27-2.46-.91-.51-3.27-2.23-6.81-3.13-9.15-.67-1.76-1.78-3.23-3.21-4.44,3.35-3.8,5.33-8.46,5.33-13.51,0-12.72-12.57-23.03-28.08-23.03s-28.07,10.31-28.07,23.03c0,4.74,1.75,9.15,4.73,12.8-3.92,3.24-5.86,8.4-6.1,13.65v.05c-.06,1.27-1.51,1.92-2.54,1.16-.94-.7-1.96-1.24-2.88-1.54-.64-.22-1.51-.17-2.35-.16-1.08-3.66-1.64-7.56-1.56-11.6.37-21.26,18.12-38.41,39.39-38.08,21.13.33,38.15,17.56,38.15,38.77Z"/>
            </g>
            <path class="cls-6" d="M62.62,77.81c-.61-.49-1.66-.69-2.53-.73-.99-.04-2.1-.03-2.89.66-.53.46-.81,1.23-.57,1.88.72,1.96,5.23,1.87,6.18.2.54-.94.34-1.58-.19-2Z"/>
          </g>
        </g>
      </g>
    </g>
  </g>
</svg>