<?xml version="1.0" encoding="UTF-8"?>
<svg id="Layer_2" data-name="Layer 2" xmlns="http://www.w3.org/2000/svg" viewBox="0 0 105.08 167.25">
  <defs>
    <style>
      .cls-1 {
        fill: #e69b81;
      }

      .cls-2 {
        fill: #fff;
      }

      .cls-3 {
        fill: #ffd78c;
      }

      .cls-4 {
        fill: #383731;
      }

      .cls-5 {
        fill: #f69a79;
      }

      .cls-6 {
        fill: #ffdfa3;
      }

      .cls-7 {
        fill: #f6ae94;
      }

      .cls-8 {
        fill: #141412;
      }

      .cls-9 {
        fill: #ffe9c2;
      }

      .cls-10 {
        fill: #ffe3af;
      }

      .cls-11 {
        fill: #21211d;
      }
    </style>
  </defs>
  <g id="OBJECTS">
    <g>
      <g>
        <path class="cls-7" d="M70.85,98.35h0c3.5-3.94,9.53-4.3,13.48-.8l16.99,15.09c3.94,3.5,4.3,9.53.8,13.48h0c-3.5,3.94-9.53,4.3-13.48.8l-16.99-15.09c-3.94-3.5-4.3-9.53-.8-13.48Z"/>
        <path class="cls-1" d="M104.48,120.43c-3.5,3.94-9.53,4.3-13.48.8l-16.99-15.09c-2.3-2.04-3.37-4.93-3.18-7.78-3.48,3.94-3.12,9.96.82,13.46l16.99,15.09c3.94,3.5,9.98,3.14,13.48-.8h0c1.46-1.65,2.24-3.66,2.38-5.7,0,0,0,.01-.01.02Z"/>
      </g>
      <g>
        <path class="cls-7" d="M35.95,98.55h0c-3.5-3.94-9.54-4.3-13.48-.8l-16.99,15.09c-3.94,3.5-4.3,9.53-.8,13.48h0c3.5,3.94,9.53,4.3,13.48.8l16.99-15.09c3.94-3.5,4.3-9.53.8-13.48Z"/>
        <path class="cls-1" d="M35.15,106.15l-16.99,15.09c-3.94,3.5-9.98,3.14-13.48-.8h0c-.9-1.02-1.54-2.17-1.94-3.39-1,3.11-.39,6.65,1.94,9.27h0c3.5,3.94,9.54,4.3,13.48.8l16.99-15.09c2.93-2.6,3.87-6.59,2.74-10.09-.51,1.57-1.42,3.04-2.74,4.21Z"/>
      </g>
      <g>
        <path class="cls-7" d="M53.62,111.43c14.57,0,15.82-12.8,15.2-20.72h-29.01c-1.36,6.35-2.62,20.72,13.82,20.72Z"/>
        <g>
          <path class="cls-4" d="M88.23,144.41l-2.84-20.41c-12.71-10.09-11.18-24.14-8.67-32.52-1.09-.49-2.29-.76-3.55-.76h-4.36c.62,7.92-.63,20.72-15.2,20.72-16.43,0-15.17-14.36-13.82-20.72h-5.95c-1.25,0-2.43.27-3.51.75,2.45,8.17,3.98,21.74-7.74,31.78l-2.24,21.47c-.54,5.14,3.5,9.62,8.67,9.62h50.57c5.29,0,9.36-4.68,8.63-9.92Z"/>
          <g>
            <path class="cls-11" d="M68.41,99.46h3.86c.99,0,1.95.18,2.84.49.24-3.14.88-6.05,1.61-8.48-1.09-.49-2.29-.76-3.55-.76h-4.36c.2,2.6.2,5.72-.4,8.75Z"/>
            <path class="cls-11" d="M84.49,132.75l2.44,17.56c1.08-1.68,1.6-3.73,1.3-5.89l-2.84-20.41c-7.76-6.16-10.21-13.79-10.37-20.71-1.87,8.46-1.8,20.51,9.47,29.46Z"/>
            <path class="cls-11" d="M32.95,99.46h5.95c-1.36,6.35-2.62,20.72,13.82,20.72,13.58,0,15.59-11.12,15.29-19.04-1.57,5.52-5.5,10.3-14.39,10.3-16.43,0-15.17-14.36-13.82-20.72h-5.95c-1.25,0-2.43.27-3.51.75.7,2.32,1.32,5.08,1.58,8.07.34-.04.68-.07,1.03-.07Z"/>
            <path class="cls-11" d="M21.7,131.99c7.78-6.66,9.72-14.88,9.43-22.05-1.22,4.62-3.79,9.25-8.52,13.3l-2.24,21.47c0,.07,0,.14-.01.21l1.35-12.93Z"/>
          </g>
          <circle class="cls-2" cx="54" cy="133.44" r="7.42" transform="translate(-86.35 165.42) rotate(-80.8)"/>
        </g>
      </g>
      <g>
        <path class="cls-7" d="M50.8,13.77h4.53c26.68,0,48.35,21.66,48.35,48.35h0c0,21.55-17.5,39.05-39.05,39.05h-23.13c-21.55,0-39.05-17.5-39.05-39.05h0C2.45,35.43,24.11,13.77,50.8,13.77Z"/>
        <path class="cls-1" d="M101.86,48.98c.28,2.1.44,4.24.44,6.42h0c0,21.57-17.48,39.05-39.05,39.05h-23.13c-17.65,0-32.56-11.71-37.39-27.79,2.25,19.42,18.75,34.5,38.78,34.5h23.13c21.57,0,39.05-17.48,39.05-39.05h0c0-4.56-.64-8.96-1.82-13.14Z"/>
      </g>
      <g>
        <path class="cls-10" d="M88.46,29.53s-8.07,15.01-34.16,22.62c-1.81.53-3.53-1.07-3.12-2.91l1.57-7.01s-10.56,18.74-38.11,20.7c-1.9.14-3.25-1.85-2.4-3.56,1.21-2.42,2.2-5.6,1-8.21,0,0-5.03,11.71-10.52,15.5,0,0-18.38-50.17,40.42-65.25,0,0,17.75-4.19,26.39,2.48,0,0-24.65,3.69-20.8,7.72,2.07,2.17,37.67-8.79,46.36,2.17,0,0-14.59.9-13.24,3.64,0,0,29.97,10.26,21.84,51.31,0,0-23.67-7.87-15.22-39.19Z"/>
        <g>
          <path class="cls-3" d="M52.83,52.11c.35.12.73.15,1.13.09l.57-2.57s-.55.97-1.7,2.47Z"/>
          <path class="cls-6" d="M81.84,17.41c-3.5.57,1.1,6.03,1.78,7.41,0,0,14.99,5.14,20.89,22.66-2.02-13.32-11.98-26.01-22.67-30.06Z"/>
          <path class="cls-3" d="M15.02,58.57s-.72,1.67-1.91,3.95c.43.29.95.46,1.53.42.26-.02.5-.05.76-.07.27-1.46.24-2.96-.38-4.3Z"/>
          <path class="cls-6" d="M45.02,8.71s3.36-.79,7.87-1.14c6.22-2.21,16.74-3.79,16.74-3.79-8.64-6.67-26.39-2.48-26.39-2.48C-12.67,15.65,1.21,61.71,2.71,66.2.23,51.51.61,20.1,45.02,8.71Z"/>
          <path class="cls-6" d="M48.73,11.6s-1.97,3.27,1.89,7.3c1.41,1.47,18.36-3.13,31.78-2.76,2.47-1.84,12.8-2.48,12.8-2.48-4.51-5.69-16.26-5.47-26.82-4.25,1.09.48-20.57,1.48-19.65,2.19Z"/>
        </g>
        <g>
          <path class="cls-9" d="M12.24,52.82c1.21-2.42,2.2-5.6,1-8.21,0,0-5.03,11.72-10.52,15.5,0,0-2.13-5.83-2.62-14.11-.7,11.59,2.62,20.67,2.62,20.67,3.84-2.65,7.46-9.19,9.29-12.87.02-.32.08-.65.24-.97Z"/>
          <path class="cls-9" d="M103.68,62.16s-15.24-5.08-16.88-23.28c-1.92,23.57,16.88,29.84,16.88,29.84,1.24-6.25,1.59-11.78,1.3-16.68-.17,3.15-.59,6.51-1.3,10.12Z"/>
          <path class="cls-9" d="M51.18,42.68l1.57-7.01s-10.56,18.74-38.11,20.7c-.43.03-.82-.06-1.18-.22-.29,1.14-.73,2.24-1.22,3.22-.85,1.71.49,3.69,2.4,3.56,21.95-1.56,33.11-13.76,36.74-18.66-.23-.47-.32-1.01-.19-1.59Z"/>
          <path class="cls-9" d="M88.46,22.97s-8.07,15.01-34.16,22.62c-.82.24-1.61.03-2.21-.43l-.91,4.08c-.41,1.84,1.31,3.44,3.12,2.91,19.63-5.73,29.05-15.64,32.52-20.2.25-2.76.76-5.74,1.64-8.98Z"/>
        </g>
      </g>
      <g>
        <circle class="cls-4" cx="55.01" cy="80.74" r="4.26"/>
        <g>
          <ellipse class="cls-5" cx="30.58" cy="75.01" rx="6.58" ry="3.29"/>
          <ellipse class="cls-5" cx="79.45" cy="75.01" rx="6.58" ry="3.29"/>
        </g>
        <g>
          <g>
            <circle class="cls-4" cx="35.01" cy="62.8" r="7.12"/>
            <circle class="cls-2" cx="33.51" cy="60.34" r="2.47"/>
          </g>
          <g>
            <circle class="cls-4" cx="73.62" cy="62.8" r="7.12"/>
            <circle class="cls-2" cx="75.13" cy="60.34" r="2.47"/>
          </g>
        </g>
      </g>
      <g>
        <g>
          <path class="cls-11" d="M42.61,164.69l-23.62-11.3c-5.21-2.49-7.41-8.73-4.92-13.94h0c2.49-5.21,8.73-7.41,13.94-4.92l23.62,11.3c5.21,2.49,7.41,8.73,4.92,13.94h0c-2.49,5.21-8.73,7.41-13.94,4.92Z"/>
          <g>
            <path class="cls-8" d="M44.18,160l-23.62-11.3c-4.03-1.93-6.25-6.1-5.9-10.3-.21.34-.41.69-.59,1.06-2.49,5.21-.29,11.45,4.92,13.94l23.62,11.3c5.21,2.49,11.45.29,13.94-4.92h0c.56-1.18.88-2.41.98-3.64-2.79,4.44-8.52,6.18-13.36,3.87Z"/>
            <polygon class="cls-7" points="47.37 143.79 38.89 162.92 40.79 163.82 49.27 144.7 47.37 143.79"/>
          </g>
        </g>
        <g>
          <path class="cls-11" d="M61.64,166.23l23.62-11.3c5.21-2.49,7.41-8.73,4.92-13.94h0c-2.49-5.21-8.73-7.41-13.94-4.92l-23.62,11.3c-5.21,2.49-7.41,8.73-4.92,13.94h0c2.49,5.21,8.73,7.41,13.94,4.92Z"/>
          <g>
            <path class="cls-8" d="M60.07,161.53l23.62-11.3c4.03-1.93,6.25-6.1,5.9-10.3.21.34.41.69.59,1.06,2.49,5.21.29,11.45-4.92,13.94l-23.62,11.3c-5.21,2.49-11.45.29-13.94-4.92h0c-.56-1.18-.88-2.41-.98-3.64,2.79,4.44,8.51,6.18,13.36,3.87Z"/>
            <polygon class="cls-7" points="56.88 145.32 65.36 164.45 63.46 165.36 54.98 146.23 56.88 145.32"/>
          </g>
        </g>
      </g>
    </g>
  </g>
</svg>