<?xml version="1.0" encoding="UTF-8"?>
<svg id="Layer_2" data-name="Layer 2" xmlns="http://www.w3.org/2000/svg" viewBox="0 0 114.78 192.3">
  <defs>
    <style>
      .cls-1 {
        fill: #e69b81;
      }

      .cls-2 {
        fill: #695757;
      }

      .cls-3 {
        fill: #fff;
      }

      .cls-4 {
        fill: #e8e2cc;
      }

      .cls-5 {
        fill: none;
        stroke: #383731;
        stroke-linecap: round;
        stroke-linejoin: round;
        stroke-width: 2.82px;
      }

      .cls-6 {
        fill: #fa767d;
      }

      .cls-7 {
        fill: #bfb99f;
      }

      .cls-8 {
        fill: #806a69;
      }

      .cls-9 {
        fill: #fa5059;
      }

      .cls-10 {
        fill: #1a1916;
      }

      .cls-11 {
        fill: #383731;
      }

      .cls-12 {
        fill: #f69a79;
      }

      .cls-13 {
        fill: #f6ae94;
      }

      .cls-14 {
        fill: #2b2b26;
      }

      .cls-15 {
        fill: #dbd4b6;
      }

      .cls-16 {
        fill: #ded8c3;
      }
    </style>
  </defs>
  <g id="OBJECTS">
    <g>
      <path class="cls-1" d="M106.06,113.81h0c2.14,5.13-.29,11.02-5.42,13.15l-21.7,9.04c-5.13,2.14-11.02-.29-13.15-5.42h0c-2.14-5.13.29-11.02,5.42-13.15l21.7-9.04c5.13-2.14,11.02.29,13.15,5.42Z"/>
      <g>
        <g>
          <g>
            <path class="cls-8" d="M67.41,165.37c0-1.32-1.07-2.39-2.39-2.39h-14.94c-1.32,0-2.39,1.07-2.39,2.39v16.04h19.72v-16.04Z"/>
            <path class="cls-8" d="M67.41,165.37c0-1.32-1.07-2.39-2.39-2.39h-14.94c-1.32,0-2.39,1.07-2.39,2.39v16.04h19.72v-16.04Z"/>
            <path class="cls-8" d="M67.41,165.37c0-1.32-1.07-2.39-2.39-2.39h-14.94c-1.32,0-2.39,1.07-2.39,2.39v16.04h19.72v-16.04Z"/>
            <path class="cls-2" d="M54.66,162.98h-4.57c-1.32,0-2.39,1.07-2.39,2.39v16.04h4.57v-16.04c0-1.32,1.07-2.39,2.39-2.39Z"/>
          </g>
          <g>
            <path class="cls-11" d="M47.69,181.42v1.02c0,5.45,4.41,9.86,9.86,9.86s9.86-4.41,9.86-9.86v-1.02h-19.72Z"/>
            <path class="cls-14" d="M51.31,182.44v-1.02h-3.61v1.02c0,5.45,4.41,9.86,9.86,9.86.62,0,1.22-.06,1.81-.17-4.58-.85-8.05-4.86-8.05-9.69Z"/>
          </g>
        </g>
        <g>
          <g>
            <path class="cls-8" d="M86.82,161.32c-.28-1.29-1.56-2.11-2.85-1.82l-14.59,3.2c-1.29.28-2.11,1.56-1.82,2.85l3.33,15.17,19.33-3.89-3.4-15.51Z"/>
            <path class="cls-2" d="M72.11,164.71c-.28-1.29.53-2.57,1.82-2.85l10.88-2.39c-.28-.04-.56-.04-.85.02l-14.59,3.2c-1.29.28-2.11,1.56-1.82,2.85l3.33,15.17,4.54-.91-3.31-15.09Z"/>
          </g>
          <g>
            <path class="cls-11" d="M90.22,176.83l-19.33,3.89.33,1.5c1.17,5.32,6.42,8.68,11.74,7.52,5.32-1.17,8.68-6.42,7.52-11.74l-.25-1.16Z"/>
            <path class="cls-14" d="M76.3,181.36l-.33-1.5,14.29-2.87-.03-.15-19.33,3.89.33,1.5c1.17,5.32,6.42,8.68,11.74,7.52.71-.16,1.38-.39,2.01-.68-4.14-.4-7.73-3.41-8.67-7.7Z"/>
          </g>
        </g>
      </g>
      <g>
        <g>
          <path class="cls-11" d="M83.01,112.88l19.17,38.17c3.68,7.33-1.43,16.01-9.63,16.35l-53.37,2.21c-7.22.3-12.86-6.16-11.58-13.27l7.4-41.38c.99-5.54,5.91-9.51,11.54-9.3l26.81.99c4.12.15,7.83,2.54,9.68,6.22Z"/>
          <path class="cls-10" d="M102.18,158.58l-11.38.47c-28.77,1.19-51.25-24.56-46.19-52.91h0c.02-.13.06-.26.09-.39-4.84.6-8.83,4.28-9.72,9.21l-7.4,41.38c-1.27,7.11,4.37,13.57,11.58,13.27l53.37-2.21c5.46-.23,9.53-4.16,10.57-8.93-.31.04-.62.09-.94.1Z"/>
          <polygon class="cls-13" points="68.18 110.27 90.03 126.87 80.61 106.91 68.18 110.27"/>
        </g>
        <g>
          <path class="cls-4" d="M82.13,158.71h0c-.84,0-1.51-.68-1.51-1.51v-14.75c0-.84.68-1.51,1.51-1.51h5.44c.63,0,1.2.39,1.42.99l1.67,4.52c2.2,5.95-2.2,12.26-8.54,12.26Z"/>
          <path class="cls-16" d="M90.67,146.44l-1.67-4.52c-.22-.59-.79-.99-1.42-.99h-.46l1.04,2.82c2.08,5.63-1.75,11.58-7.54,12.2v1.24c0,.84.68,1.51,1.51,1.51h0c6.34,0,10.74-6.32,8.54-12.26Z"/>
        </g>
      </g>
      <g>
        <g>
          <path class="cls-13" d="M77.2,109.91l-23,2.4c-21.45,2.24-40.65-13.34-42.89-34.79h0c-2.77-26.56,16.51-50.33,43.07-53.1l4.51-.47c26.56-2.77,50.33,16.51,53.1,43.07h0c2.24,21.45-13.34,40.65-34.79,42.89Z"/>
          <path class="cls-1" d="M108.81,54.14c.5,2.06.88,4.18,1.1,6.34h0c2.24,21.45-13.34,40.65-34.79,42.89l-23,2.4c-17.56,1.83-33.6-8.27-40.08-23.76,4.26,19.08,22.23,32.37,42.15,30.29l23-2.4c21.45-2.24,37.03-21.44,34.79-42.89h0c-.47-4.53-1.57-8.84-3.18-12.88Z"/>
        </g>
        <g>
          <path class="cls-5" d="M55.44,85.02s9.56,10.87,18.08-1.81"/>
          <g>
            <path class="cls-12" d="M47.04,84.88c.18,1.81-2.61,3.56-6.23,3.91-3.61.35-6.69-.83-6.86-2.63s2.61-3.56,6.23-3.91c3.61-.35,6.69.83,6.86,2.63Z"/>
            <path class="cls-12" d="M95.68,80.13c.18,1.81-2.61,3.56-6.23,3.91-3.61.35-6.69-.83-6.86-2.63-.18-1.81,2.61-3.56,6.23-3.91,3.61-.35,6.69.83,6.86,2.63Z"/>
          </g>
          <g>
            <path class="cls-11" d="M50.82,72.25c.38,3.91-2.48,7.4-6.4,7.78-3.91.38-7.4-2.48-7.78-6.4-.38-3.91,2.48-7.4,6.4-7.78,3.91-.38,7.4,2.48,7.78,6.4Z"/>
            <path class="cls-3" d="M44.45,70.39c.13,1.36-.86,2.56-2.21,2.69-1.36.13-2.56-.86-2.69-2.21-.13-1.36.86-2.56,2.21-2.69s2.56.86,2.69,2.21Z"/>
          </g>
          <g>
            <path class="cls-11" d="M75.07,69.88c.38,3.91,3.87,6.78,7.78,6.4,3.91-.38,6.78-3.87,6.4-7.78-.38-3.91-3.87-6.78-7.78-6.4-3.91.38-6.78,3.87-6.4,7.78Z"/>
            <path class="cls-3" d="M80.96,66.83c.13,1.36,1.34,2.35,2.69,2.21,1.36-.13,2.35-1.34,2.21-2.69-.13-1.36-1.34-2.35-2.69-2.21-1.36.13-2.35,1.34-2.21,2.69Z"/>
          </g>
        </g>
      </g>
      <g>
        <path class="cls-9" d="M102.19,42.51s-33.43,30.28-81.91,11.62c0,0,11.84,19.96-4.4,38.06,3.18,2.84-21.44-30.59-3.18-57.7,0,0,0,0,0,0l2.48,7.39s0,0,0,0c0-.29-5.01-15.69,29.27-21.06-11.42,30.03-1.41-14.21,4.13-1.01,0,0,.99-7.85,24.07,9.59,0,0,5.28-22.18,6.44-4.6,0,0-9.32-9.66,12.14,14.91-34.51,1.21,10.2-8.4,10.95,2.8Z"/>
        <g>
          <path class="cls-6" d="M79.02,23.64c-.59-6.94-1.94-6.45-3.25-3.81.87,1.03,1.94,2.29,3.25,3.81Z"/>
          <path class="cls-6" d="M102.19,42.51c-.2-2.98-3.52-4.49-7.62-5.12-9.1,6.7-38.9,24.75-79,9.32,0,0,11.37,19.19-3.51,37,1.89,4.29,3.58,7.26,4.01,8.27,15.97-18.04,4.22-37.84,4.22-37.84,48.48,18.66,81.91-11.62,81.91-11.62Z"/>
          <path class="cls-6" d="M16.06,91.98c-.06.07-.12.14-.18.21.32.29.36.2.18-.21Z"/>
        </g>
      </g>
      <path class="cls-9" d="M102.19,42.51s2.02,17.35,10.01,28.08c0,0-.9-23.02-10.01-28.08Z"/>
      <g>
        <path class="cls-15" d="M3.9,57.57S-5.03,15.48,49.86,7.71c51-7.21,57.26,35.26,57.26,35.26,0,0-53.27,20.59-103.22,14.6Z"/>
        <path class="cls-7" d="M12.59,57.57S3.66,15.48,58.55,7.71c2.34-.33,4.58-.55,6.73-.69-4.62-.3-9.74-.12-15.42.69C-5.03,15.48,3.9,57.57,3.9,57.57c7.83.94,15.75,1.23,23.53,1.04-4.94-.12-9.91-.45-14.84-1.04Z"/>
        <path class="cls-7" d="M38.35,11.56c51-7.21,57.26,35.26,57.26,35.26,0,0-.16.06-.45.17,7.51-2.3,11.96-4.01,11.96-4.01,0,0-6.26-42.47-57.26-35.26-8.29,1.17-15.11,3.13-20.74,5.61,2.86-.7,5.93-1.29,9.23-1.76Z"/>
        <path class="cls-7" d="M55.84,5.66c.51,3.6-2,6.93-5.6,7.44-3.6.51-6.93-2-7.44-5.6-.51-3.6,2-6.93,5.6-7.44s6.93,2,7.44,5.6Z"/>
        <path class="cls-4" d="M108.52,52.61l-100.24,14.17c-3.95.56-7.6-2.19-8.16-6.14H.12c-.56-3.95,2.19-7.6,6.14-8.16l100.24-14.17c3.95-.56,7.6,2.19,8.16,6.14h0c.56,3.95-2.19,7.6-6.14,8.16Z"/>
        <path class="cls-15" d="M114.6,44.07c-.07-.53-.21-1.03-.4-1.51-.92,2.1-2.86,3.69-5.3,4.03L7.89,60.87c-3.2.45-6.2-1.4-7.32-4.29-.49,1.12-.69,2.38-.51,3.68l.11.77c.53,3.73,3.98,6.33,7.72,5.81l101.01-14.28c3.73-.53,6.33-3.98,5.81-7.72l-.11-.77Z"/>
      </g>
      <g>
        <path class="cls-13" d="M61.01,160.05h0c-5.56,0-10.06-4.5-10.06-10.06v-23.5c0-5.56,4.5-10.06,10.06-10.06h0c5.56,0,10.06,4.5,10.06,10.06v23.5c0,5.56-4.5,10.06-10.06,10.06Z"/>
        <path class="cls-1" d="M64.48,154.67c-5.56,0-10.06-4.5-10.06-10.06v-23.5c0-.86.12-1.68.32-2.48-2.31,1.84-3.79,4.68-3.79,7.86v23.5c0,5.56,4.5,10.06,10.06,10.06h0c4.7,0,8.63-3.23,9.74-7.58-1.72,1.37-3.9,2.2-6.27,2.2Z"/>
      </g>
    </g>
  </g>
</svg>