<svg xmlns="http://www.w3.org/2000/svg" viewBox="0 0 626.24 850"><defs><style>.cls-1{fill:#beb0a5;}.cls-2{opacity:0.25;}.cls-3{fill:#877a72;}.cls-4{fill:#aa9f97;}.cls-5{fill:#bcb53f;}.cls-6{fill:#6b8c35;}.cls-7{fill:#79a63c;}.cls-8{fill:#c8c53c;}.cls-9{fill:#f2e8de;}.cls-10{fill:#fcc0c0;}.cls-11{fill:#473636;}.cls-12{fill:#724039;}</style></defs><g id="Layer_2" data-name="Layer 2"><g id="Cat"><path class="cls-1" d="M444,826.62C434.27,815,418.83,811.11,404.23,811c-8.3,0-16.6,1.67-24.89,1-6.47-.49-13.34-3.16-16.46-9.21l-.12-.18c21.27-18.62,38.6-41.6,51.6-66.65a273.22,273.22,0,0,0,27.82-88.93c4.84-35.3,3.53-71.16-2.07-106.29-5.62-35.29-15.67-69.74-28.2-103.17-12.25-32.7-26.85-64.47-42.2-95.82a.05.05,0,0,1,0,0,2.24,2.24,0,0,0-.8-3A266.62,266.62,0,0,0,202.2,322.19q-11.59,2.6-22.9,6.28c-7.42,2.41-15.07,5-21,10.26a2.08,2.08,0,0,0-.64,1c0,.07-.08.12-.12.2-15.62,31.84-30.49,64.11-42.94,97.34C102.08,470.71,92,505.15,86.41,540.45c-5.6,35.13-6.91,71-2.07,106.29a273.53,273.53,0,0,0,27.82,88.93c13,25,30.33,48,51.6,66.65l-.12.17c-3.12,6-10,8.72-16.46,9.22-8.29.63-16.59-1.07-24.89-1-14.6.07-30,3.93-39.75,15.58-4.83,5.79-7.92,12.94-7.83,20.56A2.13,2.13,0,0,0,75,848a2,2,0,0,0,2,1.58H208.27a1.68,1.68,0,0,0,1.13,0,8.48,8.48,0,0,0,2.7-1.58,9.86,9.86,0,0,0,3.55-6.91,1.63,1.63,0,0,0-.06-.53,2.08,2.08,0,0,0,.64-1.56V736a254.57,254.57,0,0,0,86.55.22q3.8-.65,7.56-1.4a2.57,2.57,0,0,0,0,.5v104a2,2,0,0,0,.65,1.56,1.65,1.65,0,0,0-.07.53,9.79,9.79,0,0,0,1.76,5,10.16,10.16,0,0,0,3.05,2.84,9.94,9.94,0,0,0,1.44.68,1.69,1.69,0,0,0,1.13,0H449.43a2,2,0,0,0,2.06-1.59,2.21,2.21,0,0,0,.32-1.13C451.91,839.56,448.82,832.41,444,826.62Z"/><path class="cls-1" d="M164.43,404.69q-1.68-28.32-5.54-56.44a1.89,1.89,0,0,0-1.35-1.46,2.18,2.18,0,0,0-.64-.61,2.28,2.28,0,0,0-3,.8q-17.67,23.11-33.08,47.85T92.39,445.6q-13,26-23.45,53.08T50.51,553.86Q46.42,568.35,43,583c.48,0,1,.09,1.43.15a2.23,2.23,0,0,0,.09,2.88,88.78,88.78,0,0,0,77.56,29.52,90.28,90.28,0,0,0,24.75-6.86,40.9,40.9,0,0,1,1.83-3.12,739.11,739.11,0,0,0,14.75-99.95A738.05,738.05,0,0,0,164.43,404.69Z"/><path class="cls-1" d="M362,404.69q1.66-28.32,5.53-56.44a1.92,1.92,0,0,1,1.35-1.46,2.21,2.21,0,0,1,.65-.61,2.27,2.27,0,0,1,3,.8q17.68,23.11,33.09,47.85T434,445.6q12.94,26,23.45,53.08t18.43,55.18q4.1,14.49,7.46,29.18c-.48,0-.95.09-1.43.15a2.22,2.22,0,0,1-.09,2.88,88.76,88.76,0,0,1-77.55,29.52,90.18,90.18,0,0,1-24.75-6.86,52.7,52.7,0,0,0-1.83-3.12A738.85,738.85,0,0,1,362,404.69Z"/><path class="cls-1" d="M626.12,524.45c-.85-16.2-6.94-31.09-16.74-43.92-18.79-24.62-47.7-41.33-60.79-70.24-7.8-17.23-9.29-36.78-7.23-55.4,2.24-20.22,9-39.2,15.41-58.35,2.72-8.1,4.41-17.22.09-25.1-4.1-7.5-12.78-10-20.73-7.75-8.57,2.43-14.49,9.6-19.31,16.67a146.4,146.4,0,0,0-13,23.51c-14.4,32.71-17.13,70-6.85,104.31a153.38,153.38,0,0,0,23,46.34,150.12,150.12,0,0,0,16.76,19.3c5.79,5.61,12,10.71,18.12,16,11.45,10,23.4,21.27,26.9,36.64,4,17.32-4.62,35-16.73,47-13.21,13.1-30.63,21.34-47.44,28.79a383,383,0,0,1-56.64,19.87q-12.94,3.45-26.1,6a2,2,0,0,0-3.13-.11,57,57,0,0,0-15.3,37.18,36.73,36.73,0,0,0,1.47,12.56c1.47,4.4,4.16,8.1,8.56,9.83a1.28,1.28,0,0,0,.28.07,2,2,0,0,0,1.71.17c37.76-12.32,75-27.38,110.12-45.92,30.62-16.14,61-37.36,76.77-69.16C622.71,557.82,627,541.12,626.12,524.45Z"/><g class="cls-2"><path class="cls-3" d="M557.3,615c1.38-7.56,2.84-15.17,4.56-22.66,1.82-7.89,4.61-15.61,7.27-23.35q-2,2.34-4.12,4.47c-13.21,13.1-30.63,21.34-47.44,28.79a383,383,0,0,1-56.64,19.87q-12.94,3.45-26.1,6a2,2,0,0,0-3.13-.11,57,57,0,0,0-15.3,37.18,36.73,36.73,0,0,0,1.47,12.56c1.47,4.4,4.16,8.1,8.56,9.83a1.28,1.28,0,0,0,.28.07,2,2,0,0,0,1.71.17c37.76-12.32,75-27.38,110.12-45.92,5.45-2.86,10.88-5.9,16.22-9.12C555.31,626.76,556.23,620.84,557.3,615Z"/></g><path class="cls-4" d="M97,656.55a147.62,147.62,0,0,0-2.87-15.35c-1.38-5.74-3-11.41-4.76-17.05a2.68,2.68,0,0,0-.28-.59,2,2,0,0,0-1-1.19,119.13,119.13,0,0,0-55.68-15.5,116,116,0,0,0-16.45.76,2.52,2.52,0,0,0-2,1.22c-.11,0-.23.09-.34.15-8,4.5-15.39,12.21-13.3,22.12A13,13,0,0,0,9,640.63a21.94,21.94,0,0,0,10.68.62c-4.67,8.92-6.58,19.49-2.6,29,3.87,9.25,12.79,16,23.11,14.75a19.5,19.5,0,0,0,10.57-4.62,19.21,19.21,0,0,0,30.78,8.32,2.09,2.09,0,0,0,.64-.9,13.49,13.49,0,0,0,10.23-4.15c3.35-3.34,4.8-7.89,5.27-12.49A63.42,63.42,0,0,0,97,656.55Z"/><path class="cls-5" d="M128.27,382.35c.63-2-2-4.17-3.63-2.29A556,556,0,0,0,31.7,525.34Q22,547.57,14.17,570.57a2,2,0,0,0-.11.89,1.86,1.86,0,0,0-.06.48A32.42,32.42,0,0,0,19.4,589a2.52,2.52,0,0,0,1.22,1,2.27,2.27,0,0,0,2.73.57,36.46,36.46,0,0,1,5.7-2.11,94.22,94.22,0,0,1,25.14,1.64A38,38,0,0,1,58.08,592a2,2,0,0,0,2.61-.38,94.32,94.32,0,0,1,17.85,6.91,2.22,2.22,0,0,0,1,.26C80.6,600,82.88,600,83.32,598q9.23-41.6,18.36-83.22t18.07-83q5.06-23.38,10.08-46.79A2.23,2.23,0,0,0,128.27,382.35Z"/><path class="cls-6" d="M67.47,592.55a28.67,28.67,0,0,0-7.92-4.84,2.58,2.58,0,0,0-.46-.29,47.45,47.45,0,0,0-47.16,3.8,2.23,2.23,0,0,0-.94,1.43,1.76,1.76,0,0,0-.2.54,34.14,34.14,0,0,0,1.49,17.21,2.48,2.48,0,0,0,1.5,1.52,2,2,0,0,0,1.93,1.18,92.34,92.34,0,0,1,36.93,3l.1,0,6.09,1.66a2.29,2.29,0,0,0,.58.06,2.12,2.12,0,0,0,3.1-1.33L68,595.27a2.17,2.17,0,0,0,.06-.66A2,2,0,0,0,67.47,592.55Z"/><path class="cls-4" d="M429.4,657.66a148.15,148.15,0,0,1,2.88-15.35c1.38-5.74,3-11.41,4.76-17a2.68,2.68,0,0,1,.28-.59,2,2,0,0,1,1-1.19A119.09,119.09,0,0,1,494,608a115.88,115.88,0,0,1,16.45.76,2.5,2.5,0,0,1,2,1.22l.35.15c8,4.5,15.38,12.21,13.3,22.12a12.94,12.94,0,0,1-8.63,9.51,22,22,0,0,1-10.67.63c4.67,8.91,6.57,19.48,2.59,29-3.86,9.25-12.78,16-23.11,14.75a19.47,19.47,0,0,1-10.56-4.62,19.21,19.21,0,0,1-30.78,8.32,2.09,2.09,0,0,1-.64-.9A13.53,13.53,0,0,1,434,684.78c-3.34-3.34-4.79-7.89-5.26-12.49A64,64,0,0,1,429.4,657.66Z"/><path class="cls-5" d="M398.13,383.46c-.62-2,2-4.17,3.63-2.29a555.13,555.13,0,0,1,52.17,69.05,555.43,555.43,0,0,1,40.77,76.23q9.74,22.23,17.53,45.23a2.2,2.2,0,0,1,.12.89,1.86,1.86,0,0,1,0,.48,32.24,32.24,0,0,1-5.4,17.08,2.5,2.5,0,0,1-1.21,1,2.28,2.28,0,0,1-2.74.57,36.46,36.46,0,0,0-5.7-2.11,94.27,94.27,0,0,0-25.14,1.64,36.87,36.87,0,0,0-3.88,1.93,2.06,2.06,0,0,1-2.62-.38,94.23,94.23,0,0,0-17.84,6.91,2.25,2.25,0,0,1-1,.26c-1.07,1.18-3.35,1.21-3.79-.78q-9.24-41.6-18.36-83.22t-18.07-83q-5.07-23.38-10.09-46.79A2.24,2.24,0,0,1,398.13,383.46Z"/><path class="cls-6" d="M458.94,593.66a28.52,28.52,0,0,1,7.92-4.84,2.49,2.49,0,0,1,.45-.29,47.5,47.5,0,0,1,47.17,3.8,2.26,2.26,0,0,1,.93,1.43,1.78,1.78,0,0,1,.21.54,34.15,34.15,0,0,1-1.5,17.21,2.47,2.47,0,0,1-1.49,1.52,2.07,2.07,0,0,1-1.94,1.19,92.15,92.15,0,0,0-36.93,3l-.09,0-6.1,1.66a2.24,2.24,0,0,1-.58.06,2.11,2.11,0,0,1-3.09-1.33l-5.46-21.24a2.56,2.56,0,0,1-.07-.66A2,2,0,0,1,458.94,593.66Z"/><path class="cls-7" d="M453.47,661.53a2.32,2.32,0,0,0-3.46-1.16c-21.95-11.24-44-22.38-66.73-31.93-23.48-9.85-47.83-18-73-22.22-26.3-4.44-53.05-4.25-79.45-.78a445.31,445.31,0,0,0-77.14,17.73,512.65,512.65,0,0,0-72.24,29.3q-4.38,2.17-8.74,4.45c-2.12,1.1-.9,4,1,4.09a2.81,2.81,0,0,0-.26.52,24.1,24.1,0,0,0,15.61,31,1.93,1.93,0,0,0,2.47-1.06,1.6,1.6,0,0,0,.61-.1,467.06,467.06,0,0,1,137.23-31c9.32-.66,18.66-1,28-1.11h.16c2,0,3.94,0,5.9,0s3.94,0,5.91,0h.16c9.34.1,18.68.45,28,1.11a467.06,467.06,0,0,1,137.23,31,1.6,1.6,0,0,0,.61.1,1.93,1.93,0,0,0,2.47,1.06,24.1,24.1,0,0,0,15.61-31Z"/><path class="cls-8" d="M471.86,616.72q-4.47-29.93-11.33-59.42t-16-58.33q-9.16-28.83-20.58-56.87T398.8,386.73a1.88,1.88,0,0,0-2-1.1,2.13,2.13,0,0,0-2.06-1.7q-51.66-2.34-103.38-2.57-51.45-.23-102.86,1.65-29,1.07-58,2.79a1.38,1.38,0,0,0-.2,0,1.9,1.9,0,0,0-2.66.9q-13.67,27.16-25.14,55.37Q91.06,470.1,81.89,499t-16,58.33Q59,586.78,54.55,616.72c-1.46,9.71-3.31,20-.28,29.66,2.43,7.72,8.9,15,17.21,16.28a18.73,18.73,0,0,0,2,.18,2,2,0,0,0,2,.48c.69-.28,1.39-.53,2.09-.8l.2,0a2.18,2.18,0,0,0,.83-.36,543.38,543.38,0,0,1,156.88-34.85c9.23-.64,18.47-1,27.72-1.19,9.25.17,18.5.55,27.73,1.19A543.21,543.21,0,0,1,447.8,662.13a2.23,2.23,0,0,0,.84.36l.19,0c.7.27,1.4.52,2.1.8a2,2,0,0,0,2-.48,19,19,0,0,0,2-.18c8.3-1.31,14.77-8.56,17.21-16.28C475.17,636.77,473.31,626.43,471.86,616.72Z"/><path class="cls-7" d="M401.28,379c-3.61-3.18-4.82-7.93-5.48-12.53-1.18-8.31-1-17.91-8.28-23.62-6.76-5.31-16.13-4.66-24.07-3.05a2.23,2.23,0,0,0-.77.32q-38.88,2.69-77.86,3.27-40.81.6-81.63-1.11-19.8-.84-39.59-2.23a2.1,2.1,0,0,0-.65-.25c-7.93-1.61-17.3-2.26-24.06,3.05-7.27,5.71-7.11,15.31-8.29,23.62-.65,4.6-1.86,9.35-5.47,12.53a1.92,1.92,0,0,0-.1,2.91,2.36,2.36,0,0,0,1,2.57,238.44,238.44,0,0,0,52,28.56A240.63,240.63,0,0,0,235.49,428q10.57,1.41,21.25,1.83a2.33,2.33,0,0,0,.88.19c1.86,0,3.72,0,5.58,0s3.73,0,5.59,0a2.42,2.42,0,0,0,.88-.19c7.1-.28,14.2-.89,21.25-1.83a240.75,240.75,0,0,0,57.45-14.93,238.14,238.14,0,0,0,52-28.56,2.34,2.34,0,0,0,1-2.57A1.92,1.92,0,0,0,401.28,379Z"/><path class="cls-1" d="M221.37,63.75a439,439,0,0,0-47.09-39c-8.31-6-16.81-11.76-25.6-17-8.46-5-18.21-9.37-28.25-7.25C104.76,3.85,97.5,21,93.87,34.84c-5.29,20.3-8,41.49-9,62.41a330.59,330.59,0,0,0,3,63.81q.57,4,1.23,7.9a1.89,1.89,0,0,0,1.23,1.37,2.24,2.24,0,0,0,1.48,2.61c23.75,8.23,50.42,4.73,72.4-6.94,22.7-12.05,39.32-32.95,48.53-56.7a129.78,129.78,0,0,0,8.53-42.16c0-.06,0-.11,0-.17A2.11,2.11,0,0,0,221.37,63.75Z"/><path class="cls-9" d="M190.59,71.9a1.25,1.25,0,0,0-.19,0,263.72,263.72,0,0,0-28-23.09c-5-3.57-10.06-7-15.32-10.17-5.07-3-10.9-5.61-16.91-4.34-9.38,2-13.73,12.21-15.89,20.52a184.74,184.74,0,0,0-5.42,37.36,197.43,197.43,0,0,0,1.81,38.18c.23,1.58.47,3.16.74,4.73a1.18,1.18,0,0,0,.91.89,2.22,2.22,0,0,0,.55,1.12c10.33,11.58,28.17,13,41.72,6.77,15.25-7,24.92-22.19,30.23-37.57,3.53-10.26,5.42-21,7.27-31.64A2.29,2.29,0,0,0,190.59,71.9Z"/><g class="cls-2"><path class="cls-3" d="M221.37,63.75q-9.92-9.45-20.43-18.25-7.38,3.24-14.5,7c-25.42,13.6-48.09,32-67.7,53A272.13,272.13,0,0,0,94.3,135a123.53,123.53,0,0,0-8.06,13c.45,4.36,1,8.72,1.61,13.06q.57,4,1.23,7.9a1.89,1.89,0,0,0,1.23,1.37,2.24,2.24,0,0,0,1.48,2.61c23.75,8.23,50.42,4.73,72.4-6.94,22.7-12.05,39.32-32.95,48.53-56.7a129.78,129.78,0,0,0,8.53-42.16c0-.06,0-.11,0-.17A2.11,2.11,0,0,0,221.37,63.75Z"/></g><path class="cls-1" d="M441.58,97.25c-1-20.92-3.76-42.11-9.05-62.41C428.91,21,421.65,3.85,406,.55c-10.05-2.12-19.79,2.22-28.25,7.25-8.8,5.23-17.3,11-25.61,17a441,441,0,0,0-47.09,39,2.16,2.16,0,0,0,.49,3.48,111.57,111.57,0,0,0,24.62,66,108.58,108.58,0,0,0,62.77,37.83,110.06,110.06,0,0,0,42.26.41,1.8,1.8,0,0,0,1.56-1.52,1.64,1.64,0,0,0,.59-1c.44-2.63.86-5.26,1.24-7.9A330.59,330.59,0,0,0,441.58,97.25Z"/><path class="cls-9" d="M417.49,92.15a184,184,0,0,0-5.41-37.36c-2.17-8.31-6.51-18.54-15.89-20.52-6-1.27-11.85,1.33-16.91,4.34C374,41.74,368.93,45.21,364,48.78a263.57,263.57,0,0,0-27.64,22.81A2.08,2.08,0,0,0,334,73.14,57,57,0,0,0,342.46,121a56.13,56.13,0,0,0,71.78,16.1,2,2,0,0,0,.84-2.8c.21-1.31.42-2.61.61-3.92A198.23,198.23,0,0,0,417.49,92.15Z"/><g class="cls-2"><path class="cls-3" d="M439.85,104.31c-20.29-14-42.05-25.44-65.53-33a247,247,0,0,0-37.15-8.9q-9.21-1.47-18.51-2.15c-3-.22-6.07-.69-9.14-.68q-2.25,2.09-4.49,4.2a2.16,2.16,0,0,0,.49,3.48,111.57,111.57,0,0,0,24.62,66,108.58,108.58,0,0,0,62.77,37.83,110.06,110.06,0,0,0,42.26.41,1.8,1.8,0,0,0,1.56-1.52,1.64,1.64,0,0,0,.59-1c.44-2.63.86-5.26,1.24-7.9a330.1,330.1,0,0,0,3.32-55.31C441.2,105.28,440.53,104.78,439.85,104.31Z"/></g><path class="cls-1" d="M263.2,369C163.83,369,83,299.84,83,214.87S163.83,60.76,263.2,60.76s180.21,69.13,180.21,154.11S362.57,369,263.2,369Z"/><path class="cls-10" d="M175.6,234c-2.63-2.93-5.87-5.84-9.68-6.84a2.21,2.21,0,0,1-1.23-.76,49.79,49.79,0,0,0-4.89-1.59c-15.25-4-33.89-1.6-46.21,8.87a37.73,37.73,0,0,0-7.73,9.11,21.71,21.71,0,0,0-2.11,4.27,19.12,19.12,0,0,0-.68,2.23c0,.12-.1.47-.12.57,0,.29-.09.58-.12.88a16.37,16.37,0,0,0-.06,2,1.36,1.36,0,0,1,0,.18s0,0,0,.1c0,.31.09.62.15.92s.13.59.22.89c0,.08.13.41.18.56s.19.45.22.52c.13.27.27.54.41.8s.31.51.47.77l.1.17a.54.54,0,0,1,.11.13c.36.43.7.86,1.09,1.26.24.25.49.5.74.73l.29.26,0,0h0c.47.37.94.73,1.43,1.07a27.61,27.61,0,0,0,3.45,2l0,0,.15.07.51.23.82.35c.63.26,1.27.5,1.91.73,1.41.5,2.84.93,4.29,1.3.78.2,1.57.38,2.36.55l1.2.25.64.12a76.84,76.84,0,0,0,17.92,1l1.06-.07.3,0,.27,0c.59-.06,1.18-.12,1.77-.2,1.21-.16,2.41-.35,3.61-.55q4.41-.75,8.75-1.87a75,75,0,0,0,9.4-3c1.57-.65,3.12-1.36,4.63-2.16.73-.38,1.45-.79,2.15-1.22l1.08-.69.35-.24.16-.11a23.63,23.63,0,0,0,3.45-3,16.1,16.1,0,0,0,2.22-3.18.89.89,0,0,1,0-.1l.05-.12.21-.51c.12-.31.23-.63.32-.94s.18-.65.25-1a1.73,1.73,0,0,0,0-.2c0-.12,0-.24.05-.36a11.11,11.11,0,0,0-.24-4.18C180.66,240.37,178.16,236.82,175.6,234Z"/><path class="cls-10" d="M350.35,234.88c2.55-3,5.71-6,9.49-7.09a2.25,2.25,0,0,0,1.21-.8c1.59-.64,3.2-1.23,4.84-1.71,15.15-4.45,33.84-2.5,46.43,7.64a37.63,37.63,0,0,1,8,8.91,22.45,22.45,0,0,1,2.23,4.21,19.1,19.1,0,0,1,.74,2.21c0,.12.11.47.13.57a8.74,8.74,0,0,1,.14.87,14.6,14.6,0,0,1,.11,2v.19s0,0,0,.1c0,.3-.07.61-.12.92s-.12.59-.2.89c0,.08-.13.41-.17.56l-.21.53q-.18.4-.39.81c-.14.27-.29.52-.44.78l-.1.18-.11.13c-.34.43-.67.88-1.05,1.29-.23.26-.48.51-.72.75l-.28.26,0,0h0c-.46.39-.92.76-1.41,1.11a26.15,26.15,0,0,1-3.39,2.09l-.05,0-.15.07-.5.24-.81.37c-.63.28-1.26.54-1.9.78-1.39.54-2.81,1-4.25,1.41-.77.23-1.56.43-2.34.62l-1.19.28-.64.13a76.18,76.18,0,0,1-17.89,1.49l-1.06,0-.3,0-.27,0c-.59,0-1.19-.09-1.78-.15-1.21-.13-2.41-.28-3.61-.46-3-.42-5.9-1-8.8-1.63a74.66,74.66,0,0,1-9.48-2.8,51,51,0,0,1-4.69-2c-.74-.37-1.47-.75-2.18-1.17-.37-.21-.74-.43-1.1-.66l-.35-.22-.17-.12a24,24,0,0,1-3.53-2.92,16.28,16.28,0,0,1-2.3-3.12l-.05-.1s0-.06-.05-.12-.16-.33-.23-.5-.24-.62-.35-.94-.19-.64-.27-1c0,0,0-.13,0-.2s-.05-.25-.06-.37a11,11,0,0,1,.13-4.18C345.45,241.41,347.86,237.8,350.35,234.88Z"/><path class="cls-3" d="M128,239.21a305.21,305.21,0,0,0-68.65-15.82q-9.84-1.08-19.73-1.53c-2.85-.12-3.31,4.3-.45,4.43a299.3,299.3,0,0,1,68.42,11.05q9.53,2.7,18.85,6C129.12,244.33,130.69,240.17,128,239.21Z"/><path class="cls-3" d="M123.34,251.64a323.42,323.42,0,0,0-67.57-1.75q-9.56.75-19.06,2.08c-2.83.39-2.08,4.77.75,4.38a317.93,317.93,0,0,1,66.63-2.22q9.42.69,18.81,1.93C125.74,256.43,126.17,252,123.34,251.64Z"/><path class="cls-3" d="M121.28,265a428.33,428.33,0,0,0-57.41,14.46q-8,2.61-15.9,5.54c-2.68,1-.79,5,1.89,4a419.53,419.53,0,0,1,55.92-16.42q8.1-1.77,16.25-3.23C124.84,268.87,124.1,264.48,121.28,265Z"/><path class="cls-3" d="M398.41,239.21a305.17,305.17,0,0,1,68.66-15.82q9.84-1.08,19.73-1.53c2.85-.12,3.3,4.3.44,4.43a299.3,299.3,0,0,0-68.42,11.05q-9.51,2.7-18.84,6C397.28,244.33,395.71,240.17,398.41,239.21Z"/><path class="cls-3" d="M403.06,251.64a323.43,323.43,0,0,1,67.57-1.75q9.57.75,19.06,2.08c2.84.39,2.09,4.77-.74,4.38a318,318,0,0,0-66.63-2.22q-9.44.69-18.81,1.93C400.67,256.43,400.23,252,403.06,251.64Z"/><path class="cls-3" d="M405.12,265a428.47,428.47,0,0,1,57.42,14.46q8,2.61,15.89,5.54c2.68,1,.79,5-1.88,4a420.11,420.11,0,0,0-55.93-16.42q-8.08-1.77-16.24-3.23C401.56,268.87,402.3,264.48,405.12,265Z"/><path class="cls-11" d="M201.52,191.93a12.49,12.49,0,0,1-22.32,3.22c-1.59-2.36-5.44-.13-3.83,2.24a16.94,16.94,0,0,0,30.44-4.28C206.68,190.38,202.4,189.21,201.52,191.93Z"/><path class="cls-11" d="M189.78,207.32a19.74,19.74,0,0,1-16.25-8.68,4.15,4.15,0,0,1,1.16-5.89,4.52,4.52,0,0,1,6.35,1.16,10.28,10.28,0,0,0,18.37-2.66h0a4.46,4.46,0,0,1,5.7-2.86,4.21,4.21,0,0,1,2.81,5.4,19.41,19.41,0,0,1-15.33,13.32A19.09,19.09,0,0,1,189.78,207.32Zm8.35-7.22a14.91,14.91,0,0,1-4,2.08A14.49,14.49,0,0,0,198.13,200.1Zm5.5-7.49Z"/><path class="cls-11" d="M324.88,191.93a12.49,12.49,0,0,0,22.32,3.22c1.6-2.36,5.45-.13,3.84,2.24a16.94,16.94,0,0,1-30.44-4.28C319.72,190.38,324,189.21,324.88,191.93Z"/><path class="cls-11" d="M336.63,207.32a19,19,0,0,1-2.81-.21,19.41,19.41,0,0,1-15.33-13.32,4.11,4.11,0,0,1,.83-4.14,4.71,4.71,0,0,1,4.43-1.38,4.3,4.3,0,0,1,3.25,3,10.27,10.27,0,0,0,18.36,2.66,4.42,4.42,0,0,1,4-2,4.69,4.69,0,0,1,3.87,2.54,4.09,4.09,0,0,1-.36,4.16A19.75,19.75,0,0,1,336.63,207.32Zm-8-7a14.46,14.46,0,0,0,3.57,1.81A15,15,0,0,1,328.64,200.36Zm20.41-4h0l-.24.34C348.89,196.6,349,196.48,349.05,196.37Z"/><path class="cls-11" d="M288,272.23a2.32,2.32,0,0,0-3,.75,10.85,10.85,0,0,1-9.91,5.76,10.68,10.68,0,0,1-9.13-5.87V240.43c0-2.69-4.44-2.69-4.44,0v32.64a1.62,1.62,0,0,0,0,.44v.13l-.11.16a9.4,9.4,0,0,1-16.62.46c-1.34-2.38-5.18-.27-3.84,2.1a14,14,0,0,0,12.45,6.84,14.22,14.22,0,0,0,10.7-5.46,15.2,15.2,0,0,0,24.74-2.65A2.07,2.07,0,0,0,288,272.23Z"/><path class="cls-11" d="M252.91,285.43a16.25,16.25,0,0,1-13.92-8,4.21,4.21,0,0,1,1.73-5.85,4.56,4.56,0,0,1,3.07-.55,4.15,4.15,0,0,1,2.9,2.1,7.18,7.18,0,0,0,12.57-.1.49.49,0,0,1,0-.12V240.43a4.44,4.44,0,0,1,8.88,0v31.92A8.49,8.49,0,0,0,283,272a4.12,4.12,0,0,1,2.5-2,4.76,4.76,0,0,1,3.58.34h0a4.27,4.27,0,0,1,1.7,5.83A17.42,17.42,0,0,1,264.17,281a16.47,16.47,0,0,1-10.72,4.47Zm10.38-10.49c-.09.18-.18.35-.28.52l.92-1.23.51.58c-.19-.33-.37-.67-.53-1l-.2-.44v1Zm-.06.09h0Zm23.72-.85h0l1.06-1.95-1.07,1.94Zm-23.25-.89v0Z"/><path class="cls-12" d="M286.18,235.82c-.77-2.44-3.91-4.83-7.06-6.51a20.65,20.65,0,0,0-9.81-2.37,3.73,3.73,0,0,0-1.13-.13c-8.15.18-17,.73-22.27,4.68-4.6,3.46-2.61,8,3.11,10.6,6.86,3.13,16.1,2.71,24.18,1.57C280,242.72,287.63,240.44,286.18,235.82Z"/></g></g></svg>