<svg xmlns="http://www.w3.org/2000/svg" xmlns:xlink="http://www.w3.org/1999/xlink" viewBox="0 0 512 512"><defs><style>.cls-1{isolation:isolate;}.cls-2{fill:#e1830e;}.cls-3{fill:#5e6175;}.cls-4{fill:#a9afc4;}.cls-5,.cls-7,.cls-8,.cls-9{mix-blend-mode:multiply;}.cls-5{fill:url(#linear-gradient);}.cls-6{fill:#f5f5f5;}.cls-7{fill:url(#linear-gradient-2);}.cls-8{fill:url(#linear-gradient-3);}.cls-9{fill:url(#linear-gradient-4);}.cls-10{fill:#dee1ec;}</style><linearGradient id="linear-gradient" x1="138.28" y1="317.89" x2="173.33" y2="317.89" gradientUnits="userSpaceOnUse"><stop offset="0" stop-color="#cacfdd"/><stop offset="1" stop-color="#eef0f1"/></linearGradient><linearGradient id="linear-gradient-2" x1="296.78" y1="310.72" x2="340.08" y2="310.72" xlink:href="#linear-gradient"/><linearGradient id="linear-gradient-3" x1="355.6" y1="293.16" x2="355.6" y2="365.06" xlink:href="#linear-gradient"/><linearGradient id="linear-gradient-4" x1="276.91" y1="296.87" x2="310.29" y2="296.87" xlink:href="#linear-gradient"/></defs><title>Boar</title><g class="cls-1"><g id="Boar"><path class="cls-2" d="M36,322A15,15,0,0,1,51,337,15,15,0,0,1,65.89,322,14.94,14.94,0,0,1,51,307.05,15,15,0,0,1,36,322Z"/><path class="cls-3" d="M145,151.45a10.67,10.67,0,0,1-.77-21.31h0a10.67,10.67,0,1,1,.77,21.31Zm-.32-15.33a4.67,4.67,0,1,0,5,4.32,4.68,4.68,0,0,0-5-4.32Z"/><path class="cls-3" d="M94.69,180.14a8.33,8.33,0,0,1-.62-16.63h0a8.33,8.33,0,1,1,.62,16.63Zm-.17-10.64h0a2.33,2.33,0,1,0,1.69.55A2.33,2.33,0,0,0,94.52,169.5Z"/><path class="cls-4" d="M182,378.89h-32.9L137.62,308l1-1.68c.35,0,8.68,5.12,34.73,10.68L166,357.59S180,365.54,182,378.89Z"/><path class="cls-5" d="M173.33,317l-2.25,12.49-30.85-5.61L138.28,312l.32-5.69C139,306.3,147.28,311.42,173.33,317Z"/><path class="cls-6" d="M409.47,290l.51-.42a16.86,16.86,0,0,1,21.9.42s-.58,47.13,44.12,56.09h-5.84A60.88,60.88,0,0,1,409.47,290Z"/><path class="cls-3" d="M476,349.09h-5.84a63.86,63.86,0,0,1-63.68-58.86l-.12-1.56,1.72-1.41a19.77,19.77,0,0,1,25.79.49l1,.91V290c0,1.82,0,44.76,41.71,53.11Zm-63.39-57.75a57.91,57.91,0,0,0,42.74,49.84,54.8,54.8,0,0,1-20.94-25.33,72.7,72.7,0,0,1-5.5-24.4A13.79,13.79,0,0,0,412.61,291.34Z"/><path class="cls-4" d="M331.7,360.76l8.38-62.83-43.3-9.47L312,378.89h36.62S346.12,364,331.7,360.76Z"/><polygon class="cls-7" points="335.41 332.98 303.15 325.92 296.78 288.46 340.08 297.93 335.41 332.98"/><path class="cls-3" d="M352.15,381.89h-42.7l-16.36-97.31,50.33,11-8.4,63c13.86,4.73,16.44,19.17,16.55,19.81Zm-37.62-6h30.08c-1.57-4-5.3-10.33-13.57-12.21l-2.68-.6,8.38-62.81-36.27-7.93Z"/><path class="cls-4" d="M420.72,310.47a265.53,265.53,0,0,1-55.14,15.12,65.86,65.86,0,0,1-35.32-3.9,63.71,63.71,0,0,1-20-12.44l-1,3.29a22,22,0,0,1-21.91,15.88l-7.37,32.34c13.49,2.86,18.06,18.13,18.06,18.13H262l-5.67-36.82V327.12C166.25,321.9,138.6,306.3,138.6,306.3l-21.77,37-.16,14.27s13,6.28,15.25,21.3H95.78l-7.26-37.75,8-18.86-9.23-19.86a119,119,0,0,1-11.1-49.69c-.16-38.8,31.6-70.56,70.41-70.56h59.17a100.54,100.54,0,0,0,54.36-16l37,25.4v-25.4l37,31.94V172.73c22.46,25.52,37.53,36.55,57,67.1,5.5,8.63,14.41,18.4,28.07,23.07C442.13,270.71,441.88,302.07,420.72,310.47Z"/><path class="cls-8" d="M384.29,321.89c-5.86,1.37-12.12,2.64-18.71,3.7a65.86,65.86,0,0,1-35.32-3.9c-8.94-13.68,1.2-30.8,16.61-30.8h8.53a20,20,0,0,1,19,14A42.15,42.15,0,0,0,384.29,321.89Z"/><path class="cls-9" d="M310.29,309.25c-1.18,4.09-2,7.79-5.76,11.94-1.88-1.67-3.44-3-3.84-3.37-6.67-6.14-11.43-9.79-16.37-17.5-4.83-7.55-7.41-17.66-7.41-27.77H292A44.43,44.43,0,0,0,305,304Z"/><path class="cls-3" d="M302.15,381.89H259.41l-6.1-39.82V330c-73.65-4.51-104.82-15.87-113.52-19.74l-20,34-.13,11.69c3.92,2.41,13.26,9.44,15.19,22.6l.51,3.44H93.31L85.4,340.81l7.83-18.48-8.67-18.65a122,122,0,0,1-11.38-50.94,73.49,73.49,0,0,1,73.41-73.57h59.17a97.43,97.43,0,0,0,27.48-3.94,99,99,0,0,0,26.93-12.62l34,23.3V159.66l37,31.94V164.78c6.16,7,14,15.93,29.45,31.84a260,260,0,0,1,33.08,41.59c6.91,10.85,15.82,18.2,26.51,21.85,25.07,8.55,25.83,43.6,1.64,53.2a269.36,269.36,0,0,1-55.77,15.29,69.55,69.55,0,0,1-54.21-14,25,25,0,0,1-22,16.82l-6.21,27.26C296.4,363.17,300.8,377.38,301,378Zm-37.6-6H293.6c-2.15-4.22-6.58-10.59-14.16-12.19l-3-.64,8.59-37.7,3.19.08a19,19,0,0,0,18.22-13.73l2.36-8.21,3.6,3.64c.21.2,21,20.61,52.68,15.49a263.09,263.09,0,0,0,54.52-14.95c18.85-7.48,18.6-35.13-1.37-41.94-11.84-4.05-22.08-12.45-29.63-24.3-17.34-27.21-31.86-39.47-51.47-60.91V204.7l-37-31.94v24.55L260,169.8a103.49,103.49,0,0,1-54.28,15.37H146.59a67.49,67.49,0,0,0-67.41,67.54A115.85,115.85,0,0,0,90,301.15l9.79,21.07-8.15,19.25,6.62,34.42H128.2a27.07,27.07,0,0,0-12.83-15.59l-1.72-.83.19-17,23.67-40.25,2.57,1.45c.27.15,28.49,15.34,116.41,20.43l2.82.17v17.55Z"/><path class="cls-3" d="M185.46,381.89H146.53l-12-74.5,2.4-4.09h3l.56.56c9.31,4.68,26.25,8.63,36.38,10.79l-7.44,41.5c4.11,2.81,13.82,10.58,15.59,22.29Zm-33.83-6h26.53c-3.36-9.73-13.5-15.63-13.61-15.69l-1.84-1.05,7.16-39.85c-15-3.35-24.09-6.6-28.76-8.55Z"/><path class="cls-3" d="M308.17,311.37l-5.29-5.29A47.13,47.13,0,0,1,289,272.55h6a41.17,41.17,0,0,0,12.13,29.29l5.29,5.29Z"/><path class="cls-3" d="M308.17,311.37l-5.29-5.29A47.15,47.15,0,0,1,289,272.55h6a41.13,41.13,0,0,0,12.14,29.29l5.28,5.29Z"/><path class="cls-10" d="M418.1,267.92H400.84a18.4,18.4,0,1,0,0,36.79H418.1a18.4,18.4,0,1,0,0-36.79Z"/><path class="cls-3" d="M418.1,307.71H400.84a21.4,21.4,0,1,1,0-42.79H418.1a21.4,21.4,0,1,1,0,42.79Zm-17.26-36.79a15.4,15.4,0,1,0,0,30.79H418.1a15.4,15.4,0,1,0,0-30.79Z"/><circle class="cls-6" cx="339.61" cy="242.6" r="6.42" transform="translate(70.8 561.86) rotate(-85.44)"/><circle class="cls-6" cx="385.31" cy="242.6" r="6.42" transform="translate(112.87 607.42) rotate(-85.44)"/><path class="cls-3" d="M339.61,252A9.42,9.42,0,1,1,349,242.6,9.43,9.43,0,0,1,339.61,252Zm0-12.83A3.42,3.42,0,1,0,343,242.6,3.42,3.42,0,0,0,339.61,239.18Z"/><path class="cls-3" d="M385.31,252a9.42,9.42,0,1,1,9.42-9.41A9.42,9.42,0,0,1,385.31,252Zm0-12.83a3.42,3.42,0,1,0,3.41,3.42A3.42,3.42,0,0,0,385.32,239.18Z"/><rect class="cls-3" x="398.72" y="281.59" width="6" height="8.41"/><rect class="cls-3" x="416.02" y="281.59" width="6" height="8.41"/><path class="cls-6" d="M335.19,290l.52-.42a16.84,16.84,0,0,1,21.89.42s-.58,47.13,44.12,56.09h-5.84A60.88,60.88,0,0,1,335.19,290Z"/><path class="cls-3" d="M401.72,349.09h-5.84a63.87,63.87,0,0,1-63.68-58.86l-.12-1.56,1.72-1.41a19.77,19.77,0,0,1,25.79.49l1,.91,0,1.38c0,1.82,0,44.76,41.71,53.11Zm-63.39-57.75a57.91,57.91,0,0,0,42.75,49.84,54.77,54.77,0,0,1-20.95-25.33,72.7,72.7,0,0,1-5.5-24.4A13.79,13.79,0,0,0,338.33,291.34Z"/><path class="cls-3" d="M405.59,318.92H395.25a34.82,34.82,0,0,1-24.15-9.67l-4.71-4.5,4.14-4.34,4.71,4.5a28.9,28.9,0,0,0,20,8h10.34Z"/><rect class="cls-3" x="253.31" y="297.8" width="6" height="29.33"/><path class="cls-3" d="M141.07,308l-4.92-3.43,1.9-2.74a82.06,82.06,0,0,0,14.79-47.12h6A88.13,88.13,0,0,1,143,305.28Z"/><rect class="cls-3" x="82.02" y="375.89" width="309.03" height="6"/><path class="cls-3" d="M58.63,224.73h-6A25.67,25.67,0,0,1,78.32,199H97.65v6H78.32A19.68,19.68,0,0,0,58.63,224.73Z"/><rect class="cls-3" x="438.06" y="250.09" width="17.41" height="6" transform="translate(-48.11 390.04) rotate(-45)"/><rect class="cls-3" x="423.25" y="232.71" width="6" height="17.41"/><rect class="cls-3" x="450.2" y="269.55" width="17.41" height="6"/></g></g></svg>