<svg xmlns="http://www.w3.org/2000/svg" viewBox="0 0 464.26 850"><defs><style>.cls-1{fill:#fffbfa;}.cls-2{fill:#feddd6;}.cls-3{opacity:0.25;}.cls-4{fill:#bfb1dd;}.cls-5{fill:#473636;}.cls-6{fill:#fbb5a6;}.cls-7{fill:#ec2e3e;}.cls-8{fill:#b72032;}.cls-9{fill:#fff;}.cls-10{fill:#9e9e9e;}</style></defs><g id="Layer_2" data-name="Layer 2"><g id="Bunny"><path class="cls-1" d="M172.55,34.52C168.16,22.07,159.92,10.4,147.9,4.36c-14.06-7.06-30.69-5-44.22,2.29-14,7.56-24.36,20.52-32.26,34.06a179.11,179.11,0,0,0,5.67,188.64Q80.36,234.28,84,239a2.45,2.45,0,0,0,1.88,1,1.89,1.89,0,0,0,2.53-.27,228.39,228.39,0,0,1,47.56-37.61q7.43-4.41,15.17-8.25a1.75,1.75,0,0,0,1-2.06,1.89,1.89,0,0,0-.14-1.74,14.73,14.73,0,0,1-.94-1.75,13.87,13.87,0,0,1-.84-3.09s0-.06,0-.09a2.53,2.53,0,0,0-.37-1.19,2.45,2.45,0,0,0,0-.46c-2.8-17.8,1.6-35.76,7.24-52.56s12.85-33.25,16.72-50.66C177.07,65.15,177.77,49.32,172.55,34.52Z"/><path class="cls-2" d="M157.16,129.65c1.09-17.07,2-34.86-5.44-50.77-3.2-6.87-8.1-13.49-14.66-17.47a19.77,19.77,0,0,0-10.73-3.1,18.54,18.54,0,0,0-10.2,3.63c-6.58,4.78-9.81,12.31-12,19.9A189.41,189.41,0,0,0,99,105.39a182,182,0,0,0-1.3,48.39,150.07,150.07,0,0,0,12.68,46.33c.85,1.83,1.75,3.64,2.67,5.44,0,0,0,.06.07.1a2.09,2.09,0,0,0,.21.54l1.66,2.62a2.26,2.26,0,0,0,1,.86,2.09,2.09,0,0,0,2.65.45A118.89,118.89,0,0,1,136.44,200a1.73,1.73,0,0,0,.31-.22q6.09-2.41,12-5.27c1-.08,2.16-1,2-2.09l-1.2-10.15a3,3,0,0,0-.26-.89,106.51,106.51,0,0,1,6.93-46.63,1.65,1.65,0,0,0,.05-1c.28-.6.55-1.2.83-1.79a2.14,2.14,0,0,0,0-1.9A3,3,0,0,0,157.16,129.65Z"/><g class="cls-3"><path class="cls-4" d="M152,190.08a14.73,14.73,0,0,1-.94-1.75,13.87,13.87,0,0,1-.84-3.09s0-.06,0-.09a2.53,2.53,0,0,0-.37-1.19,2.45,2.45,0,0,0,0-.46c-2.45-15.62.63-31.36,5.24-46.34-16.49,8-31,20.14-43.52,33.55C96.8,186.43,81.29,205,75.08,226.2c.66,1.06,1.32,2.12,2,3.15Q80.36,234.28,84,239a2.45,2.45,0,0,0,1.88,1,1.89,1.89,0,0,0,2.53-.27,228.39,228.39,0,0,1,47.56-37.61q7.43-4.41,15.17-8.25a1.75,1.75,0,0,0,1-2.06A1.89,1.89,0,0,0,152,190.08Z"/></g><path class="cls-1" d="M461.45,77.15a42,42,0,0,0-11.37-15.51,54.15,54.15,0,0,0-37-12.88c-15.78.56-30.71,7-43.66,15.76A166.47,166.47,0,0,0,335.8,95a185.91,185.91,0,0,0-24.59,37.28,183.13,183.13,0,0,0-15,42.29q-1.16,5.31-2,10.67a2.69,2.69,0,0,0,0,1,1.94,1.94,0,0,0,.6,1.4q22.27,22.55,43.54,46,6.06,6.71,12,13.48c1.58,1.79,4.07-.34,3.38-2.25,3.77-14.31,11.58-27.12,21-38.4,9.91-11.83,21.46-22.09,33-32.24s23.47-20.58,33.55-32.5,19.61-26.4,22.19-42.24A41,41,0,0,0,461.45,77.15Z"/><path class="cls-2" d="M434.48,117.12a26.75,26.75,0,0,0-10.22-14.91c-5.79-4-13.19-4.25-19.67-1.93-7.26,2.6-13.34,7.57-18.91,12.77a153.64,153.64,0,0,0-14.81,16A226.19,226.19,0,0,0,347.14,166c-6.86,13.09-12.82,26.62-18.6,40.22l-2.11,5a2.48,2.48,0,0,0,0,2.08,1.77,1.77,0,0,0,0,2.06,177.5,177.5,0,0,0,20.82,26.19,1.84,1.84,0,0,0,1.86.57,2.25,2.25,0,0,0,3.84-.59c9.79-26.31,32.27-44.77,52.32-63.2,6.07-5.58,12-11.27,17.62-17.34a2,2,0,0,0,.55-1.63,1.54,1.54,0,0,0,.21-.29C430.82,146.51,438.72,132,434.48,117.12Z"/><g class="cls-3"><path class="cls-4" d="M295.13,180c-.32,1.76-.63,3.53-.9,5.3a2.69,2.69,0,0,0,0,1,1.94,1.94,0,0,0,.6,1.4q22.27,22.55,43.54,46,6.06,6.71,12,13.48c1.58,1.79,4.07-.34,3.38-2.25,3.77-14.31,11.58-27.12,21-38.4a202.79,202.79,0,0,1,15.07-15.95C359.26,181.58,326.68,176.42,295.13,180Z"/></g><path class="cls-1" d="M442.82,817.3c-4.67-9.89-14.38-16.57-24.17-20.76A102,102,0,0,0,385,788.8a110.79,110.79,0,0,0-53.5,10.13c1.56-2.48,3.1-5,4.59-7.49a360.87,360.87,0,0,0,32.73-72.2,364.16,364.16,0,0,0,16.26-77.62,353,353,0,0,0-1.18-79,363.59,363.59,0,0,0-18.5-77.11,360.59,360.59,0,0,0-34.82-71.22,2.06,2.06,0,0,0-.5-.55,1.92,1.92,0,0,0-2.48-1.4,371.69,371.69,0,0,1-81,14.35,375.6,375.6,0,0,1-82-3.65,372.13,372.13,0,0,1-45.26-10,1.89,1.89,0,0,0-1.76.32,2,2,0,0,0-2.16.93A362.33,362.33,0,0,0,62,562.57a353.59,353.59,0,0,0-1.18,79,363,363,0,0,0,49,149.82q2.25,3.78,4.59,7.49A110.78,110.78,0,0,0,60.94,788.8a102,102,0,0,0-33.69,7.74c-9.78,4.19-19.5,10.87-24.17,20.76-4.77,10.1-4.41,23.31,4,31.44a2.06,2.06,0,0,0,1.08.56,1.89,1.89,0,0,0,1.54.7H170.14a2,2,0,0,0,2-2.59,3.14,3.14,0,0,0,0-.45V753.08a128.43,128.43,0,0,0,31.71,8.51A132.32,132.32,0,0,0,253.57,759,124.83,124.83,0,0,0,273.75,752V847a2.14,2.14,0,0,0,.05.45,2,2,0,0,0,2,2.59H436.23a1.91,1.91,0,0,0,1.55-.7,2.07,2.07,0,0,0,1.07-.56C447.23,840.61,447.59,827.4,442.82,817.3Z"/><path class="cls-2" d="M317.43,544.76a340.21,340.21,0,0,0-16.72-61.38,341.19,341.19,0,0,0-26.92-55.71,2.71,2.71,0,0,0-.42-.71l-.44-.72a2.14,2.14,0,0,0-3.78.35c-24.71,2.91-49.7,5.64-74.55,3.07a151.51,151.51,0,0,1-20.18-3.5,2.12,2.12,0,0,0-3.54.08,340.44,340.44,0,0,0-22.33,310q1.57,3.7,3.23,7.36a1.94,1.94,0,0,0,.61.77,1.81,1.81,0,0,0,1,1.08A185.86,185.86,0,0,0,191.43,760a105.58,105.58,0,0,0,17.32,3.45,107.18,107.18,0,0,0,13.16.63,107.18,107.18,0,0,0,13.16-.63A105.78,105.78,0,0,0,252.39,760a185.56,185.56,0,0,0,38.07-14.61,1.86,1.86,0,0,0,1-1.08,1.84,1.84,0,0,0,.6-.77q1.67-3.66,3.24-7.36A342,342,0,0,0,315,673.89a343.56,343.56,0,0,0,7.46-65A338,338,0,0,0,317.43,544.76Z"/><g class="cls-3"><path class="cls-4" d="M143.83,432.62c33.6,22,74.7,35.76,114.66,24.57,27.34-7.65,49.74-25.61,70.31-44.89a1.9,1.9,0,0,0-1.23,0,371.69,371.69,0,0,1-81,14.35,375.6,375.6,0,0,1-82-3.65,372.13,372.13,0,0,1-45.26-10,1.92,1.92,0,0,0-1.39.09A250.08,250.08,0,0,0,143.83,432.62Z"/></g><g class="cls-3"><path class="cls-4" d="M172.15,847v-35a122.11,122.11,0,0,1-27.79,15.86c-19.23,7.91-40,11.4-60.65,13.16-16,1.36-32.37,2.59-48.3.24-11.89-1.75-25.1-4.61-35.38-11.34-.25,6.95,1.86,13.89,7,18.9a2.06,2.06,0,0,0,1.08.56,1.89,1.89,0,0,0,1.54.7H170.14a2,2,0,0,0,2-2.59A3.14,3.14,0,0,0,172.15,847Z"/></g><g class="cls-3"><path class="cls-4" d="M441.83,825.6c-11,7.94-25.64,10.81-38.8,12.71a195.28,195.28,0,0,1-40.57,1.85c-30-1.93-65.75-9.53-88.71-30.95V847a2.14,2.14,0,0,0,.05.45,2,2,0,0,0,2,2.59H436.23a1.91,1.91,0,0,0,1.55-.7,2.07,2.07,0,0,0,1.07-.56c6.84-6.64,8.33-16.67,6-25.62A35,35,0,0,1,441.83,825.6Z"/></g><path class="cls-1" d="M180.36,597.22c-3.63-23.07-12.72-45-23.81-65.42q-4.22-7.77-8.84-15.32c-3-4.88-5.93-10-10-14-3.85-3.89-8.87-6.77-14.42-7.09a14.29,14.29,0,0,0-12.89,6.46,11.38,11.38,0,0,0-1.81,7,1.83,1.83,0,0,0,.08.43A127.64,127.64,0,0,0,97.84,551a1.92,1.92,0,0,0-.47,1.35A108,108,0,0,0,115,609a109.16,109.16,0,0,0,19.74,22.77,103.77,103.77,0,0,0,12,9c4.45,2.86,9.25,5.58,14.5,6.61s10.73.13,14.62-3.77c3.38-3.39,4.88-8.2,5.55-12.83C183,619.72,182.08,608.15,180.36,597.22Z"/><g class="cls-3"><path class="cls-4" d="M148.61,624.39c-24.71-16.22-41.83-43.94-45.88-73.11a125.24,125.24,0,0,1-1.14-22A126.86,126.86,0,0,0,97.84,551a1.92,1.92,0,0,0-.47,1.35A108,108,0,0,0,115,609a109.16,109.16,0,0,0,19.74,22.77,103.77,103.77,0,0,0,12,9c4.45,2.86,9.25,5.58,14.5,6.61s10.73.13,14.62-3.77a18.07,18.07,0,0,0,4.1-6.83A82.87,82.87,0,0,1,148.61,624.39Z"/></g><path class="cls-1" d="M337.26,508.94a.66.66,0,0,0,0-.15,11.37,11.37,0,0,0-1.8-7,14.31,14.31,0,0,0-12.9-6.46c-5.55.32-10.57,3.2-14.42,7.09-4.05,4.08-7,9.15-10,14q-4.6,7.56-8.84,15.32c-11.09,20.42-20.18,42.35-23.81,65.42-1.72,10.93-2.62,22.5-1,33.51.67,4.63,2.17,9.44,5.55,12.83,3.89,3.9,9.38,4.79,14.62,3.77s10.05-3.75,14.5-6.61a104.76,104.76,0,0,0,12-9A109.41,109.41,0,0,0,330.89,609a108.25,108.25,0,0,0,17.59-55,2.12,2.12,0,0,0,.3-1A81.21,81.21,0,0,0,337.26,508.94Z"/><g class="cls-3"><path class="cls-4" d="M345.32,527.14c2.35,26.56-6.53,52.51-23.05,74.42-12.22,16.2-33.26,36.16-55.3,37.58a16.56,16.56,0,0,0,3.1,4.42c3.89,3.9,9.38,4.79,14.62,3.77s10.05-3.75,14.5-6.61a104.76,104.76,0,0,0,12-9A109.41,109.41,0,0,0,330.89,609a108.25,108.25,0,0,0,17.59-55,2.12,2.12,0,0,0,.3-1A80.9,80.9,0,0,0,345.32,527.14Z"/></g><path class="cls-1" d="M367.11,273a151.52,151.52,0,0,0-18.21-38.16A144.59,144.59,0,0,0,282,180.13a168.08,168.08,0,0,0-44.25-11.23,172.11,172.11,0,0,0-46,.92A158.8,158.8,0,0,0,148.34,183a145.67,145.67,0,0,0-36.28,24.43,152.71,152.71,0,0,0-43.78,71.82,141.09,141.09,0,0,0-5,41.56,133.76,133.76,0,0,0,2.28,20.43.53.53,0,0,0,0,.12,79.57,79.57,0,0,0,12.08,35.46,110.33,110.33,0,0,0,30.25,31.35c13.21,9.34,28.34,15.82,44.13,20.12,17.43,4.75,35.58,6.85,53.66,7.58a478.46,478.46,0,0,0,53.82-.94c17.24-1.26,34.55-3.95,50.47-10.6a94.85,94.85,0,0,0,37.21-28.23A119.08,119.08,0,0,0,368.12,356a134.2,134.2,0,0,0,5.78-41.68A146.59,146.59,0,0,0,367.11,273Z"/><path class="cls-5" d="M158,284.53a11.78,11.78,0,0,1-21,3c-1.5-2.22-5.13-.13-3.61,2.11a16,16,0,0,0,28.7-4C162.82,283.07,158.78,282,158,284.53Z"/><path class="cls-5" d="M146.88,299.05a18.63,18.63,0,0,1-15.33-8.19,3.92,3.92,0,0,1,1.1-5.56,4.28,4.28,0,0,1,6,1.09,9.69,9.69,0,0,0,17.32-2.5h0a4,4,0,0,1,3.07-2.81,4.43,4.43,0,0,1,4.17,1.3,3.9,3.9,0,0,1,.79,3.9,17.87,17.87,0,0,1-17.11,12.77Zm7.8-6.76a14.3,14.3,0,0,1-3.59,1.88A13.68,13.68,0,0,0,154.68,292.29Zm5.26-7.12h0Z"/><path class="cls-5" d="M274.29,284.53a11.78,11.78,0,0,0,21,3c1.5-2.22,5.13-.13,3.62,2.11a16,16,0,0,1-28.71-4C269.42,283.07,273.47,282,274.29,284.53Z"/><path class="cls-5" d="M285.37,299.05a17.87,17.87,0,0,1-17.11-12.77,3.9,3.9,0,0,1,.78-3.9,4.45,4.45,0,0,1,4.18-1.3,4,4,0,0,1,3.06,2.81h0a9.69,9.69,0,0,0,17.33,2.5,4.28,4.28,0,0,1,6-1.09,3.92,3.92,0,0,1,1.09,5.56A18.61,18.61,0,0,1,285.37,299.05Zm-7.48-6.53a13.53,13.53,0,0,0,3.24,1.64A13.91,13.91,0,0,1,277.89,292.52Zm19.19-3.8h0l-.23.33Z"/><path class="cls-5" d="M239.52,362.35a2.2,2.2,0,0,0-2.87.71,10.25,10.25,0,0,1-9.34,5.44A10.08,10.08,0,0,1,218.7,363v-30.6c0-2.53-4.19-2.53-4.19,0v30.78a1.19,1.19,0,0,0,0,.42v.13a.83.83,0,0,0-.11.15,8.87,8.87,0,0,1-15.67.42c-1.27-2.24-4.88-.25-3.62,2a13.22,13.22,0,0,0,11.74,6.45,13.42,13.42,0,0,0,10.09-5.15,14.34,14.34,0,0,0,23.33-2.5A2,2,0,0,0,239.52,362.35Z"/><path class="cls-5" d="M206.42,374.81a15.33,15.33,0,0,1-13.13-7.53A3.88,3.88,0,0,1,193,364a4.28,4.28,0,0,1,1.92-2.18,4,4,0,0,1,5.63,1.46,6.91,6.91,0,0,0,6.22,3.44,6.81,6.81,0,0,0,5.63-3.53s0-.08,0-.12V332.36a3.84,3.84,0,0,1,1.43-3.05,4.37,4.37,0,0,1,2.76-.94,4,4,0,0,1,4.19,4v30.11a8,8,0,0,0,14-.38,3.84,3.84,0,0,1,2.35-1.89,4.4,4.4,0,0,1,3.38.32h0a4,4,0,0,1,1.6,5.49,16.44,16.44,0,0,1-25.1,4.57,15.61,15.61,0,0,1-10.11,4.22Zm9.79-9.9c-.09.17-.18.33-.28.49l.88-1.16.48.55c-.18-.31-.35-.63-.5-1l-.19-.42v.92Zm-.07.08h0Zm.14-.21h0Zm22.23-.59h0l1-1.84-1,1.84Zm-21.92-.83v0Z"/><path class="cls-6" d="M244.6,319.75c-1-3.94-4.94-7.78-8.91-10.49a21.72,21.72,0,0,0-12.39-3.8,3.75,3.75,0,0,0-1.42-.22c-10.3.29-21.49,1.18-28.12,7.53-5.81,5.57-3.29,12.87,3.92,17.07,8.67,5,20.33,4.36,30.53,2.53C236.73,330.85,246.43,327.18,244.6,319.75Z"/><path class="cls-2" d="M123.89,353.5C110.74,338.63,83.64,323,64.52,334.84c.3,2.15.63,4.29,1,6.42a.53.53,0,0,0,0,.12,79.57,79.57,0,0,0,12.08,35.46,110.33,110.33,0,0,0,30.25,31.35,131,131,0,0,0,30.13,15.64C142.51,399,141.69,373.65,123.89,353.5Z"/><path class="cls-2" d="M316.27,348.2c-15.09,22.9-15.81,51.08-7.84,76.67l0,.1,1.54-.62a94.85,94.85,0,0,0,37.21-28.23A119.08,119.08,0,0,0,368.12,356a132.63,132.63,0,0,0,5.54-30.89C351.71,315.6,329.26,328.48,316.27,348.2Z"/><path class="cls-7" d="M295.08,193.82a128.74,128.74,0,0,1-29-38.51c-6.6-13.69-11.43-30.29-2.18-44a29.22,29.22,0,0,1,18.86-12.47,2.36,2.36,0,0,0,.38-.1,2.47,2.47,0,0,0,2.1-1,9.64,9.64,0,0,1,.69-.89,9.4,9.4,0,0,1,1.4-1.18,11.27,11.27,0,0,1,1.77-.89l.21-.06c2,.29,3.94-2,2.2-3.6-9.79-9.13-24.71-13.24-39-12.58-15.23.7-29.93,6.11-42.21,13.62-23.1,14.13-38.3,36.19-41.08,60.31a74.05,74.05,0,0,0,8.4,43.14,1.52,1.52,0,0,0,.32.4,2.07,2.07,0,0,0,1.05,1.18c12.17,6.6,27.09,7.48,41.14,7.73a325,325,0,0,0,47.51-2.69q13.16-1.71,26.06-4.52a2,2,0,0,0,1.7-1.47A1.77,1.77,0,0,0,295.08,193.82Z"/><path class="cls-8" d="M295.08,193.82a128.74,128.74,0,0,1-29-38.51q-.48-1-.93-2a49.6,49.6,0,0,1-8.74,6.73c-8.48,5.18-18.7,8.42-29,9.84-10.46,1.44-21.49,1.17-31.6-1.73-9.65-2.76-18.09-7.93-23.68-15.23a37.35,37.35,0,0,1-2.49-3.74c-.18,1.09-.34,2.2-.47,3.3a74.05,74.05,0,0,0,8.4,43.14,1.52,1.52,0,0,0,.32.4,2.07,2.07,0,0,0,1.05,1.18c12.17,6.6,27.09,7.48,41.14,7.73a325,325,0,0,0,47.51-2.69q13.16-1.71,26.06-4.52a2,2,0,0,0,1.7-1.47A1.77,1.77,0,0,0,295.08,193.82Z"/><path class="cls-9" d="M301.5,184.68a18,18,0,0,0-13.14-14c-6.29-1.59-12.91.28-18,4.06a10.77,10.77,0,0,0-8.14-4.9,10.6,10.6,0,0,0-7.06,2.15,18.32,18.32,0,0,0-12-11.13c-7.4-2.17-14.91,1.86-18.61,8.31a16.9,16.9,0,0,0-.84,1.71,15.87,15.87,0,0,0-11.15-5.25c-6.59-.22-12.36,3.76-16.26,8.9a13.05,13.05,0,0,0-10-6.93,13.32,13.32,0,0,0-12.13,5.72,14.26,14.26,0,0,0-18.87.74c-6.37,6.4-5.25,17.41,1.38,23.11a19.17,19.17,0,0,0,10,4.39,9.23,9.23,0,0,0,3.59,10.93,9,9,0,0,0,9.83-.56,13.49,13.49,0,0,0,5.74,8.67,15,15,0,0,0,9.81,2.21,19.1,19.1,0,0,0,4.54-1.06c1.82-.68,3.28-1.87,5-2.69,1.18-.56,1.56.87,2.22,1.71a18.68,18.68,0,0,0,3.59,3.57,22.84,22.84,0,0,0,8.48,3.93c6.57,1.54,13.29.09,19.12-3.1a39.12,39.12,0,0,0,8.28-6.24c1.22-1.18,2.31-2.47,3.47-3.71,1-1,2.16-2.23,3.7-2.18,1.73.07,3.54,1,5.24,1.28a33.74,33.74,0,0,0,5.58.58,31.74,31.74,0,0,0,10.94-1.7,39.71,39.71,0,0,0,9.91-5.29,97.36,97.36,0,0,0,8.48-6.52C299.1,197.1,302.76,191.37,301.5,184.68Z"/><g class="cls-3"><path class="cls-10" d="M301.5,184.68a18.07,18.07,0,0,0-11.3-13.44l.16.26a24.84,24.84,0,0,1,3.09,14.81c-.72,6.26-4.41,11.47-9.24,15.34-5.17,4.14-11.48,7.47-18.08,8.47a26.32,26.32,0,0,1-17.33-3.31,22.12,22.12,0,0,1-12,10.15,27.34,27.34,0,0,1-19.73-1.12,13.67,13.67,0,0,1-4.2-2.55,27,27,0,0,1-2.44-3.1,19.53,19.53,0,0,0-2.14-2.65l-.12-.16h0c.06.06,0,.14,0,0h0l-.21,0a2.15,2.15,0,0,0-.8.12,11.33,11.33,0,0,0-2.91,1.55c-1.15.75-2.27,1.57-3.43,2.31-2.52,1.6-5.19,2.68-8.21,2.31a8,8,0,0,1-6.42-3.94,14.18,14.18,0,0,1-1.32-4.25c-3.14,1.24-6.44,3-9.65,1.38a5.32,5.32,0,0,1-2.31-6.67,10.2,10.2,0,0,1,1-2,22.75,22.75,0,0,1-7.36-1.48c-7.24-3-11.36-11.65-10.71-19.23a18.3,18.3,0,0,1,1-4.69A13.87,13.87,0,0,0,155.3,174c-6.37,6.4-5.25,17.41,1.38,23.11a19.17,19.17,0,0,0,10,4.39,9.23,9.23,0,0,0,3.59,10.93,9,9,0,0,0,9.83-.56,13.49,13.49,0,0,0,5.74,8.67,15,15,0,0,0,9.81,2.21,19.1,19.1,0,0,0,4.54-1.06c1.82-.68,3.28-1.87,5-2.69,1.18-.56,1.56.87,2.22,1.71a18.68,18.68,0,0,0,3.59,3.57,22.84,22.84,0,0,0,8.48,3.93c6.57,1.54,13.29.09,19.12-3.1a39.12,39.12,0,0,0,8.28-6.24c1.22-1.18,2.31-2.47,3.47-3.71,1-1,2.16-2.23,3.7-2.18,1.73.07,3.54,1,5.24,1.28a33.74,33.74,0,0,0,5.58.58,31.74,31.74,0,0,0,10.94-1.7,39.71,39.71,0,0,0,9.91-5.29,97.36,97.36,0,0,0,8.48-6.52C299.1,197.1,302.76,191.37,301.5,184.68Z"/></g><path class="cls-9" d="M303.92,87.41a18.42,18.42,0,0,0-12-7.29,2.08,2.08,0,0,0-1.44-.68c-7.75-.51-14.46,6.32-17,13.12a14.85,14.85,0,0,0,6.89,18.25c6.93,3.85,15.6,2,21.59-2.73a13.68,13.68,0,0,0,5.44-9.72A17.08,17.08,0,0,0,303.92,87.41Z"/><g class="cls-3"><path class="cls-10" d="M304.59,102.06c-4.57,3.71-10.6,6.27-16.57,5.52a15.46,15.46,0,0,1-13.14-11.89,15.9,15.9,0,0,1,0-6.07,21.45,21.45,0,0,0-1.35,2.94,14.85,14.85,0,0,0,6.89,18.25c6.93,3.85,15.6,2,21.59-2.73a13.86,13.86,0,0,0,5.29-8.58A22.36,22.36,0,0,1,304.59,102.06Z"/></g></g></g></svg>