<svg xmlns="http://www.w3.org/2000/svg" viewBox="0 0 637.08 850"><defs><style>.cls-1{fill:#fec83f;}.cls-2{fill:#2e2e3d;}.cls-3{fill:#252533;}.cls-4{fill:#323244;}.cls-5{fill:#fafbff;}.cls-6{fill:#ec2e3e;}.cls-7{fill:#b72032;}.cls-8{fill:#fff;}.cls-9{opacity:0.25;}.cls-10{fill:#9e9e9e;}.cls-11{fill:#473636;}.cls-12{fill:#feddd6;}.cls-13{fill:#fb8d19;}</style></defs><g id="Layer_2" data-name="Layer 2"><g id="Penguin"><path class="cls-1" d="M214.12,757.44A46.56,46.56,0,0,0,198.29,748a47.59,47.59,0,0,0-20.11-2.25c-7.61.69-15,2.67-22.31,4.84a2.47,2.47,0,0,0-1.83,0A201.78,201.78,0,0,0,112,774.2a197.85,197.85,0,0,0-18.4,15.17c-2.73,2.55-6.26,5.23-7.7,8.78a6.09,6.09,0,0,0,4.32,8.34c4.27,1.15,9.34.58,13.67.07a62.71,62.71,0,0,0,12.62-2.94,73.59,73.59,0,0,0-4.54,11.22c-1.4,4.55-2.38,9.66-.84,14.3,2.5,7.5,10.19,11.17,17.71,11.3,9,.16,16.6-4.72,23.87-9.39,3.8-2.44,8.06-5.71,12.62-6.44,3-.5,5.43,1,7,3.46,3.42,5.48,4,12.33,8.4,17.3,5.35,6.07,14.36,5.67,20.83,1.68,16.71-10.31,9.78-33.1,19-47.77a20.57,20.57,0,0,1,3.87-4.55,2.18,2.18,0,0,0,.57-2.73C230.81,780,223.23,765.73,214.12,757.44Z"/><path class="cls-1" d="M423,757.44A46.42,46.42,0,0,1,438.79,748a47.59,47.59,0,0,1,20.11-2.25c7.61.69,15,2.67,22.31,4.84a2.47,2.47,0,0,1,1.83,0,201.78,201.78,0,0,1,42.09,23.58,199.29,199.29,0,0,1,18.41,15.17c2.72,2.55,6.25,5.23,7.69,8.78a6.09,6.09,0,0,1-4.32,8.34c-4.27,1.15-9.34.58-13.67.07a62.45,62.45,0,0,1-12.61-2.94,75.69,75.69,0,0,1,4.54,11.22c1.39,4.55,2.37,9.66.83,14.3-2.5,7.5-10.19,11.17-17.7,11.3-9,.16-16.61-4.72-23.88-9.39-3.8-2.44-8.06-5.71-12.62-6.44-3-.5-5.42,1-7,3.46-3.42,5.48-4,12.33-8.4,17.3-5.35,6.07-14.35,5.67-20.83,1.68-16.71-10.31-9.78-33.1-19-47.77a20.57,20.57,0,0,0-3.87-4.55,2.18,2.18,0,0,1-.57-2.73C406.27,780,413.85,765.73,423,757.44Z"/><path class="cls-2" d="M192.54,400.09c-3.76-11.56-8.78-22.85-16.52-32.33-6.94-8.48-16.37-15.36-27-18.21a43.18,43.18,0,0,0-8-1.33,1.59,1.59,0,0,0-1.77,1.25,1.77,1.77,0,0,0-1.15.56c-18.94,19.31-37.72,38.81-55.25,59.41-17,20-32.87,41-46.33,63.6-13,21.85-23.82,45.16-30.94,69.61-6,20.76-11,47.92,6.67,64.67,8,7.58,19,11.36,29.83,12,12.81.72,25.41-3.14,37-8.23,3-1.29,5.86-2.69,8.74-4.13a1.74,1.74,0,0,0,.8-.76c22.88-5,47.54,6.65,69.37-4.61,19.19-9.91,27.53-32.57,33.5-51.94a266.75,266.75,0,0,0,12-74.82A232.2,232.2,0,0,0,192.54,400.09Z"/><path class="cls-3" d="M192.54,400.09c-3.76-11.56-8.78-22.85-16.52-32.33-6.94-8.48-16.37-15.36-27-18.21a43.18,43.18,0,0,0-8-1.33,1.59,1.59,0,0,0-1.77,1.25,1.77,1.77,0,0,0-1.15.56c-14.42,14.71-28.75,29.52-42.5,44.85,1.8,8.61,3.29,17.29,4.54,26,2.66,18.54,4.49,37.24,6,55.91s2.44,37.12,2.53,55.72a513.13,513.13,0,0,1-2.63,56q-.87,8.22-2.05,16.39c18.27.33,37,5.45,54-3.33,19.19-9.91,27.53-32.57,33.5-51.94a266.75,266.75,0,0,0,12-74.82A232.2,232.2,0,0,0,192.54,400.09Z"/><path class="cls-2" d="M444.54,400.09c3.76-11.56,8.78-22.85,16.52-32.33,6.94-8.48,16.37-15.36,27-18.21a43.18,43.18,0,0,1,8-1.33,1.61,1.61,0,0,1,1.78,1.25A1.81,1.81,0,0,1,499,350c18.93,19.31,37.71,38.81,55.24,59.41,17,20,32.88,41,46.33,63.6,13,21.85,23.82,45.16,30.94,69.61,6,20.76,11,47.92-6.67,64.67-8,7.58-19,11.36-29.83,12-12.81.72-25.41-3.14-37-8.23-3-1.29-5.86-2.69-8.74-4.13a1.79,1.79,0,0,1-.8-.76c-22.87-5-47.54,6.65-69.36-4.61-19.2-9.91-27.54-32.57-33.51-51.94a267.11,267.11,0,0,1-12-74.82A232.2,232.2,0,0,1,444.54,400.09Z"/><path class="cls-3" d="M542.08,603.75a576.36,576.36,0,0,1-5.69-58.35c-1-19.19-1.24-38.4-1.27-57.6,0-9.75.3-19.5.55-29.24.26-10.07.6-20.13,1.21-30.19.7-11.63,1.74-23.28,3.42-34.83C526.91,378.69,513,364.31,499,350a1.81,1.81,0,0,0-1.15-.56,1.61,1.61,0,0,0-1.78-1.25,43.18,43.18,0,0,0-8,1.33c-10.67,2.85-20.1,9.73-27,18.21-7.74,9.48-12.76,20.77-16.52,32.33a232.2,232.2,0,0,0-10.9,74.71,267.11,267.11,0,0,0,12,74.82c6,19.37,14.31,42,33.51,51.94,19.88,10.26,42.11,1.55,63.2,3.66C542.24,604.73,542.15,604.24,542.08,603.75Z"/><path class="cls-4" d="M552.58,552.13A346.62,346.62,0,0,0,537,454.93a393.37,393.37,0,0,0-17.94-45.75c-7-15.44-14.31-30.95-18.26-47.54-8.33-35,2.62-70.66.09-106a180.26,180.26,0,0,0-28.2-84.21c-33.08-51.37-92.41-82.26-153.42-80.8a1.5,1.5,0,0,0-.37.05,1.58,1.58,0,0,0-.38-.05c-61-1.46-120.34,29.43-153.42,80.8a180.13,180.13,0,0,0-28.19,84.21c-2.54,35.34,8.41,71,.08,106-3.95,16.59-11.22,32.1-18.26,47.54a393.37,393.37,0,0,0-17.94,45.75,347,347,0,0,0-15.56,97.2A341.87,341.87,0,0,0,97.7,649.77c8.28,29.63,20.72,58.59,39.61,83.07,18.4,23.85,42.77,41.5,70.25,53.55,27.84,12.2,57.62,19.1,87.37,24.77,7.26,1.39,14.54,2.7,21.82,4a2,2,0,0,0,.53,0,7.71,7.71,0,0,0,3.38.09,1.48,1.48,0,0,0,.27-.1l.15,0c7.28-1.29,14.56-2.6,21.82-4,29.75-5.67,59.53-12.57,87.37-24.77,27.48-12,51.85-29.7,70.26-53.55,18.88-24.48,31.32-53.44,39.6-83.07A341.87,341.87,0,0,0,552.58,552.13Z"/><path class="cls-5" d="M502.38,502a328.71,328.71,0,0,0-9-46.76c-4.16-15.18-9.92-29.77-16-44.26s-12.3-28.78-16.79-43.77a156.88,156.88,0,0,1-6.44-47.82c.5-32.27,8-64.27,4.74-96.6-2.63-26.4-12.88-52.33-35.92-67.21-9.93-6.42-21.75-10.48-33.67-10.18a48.09,48.09,0,0,0-31.83,13.45c-22.27,21-23.52,53.46-24,82a1.78,1.78,0,0,0,.34,1.14c.16,6.17-3.46,12.37-9.4,14.55-6.24,2.28-13.58.39-17.42-5.17a15.51,15.51,0,0,1-2.77-9.93,2.16,2.16,0,0,0,.08-.59c-.44-28.58-1.69-61-24-82a48.09,48.09,0,0,0-31.83-13.45c-11.91-.3-23.73,3.76-33.67,10.18-23,14.88-33.29,40.81-35.92,67.21-3.23,32.33,4.24,64.33,4.74,96.6a156.88,156.88,0,0,1-6.44,47.82c-4.48,15-10.73,29.37-16.78,43.77s-11.86,29.08-16,44.26a330.11,330.11,0,0,0-9,46.76,525.8,525.8,0,0,0-3,93.45c1.57,28.12,6.27,56.65,18.8,82.13,12.41,25.23,32.64,45.08,56.47,59.65,26.42,16.15,56.24,25.56,86,33.33,7.37,1.93,14.77,3.76,22.16,5.59a6.74,6.74,0,0,0,1.24.43,7.3,7.3,0,0,0,1.55.18,7.15,7.15,0,0,0,1.52-.17c.19,0,.37-.1.56-.16l.18,0c7.73-1.91,15.46-3.82,23.16-5.83,29.77-7.77,59.59-17.18,86-33.33,23.83-14.57,44.06-34.42,56.47-59.65,12.53-25.48,17.23-54,18.81-82.13A526.75,526.75,0,0,0,502.38,502Z"/><path class="cls-6" d="M379.09,106.09a118.36,118.36,0,0,1-26.67-35.43c-6.07-12.59-10.51-27.87-2-40.44a26.87,26.87,0,0,1,17.34-11.47,1.79,1.79,0,0,0,.35-.1,2.27,2.27,0,0,0,1.94-.92,9.91,9.91,0,0,1,.63-.82A9.77,9.77,0,0,1,372,15.82,10.31,10.31,0,0,1,373.6,15l.2-.06c1.79.27,3.62-1.82,2-3.31-9-8.4-22.74-12.18-35.89-11.58-14,.65-27.53,5.63-38.83,12.54-21.25,13-35.24,33.29-37.79,55.48A68.21,68.21,0,0,0,271,107.76a1.52,1.52,0,0,0,.3.37,1.9,1.9,0,0,0,1,1.09c11.19,6.07,24.92,6.88,37.84,7.11a298.17,298.17,0,0,0,43.71-2.48q12.09-1.57,24-4.15a1.86,1.86,0,0,0,1.57-1.35A1.64,1.64,0,0,0,379.09,106.09Z"/><path class="cls-7" d="M379.09,106.09a118.36,118.36,0,0,1-26.67-35.43c-.29-.6-.57-1.21-.85-1.82a45.65,45.65,0,0,1-8.05,6.2,70.19,70.19,0,0,1-26.63,9c-9.63,1.33-19.77,1.08-29.07-1.58-8.88-2.55-16.65-7.3-21.79-14A33.13,33.13,0,0,1,263.74,65c-.16,1-.31,2-.43,3A68.21,68.21,0,0,0,271,107.76a1.52,1.52,0,0,0,.3.37,1.9,1.9,0,0,0,1,1.09c11.19,6.07,24.92,6.88,37.84,7.11a298.17,298.17,0,0,0,43.71-2.48q12.09-1.57,24-4.15a1.86,1.86,0,0,0,1.57-1.35A1.64,1.64,0,0,0,379.09,106.09Z"/><path class="cls-8" d="M385,97.68a16.59,16.59,0,0,0-12.09-12.9c-5.79-1.47-11.88.26-16.6,3.73A9.9,9.9,0,0,0,348.83,84a9.74,9.74,0,0,0-6.5,2,16.87,16.87,0,0,0-11-10.24c-6.81-2-13.71,1.71-17.12,7.64a16.44,16.44,0,0,0-.77,1.58,14.6,14.6,0,0,0-10.27-4.83c-6.05-.2-11.37,3.46-14.95,8.18A12,12,0,0,0,279,81.94a12.28,12.28,0,0,0-11.16,5.26,13.1,13.1,0,0,0-17.36.69c-5.86,5.88-4.83,16,1.27,21.25a17.6,17.6,0,0,0,9.25,4,8.48,8.48,0,0,0,3.3,10,8.25,8.25,0,0,0,9-.5,12.38,12.38,0,0,0,5.28,8,13.77,13.77,0,0,0,9,2,17.18,17.18,0,0,0,4.18-1c1.67-.62,3-1.72,4.6-2.47,1.09-.51,1.44.8,2,1.57a17.19,17.19,0,0,0,3.31,3.29,20.91,20.91,0,0,0,7.8,3.61,24.82,24.82,0,0,0,17.59-2.85,35.85,35.85,0,0,0,7.62-5.74c1.12-1.09,2.12-2.27,3.19-3.41.9-1,2-2.06,3.4-2,1.6.06,3.26.86,4.83,1.17a30.46,30.46,0,0,0,5.13.53,29.13,29.13,0,0,0,10.06-1.56,36.56,36.56,0,0,0,9.12-4.87,90.61,90.61,0,0,0,7.8-6C382.79,109.11,386.16,103.84,385,97.68Z"/><g class="cls-9"><path class="cls-10" d="M385,97.68a16.61,16.61,0,0,0-10.4-12.36l.15.24a22.79,22.79,0,0,1,2.84,13.62c-.66,5.76-4,10.55-8.5,14.11-4.75,3.81-10.56,6.88-16.63,7.79a24.21,24.21,0,0,1-15.94-3,20.34,20.34,0,0,1-11,9.33,25.18,25.18,0,0,1-18.15-1A12.82,12.82,0,0,1,303.5,124a22.84,22.84,0,0,1-2.24-2.85,19.29,19.29,0,0,0-2-2.44l-.11-.15h0c.05.05.05.12,0,0h0l-.19,0a2.25,2.25,0,0,0-.74.12,10.75,10.75,0,0,0-2.68,1.42c-1.06.7-2.08,1.44-3.15,2.12a11.29,11.29,0,0,1-7.56,2.13,7.29,7.29,0,0,1-5.9-3.63,13,13,0,0,1-1.21-3.91c-2.89,1.15-5.93,2.74-8.88,1.28a4.91,4.91,0,0,1-2.13-6.14,10.27,10.27,0,0,1,.93-1.88,21,21,0,0,1-6.77-1.35C254.19,106,250.4,98,251,91a16.7,16.7,0,0,1,.95-4.31,11.69,11.69,0,0,0-1.44,1.21c-5.86,5.88-4.83,16,1.27,21.25a17.6,17.6,0,0,0,9.25,4,8.48,8.48,0,0,0,3.3,10,8.25,8.25,0,0,0,9-.5,12.38,12.38,0,0,0,5.28,8,13.77,13.77,0,0,0,9,2,17.18,17.18,0,0,0,4.18-1c1.67-.62,3-1.72,4.6-2.47,1.09-.51,1.44.8,2,1.57a17.19,17.19,0,0,0,3.31,3.29,20.91,20.91,0,0,0,7.8,3.61,24.82,24.82,0,0,0,17.59-2.85,35.85,35.85,0,0,0,7.62-5.74c1.12-1.09,2.12-2.27,3.19-3.41.9-1,2-2.06,3.4-2,1.6.06,3.26.86,4.83,1.17a30.46,30.46,0,0,0,5.13.53,29.13,29.13,0,0,0,10.06-1.56,36.56,36.56,0,0,0,9.12-4.87,90.61,90.61,0,0,0,7.8-6C382.79,109.11,386.16,103.84,385,97.68Z"/></g><path class="cls-8" d="M387.22,8.2a16.93,16.93,0,0,0-11.06-6.71,1.91,1.91,0,0,0-1.32-.63c-7.13-.47-13.3,5.82-15.6,12.08a13.65,13.65,0,0,0,6.34,16.78c6.37,3.55,14.35,1.87,19.86-2.5a12.61,12.61,0,0,0,5-8.95A15.62,15.62,0,0,0,387.22,8.2Z"/><g class="cls-9"><path class="cls-10" d="M387.84,21.68c-4.21,3.4-9.75,5.76-15.25,5.08a14.23,14.23,0,0,1-12.08-11,14.36,14.36,0,0,1,0-5.58,19.35,19.35,0,0,0-1.25,2.71,13.65,13.65,0,0,0,6.34,16.78c6.37,3.55,14.35,1.87,19.86-2.5a12.78,12.78,0,0,0,4.86-7.9A21.11,21.11,0,0,1,387.84,21.68Z"/></g><path class="cls-11" d="M265.06,220.29a10.84,10.84,0,0,1-19.36,2.8C244.32,221,241,223,242.37,225a14.7,14.7,0,0,0,26.41-3.72C269.54,219,265.82,217.93,265.06,220.29Z"/><path class="cls-11" d="M254.88,233.65a17.16,17.16,0,0,1-14.11-7.54,3.61,3.61,0,0,1,1-5.11,3.92,3.92,0,0,1,5.51,1,8.91,8.91,0,0,0,15.94-2.31h0a3.73,3.73,0,0,1,2.82-2.59,4.07,4.07,0,0,1,3.84,1.21,3.55,3.55,0,0,1,.72,3.58,16.8,16.8,0,0,1-13.3,11.56A15.4,15.4,0,0,1,254.88,233.65Zm7.24-6.27a12.84,12.84,0,0,1-3.44,1.8A12.57,12.57,0,0,0,262.12,227.38Zm4.77-6.5h0Z"/><path class="cls-11" d="M372.09,220.29a10.84,10.84,0,0,0,19.36,2.8c1.38-2.05,4.72-.12,3.33,1.94a14.7,14.7,0,0,1-26.41-3.72C367.61,219,371.33,217.93,372.09,220.29Z"/><path class="cls-11" d="M382.28,233.65a15.43,15.43,0,0,1-2.44-.19,16.8,16.8,0,0,1-13.3-11.56,3.65,3.65,0,0,1,2.43-4.68,3.87,3.87,0,0,1,4.95,2.48h0A8.91,8.91,0,0,0,389.86,222a3.92,3.92,0,0,1,5.51-1,3.61,3.61,0,0,1,1,5.11A17.15,17.15,0,0,1,382.28,233.65Zm-6.92-6a12.4,12.4,0,0,0,3.08,1.56A12.75,12.75,0,0,1,375.36,227.61Zm17.69-3.47h0l-.22.32C392.9,224.35,393,224.25,393.05,224.14Z"/><path class="cls-12" d="M233.75,257.52c-2.54-2.83-5.67-5.65-9.36-6.62a2.17,2.17,0,0,1-1.2-.74c-1.55-.58-3.12-1.1-4.73-1.53-14.77-3.92-32.81-1.56-44.73,8.58a36.44,36.44,0,0,0-7.49,8.83,21.17,21.17,0,0,0-2.05,4.13,20.66,20.66,0,0,0-.66,2.16c0,.11-.09.46-.12.55,0,.28-.08.57-.11.85a15.39,15.39,0,0,0-.05,1.92v.18s0,0,0,.09c0,.3.09.6.15.89s.13.58.21.86c0,.08.13.4.18.54l.21.51c.13.26.26.52.4.77s.3.5.45.75l.1.17.11.12c.34.41.68.83,1,1.22s.47.48.72.71l.28.25,0,0h0c.45.36.91.71,1.38,1a27.6,27.6,0,0,0,3.34,1.93l.05,0,.15.07.49.22.79.34c.61.25,1.23.49,1.86.71,1.36.48,2.75.89,4.15,1.25.75.2,1.52.37,2.28.54l1.16.24.62.11a74.69,74.69,0,0,0,17.35,1l1-.07.29,0,.26,0c.57-.06,1.15-.12,1.72-.2,1.16-.15,2.33-.33,3.49-.53,2.84-.49,5.67-1.09,8.47-1.81a70.81,70.81,0,0,0,9.1-3,47.94,47.94,0,0,0,4.48-2.08c.71-.38,1.41-.77,2.09-1.19.35-.22.7-.44,1-.67l.34-.23.16-.11a23.7,23.7,0,0,0,3.34-2.91,15.79,15.79,0,0,0,2.14-3.09l.06-.1,0-.11.21-.49c.11-.3.22-.61.31-.92s.17-.62.24-.94c0,0,0-.12,0-.19s0-.24.05-.36a10.8,10.8,0,0,0-.24-4C238.66,263.72,236.23,260.29,233.75,257.52Z"/><path class="cls-12" d="M403,258.4c2.47-2.9,5.52-5.8,9.19-6.86a2.2,2.2,0,0,0,1.17-.77,49.28,49.28,0,0,1,4.69-1.66c14.66-4.31,32.76-2.42,44.95,7.4a36.41,36.41,0,0,1,7.71,8.62,20.55,20.55,0,0,1,2.16,4.08,19.92,19.92,0,0,1,.72,2.14c0,.11.11.46.13.55.05.28.1.56.14.85a15.34,15.34,0,0,1,.1,1.92v.17s0,0,0,.1c0,.3-.07.59-.12.89a8.23,8.23,0,0,1-.19.86c0,.08-.12.41-.16.55l-.21.51c-.11.27-.24.53-.37.79s-.28.5-.43.75l-.1.17-.1.13c-.33.42-.66.85-1,1.25s-.46.49-.7.72l-.27.26,0,0h0c-.44.37-.89.74-1.36,1.08a28.85,28.85,0,0,1-3.28,2l-.06,0-.14.07-.48.24-.79.36c-.6.26-1.22.51-1.83.75-1.35.52-2.73,1-4.12,1.37-.75.21-1.51.41-2.27.59-.38.1-.77.19-1.15.27l-.62.13a74,74,0,0,1-17.32,1.45l-1-.05h-.28l-.27,0c-.57,0-1.15-.09-1.72-.15-1.17-.13-2.34-.28-3.5-.44q-4.29-.61-8.52-1.59a72.55,72.55,0,0,1-9.18-2.7,46.61,46.61,0,0,1-4.53-2c-.72-.35-1.43-.73-2.12-1.13l-1.06-.64-.34-.22-.16-.11a23.74,23.74,0,0,1-3.42-2.82,16.31,16.31,0,0,1-2.23-3l-.05-.1-.05-.11-.22-.49q-.18-.45-.33-.9c-.11-.31-.19-.62-.27-.94,0,0,0-.12,0-.19l-.06-.36a10.67,10.67,0,0,1,.13-4C398.21,264.73,400.54,261.23,403,258.4Z"/><path class="cls-13" d="M370.4,285a53.13,53.13,0,0,0-103.67,2,1.91,1.91,0,0,0,.62,1.87,1.84,1.84,0,0,0-.2,2.2,63.78,63.78,0,0,0,39.69,24.13A63,63,0,0,0,370,286.94a3.37,3.37,0,0,0,.4-1.92Zm-38.22,25.21a59.23,59.23,0,0,1-61.7-21.13,3.92,3.92,0,0,0-.34-.37,1.83,1.83,0,0,0,.31-.72c0-.11.05-.22.07-.33A39.91,39.91,0,0,0,286,296.49a87.1,87.1,0,0,0,20.18,3.82,101.45,101.45,0,0,0,41-5.21,100.16,100.16,0,0,0,18.33-8.46A59.91,59.91,0,0,1,332.18,310.23Z"/><path class="cls-1" d="M369.38,281.41a80.56,80.56,0,0,1-15.13,7.26,130.11,130.11,0,0,1-50.2,7.6c-12.67-.53-28.76-3.31-35.94-14.58a50.75,50.75,0,0,0-1.38,5.29,1.91,1.91,0,0,0,.62,1.87,1.84,1.84,0,0,0-.2,2.2,63.78,63.78,0,0,0,39.69,24.13A63,63,0,0,0,370,286.94a3.37,3.37,0,0,0,.4-1.92C370.11,283.8,369.76,282.6,369.38,281.41Z"/></g></g></svg>