<svg xmlns="http://www.w3.org/2000/svg" viewBox="0 0 656.12 850"><defs><style>.cls-1{fill:#be8073;}.cls-2{fill:#dfa48f;}.cls-3{opacity:0.25;}.cls-4{fill:#754e4e;}.cls-5{fill:#d8aa7a;}.cls-6{fill:#b1776c;}.cls-7{opacity:0.35;}.cls-8{fill:#a06362;}.cls-9{fill:#593b3b;}.cls-10{fill:#abb436;}.cls-11{opacity:0.45;}.cls-12{fill:#71893b;}.cls-13{fill:#bc736c;}.cls-14{fill:#473636;}</style></defs><g id="Layer_2" data-name="Layer 2"><g id="Deer"><path class="cls-1" d="M166.53,183c-16.32,17.34-41.36,20.95-64,19.19-13.2-1-26.09-4-39.18-5.74-11.73-1.58-23.94-1.78-35.07,2.8-10.12,4.17-18,11.9-21.22,22.53-3.47,11.62-.92,24,4.39,34.64,9.44,18.91,27.07,32.55,46.44,40.25,23,9.14,48.49,9.51,72.71,6.21,2.91-.39,5.82-.85,8.71-1.35a2.16,2.16,0,0,0,4.08-1.39,158.69,158.69,0,0,1,.2-46.06,163.15,163.15,0,0,1,13.25-44.27,160.08,160.08,0,0,1,13-22.82,1.82,1.82,0,0,0,.26-1.71C170.76,183.36,168.21,181.21,166.53,183Zm-29,91.5a162.17,162.17,0,0,0,1.16,22.79c-23.91,4.16-49.09,5.14-72.49-2.21-19-6-36.86-17.73-47.64-34.77-6-9.43-10-20.67-8.55-32a32.18,32.18,0,0,1,4-12c9.8,14.39,25,24.44,41.37,29.87a119.22,119.22,0,0,0,31.46,5.53c10.57.53,21.52.28,31.94-1.71,8.66-1.67,17.1-5.2,23.42-11.3A167.36,167.36,0,0,0,137.53,274.49Z"/><path class="cls-2" d="M147.33,236.07c-.74.47-1.49.9-2.25,1.33a1.91,1.91,0,0,0-1.48.27,62.82,62.82,0,0,1-5.52,3,73.52,73.52,0,0,1-7.64,2.54c-10.48,2.87-21.47,3.91-32.31,4.09a162,162,0,0,1-32.33-2.24,82,82,0,0,1-31.68-12.86A89.88,89.88,0,0,1,12.7,210.78a33.36,33.36,0,0,0-5.67,11c-3.47,11.62-.92,24,4.39,34.64,9.44,18.91,27.07,32.55,46.44,40.25,23,9.14,48.49,9.51,72.71,6.21,2.91-.39,5.82-.85,8.71-1.35a2.16,2.16,0,0,0,4.08-1.39,158.69,158.69,0,0,1,.2-46.06q1-6.49,2.5-12.9a2,2,0,0,0,.57-2.35C146.86,237.9,147.08,237,147.33,236.07Z"/><g class="cls-3"><path class="cls-4" d="M166.53,183a56.5,56.5,0,0,1-18.11,12.75s0,.08,0,.12q-4.47,11.76-9.83,23.17c-10.82,23.08-24,45.47-41.3,64.31a135,135,0,0,1-21,18.75c17.78,3.64,36.39,3.23,54.31.78,2.91-.39,5.82-.85,8.71-1.35a2.16,2.16,0,0,0,4.08-1.39,158.69,158.69,0,0,1,.2-46.06,163.15,163.15,0,0,1,13.25-44.27,160.08,160.08,0,0,1,13-22.82,1.82,1.82,0,0,0,.26-1.71C170.76,183.36,168.21,181.21,166.53,183Z"/></g><path class="cls-1" d="M590.13,221.77c-3.17-10.63-11.1-18.36-21.22-22.53-11.13-4.58-23.33-4.38-35.07-2.8-13.09,1.77-26,4.72-39.18,5.74-22.67,1.76-47.71-1.85-64-19.19a1.87,1.87,0,0,0-1.82-.62c-1.6-.26-3.41,1.39-2.3,3.15,8.22,13,16.59,26.14,21.64,40.73,5.33,15.43,5.6,31.6,5.45,47.75-.08,9.22-.22,18.45.5,27.64.22,2.75,4.52,2.77,4.3,0v0c2.72.46,5.45.89,8.19,1.26,24.22,3.3,49.72,2.93,72.71-6.21,19.37-7.7,37-21.34,46.44-40.25C591.05,245.77,593.6,233.39,590.13,221.77ZM578.6,260.3c-10.78,17-28.62,28.79-47.64,34.77-23.48,7.37-48.76,6.36-72.74,2.17h-.09c-.78-15.22.43-30.48-.68-45.69-.29-4-.75-7.93-1.43-11.85,6.19,5.5,14.17,8.75,22.35,10.32,10.43,2,21.37,2.24,31.94,1.71a119.22,119.22,0,0,0,31.46-5.53c16.42-5.43,31.57-15.48,41.37-29.87a32.18,32.18,0,0,1,4,12C588.6,239.63,584.57,250.87,578.6,260.3Z"/><path class="cls-2" d="M590.13,221.77a33.1,33.1,0,0,0-5.62-10.92,79.89,79.89,0,0,0-7.33,8.46c-1.67,2-3.34,4.05-5.18,5.92a55.32,55.32,0,0,1-6.61,5.51c-16.56,12.25-37.7,17.93-58,19.63-20,1.67-39-5-56.5-14.16,2.66,12.36,2.82,25.08,2.7,37.79-.08,9.22-.22,18.45.5,27.64.22,2.75,4.52,2.77,4.3,0v0c2.72.46,5.45.89,8.19,1.26,24.22,3.3,49.72,2.93,72.71-6.21,19.37-7.7,37-21.34,46.44-40.25C591.05,245.77,593.6,233.39,590.13,221.77ZM457.85,285.35c0-8.94.24-17.89-.05-26.82A98.72,98.72,0,0,1,457.85,285.35Z"/><g class="cls-3"><path class="cls-4" d="M518.45,301.53c-18.61-11.26-33.23-28.46-44.65-46.74a198.19,198.19,0,0,1-24.57-57.2,2.6,2.6,0,0,1,.08-1.6,56.5,56.5,0,0,1-18.68-13,1.87,1.87,0,0,0-1.82-.62c-1.6-.26-3.41,1.39-2.3,3.15,8.22,13,16.59,26.14,21.64,40.73,5.33,15.43,5.6,31.6,5.45,47.75-.08,9.22-.22,18.45.5,27.64.22,2.75,4.52,2.77,4.3,0v0c2.72.46,5.45.89,8.19,1.26,17.54,2.39,35.74,2.84,53.18-.56C519.33,302.05,518.89,301.8,518.45,301.53Z"/></g><path class="cls-5" d="M248.21,109.84a9.37,9.37,0,0,0-6.77-3.08,65.49,65.49,0,0,0-8.52.14q-4.46.21-8.89.62c-6,.56-12.05,1.4-18,2.48a117.54,117.54,0,0,1-19.77-25.92c-1.36-2.41-2.61-4.88-3.78-7.38a31,31,0,0,0,11.48.56c5.53-.76,11.37-3,15.41-7,2.07-2,3.75-4.77,3.63-7.75a8.21,8.21,0,0,0-4-6.5,17.4,17.4,0,0,0-7.3-2.29c-3.05-.38-6.13-.48-9.2-.57-6.34-.19-13-.26-18.83-3a125.3,125.3,0,0,1-2.11-32c.25-4.43.34-9.49-2.14-13.37A10.92,10.92,0,0,0,156.92.51c-10.68,3.13-13,16.54-14.32,26a98.35,98.35,0,0,0-.93,11.86A126.81,126.81,0,0,0,126.2,38c-2.91.11-5.81.31-8.7.63-2.6.28-5.31.64-7.52,2.15a7.68,7.68,0,0,0-3.57,5.95,8.22,8.22,0,0,0,3,6.3,15.37,15.37,0,0,0,7,3.08c2.77.61,5.55,1.13,8.34,1.65q9.42,1.78,18.91,3.21a122,122,0,0,0,10.86,32c.12.26.26.51.39.76-9.53,1.55-19.87,4.1-25.59,12.51-1.4,2.06-2.24,4.8-1.11,7.17s3.73,3.31,6.17,3.7c6,.94,11.92-.27,17.8-1.38,5.36-1,11.3-2,16.58-.13a178.48,178.48,0,0,0,26,27.23c2.05,1.75,4.14,3.46,6.25,5.13a2.71,2.71,0,0,0,1.46.6,2.17,2.17,0,0,0,2.63-.2,107,107,0,0,1,23.45-15.41,1.92,1.92,0,0,0,1-1.42,2.13,2.13,0,0,0-.21-3.52l-1.23-.76a73.43,73.43,0,0,0,15.48-6.06c2.08-1.1,4.36-2.37,5.5-4.53A6.1,6.1,0,0,0,248.21,109.84Z"/><g class="cls-3"><path class="cls-4" d="M248.32,117.63a2.15,2.15,0,0,0-.14-.26l-.06-.09-.48-.49-.06-.06h0a12.07,12.07,0,0,0-1.25-.74l-.24-.13-.19-.06-.65-.23c-.44-.14-.9-.26-1.36-.37a14,14,0,0,0-2.72-.39,20.4,20.4,0,0,0-6.16.49,70.4,70.4,0,0,0-16.36,6.55,89.54,89.54,0,0,0-25.34,19.75c.46.4.91.81,1.37,1.2,2.05,1.75,4.14,3.46,6.25,5.13a2.71,2.71,0,0,0,1.46.6,2.17,2.17,0,0,0,2.63-.2,107,107,0,0,1,23.45-15.41,1.92,1.92,0,0,0,1-1.42,2.13,2.13,0,0,0-.21-3.52l-1.23-.76a73.43,73.43,0,0,0,15.48-6.06A14.64,14.64,0,0,0,248.32,117.63Z"/></g><path class="cls-5" d="M487.73,40.77c-2.21-1.51-4.92-1.87-7.52-2.15-2.89-.32-5.79-.52-8.7-.63a126.81,126.81,0,0,0-15.47.38,100.43,100.43,0,0,0-.93-11.86c-1.32-9.46-3.64-22.87-14.32-26a10.91,10.91,0,0,0-12.52,4.32c-2.48,3.88-2.39,8.94-2.14,13.37a124.86,124.86,0,0,1-2.12,32c-5.85,2.72-12.48,2.79-18.82,3-3.08.09-6.15.19-9.2.57a17.36,17.36,0,0,0-7.3,2.29,8.25,8.25,0,0,0-4,6.5c-.12,3,1.57,5.74,3.63,7.75,4,4,9.89,6.21,15.42,7a31,31,0,0,0,11.48-.56c-1.17,2.5-2.42,5-3.78,7.38A117.54,117.54,0,0,1,391.7,110c-6-1.08-12-1.92-18-2.48-3-.27-5.93-.48-8.89-.62a65.49,65.49,0,0,0-8.52-.14,9.37,9.37,0,0,0-6.77,3.08,6.1,6.1,0,0,0-.79,6.78c1.14,2.16,3.42,3.43,5.5,4.53a73.06,73.06,0,0,0,15.47,6.06l-1.22.76a2.05,2.05,0,0,0-.93,1.09c-1.06.89-1.37,2.66.22,3.42a142.34,142.34,0,0,1,25.17,15.42,1.66,1.66,0,0,0,1.18.31,2.31,2.31,0,0,0,2.7-.29c2.11-1.67,4.2-3.38,6.25-5.13a178.48,178.48,0,0,0,26-27.23c5.28-1.84,11.22-.87,16.57.13,5.88,1.11,11.82,2.32,17.81,1.38,2.44-.39,5-1.32,6.16-3.7s.3-5.11-1.11-7.17c-5.71-8.41-16.05-11-25.58-12.51.13-.25.27-.5.39-.76a122.34,122.34,0,0,0,10.86-32q9.48-1.44,18.91-3.21c2.78-.52,5.57-1,8.33-1.65a15.41,15.41,0,0,0,7-3.08,8.22,8.22,0,0,0,3-6.3A7.68,7.68,0,0,0,487.73,40.77Z"/><g class="cls-3"><path class="cls-4" d="M379.39,117.73a55.13,55.13,0,0,0-19.57-3.24,29.8,29.8,0,0,0-8.59,1.37,24.4,24.4,0,0,0-2.45.88c1.17,2.08,3.39,3.33,5.43,4.41a73.06,73.06,0,0,0,15.47,6.06l-1.22.76a2.05,2.05,0,0,0-.93,1.09c-1.06.89-1.37,2.66.22,3.42a142.34,142.34,0,0,1,25.17,15.42,1.66,1.66,0,0,0,1.18.31,2.31,2.31,0,0,0,2.7-.29c2.11-1.67,4.2-3.38,6.25-5.13q3.75-3.21,7.35-6.62A84.82,84.82,0,0,0,379.39,117.73Z"/></g><path class="cls-6" d="M652.75,535.93a2.29,2.29,0,0,0-2.67.36A20.36,20.36,0,0,1,635.81,538a40.81,40.81,0,0,0,19.07-45.49,2,2,0,0,0-.91-1.26,2.18,2.18,0,0,0-2.67-.57,110.71,110.71,0,0,1-72.83,7.61,106.85,106.85,0,0,1-20.06-6.9,2.57,2.57,0,0,0-1.46-.22,1.94,1.94,0,0,0-1.38.25,2.17,2.17,0,0,0-.77,2.94,124.77,124.77,0,0,1,21.61,44.12,2.21,2.21,0,0,0,.87,2.73,73.58,73.58,0,0,0,30.64,13.35c11.12,2,23.81,2.2,34-3.38a26.25,26.25,0,0,0,11.62-12.28A2.23,2.23,0,0,0,652.75,535.93Z"/><path class="cls-1" d="M580.14,542.66c-5.13-25.15-17-49.84-37.35-67C519.71,456.2,489.05,450.6,461.27,440c-3.63-1.39-7.22-2.89-10.74-4.52-2.56-1.18-4.8,2.48-2.24,3.67l.2.08q-5.75,25.88-9.12,52.2-3.44,26.69-4.4,53.6t.54,54q1.5,26.9,5.46,53.57t10.33,52.77q.79,3.25,1.63,6.5a2,2,0,0,0,2.64,1.42l10.68,89.54q1.53,12.79,3.05,25.59a2.28,2.28,0,0,0,1.78,2.11c13.3,9.09,30.67,11.59,46.11,7.25a52.83,52.83,0,0,0,12.63-5.41,2,2,0,0,0,1-1.37,2.09,2.09,0,0,0,.38-1,740.88,740.88,0,0,1,17.59-101.7c8.06-32.79,19.54-64.72,27.23-97.59C582.77,601.79,586.13,572,580.14,542.66Zm-52,274.81q-.69,5.81-1.28,11.62a51.78,51.78,0,0,1-42.63,3.4,48.12,48.12,0,0,1-10.82-5.55l-4.8-40.24a81.87,81.87,0,0,0,47.77,16.44,78.17,78.17,0,0,0,13.75-1C529.44,807.23,528.76,812.34,528.16,817.47Z"/><g class="cls-7"><path class="cls-8" d="M580.14,542.66c-5.13-25.15-17-49.84-37.35-67C519.71,456.2,489.05,450.6,461.27,440c-3.63-1.39-7.22-2.89-10.74-4.52-2.56-1.18-4.8,2.48-2.24,3.67l.2.08q-5.75,25.88-9.12,52.2-3.44,26.69-4.4,53.6t.54,54q1.5,26.9,5.46,53.57t10.33,52.77q.79,3.25,1.63,6.5a2,2,0,0,0,2.64,1.42l10.68,89.54q1.53,12.79,3.05,25.59a2.28,2.28,0,0,0,1.78,2.11c13.3,9.09,30.67,11.59,46.11,7.25a52.83,52.83,0,0,0,12.63-5.41,2,2,0,0,0,1-1.37,2.09,2.09,0,0,0,.38-1,740.88,740.88,0,0,1,17.59-101.7c8.06-32.79,19.54-64.72,27.23-97.59C582.77,601.79,586.13,572,580.14,542.66Zm-52,274.81q-.69,5.81-1.28,11.62a51.78,51.78,0,0,1-42.63,3.4,48.12,48.12,0,0,1-10.82-5.55l-4.8-40.24a81.87,81.87,0,0,0,47.77,16.44,78.17,78.17,0,0,0,13.75-1C529.44,807.23,528.76,812.34,528.16,817.47Z"/></g><path class="cls-9" d="M525,800.18a66.51,66.51,0,0,1-36.95-4.45A121.08,121.08,0,0,1,472.11,787a92.17,92.17,0,0,1-8.44-5.74l2.58,21.63q1.53,12.79,3.05,25.59a2.28,2.28,0,0,0,1.78,2.11c13.3,9.09,30.67,11.59,46.11,7.25a52.83,52.83,0,0,0,12.63-5.41,2,2,0,0,0,1-1.37,2.09,2.09,0,0,0,.38-1q1.65-16.14,4-32.21A75.87,75.87,0,0,1,525,800.18Z"/><path class="cls-8" d="M360.9,711.15q-1.77-13.92-4.12-27.76a2.17,2.17,0,0,0-2.64-1.51,2.11,2.11,0,0,0-.91.53,1.52,1.52,0,0,0-.46.1,163.53,163.53,0,0,1-51.85,11.43,2.22,2.22,0,0,0-2,2.68,3,3,0,0,0-.09,1.28q6.72,45.69,13.42,91.37,1.91,13,3.82,26a1.8,1.8,0,0,0,1.13,1.34,2,2,0,0,0,1,1,47.44,47.44,0,0,0,26.49,4.59,2.82,2.82,0,0,0,.86-.24A28.82,28.82,0,0,0,364,813.42a2.06,2.06,0,0,0,1.82-2A653.22,653.22,0,0,0,360.9,711.15Zm.69,98.64-.13.11a24.47,24.47,0,0,1-16.92,7.82,2.17,2.17,0,0,0-1,.27,43.31,43.31,0,0,1-23.26-4.1l-.16-.06q-1.44-9.83-2.89-19.65A70,70,0,0,0,347,783.11a2.13,2.13,0,0,0,.51-.48,1,1,0,0,0,.23-.11,70.53,70.53,0,0,0,13.67-11.41q.21,6.12.31,12.25Q361.93,796.58,361.59,809.79Z"/><path class="cls-9" d="M358.74,769.93A69.7,69.7,0,0,1,348,779.29a93,93,0,0,1-11.37,6.46c-7.21,3.6-15.58,7.26-23.86,7Q314.37,804,316,815.3a1.8,1.8,0,0,0,1.13,1.34,2,2,0,0,0,1,1,47.44,47.44,0,0,0,26.49,4.59,2.82,2.82,0,0,0,.86-.24A28.82,28.82,0,0,0,364,813.42a2.06,2.06,0,0,0,1.82-2q.67-24.45-.49-48.88C363.2,765,361,767.53,358.74,769.93Z"/><path class="cls-1" d="M466.33,531.64a404.61,404.61,0,0,0-22.43-76.76,2.17,2.17,0,0,0-.71-.95,2,2,0,0,0-2.06-1.91H164.58a2.06,2.06,0,0,0-2.07,2.34,2.34,2.34,0,0,0-.29.52A407.69,407.69,0,0,0,197.89,828q2.52,3.9,5.12,7.72a2.17,2.17,0,0,0,1,.84,2.08,2.08,0,0,0,.57.87c11.4,10.76,28.15,14.86,43.35,11.38a44.34,44.34,0,0,0,11.6-4.48,2,2,0,0,0,2-2.07V693.67a220.39,220.39,0,0,0,81.85-1.2l1.11-.24a2.71,2.71,0,0,0,0,.41v149.6a2,2,0,0,0,2,2.07,44.41,44.41,0,0,0,11.61,4.48c15.2,3.48,31.94-.62,43.35-11.38a2.05,2.05,0,0,0,.56-.87,2.17,2.17,0,0,0,1-.84q2.59-3.83,5.12-7.72a410.24,410.24,0,0,0,57.07-140,403.43,403.43,0,0,0,8.1-77.1A410.15,410.15,0,0,0,466.33,531.64Zm-209,309a43.75,43.75,0,0,1-39.79.55,40.65,40.65,0,0,1-9.85-6.83,2.23,2.23,0,0,0-.73-.46,2.81,2.81,0,0,0-.2-.38q-8.74-12.87-16.45-26.39a88.42,88.42,0,0,0,55.76-7,82,82,0,0,0,11.26-6.55Zm142.09-7.12a2.81,2.81,0,0,0-.2.38,2.19,2.19,0,0,0-.72.46,40.71,40.71,0,0,1-9.86,6.83,43.75,43.75,0,0,1-39.79-.55v-47a83.19,83.19,0,0,0,11.26,6.55,88.43,88.43,0,0,0,55.76,7Q408.12,820.64,399.39,833.53Z"/><g class="cls-3"><path class="cls-4" d="M151.93,513.13c14.54-18.43,32-34.28,50.84-48.26Q212,458,221.62,452h-57a2.06,2.06,0,0,0-2.07,2.34,2.34,2.34,0,0,0-.29.52,405.41,405.41,0,0,0-22,74.61Q145.68,521,151.93,513.13Z"/></g><path class="cls-9" d="M409.36,805.22A124.13,124.13,0,0,1,387.48,804a103.71,103.71,0,0,1-19.76-4.54,142.32,142.32,0,0,1-16.46-7.34,46.6,46.6,0,0,1-6.74-4v54.21a2,2,0,0,0,2,2.07,44.41,44.41,0,0,0,11.61,4.48c15.2,3.48,31.94-.62,43.35-11.38a2.05,2.05,0,0,0,.56-.87,2.17,2.17,0,0,0,1-.84q2.59-3.83,5.12-7.72,7.56-11.68,14.27-23.88C418.13,804.56,413.76,805.08,409.36,805.22Z"/><path class="cls-9" d="M246.84,797.54c-13.24,5.22-27.72,9.1-42,9a116.45,116.45,0,0,1-17.55-1.77c-1.17-.18-2.4-.4-3.63-.69q6.72,12.17,14.26,23.86,2.52,3.9,5.12,7.72a2.17,2.17,0,0,0,1,.84,2.08,2.08,0,0,0,.57.87c11.4,10.76,28.15,14.86,43.35,11.38a44.34,44.34,0,0,0,11.6-4.48,2,2,0,0,0,2-2.07V790.72A138.92,138.92,0,0,1,246.84,797.54Z"/><path class="cls-10" d="M457.05,455.56a54.48,54.48,0,0,0-12.33-28,53.57,53.57,0,0,0-11.28-10.13c3.74-6.35,6.7-13.26,5.45-20.77-1.36-8.19-7.54-14.68-13.78-19.67a2.21,2.21,0,0,0-2.93-.09,1.78,1.78,0,0,0-2.08.07A226.36,226.36,0,0,1,378.93,399,230.14,230.14,0,0,1,334,412.17a221.83,221.83,0,0,1-47.29,3.56,227,227,0,0,1-92.61-23c-1.8-.88-3.59-1.8-5.37-2.73a2.06,2.06,0,0,0-2.32.21,1,1,0,0,0-.17-.11c-7.12-3.3-15.79-.84-20.61,5.27-5.29,6.71-5.78,16-2.89,23.84a41.37,41.37,0,0,0,5.63,10.19c-6.81,4-13.18,8.94-17.57,15.61-4.62,7-6.7,16-3.77,24.13.24.67.52,1.31.82,1.95a223.13,223.13,0,0,0-67.31,31.36,284.17,284.17,0,0,0-57.18,52.2Q17.2,562,11.46,569.69q-2.91,3.91-5.69,7.9c-2,2.86-4.09,5.77-5.17,9.13-1.9,5.91.73,13.63,7.72,14.1,3.69.24,7.36-1.58,10.74-2.83l11.27-4.18c2.15-.79,6.39-3.15,8-.28,1.15,2.12.81,5,.55,7.26A151.8,151.8,0,0,0,38,625c.31,6.27.25,14.63,6.55,18.15,5.88,3.28,12.78.82,17.59-3.16a67.91,67.91,0,0,0,7.07-7.32q3.54-4,7.28-7.75,7.29-7.42,15.23-14.17a228.91,228.91,0,0,1,34.72-24.31c2.28-1.3,4.58-2.54,6.89-3.76,0-.48.11-1,.16-1.44a2.24,2.24,0,0,0,.15-.7c0-.58.07-1.16.11-1.74l.12-1.13h-.06q.6-9.51,1.67-19,2.91-20.19,7.12-40.17a331.32,331.32,0,0,1,9-33.8,2.22,2.22,0,0,0,.1-.61l.12-.36a2.2,2.2,0,0,0,.1-.55L152,483a2.12,2.12,0,0,0,.31-.62l1.17-3.91,0,0c.3-1,.62-1.94,1-2.92.16-.44.33-.88.49-1.33a.89.89,0,0,0,.08-.17q3.23-9.27,7.19-18.25c17-8.17,36.08,2.08,51.15,10A430.68,430.68,0,0,0,267.59,490a312.51,312.51,0,0,0,57.76,15.11,252.59,252.59,0,0,0,60.55,2.43A218.9,218.9,0,0,0,415.7,503c9.41-2.14,19.11-4.64,27.66-9.2a45.76,45.76,0,0,0,5.89-3.74,2.61,2.61,0,0,0,.95-1.25,1.94,1.94,0,0,0,1-.94A54.82,54.82,0,0,0,457.05,455.56Z"/><g class="cls-11"><path class="cls-12" d="M147.61,470.44c.09.21.17.42.26.62a223.13,223.13,0,0,0-67.31,31.36,284.17,284.17,0,0,0-57.18,52.2Q17.2,562,11.46,569.69q-2.91,3.91-5.69,7.9c-2,2.86-4.09,5.77-5.17,9.13-1.9,5.91.73,13.63,7.72,14.1,3.69.24,7.36-1.58,10.74-2.83l11.27-4.18c2.15-.79,6.39-3.15,8-.28,1.15,2.12.81,5,.55,7.26A151.8,151.8,0,0,0,38,625c.31,6.27.25,14.63,6.55,18.15,5.88,3.28,12.78.82,17.59-3.16a67.91,67.91,0,0,0,7.07-7.32q3.54-4,7.28-7.75,7.29-7.42,15.23-14.17a228.91,228.91,0,0,1,34.72-24.31c2.28-1.3,4.58-2.54,6.89-3.76,0-.48.11-1,.16-1.44a2.24,2.24,0,0,0,.15-.7c0-.58.07-1.16.11-1.74l.12-1.13h-.06q.6-9.51,1.67-19,2.91-20.19,7.12-40.17a331.32,331.32,0,0,1,9-33.8,2.22,2.22,0,0,0,.1-.61l.12-.36a2.2,2.2,0,0,0,.1-.55L152,483a2.12,2.12,0,0,0,.31-.62l1.17-3.91,0,0c.19-.61.39-1.21.59-1.82A24.24,24.24,0,0,1,147.61,470.44Z"/></g><path class="cls-1" d="M298.82,442.19c-88.92,0-161.26-73.8-161.26-164.53S209.9,113.13,298.82,113.13s161.26,73.81,161.26,164.53S387.74,442.19,298.82,442.19Z"/><path class="cls-13" d="M219.16,391a68.85,68.85,0,0,0,7.36-17.39c.41-1.49.77-3,1.08-4.52.17-.84.33-1.68.47-2.52l.15-1c0-.17.05-.34.08-.51V365a.39.39,0,0,1,0-.09,59.86,59.86,0,0,0,.46-9.08c0-1.49-.15-3-.32-4.48,0-.05-.05-.4-.06-.52s0-.16,0-.19c-.05-.36-.11-.71-.17-1.07-.12-.7-.25-1.4-.4-2.1a40.91,40.91,0,0,0-1.1-4.08c-.22-.71-.47-1.4-.73-2.09l-.33-.82c0-.07-.25-.58-.3-.68a37.86,37.86,0,0,0-2-3.79c-.36-.59-.74-1.18-1.13-1.75-.22-.32-.44-.64-.67-.95l-.35-.47a35.32,35.32,0,0,0-2.82-3.16c-.54-.54-1.1-1.05-1.67-1.55l-.74-.63-.68-.54a41.46,41.46,0,0,0-17.76-7.54c-7.57-1.47-15.93-.39-23.5,2a55,55,0,0,0-21.93,12.68,38.74,38.74,0,0,0-3.38,3.77,165.1,165.1,0,0,0,54.11,71.95A64,64,0,0,0,219.16,391Z"/><path class="cls-13" d="M456.08,313.1l-.14-.06-.14-.06-.7-.28c-.8-.31-1.6-.61-2.4-.89-1.9-.67-3.82-1.25-5.77-1.76a79.8,79.8,0,0,0-22.67-2.65c-1.82,0-3.63.14-5.43.32l-1.38.16h-.19l-.44.07c-.79.12-1.58.25-2.36.41a37,37,0,0,0-4.29,1.12c-.35.12-.7.24-1.05.38l-.51.19h0c-.52.23-1,.47-1.52.74A48.91,48.91,0,0,0,390.94,326a55.76,55.76,0,0,0-8.7,20.58c-.21,1-.39,2-.55,3-.06.37-.12.75-.17,1.12,0,.06-.1.77-.12.91q-.31,2.81-.38,5.62c0,1.85,0,3.7.14,5.55.07.89.16,1.78.26,2.67,0,0,.05.33.06.44s0,.35.08.53c.06.4.12.8.19,1.19a52.87,52.87,0,0,0,2.84,10l.15.37,0,.06c.1.21.19.42.28.64l.49,1.05c.37.76.76,1.51,1.17,2.24a39,39,0,0,0,2.72,4.23l.29.39c.06.09.22.29.25.33l.72.87c.54.63,1.1,1.25,1.68,1.85s1.29,1.27,2,1.87l.87.74.61.5a36.13,36.13,0,0,0,4.26,2.77c.79.44,1.6.84,2.42,1.22l.61.27.07,0c.45.19.9.36,1.35.53,1.15.41,2.32.76,3.49,1.06a165.3,165.3,0,0,0,48.26-85.42Z"/><path class="cls-14" d="M238.07,267.55a12.09,12.09,0,0,1-21.61,3.12c-1.54-2.28-5.27-.13-3.72,2.17a16.41,16.41,0,0,0,29.48-4.14C243.07,266.05,238.92,264.92,238.07,267.55Z"/><path class="cls-14" d="M226.7,282.46A19.12,19.12,0,0,1,211,274.05a4,4,0,0,1,1.13-5.7,4.38,4.38,0,0,1,6.15,1.12A9.94,9.94,0,0,0,236,266.89h0a4.17,4.17,0,0,1,3.15-2.88,4.57,4.57,0,0,1,4.29,1.34,4,4,0,0,1,.8,4,18.8,18.8,0,0,1-14.84,12.91A19.26,19.26,0,0,1,226.7,282.46Zm8-6.94a14.38,14.38,0,0,1-3.68,1.93A13.78,13.78,0,0,0,234.71,275.52Zm5.4-7.31h0Z"/><path class="cls-14" d="M357.51,267.55a12.09,12.09,0,0,0,21.61,3.12c1.54-2.28,5.27-.13,3.71,2.17a16.41,16.41,0,0,1-29.47-4.14C352.51,266.05,356.66,264.92,357.51,267.55Z"/><path class="cls-14" d="M368.88,282.46a19,19,0,0,1-2.72-.2,18.8,18.8,0,0,1-14.85-12.91,4.08,4.08,0,0,1,2.72-5.22,4.33,4.33,0,0,1,5.52,2.76h0a9.95,9.95,0,0,0,17.79,2.58,4.38,4.38,0,0,1,6.15-1.12,4,4,0,0,1,1.12,5.7A19.1,19.1,0,0,1,368.88,282.46Zm-7.66-6.69a14,14,0,0,0,3.3,1.67A14.42,14.42,0,0,1,361.22,275.77Zm19.68-3.92h0a4,4,0,0,1-.23.34Z"/><path class="cls-14" d="M321.81,347.45a2.24,2.24,0,0,0-2.94.73,10.53,10.53,0,0,1-9.6,5.58,10.34,10.34,0,0,1-8.84-5.69V316.66c0-2.6-4.3-2.6-4.3,0v31.6a1.55,1.55,0,0,0,0,.43v.13a.91.91,0,0,0-.11.16,9.11,9.11,0,0,1-16.09.43c-1.3-2.3-5-.26-3.71,2a13.58,13.58,0,0,0,12,6.63,13.77,13.77,0,0,0,10.36-5.29,14.73,14.73,0,0,0,24-2.57A2,2,0,0,0,321.81,347.45Z"/><path class="cls-14" d="M287.82,360.24a15.75,15.75,0,0,1-13.48-7.73,4,4,0,0,1-.29-3.42,4.37,4.37,0,0,1,2-2.24,4.46,4.46,0,0,1,3-.53,4,4,0,0,1,2.81,2,7.1,7.1,0,0,0,6.39,3.52,7,7,0,0,0,5.78-3.62.62.62,0,0,1,0-.13V316.66a4,4,0,0,1,1.47-3.14,4.52,4.52,0,0,1,2.83-1,4.11,4.11,0,0,1,4.3,4.1v30.91a8.22,8.22,0,0,0,14.38-.39,3.93,3.93,0,0,1,2.42-1.94,4.53,4.53,0,0,1,3.47.33,4.13,4.13,0,0,1,1.64,5.64,16.87,16.87,0,0,1-25.77,4.69,16,16,0,0,1-10.38,4.33Zm10.05-10.16c-.08.17-.18.34-.27.5l.9-1.19.49.56c-.19-.32-.36-.65-.52-1l-.19-.42v.94Zm-.06.08h0Zm.14-.22h0Zm.32-1.46v0Z"/><path class="cls-9" d="M334.63,303.71c-1.27-4-6.47-8-11.67-10.76A34.08,34.08,0,0,0,306.74,289a6,6,0,0,0-1.86-.22c-13.48.3-28.12,1.21-36.8,7.73-7.61,5.71-4.32,13.21,5.13,17.52,11.35,5.18,26.61,4.48,40,2.6C324.33,315.1,337,311.34,334.63,303.71Z"/></g></g></svg>