<svg xmlns="http://www.w3.org/2000/svg" viewBox="0 0 612.55 850"><defs><style>.cls-1{fill:#969696;}.cls-2{fill:#646464;}.cls-3{opacity:0.45;}.cls-4{fill:#333;}.cls-5{fill:#777;}.cls-6{fill:#ec2e3e;}.cls-7{fill:#fffbfa;}.cls-8{fill:#f7f7ed;}.cls-9{fill:#505051;}.cls-10{fill:#473636;}.cls-11{fill:#443932;}.cls-12{fill:#feddd6;}</style></defs><g id="Layer_2" data-name="Layer 2"><g id="Raccoon"><path class="cls-1" d="M611.38,308.81c-2-10.62-6.75-20.94-14.36-28.68a46.18,46.18,0,0,0-28.91-13.25c-23.21-2.19-44.2,10.16-59.72,26.42-8.23,8.63-15.29,18.31-22,28.14-7.09,10.39-13.72,21.1-19.93,32A591.5,591.5,0,0,0,433.53,422c-9.6,23.49-18,47.48-25.57,71.69q-2.52,8-4.94,16.11a2,2,0,0,0-.55,1.36v.55a2,2,0,0,0,0,.72q-1,50.24,2,100.43.87,14.29,2.07,28.56a2.18,2.18,0,0,0,3.88,1.13,1.93,1.93,0,0,0,1.44-.93q22.34-34.36,45.66-68.07,23.24-33.56,47.44-66.43c15.9-21.58,32.2-42.84,48.59-64.05,15.06-19.49,30-39.34,41.34-61.27S616,333.85,611.38,308.81ZM510.77,492.37q-7.84,10.53-15.58,21.13a64.88,64.88,0,0,0-17.65-30.4,63.62,63.62,0,0,0-35.66-17.22,64.72,64.72,0,0,0-20.6.5q4.23-12.28,8.81-24.46,2-5.22,4-10.42a2,2,0,0,0,1.47.2,68.69,68.69,0,0,1,42.89,4.14,68.39,68.39,0,0,1,38.78,47.91C515.1,486.62,512.92,489.48,510.77,492.37Zm57-75.13a91.27,91.27,0,0,0-24.45-38.79,87,87,0,0,0-73.75-22.2c6.65-11.82,13.8-23.38,21.53-34.5a2.08,2.08,0,0,0,.86,0,83.29,83.29,0,0,1,50.54,5.47,84.51,84.51,0,0,1,36.23,31.25,86.86,86.86,0,0,1,10.91,24.34A315.66,315.66,0,0,1,567.8,417.24Z"/><path class="cls-2" d="M467,360.87a1.1,1.1,0,0,0,.25,0l.26-.05.68-.16a2.46,2.46,0,0,1,.59-.08,83.18,83.18,0,0,1,49,5.76,84.51,84.51,0,0,1,36.24,31.24,87.36,87.36,0,0,1,10.53,23.08,1.72,1.72,0,0,1,.16.45c.45,1.85.82,3.71,1.24,5.56,10-13.51,19.55-27.42,27.49-42.26-.25-1.48-.49-2.95-.73-4.43-.14-.84-.32-1.69-.5-2.53A91.32,91.32,0,0,0,568,339.34a87,87,0,0,0-73.63-22.21q-3,.74-6,1.44c-.67.95-1.33,1.91-2,2.87-7.09,10.39-13.72,21.1-19.93,32q-2.42,4.23-4.73,8.51c1.76-.34,3.53-.66,5.27-1.05Z"/><path class="cls-2" d="M520.44,479.4a69.32,69.32,0,0,0-2.63-7.92c-.13-.25-.25-.5-.39-.75a2.67,2.67,0,0,1-.34-1A73.27,73.27,0,0,0,500.78,446a71.66,71.66,0,0,0-40.19-19.4,72.5,72.5,0,0,0-21.91.34c-1.52.39-3,.79-4.54,1.29-1.24.41-2.45.88-3.66,1.37q-8.24,20.81-15.33,42c.3-.12.6-.25.91-.36a18.08,18.08,0,0,1,3.84-.86v0a61,61,0,0,1,37.86,3.71,60.7,60.7,0,0,1,33.86,40.22c.88,2.53,1.69,5.1,2.44,7.67q5.42-7.44,10.87-14.87,8.08-11,16.31-21.84A57.53,57.53,0,0,0,520.44,479.4Z"/><g class="cls-3"><path class="cls-4" d="M475.2,530.53a400.08,400.08,0,0,0-23-56.41q-6.82-13.49-14.58-26.46c-2.46-4.13-5.45-8-8.21-11.89-.28-.4-.55-.81-.83-1.22C421,454,414.22,473.77,408,493.68q-2.52,8-4.94,16.11a2,2,0,0,0-.55,1.36v.55a2,2,0,0,0,0,.72q-1,50.24,2,100.43.87,14.29,2.07,28.56a2.18,2.18,0,0,0,3.88,1.13,1.93,1.93,0,0,0,1.44-.93q22.34-34.36,45.66-68.07,10.69-15.45,21.61-30.75C477.82,538.7,476.53,534.6,475.2,530.53Z"/></g><path class="cls-5" d="M150.31,354.46a20.77,20.77,0,0,0-20.12-14.7,2.3,2.3,0,0,0-.26,0,1.74,1.74,0,0,0-1.42.68,356.84,356.84,0,0,0-52.44,82.45,366.8,366.8,0,0,0-16.34,42.27c.11.08.23.14.34.21a2.69,2.69,0,0,0,.55,1.19,20.37,20.37,0,0,0,14.76,7.29c6.16.38,12.29-1.91,17.26-5.44a2.52,2.52,0,0,0,.69-.73l.67-.21q1.56-11.49,3.81-22.86c0-.11,0-.2,0-.3a418.17,418.17,0,0,1,38.34-67.91q6.48-9.31,13.47-18.26a2.32,2.32,0,0,0,.48-2.12A1.86,1.86,0,0,0,150.31,354.46Z"/><path class="cls-5" d="M344.13,354.46a20.77,20.77,0,0,1,20.12-14.7,2.3,2.3,0,0,1,.26,0,1.72,1.72,0,0,1,1.42.68A355.73,355.73,0,0,1,395,379.93a359.93,359.93,0,0,1,23.36,43,366.8,366.8,0,0,1,16.34,42.27c-.11.08-.23.14-.34.21a2.59,2.59,0,0,1-.55,1.19,20.37,20.37,0,0,1-14.76,7.29c-6.16.38-12.29-1.91-17.26-5.44a2.66,2.66,0,0,1-.69-.73l-.67-.21q-1.56-11.49-3.81-22.86c0-.11,0-.2,0-.3a418.17,418.17,0,0,0-38.34-67.91q-6.48-9.31-13.47-18.26a2.32,2.32,0,0,1-.48-2.12A1.86,1.86,0,0,1,344.13,354.46Z"/><path class="cls-6" d="M117.28,579a2.2,2.2,0,0,0-3-1.83,1.64,1.64,0,0,0-1.4-.12A183.81,183.81,0,0,1,35.37,590.3a177.25,177.25,0,0,1-22.16-2.41A2.16,2.16,0,0,0,10.8,589a1.91,1.91,0,0,0-.54-.08A2.08,2.08,0,0,0,8.2,591c2.61,25.07,5.46,51.32,19.3,73.09a73.12,73.12,0,0,0,11,13.68c4.19,4,9.25,7.44,15.15,8,11.81,1.16,21.2-9.9,25.89-19.43,5.7-11.59,7.1-24.47,9.91-36.93,2.2,3.19,4.76,6.16,8.26,7.9,4.82,2.41,10.59,2.3,14.58-1.64,4.16-4.11,4.79-10.15,5.16-15.69q.65-9.6.63-19.24Q118.12,589.86,117.28,579Z"/><path class="cls-7" d="M116.42,562c-4.45-6.75-11.66-12-18.91-15.36a56.35,56.35,0,0,0-5.77-2.3l-.29-.07a1.53,1.53,0,0,0-.56-.44,92.25,92.25,0,0,0-46.26-8,2.49,2.49,0,0,0-1.31.52c-15.45,3.54-31.27,11.33-37.64,26.78a29,29,0,0,0,.11,22.69c3.22,7.27,10,12.06,17.32,14.62,8.1,2.84,17.09,3.37,25.61,3.62a128.5,128.5,0,0,0,23.84-1.42,92.53,92.53,0,0,0,22.8-6.55,74,74,0,0,0,10.28-5.49,43.07,43.07,0,0,0,9.12-7.39,18.22,18.22,0,0,0,4.81-10.12A17.38,17.38,0,0,0,116.42,562Z"/><path class="cls-5" d="M128.51,340.47a356.84,356.84,0,0,0-52.44,82.45,367.8,367.8,0,0,0-17.39,45.61,362,362,0,0,0-11.16,47.64A356.67,356.67,0,0,0,42.93,565c0,1.22,0,2.44-.06,3.67q-3.52-.87-6.95-2.07c-2.51-.88-3.58,3.1-1.1,4a79.12,79.12,0,0,0,49.73.64,78,78,0,0,0,13.26-5.61c2.33-1.26.26-4.81-2.08-3.56-.94.51-1.89,1-2.86,1.45a392.48,392.48,0,0,1,.7-92.8q1.65-13.1,4.24-26A2.15,2.15,0,0,0,96,442.1a104.51,104.51,0,0,1,1.7-51.36,1.13,1.13,0,0,0,0-.18c.65-1.08,1.29-2.17,2-3.24A347.26,347.26,0,0,1,127.55,348c1.27-1.56,2.56-3.1,3.87-4.64C133.12,341.37,130.22,338.45,128.51,340.47Z"/><path class="cls-6" d="M377.17,579a2.19,2.19,0,0,1,3-1.83,1.65,1.65,0,0,1,1.4-.12,183.86,183.86,0,0,0,77.51,13.26,177.61,177.61,0,0,0,22.17-2.41,2.15,2.15,0,0,1,2.4,1.12,1.91,1.91,0,0,1,.54-.08,2.08,2.08,0,0,1,2.06,2.06c-2.61,25.07-5.46,51.32-19.3,73.09a73.12,73.12,0,0,1-11.05,13.68c-4.19,4-9.24,7.44-15.15,8-11.8,1.16-21.2-9.9-25.88-19.43-5.71-11.59-7.11-24.47-9.92-36.93-2.2,3.19-4.76,6.16-8.26,7.9-4.82,2.41-10.59,2.3-14.58-1.64-4.16-4.11-4.79-10.15-5.16-15.69q-.63-9.6-.63-19.24Q376.33,589.86,377.17,579Z"/><path class="cls-7" d="M378,562c4.44-6.75,11.65-12,18.9-15.36a57.28,57.28,0,0,1,5.77-2.3l.3-.07a1.49,1.49,0,0,1,.55-.44,92.25,92.25,0,0,1,46.26-8,2.46,2.46,0,0,1,1.31.52c15.45,3.54,31.27,11.33,37.64,26.78a29,29,0,0,1-.11,22.69c-3.22,7.27-10,12.06-17.32,14.62-8.1,2.84-17.09,3.37-25.61,3.62a128.39,128.39,0,0,1-23.83-1.42,92.28,92.28,0,0,1-22.8-6.55,73.53,73.53,0,0,1-10.29-5.49,43.07,43.07,0,0,1-9.12-7.39,18.22,18.22,0,0,1-4.81-10.12A17.33,17.33,0,0,1,378,562Z"/><path class="cls-5" d="M365.93,340.47A355.73,355.73,0,0,1,395,379.93a359.93,359.93,0,0,1,23.36,43,367.8,367.8,0,0,1,17.39,45.61,362,362,0,0,1,11.16,47.64,356.68,356.68,0,0,1,4.6,48.82c0,1.22,0,2.44.05,3.67q3.53-.87,6.95-2.07c2.51-.88,3.58,3.1,1.1,4a78.7,78.7,0,0,1-63-5c-2.33-1.26-.25-4.81,2.08-3.56.94.51,1.9,1,2.86,1.45a392.48,392.48,0,0,0-.69-92.8q-1.67-13.1-4.25-26a2.15,2.15,0,0,1,1.82-2.54,104.63,104.63,0,0,0-1.71-51.36l0-.18c-.65-1.08-1.29-2.17-1.95-3.24A347.18,347.18,0,0,0,366.9,348c-1.28-1.56-2.57-3.1-3.88-4.64C361.32,341.37,364.22,338.45,365.93,340.47Z"/><path class="cls-1" d="M438.75,841.79a2,2,0,0,0-.42-.19,163.54,163.54,0,0,0-23-17.11c-15.06-9.14-32-15.42-49.72-16.43a86.3,86.3,0,0,0-19.52,1.09q2.26-3.2,4.46-6.42a406.54,406.54,0,0,0,43.56-84.29,410.43,410.43,0,0,0,23-92.07,398.4,398.4,0,0,0,.75-96.19,410.49,410.49,0,0,0-22-93.6,406,406,0,0,0-43.17-85.87,2.11,2.11,0,0,0-.39-.44,2.26,2.26,0,0,0-2.21-1.32l-79.86.42-80.13.43-45,.24a1.51,1.51,0,0,0-.48.08,2.09,2.09,0,0,0-2.92.59,406,406,0,0,0-43.17,85.87,411,411,0,0,0-22,93.6,398.4,398.4,0,0,0,.75,96.19A409.78,409.78,0,0,0,144,802.73q2.19,3.22,4.46,6.42a86.3,86.3,0,0,0-19.52-1.09c-17.69,1-34.66,7.29-49.72,16.43a163.54,163.54,0,0,0-23,17.11,2,2,0,0,0-.42.19,4.76,4.76,0,0,0,0,7.93,2.06,2.06,0,0,0,1.59.21l.1,0a2,2,0,0,0,.62.1H194.58a2,2,0,0,0,.68-.12,12,12,0,0,0,10.15-11.36,1.64,1.64,0,0,0-.08-.54,2.13,2.13,0,0,0,.35-1.34q-1.38-27-1.31-54,0-13.21.43-26.43c.25-8.76.44-17.56,1.25-26.28a77.36,77.36,0,0,1,2.35-13.64c.62-2.27,1.85-5.72,4-6.94A141.63,141.63,0,0,0,264.76,713,144.91,144.91,0,0,0,280,710.41a1.77,1.77,0,0,0,1.42-1.33c2.59.82,4,4.74,4.69,7.24A77.36,77.36,0,0,1,288.44,730c.81,8.72,1,17.52,1.26,26.28s.4,17.62.42,26.43q.08,27-1.3,54a2.13,2.13,0,0,0,.34,1.34,2,2,0,0,0-.08.54,12,12,0,0,0,10.15,11.36,2.06,2.06,0,0,0,.68.12H436.47a2,2,0,0,0,.62-.1l.1,0a2.06,2.06,0,0,0,1.59-.21,4.76,4.76,0,0,0,0-7.93Z"/><path class="cls-8" d="M370.18,498.6a241.38,241.38,0,0,0-21.24-74.21,232,232,0,0,0-43.86-63.49,2.39,2.39,0,0,0-1.31-1.16,164.06,164.06,0,0,0-87.29-7.8,159,159,0,0,0-24.36,6.48,2,2,0,0,0-1.4,1.85,1.85,1.85,0,0,0-1.29.61,232,232,0,0,0-43.88,63.51,241.38,241.38,0,0,0-21.24,74.21,229.21,229.21,0,0,0,3.78,76.14,239.44,239.44,0,0,0,27.64,70,233,233,0,0,0,47.94,57.71q3.45,3,7,5.82a1.21,1.21,0,0,0,.28.18,1.89,1.89,0,0,0,.89,1.11c8.59,5.16,18.76,6,28.53,6.53,10.72.63,21.74,1.2,32.14-2a39.31,39.31,0,0,0,14.31-7.74,1.82,1.82,0,0,0,.66-1.12c1.11-.92,2.22-1.86,3.32-2.8a233.13,233.13,0,0,0,47.93-57.71,239.44,239.44,0,0,0,27.64-70A229.21,229.21,0,0,0,370.18,498.6Z"/><path class="cls-1" d="M172.27,100.53a1.76,1.76,0,0,0,.09-1.54,224.17,224.17,0,0,0-33.09-59.73A221.51,221.51,0,0,0,116.36,14c-4.17-3.94-8.45-8.18-13.28-11.29C98.52-.26,92.89-1.17,88.16,1.94,84.1,4.61,81.52,9,79.62,13.38c-2.36,5.42-4.27,11.07-6.12,16.68a291.94,291.94,0,0,0-9.33,35.86,301.27,301.27,0,0,0-5.06,73.23A296.15,296.15,0,0,0,72,211.39q1.37,4.37,2.87,8.7a2.06,2.06,0,0,0,.79,1,2,2,0,0,0,.34.38c9.23,8.33,22.5,10.4,34.35,7.57,12.53-3,23.21-11.27,31.74-20.63,17-18.66,27.78-42.74,31.16-67.71A125.38,125.38,0,0,0,172.27,100.53Z"/><path class="cls-2" d="M155.5,117.92a1.44,1.44,0,0,0,.07-1.28A187,187,0,0,0,128,66.81,185.6,185.6,0,0,0,108.86,45.7c-3.48-3.28-7-6.82-11.08-9.41-3.81-2.45-8.5-3.21-12.45-.62-3.38,2.23-5.54,5.92-7.12,9.55-2,4.52-3.57,9.23-5.11,13.91a243.5,243.5,0,0,0-7.78,29.92,251.84,251.84,0,0,0-4.22,61.09,247,247,0,0,0,10.77,60.27c.76,2.43,1.56,4.84,2.39,7.25a1.73,1.73,0,0,0,.66.88,2.07,2.07,0,0,0,.28.32c7.7,6.95,18.78,8.67,28.66,6.32,10.46-2.49,19.37-9.41,26.48-17.22a105.29,105.29,0,0,0,26-56.48A104.7,104.7,0,0,0,155.5,117.92Z"/><g class="cls-3"><path class="cls-9" d="M172.36,99q-2.13-5.79-4.58-11.43A279.23,279.23,0,0,0,138.72,99.5a299.13,299.13,0,0,0-40.89,23.75q-4.87,3.38-9.63,6.94a62.21,62.21,0,0,0-5,4c-2.21,2-4.36,4.15-6.52,6.26q-8.1,7.91-16.12,15.9A293.79,293.79,0,0,0,72,211.39q1.37,4.37,2.87,8.7a2.06,2.06,0,0,0,.79,1,2,2,0,0,0,.34.38c9.23,8.33,22.5,10.4,34.35,7.57,12.53-3,23.21-11.27,31.74-20.63,17-18.66,27.78-42.74,31.16-67.71a125.38,125.38,0,0,0-1-40.22A1.76,1.76,0,0,0,172.36,99Z"/></g><path class="cls-1" d="M322.23,100.53a1.73,1.73,0,0,1-.1-1.54,224.17,224.17,0,0,1,33.09-59.73A221.51,221.51,0,0,1,378.13,14c4.17-3.94,8.45-8.18,13.28-11.29C396-.26,401.6-1.17,406.33,1.94,410.39,4.61,413,9,414.87,13.38c2.36,5.42,4.27,11.07,6.12,16.68a291.94,291.94,0,0,1,9.33,35.86,301.27,301.27,0,0,1,5.06,73.23,296.15,296.15,0,0,1-12.91,72.24q-1.37,4.37-2.87,8.7a2.06,2.06,0,0,1-.79,1,2,2,0,0,1-.34.38c-9.23,8.33-22.5,10.4-34.35,7.57-12.53-3-23.21-11.27-31.74-20.63-17-18.66-27.78-42.74-31.16-67.71A125.1,125.1,0,0,1,322.23,100.53Z"/><path class="cls-2" d="M339,117.92a1.44,1.44,0,0,1-.07-1.28,187,187,0,0,1,27.6-49.83A184.75,184.75,0,0,1,385.64,45.7c3.47-3.28,7-6.82,11.07-9.41,3.81-2.45,8.51-3.21,12.45-.62,3.38,2.23,5.54,5.92,7.12,9.55,2,4.52,3.57,9.23,5.11,13.91a243.5,243.5,0,0,1,7.78,29.92,251.34,251.34,0,0,1,4.22,61.09,247,247,0,0,1-10.77,60.27c-.76,2.43-1.56,4.84-2.39,7.25a1.73,1.73,0,0,1-.66.88,2.07,2.07,0,0,1-.28.32c-7.7,6.95-18.77,8.67-28.66,6.32-10.45-2.49-19.36-9.41-26.48-17.22a106.05,106.05,0,0,1-25.16-90Z"/><g class="cls-3"><path class="cls-9" d="M423.51,139.57a188.93,188.93,0,0,0-23.37-20.31c-8.36-6.15-17.19-12.15-26.56-16.64-14.83-7.1-31.09-10.38-46.48-16q-2.66,6.09-5,12.34a1.73,1.73,0,0,0,.1,1.54,125.1,125.1,0,0,0-1,40.22c3.38,25,14.15,49.05,31.16,67.71,8.53,9.36,19.21,17.65,31.74,20.63,11.85,2.83,25.12.76,34.35-7.57a2,2,0,0,0,.34-.38,2.06,2.06,0,0,0,.79-1q1.5-4.34,2.87-8.7A294.27,294.27,0,0,0,434.4,152,155.11,155.11,0,0,0,423.51,139.57Z"/></g><path class="cls-8" d="M493,264.36q-4-1.07-7.85-2.38a125.47,125.47,0,0,1-55.22-37.72C414,205.42,405,182.2,393.11,160.91a173.1,173.1,0,0,0-19-27.9,160.15,160.15,0,0,0-22.93-22.08,172.23,172.23,0,0,0-56.36-29.46,166.23,166.23,0,0,0-31.31-6.35,1.77,1.77,0,0,0-.4-.08q-7.51-.77-15.07-.77h-1.49c-5,0-10.07.26-15.09.76a3.25,3.25,0,0,0-.47.1,165.42,165.42,0,0,0-31.24,6.38,172.08,172.08,0,0,0-56.36,29.63,160,160,0,0,0-22.93,22.21,173.93,173.93,0,0,0-19,28.05c-11.86,21.41-20.93,44.77-36.81,63.71A125.44,125.44,0,0,1,9.35,263c-2.59.89-5.21,1.68-7.85,2.4-1.58.43-2.16,3-.49,3.76C18.38,277,33.87,288.27,49.1,299.59S79.35,321.89,95.88,331a290.64,290.64,0,0,0,51.28,22.08A295.07,295.07,0,0,0,201.48,365a284.72,284.72,0,0,0,55.76,1.4q3.42-.25,6.84-.59a2.13,2.13,0,0,0,1.06-.41q14-.35,27.87-2a296.59,296.59,0,0,0,54.32-11.85,292.35,292.35,0,0,0,51.28-21.95c16.53-9,31.67-20,46.78-31.21s30.72-22.43,48.1-30.23C495.16,267.35,494.58,264.79,493,264.36Z"/><path class="cls-1" d="M369.09,126.64a162.16,162.16,0,0,0-17.31-15.71,173.51,173.51,0,0,0-56.67-29.46,168.17,168.17,0,0,0-31.5-6.35,1.77,1.77,0,0,0-.4-.08q-7.56-.77-15.16-.77h-1.49q-7.6,0-15.18.76a3,3,0,0,0-.47.1,167.25,167.25,0,0,0-31.42,6.38,173.31,173.31,0,0,0-56.68,29.63A161.47,161.47,0,0,0,124,128.55c.58-.31,1.15-.62,1.73-.9a77.33,77.33,0,0,1,8-3.41,2.56,2.56,0,0,0,1.17-.24c10.41-4.83,22.67-3.86,33.08.4s19.22,11.66,26.78,19.78A122.51,122.51,0,0,1,224.15,200a120,120,0,0,1,2.72,35.75,1.71,1.71,0,0,0,1.2,1.86c3.26,5.21,11.44,5.63,16.92,5.53a45.86,45.86,0,0,0,20.73-5.42,1.8,1.8,0,0,0,2-2A119.7,119.7,0,0,1,270.45,200a122.4,122.4,0,0,1,29.37-55.82c7.56-8.12,16.39-15.54,26.78-19.78s22.67-5.23,33.08-.4a2.36,2.36,0,0,0,1.8.11C364,124.9,366.58,125.73,369.09,126.64Z"/><path class="cls-2" d="M261.24,76.89a2,2,0,0,0-.51-1.3,1.87,1.87,0,0,0-1.32-1.15A51.81,51.81,0,0,0,236.9,75h0a1.87,1.87,0,0,0-1.26.46,1.82,1.82,0,0,0-.78,1.52s0,0,0,.08c-2.13,16.88-4.13,35.37,2.93,51.44,1.42,3.21,3.62,6.41,7,7.8,3.61,1.5,7.54.27,10.3-2.33,3-2.85,4.18-7,4.81-11,.74-4.6,1.2-9.25,1.48-13.9C262,98.36,261.59,87.62,261.24,76.89Z"/><path class="cls-2" d="M217.14,79.36a1.49,1.49,0,0,0-.63-.9,1.47,1.47,0,0,0-1.22-.65,41,41,0,0,0-17.19,4.56h0a1.5,1.5,0,0,0-.89.59,1.43,1.43,0,0,0-.32,1.31v.06c1.47,13.35,3.31,27.92,11.68,39,1.68,2.21,3.95,4.26,6.77,4.72a7.65,7.65,0,0,0,7.49-3.68c1.79-2.74,1.92-6.16,1.68-9.32-.28-3.67-.78-7.32-1.41-10.94C221.62,95.72,219.38,87.53,217.14,79.36Z"/><path class="cls-2" d="M277.35,79.36a1.53,1.53,0,0,1,.63-.9,1.47,1.47,0,0,1,1.22-.65,41,41,0,0,1,17.19,4.56h0a1.5,1.5,0,0,1,.89.59,1.43,1.43,0,0,1,.32,1.31v.06c-1.47,13.35-3.31,27.92-11.68,39-1.67,2.21-3.95,4.26-6.77,4.72a7.63,7.63,0,0,1-7.48-3.68c-1.8-2.74-1.93-6.16-1.69-9.32.28-3.67.78-7.32,1.41-10.94C272.87,95.72,275.11,87.53,277.35,79.36Z"/><path class="cls-10" d="M190.07,206.6a11.57,11.57,0,0,1-20.68,3c-1.48-2.18-5-.12-3.55,2.08a15.7,15.7,0,0,0,28.2-4C194.85,205.17,190.88,204.08,190.07,206.6Z"/><path class="cls-10" d="M179.19,220.86a18.29,18.29,0,0,1-15.06-8,3.86,3.86,0,0,1,1.08-5.46,4.19,4.19,0,0,1,5.89,1.07,9.51,9.51,0,0,0,17-2.46h0a4,4,0,0,1,3-2.76,4.39,4.39,0,0,1,4.11,1.28,3.82,3.82,0,0,1,.77,3.83,18,18,0,0,1-14.21,12.35A17.5,17.5,0,0,1,179.19,220.86Zm7.74-6.69a14,14,0,0,1-3.7,1.93A13.2,13.2,0,0,0,186.93,214.17Zm5.1-6.94h0Z"/><path class="cls-10" d="M304.36,206.6a11.57,11.57,0,0,0,20.68,3c1.48-2.18,5-.12,3.55,2.08a15.7,15.7,0,0,1-28.2-4C299.58,205.17,303.55,204.08,304.36,206.6Z"/><path class="cls-10" d="M315.24,220.86a17.59,17.59,0,0,1-2.6-.19,18,18,0,0,1-14.21-12.35,3.9,3.9,0,0,1,2.6-5,4.13,4.13,0,0,1,5.29,2.64h0a9.51,9.51,0,0,0,17,2.46,4.19,4.19,0,0,1,5.88-1.07,3.85,3.85,0,0,1,1.08,5.46A18.29,18.29,0,0,1,315.24,220.86Zm-7.37-6.42a13.73,13.73,0,0,0,3.27,1.64A14.31,14.31,0,0,1,307.87,214.44Zm18.88-3.73h0a3.88,3.88,0,0,1-.23.33Z"/><path class="cls-10" d="M270.2,283.05a2.16,2.16,0,0,0-2.81.7,10.09,10.09,0,0,1-9.19,5.34,9.91,9.91,0,0,1-8.46-5.44V253.59c0-2.49-4.11-2.49-4.11,0v30.24a1.41,1.41,0,0,0,0,.41v.12a.65.65,0,0,0-.1.15,8.72,8.72,0,0,1-15.4.42c-1.24-2.2-4.8-.25-3.56,2a13,13,0,0,0,11.53,6.33,13.18,13.18,0,0,0,9.92-5.06,14.08,14.08,0,0,0,22.92-2.46A1.92,1.92,0,0,0,270.2,283.05Z"/><path class="cls-10" d="M237.68,295.29a15.09,15.09,0,0,1-12.9-7.39,3.92,3.92,0,0,1,1.6-5.42,4,4,0,0,1,5.54,1.44,6.65,6.65,0,0,0,11.64-.09s0-.08,0-.12V253.59a3.77,3.77,0,0,1,1.41-3,4.28,4.28,0,0,1,2.7-.92,3.93,3.93,0,0,1,4.12,3.92v29.58a7.92,7.92,0,0,0,6.47,3.86,8,8,0,0,0,7.29-4.23,3.84,3.84,0,0,1,2.32-1.87,4.41,4.41,0,0,1,3.31.32h0a3.94,3.94,0,0,1,1.57,5.4,16.14,16.14,0,0,1-24.65,4.49,15.32,15.32,0,0,1-9.94,4.14Zm9.62-9.72-.27.48.86-1.14.47.53a10.46,10.46,0,0,1-.49-.94l-.18-.4v.9Zm-.06.08h0Zm22-.79h0l1-1.81-1,1.81ZM247.68,284v0Z"/><path class="cls-11" d="M282.47,241.2c-1.22-3.87-6.19-7.64-11.17-10.3a32.66,32.66,0,0,0-15.52-3.74A5.83,5.83,0,0,0,254,227c-12.9.28-26.91,1.16-35.21,7.4-7.28,5.46-4.13,12.64,4.91,16.76,10.86,4.95,25.46,4.28,38.23,2.49C272.61,252.1,284.76,248.5,282.47,241.2Z"/><path class="cls-12" d="M166.05,246.48c-2.44-2.71-5.43-5.41-9-6.33a2.15,2.15,0,0,1-1.15-.71c-1.48-.56-3-1.06-4.52-1.47-14.14-3.75-31.41-1.49-42.81,8.21a34.93,34.93,0,0,0-7.16,8.45,20.22,20.22,0,0,0-2,3.95,19,19,0,0,0-.63,2.07c0,.11-.09.44-.11.53,0,.27-.08.54-.11.81a16.09,16.09,0,0,0,0,1.84.81.81,0,0,0,0,.17.51.51,0,0,0,0,.09c.05.28.09.57.14.85s.13.55.21.82c0,.07.12.38.17.52l.2.48c.12.25.25.5.38.74s.29.48.43.72l.1.16.1.11c.33.4.65.8,1,1.17s.45.46.69.68l.26.24,0,0h0c.43.34.87.68,1.33,1a26,26,0,0,0,3.19,1.85l0,0,.14.06.47.21.76.32c.58.24,1.18.47,1.77.68,1.31.46,2.64.86,4,1.2.72.19,1.45.36,2.18.52l1.11.22.59.11a71.66,71.66,0,0,0,16.61.95l1-.07.27,0,.26,0c.55-.05,1.09-.11,1.64-.19,1.12-.14,2.23-.32,3.34-.51,2.72-.46,5.43-1,8.11-1.73a70.54,70.54,0,0,0,8.71-2.81c1.46-.6,2.89-1.26,4.29-2,.67-.36,1.34-.74,2-1.14l1-.64.32-.21.16-.11a22.3,22.3,0,0,0,3.19-2.79,14.65,14.65,0,0,0,2.05-3l.06-.09a.51.51,0,0,1,0-.11c.07-.15.13-.31.19-.47s.22-.58.3-.87.16-.6.24-.9c0,0,0-.12,0-.19s0-.23.05-.34a10.12,10.12,0,0,0-.23-3.87C170.75,252.41,168.42,249.13,166.05,246.48Z"/><path class="cls-12" d="M328,247.32c2.37-2.77,5.29-5.55,8.8-6.56a2.15,2.15,0,0,0,1.12-.74,46.88,46.88,0,0,1,4.49-1.59c14-4.12,31.35-2.32,43,7.08a35,35,0,0,1,7.38,8.25,20.65,20.65,0,0,1,2.07,3.9,21.39,21.39,0,0,1,.68,2c0,.11.1.44.13.53.05.27.09.54.13.81a16,16,0,0,1,.09,1.83c0,.08,0,.13,0,.17s0,0,0,.1c0,.28-.07.56-.12.85s-.11.55-.18.82c0,.08-.11.39-.16.53s-.16.42-.19.49q-.17.38-.36.75c-.13.24-.27.48-.41.72a.71.71,0,0,0-.09.17l-.1.11c-.32.41-.63.82-1,1.2s-.44.47-.67.7l-.26.24,0,0h0c-.42.36-.85.7-1.29,1a28.13,28.13,0,0,1-3.14,1.93l-.06,0-.13.07-.47.22-.75.34c-.58.26-1.16.5-1.75.73-1.3.49-2.61.92-3.94,1.3-.72.21-1.45.4-2.17.57l-1.11.26-.59.12a70.89,70.89,0,0,1-16.57,1.39l-1-.05h-.27l-.26,0c-.54,0-1.09-.08-1.64-.14-1.12-.12-2.24-.26-3.35-.42-2.74-.4-5.46-.9-8.15-1.52a68.86,68.86,0,0,1-8.78-2.59c-1.48-.56-2.93-1.18-4.34-1.88-.69-.34-1.37-.7-2-1.08l-1-.62-.33-.21-.16-.1a22.77,22.77,0,0,1-3.27-2.7,15.58,15.58,0,0,1-2.13-2.9.24.24,0,0,0-.05-.09.48.48,0,0,0-.05-.11c-.07-.16-.14-.31-.2-.47s-.23-.57-.33-.86-.17-.6-.25-.9a1.72,1.72,0,0,1,0-.18l-.06-.34a10.39,10.39,0,0,1,.12-3.87C323.42,253.38,325.65,250,328,247.32Z"/></g></g></svg>