<svg xmlns="http://www.w3.org/2000/svg" xmlns:xlink="http://www.w3.org/1999/xlink" viewBox="0 0 512 512"><defs><style>.cls-1{isolation:isolate;}.cls-2{fill:#a9afc4;}.cls-3{fill:#5e6175;}.cls-4{fill:#dee1ec;}.cls-5,.cls-6{mix-blend-mode:multiply;}.cls-5{fill:url(#linear-gradient);}.cls-6{fill:url(#linear-gradient-2);}.cls-7{fill:#f5f5f5;}.cls-8{fill:#e1830e;}</style><linearGradient id="linear-gradient" x1="270.45" y1="335.94" x2="270.45" y2="422.07" gradientUnits="userSpaceOnUse"><stop offset="0" stop-color="#cacfdd"/><stop offset="1" stop-color="#eef0f1"/></linearGradient><linearGradient id="linear-gradient-2" x1="262.58" y1="317.58" x2="262.58" y2="422.25" xlink:href="#linear-gradient"/></defs><title>Seal</title><g class="cls-1"><g id="Seal"><path class="cls-2" d="M350.29,332.47a54.7,54.7,0,0,0,54.7,54.7c72.69,0,71-.1,71,0a14.47,14.47,0,0,0-14.47-14.47h-7A14.48,14.48,0,0,0,440,357.76a20.51,20.51,0,0,1-20.51-20.52v-4.77"/><path class="cls-3" d="M479,390.17H405a57.76,57.76,0,0,1-57.7-57.7h6a51.76,51.76,0,0,0,51.7,51.7H472.6a11.49,11.49,0,0,0-11.07-8.47H436.11v-6H451.2A11.49,11.49,0,0,0,440,360.76a23.53,23.53,0,0,1-23.51-23.51v-4.78h6v4.78A17.53,17.53,0,0,0,440,354.76,17.5,17.5,0,0,1,457.3,369.7h4.23A17.49,17.49,0,0,1,479,387.17Z"/><path class="cls-2" d="M348.26,90.28a57.89,57.89,0,0,1,57.9,57.89v36.68a172.41,172.41,0,0,0,12.72,65,85.64,85.64,0,0,1,6.34,32.35v19.22a85.78,85.78,0,0,1-85.76,85.76H153.73a37.43,37.43,0,0,0-37.41,37.42v18c-31.21.62-60.25-18.15-75.31-44.89C26.28,371.49,45.58,339,75.59,339h17a37.45,37.45,0,0,0,26.46-11l37.16-37.17a78.6,78.6,0,0,1,55.56-23,78.56,78.56,0,0,0,78.56-78.56V148.17A57.89,57.89,0,0,1,348.26,90.28Z"/><path class="cls-4" d="M425.22,282.19V301.4a85.8,85.8,0,0,1-85.76,85.77H199.73a14.46,14.46,0,0,1,14.46-14.47h7.06a14.52,14.52,0,0,1,.75-5.07h80.05a47.23,47.23,0,0,0,47.22-47.21V252.6a34,34,0,0,1,65.51-12.83l4.1,10.07A85.64,85.64,0,0,1,425.22,282.19Z"/><path class="cls-5" d="M425.22,282.61V301.4a85.79,85.79,0,0,1-85.76,85.77H153.74a37.43,37.43,0,0,0-37.42,37.41l-.65-.83h.65v-18a37.42,37.42,0,0,1,37.42-37.41H339.46A85.81,85.81,0,0,0,425.22,282.61Z"/><path class="cls-3" d="M114.84,445.56c-30.61,0-60.48-18.09-76.44-46.44C22.59,371.05,43.21,336,75.59,336h17A34.22,34.22,0,0,0,117,325.93l37.16-37.17a81.07,81.07,0,0,1,57.68-23.89,75.64,75.64,0,0,0,75.56-75.56V148.17a60.9,60.9,0,0,1,121.79,0v36.68a168.4,168.4,0,0,0,12.5,63.85,88.26,88.26,0,0,1,6.56,33.49v19.22a88.76,88.76,0,0,1-88.76,88.76H153.73a34.39,34.39,0,0,0-34.41,34.42v20.9C116.26,445.55,115.8,445.56,114.84,445.56ZM75.59,342c-27.77,0-45.54,30.06-32,54.18,14.64,26,41.75,42.77,69.69,43.36v-15a40.39,40.39,0,0,1,40.41-40.42H339.46a82.75,82.75,0,0,0,82.76-82.76V282.19A82.53,82.53,0,0,0,416.11,251a174.29,174.29,0,0,1-12.95-66.12V148.17a54.9,54.9,0,0,0-109.79,0v41.14a81.66,81.66,0,0,1-81.56,81.56A75.1,75.1,0,0,0,158.37,293l-37.16,37.17A40.15,40.15,0,0,1,92.63,342Z"/><path class="cls-3" d="M78,431.91H72a74.78,74.78,0,0,1,11.63-40.09L88.74,395A68.81,68.81,0,0,0,78,431.91Z"/><path class="cls-3" d="M45.93,400.88h-6c0-13.69,8.78-27.18,20.89-32.07l8.67-3.5,2.24,5.56-8.66,3.5C53.13,378.38,45.93,389.53,45.93,400.88Z"/><path class="cls-4" d="M372.39,181.05l-6.59,6.6A18.19,18.19,0,0,1,352.94,193h-3.09a18.18,18.18,0,0,1,0-36.35h22.54Z"/><path class="cls-4" d="M372.39,181.05l6.59,6.6A18.19,18.19,0,0,0,391.84,193h3.09a18.18,18.18,0,1,0,0-36.35H372.39Z"/><path class="cls-3" d="M352.94,196h-3.09a21.18,21.18,0,0,1,0-42.35h25.54v28.67l-7.47,7.48A21,21,0,0,1,352.94,196Zm-3.09-36.35a15.18,15.18,0,0,0,0,30.35h3.09a15.11,15.11,0,0,0,10.74-4.44l5.71-5.72V159.62Z"/><path class="cls-3" d="M394.93,196h-3.09a21,21,0,0,1-15-6.2l-7.47-7.48V153.62h25.54a21.18,21.18,0,1,1,0,42.35Zm-19.54-16.16,5.72,5.72A15.07,15.07,0,0,0,391.84,190h3.09a15.18,15.18,0,1,0,0-30.35H375.39Z"/><path class="cls-3" d="M366.48,165.58l-5.55-5a8.86,8.86,0,0,1,5.91-15.46h11.1a8.86,8.86,0,0,1,5.91,15.46l-5.55,5A8.84,8.84,0,0,1,366.48,165.58Zm.36-14.43a2.86,2.86,0,0,0-1.91,5l5.55,5a2.85,2.85,0,0,0,3.82,0l5.55-5a2.86,2.86,0,0,0-1.91-5Z"/><path class="cls-3" d="M366.84,148.15a5.86,5.86,0,0,0-3.91,10.22l5.55,5a5.85,5.85,0,0,0,7.82,0l5.55-5a5.86,5.86,0,0,0-3.91-10.22Z"/><path class="cls-6" d="M341.4,332.47a70.54,70.54,0,0,1-25.89,54.7H183.76a30.44,30.44,0,0,1,25.51-30.05,30.42,30.42,0,0,1,26.45-15.33,4.53,4.53,0,0,0,4.54-4.55v-4.77Z"/><circle class="cls-7" cx="348.54" cy="130.69" r="7.02"/><circle class="cls-7" cx="394.67" cy="130.69" r="7.02"/><path class="cls-3" d="M348.54,140.71a10,10,0,1,1,10-10A10,10,0,0,1,348.54,140.71Zm0-14a4,4,0,1,0,4,4A4,4,0,0,0,348.54,126.67Z"/><path class="cls-3" d="M394.67,140.71a10,10,0,1,1,10-10A10,10,0,0,1,394.67,140.71Zm0-14a4,4,0,1,0,4,4A4,4,0,0,0,394.67,126.67Z"/><rect class="cls-3" x="317.02" y="166.27" width="32.52" height="6"/><rect class="cls-3" x="318.71" y="185.71" width="34.85" height="6" transform="translate(-49.32 193.49) rotate(-30.02)"/><rect class="cls-3" x="394.43" y="166.27" width="32.52" height="6"/><rect class="cls-3" x="404.84" y="171.29" width="6" height="34.85" transform="translate(40.41 447.44) rotate(-59.98)"/><path class="cls-3" d="M339.46,390.17H196.73v-3a17.46,17.46,0,0,1,17.46-17.47h4.24a24.88,24.88,0,0,1,1.42-5.07h82.2a44.22,44.22,0,0,0,44.22-44.21V252.6a37,37,0,0,1,71.29-14l4.1,10.07a88.4,88.4,0,0,1,6.56,33.48V301.4A88.76,88.76,0,0,1,339.46,390.17Zm-136.33-6H339.46a82.75,82.75,0,0,0,82.76-82.77V282.19c0-18.14-5.25-29.11-10.22-41.29a31,31,0,0,0-59.73,11.7v67.82a50.21,50.21,0,0,1-50.22,50.21H224.36a36.73,36.73,0,0,0-.11,5.07H214.19A11.45,11.45,0,0,0,203.13,384.17Z"/><path class="cls-2" d="M325.44,332.47a54.7,54.7,0,0,1-54.7,54.7c-72.69,0-71-.1-71,0A14.47,14.47,0,0,1,214.2,372.7h7.05a14.48,14.48,0,0,1,14.47-14.94,20.52,20.52,0,0,0,20.51-20.52v-4.77"/><path class="cls-2" d="M325.44,332.47a54.71,54.71,0,0,1-54.7,54.7h-71a14.46,14.46,0,0,1,14.46-14.47h7.06a14.49,14.49,0,0,1,14.47-14.94,20.52,20.52,0,0,0,20.51-20.52v-4.77Z"/><path class="cls-3" d="M270.74,390.17h-74v-3A17.49,17.49,0,0,1,214.2,369.7h4.23a17.49,17.49,0,0,1,17.29-14.94,17.53,17.53,0,0,0,17.51-17.51v-4.78h6v4.78a23.54,23.54,0,0,1-23.51,23.51,11.48,11.48,0,0,0-11.19,8.94h15.09v6H214.2a11.49,11.49,0,0,0-11.07,8.47h67.61a51.76,51.76,0,0,0,51.7-51.7h6A57.76,57.76,0,0,1,270.74,390.17Z"/><path class="cls-3" d="M244.54,129.37a11.62,11.62,0,1,1,15.83,4.43A11.64,11.64,0,0,1,244.54,129.37ZM254.68,118a5.63,5.63,0,1,0,4.91,2.87A5.65,5.65,0,0,0,254.68,118Z"/><path class="cls-3" d="M293,79.84a9,9,0,1,1,12.24,3.43A9,9,0,0,1,293,79.84Zm7.84-7.4a3,3,0,1,0,1.46,5.6A3,3,0,0,0,300.8,72.44Z"/><path class="cls-2" d="M455.49,300.24h-6v-6h6Zm0-16h-6c0-2,0-3.63-.11-5.88l6-.24C455.47,280.43,455.49,282.14,455.49,284.24Zm-6.85-15.63c-.22-1.94-.49-3.89-.79-5.81l5.92-.94c.32,2,.6,4.05.83,6.07ZM446,253.21c-.45-1.9-.95-3.81-1.48-5.68l5.78-1.64c.55,2,1.07,4,1.54,5.94Zm-4.49-15c-.77-2.12-1.28-3.35-2.14-5.52l5.58-2.21c.86,2.15,1.4,3.49,2.2,5.67Zm-5.73-14.94c-1.26-3.45-2-5.63-2-5.72l5.68-1.94s.75,2.19,2,5.59Z"/><path class="cls-8" d="M75,282.61a21.45,21.45,0,0,1,21.44,21.45,21.46,21.46,0,0,1,21.45-21.45,21.45,21.45,0,0,1-21.45-21.44A21.44,21.44,0,0,1,75,282.61Z"/></g></g></svg>