<svg xmlns="http://www.w3.org/2000/svg" xmlns:xlink="http://www.w3.org/1999/xlink" viewBox="0 0 512 512"><defs><style>.cls-1{isolation:isolate;}.cls-2{fill:#e1830e;}.cls-3{fill:#a9afc4;}.cls-4,.cls-5,.cls-8{mix-blend-mode:multiply;}.cls-4{fill:url(#linear-gradient);}.cls-5{fill:url(#linear-gradient-2);}.cls-6{fill:#5e6175;}.cls-7{fill:#dee1ec;}.cls-8{fill:url(#linear-gradient-3);}.cls-9{fill:#f5f5f5;}</style><linearGradient id="linear-gradient" x1="304.04" y1="299.43" x2="366.94" y2="299.43" gradientUnits="userSpaceOnUse"><stop offset="0" stop-color="#cacfdd"/><stop offset="1" stop-color="#eef0f1"/></linearGradient><linearGradient id="linear-gradient-2" x1="170.53" y1="324.13" x2="227.47" y2="324.13" xlink:href="#linear-gradient"/><linearGradient id="linear-gradient-3" x1="421.52" y1="190.7" x2="421.52" y2="200.49" xlink:href="#linear-gradient"/></defs><title>Wolf</title><g class="cls-1"><g id="Wolf"><path class="cls-2" d="M44,166.39c10.81,0,19.56,9.31,19.56,20.79a21.36,21.36,0,0,1,5.74-14.7,18.91,18.91,0,0,1,13.83-6.09c-10.81,0-19.57-9.32-19.57-20.8C63.52,157.07,54.77,166.39,44,166.39Z"/><path class="cls-3" d="M99.19,208.18a52.94,52.94,0,0,0-61.94,42.08l-.31,1.61a53,53,0,0,0,6.92,37.69l1.67,2.7c5.91,10.34,3.16,28.17-6.15,35.6H57.26c6.61,0,12.88-.56,18.32-4.91,11.24-9,14.66-26.6,7.47-39.16L67.8,257.12A27.13,27.13,0,0,1,65,238.69C67.48,225.55,78.7,216,90.54,218.26L97,219.5Z"/><path class="cls-3" d="M226.25,302.29l.7,5.44c2.68,20-5.2,39.45-20.48,50.68a13.61,13.61,0,0,0-4.95,14.09l7.58,35.32,1.49.74a23.11,23.11,0,0,1,12.63,17.3h-26.6L167.17,372.6c-4.08-7.38-4.81-15.78-2-22.85,3.72-9.22,7.88-23.46,6-38.05Z"/><path class="cls-3" d="M344.52,339.45a18.78,18.78,0,0,0-2.86,12.66l7.18,54.1,1.94,1.1a19.57,19.57,0,0,1,9.94,17.05v1.44H332.59C306,331.86,310.94,349.29,304,324.91l15.38-41.47L311.92,255h55v19.84C366.94,297,356.49,321.05,344.52,339.45Z"/><path class="cls-4" d="M366.94,255v19.84c0,20.24-8.58,40.25-15.92,53.68a157.91,157.91,0,0,1-41.63,15.27L304,324.91l15.38-41.47L311.92,255Z"/><path class="cls-5" d="M227,307.73A55.42,55.42,0,0,1,218.34,346a206.38,206.38,0,0,1-20.43-4.66c-1-.27-16.52-5.83-27.38-9.71a66.08,66.08,0,0,0,.67-19.9l55.05-9.41Z"/><path class="cls-3" d="M385.06,124.9s-1.3-20.41,19.64-38.76V124.9Z"/><path class="cls-6" d="M407.7,127.9H382.25l-.18-2.81c-.06-.89-1.15-22.1,20.65-41.2l5-4.36Zm-19.54-6H401.7V93.25C393.29,102.41,389,112.81,388.16,121.9Z"/><path class="cls-6" d="M226.63,428.86H194.85l-30.3-54.81c-4.55-8.22-5.32-17.49-2.12-25.42,3.64-9,7.59-22.66,5.79-36.54l-.37-2.86,61-10.42,1.11,8.54c2.82,21.07-5.48,41.57-21.68,53.48a10.64,10.64,0,0,0-3.79,11l7.27,33.91a26.08,26.08,0,0,1,14.46,19.69Zm-28.24-6h21.07a20.39,20.39,0,0,0-10.21-11.62l-2.78-1.38-7.88-36.73A16.57,16.57,0,0,1,204.7,356c14.43-10.61,21.82-28.94,19.28-47.86l-.31-2.35-49.2,8.4c1.13,14.14-2.82,27.63-6.47,36.69-2.53,6.25-1.87,13.64,1.8,20.28Z"/><path class="cls-6" d="M363.72,428.8H330.33l-29.44-104,15.39-41.49L308,252H370v22.84c0,28-16,55.64-22.91,66.22a15.67,15.67,0,0,0-2.4,10.62l7,52.62.65.36a22.66,22.66,0,0,1,11.46,19.67Zm-28.85-6h22.77a16.62,16.62,0,0,0-8.34-12.89l-3.24-1.83-7.37-55.58A21.7,21.7,0,0,1,342,337.82C348.6,327.68,364,301.26,364,274.87V258H315.81l6.76,25.56L307.2,325Z"/><path class="cls-6" d="M57.26,330.86H30.82l6.69-5.34c8-6.41,10.75-22.44,5.41-31.77l-1.61-2.62A55.81,55.81,0,0,1,34,251.31l.31-1.61a56,56,0,0,1,65.45-44.47l3,.56L99.41,223,90,221.21c-10.49-2-19.94,6.93-22.06,18a24.25,24.25,0,0,0,2.49,16.38L85.66,282.3c7.88,13.79,4.2,33.08-8.21,43C71,330.43,63.66,330.86,57.26,330.86Zm-11.21-6H57.26c6.86,0,12-.71,16.44-4.25,10.2-8.15,13.23-24,6.75-35.33L65.2,258.61c-7.08-12.38-3.83-29.45,7.32-38.36a22.66,22.66,0,0,1,18.58-4.93l3.54.67,1-5.34a50,50,0,0,0-55.47,40.17l-.3,1.61A49.77,49.77,0,0,0,46.42,288l1.66,2.71C53.64,300.42,52.34,315.33,46.05,324.86Z"/><path class="cls-3" d="M472.58,157.93a5.11,5.11,0,0,1,3.42,4.82V176.6A14.35,14.35,0,0,1,461.65,191H434.09a20.76,20.76,0,0,0-8.14,1.67l-10.84,4.64c-8.76,3.75-15.25,3.35-21.87,3.35-6,36.07-14.34,70.57-42.66,96.26C326.25,318.94,292,327.18,260.25,328a167.17,167.17,0,0,1-56-8c-1.31-.43-19.82-8.29-19.82-8.29-4.17,21.12-20.51,35.35-40.74,42.48A10,10,0,0,0,137,364.34l3.22,43.42,1.39.75A19.59,19.59,0,0,1,152,425.81H125.4l-22.42-53a26.73,26.73,0,0,1,1.22-23.24c4.85-8.87,10.6-22.41,10.6-36.7,0-24.7-21.32-32.63-25.88-59.05a66.25,66.25,0,0,1,.63-25.26,48.91,48.91,0,0,1,47.76-38.32h72a179.69,179.69,0,0,0,61.79-11l27.36-10a179.64,179.64,0,0,0,53.71-31.09l11.14-9.35c-5.74-11.74-5.23-26.29,3.43-38.72L382,116.7h21.78a37.8,37.8,0,0,1,31.22,17c4.3,6.39,8.6,12.17,16.59,15.46C459.32,152.36,472.68,158,472.58,157.93Z"/><rect class="cls-6" x="72.76" y="422.86" width="345.4" height="6"/><path class="cls-7" d="M476,168.24v8.36a14.36,14.36,0,0,1-10.2,13.74c-2.74.82-1.3.61-31.71.61a20.76,20.76,0,0,0-8.14,1.67l-10.84,4.64c-8.7,3.73-15.1,3.35-21.87,3.35-6,36.07-14.34,70.57-42.66,96.26C326.25,318.94,292,327.18,260.25,328a167.17,167.17,0,0,1-56-8c-1.31-.43-19.82-8.29-19.82-8.29,0-9.55-.81-18.32-4.52-28.65,12,3.05,61.69,15.16,97.39,15.16,40.86,0,76.74-35.11,86-76.21,6.24-27.84,19.6-53.76,43.94-53.76Z"/><path class="cls-8" d="M426,192.62a19.18,19.18,0,0,1,2-.73C426.21,192.44,401.31,203.18,426,192.62Z"/><path class="cls-6" d="M187.4,311.7h-6v-2.24c0-15.94-5-31.52-13.74-42.73l4.73-3.69c9.68,12.43,15,28.92,15,46.42Z"/><path class="cls-6" d="M471.88,157.7H457.57a3,3,0,0,0-2.61,4.44l5.19,8.8a3,3,0,0,0,2.61,1.48h4.18a3,3,0,0,0,2.64-1.53l4.94-8.81A3,3,0,0,0,471.88,157.7Z"/><circle class="cls-9" cx="400.72" cy="141.74" r="6.46"/><circle class="cls-9" cx="400.72" cy="141.74" r="6.46"/><path class="cls-6" d="M400.72,151.2a9.46,9.46,0,1,1,9.46-9.46A9.47,9.47,0,0,1,400.72,151.2Zm0-12.92a3.46,3.46,0,1,0,3.46,3.46A3.46,3.46,0,0,0,400.72,138.28Z"/><path class="cls-6" d="M400.72,151.2a9.46,9.46,0,1,1,9.46-9.46A9.47,9.47,0,0,1,400.72,151.2Zm0-12.92a3.46,3.46,0,1,0,3.46,3.46A3.46,3.46,0,0,0,400.72,138.28Z"/><circle class="cls-9" cx="432.27" cy="141.74" r="6.46"/><path class="cls-6" d="M432.27,151.2a9.46,9.46,0,1,1,9.46-9.46A9.48,9.48,0,0,1,432.27,151.2Zm0-12.92a3.46,3.46,0,1,0,3.46,3.46A3.47,3.47,0,0,0,432.27,138.28Z"/><path class="cls-6" d="M391.92,203.61A22.09,22.09,0,0,1,370.74,188L368,179.17l5.72-1.79,2.77,8.87a16.11,16.11,0,0,0,15.46,11.36c7.78,0,13.71.45,22-3.11l10.85-4.64a23.47,23.47,0,0,1,9.31-1.91c29.42,0,28.56.21,30.84-.48A11.29,11.29,0,0,0,473,176.6V162.76a2.13,2.13,0,0,0-1.41-2l-.17-.06c-34.82-14.59-10.38-4.37-21-8.77-8.55-3.52-13.18-9.5-17.93-16.55a34.86,34.86,0,0,0-28.73-15.68H380.22L364.16,91.59l5.21-3L383.7,113.7c21.37,0,20.51,0,21.75,0a41,41,0,0,1,32,18.28c4.65,6.9,8.56,11.93,16.54,14.87l19.69,8.25a8.12,8.12,0,0,1,5.33,7.62V176.6A17.31,17.31,0,0,1,461.65,194H434.09a17.5,17.5,0,0,0-6.95,1.43L416.29,200C406.66,204.14,399.5,203.61,391.92,203.61Z"/><path class="cls-6" d="M155,428.81H123.41L100.22,374a29.51,29.51,0,0,1,1.35-25.84c4.67-8.56,10.23-21.62,10.23-35.27,0-23.4-21.14-31.33-25.83-58.54a69,69,0,0,1,.65-26.4,51.88,51.88,0,0,1,50.69-40.69h72a176.28,176.28,0,0,0,60.76-10.78l27.36-10c31-11.36,48.18-26.69,62.22-38.46a40.92,40.92,0,0,1,4.24-39L367,84.49,383.7,113.7h20A40.92,40.92,0,0,1,437.45,132c4.07,6,7.95,11.37,15.24,14.37,3.26,1.34-6.33-2.7,21,8.74a8.11,8.11,0,0,1,5.34,7.62V176.6A17.3,17.3,0,0,1,461.65,194H434.09a17.5,17.5,0,0,0-6.95,1.43L416.29,200a44.28,44.28,0,0,1-17.51,3.59h-3c-5.79,34.06-14.25,69.24-43.18,95.48C337.31,313,308.89,329.76,260.33,331a169.38,169.38,0,0,1-57-8.13c-1.08-.35-10.84-4.47-16.78-7C181,336.41,164.22,350.11,144.66,357a7,7,0,0,0-4.67,7.11l3.1,41.77A22.56,22.56,0,0,1,155,425.81Zm-27.61-6h21.34a16.57,16.57,0,0,0-8.52-11.66l-2.85-1.52L134,364.57a13,13,0,0,1,8.65-13.22c8.43-3,23.9-10.14,32.81-24.78,4.51-7.39,5.56-13.32,6.7-19.08,1,.43,21.4,9.1,23,9.64a163,163,0,0,0,55,7.85c46.72-1.18,73.86-17.15,88.39-30.34,28.25-25.62,36-60.13,42.14-97,8.89,0,14.79.51,23.23-3.1l10.84-4.64a23.53,23.53,0,0,1,9.32-1.92c29.72,0,28.63.18,30.85-.48A11.29,11.29,0,0,0,473,176.6V162.75a2.12,2.12,0,0,0-1.41-2c-1.07-.41-9.43-4-21.18-8.82-8.53-3.52-13.16-9.47-17.94-16.57a34.88,34.88,0,0,0-28.73-15.67H380.22L366.65,96a34.9,34.9,0,0,0-.67,31.46l1.09,2.13c-2.42,2.12-.09.14-12.95,10.93a181.84,181.84,0,0,1-54.61,31.6l-27.35,10a182.41,182.41,0,0,1-62.83,11.14h-72a45.89,45.89,0,0,0-44.83,35.95,63.34,63.34,0,0,0-.6,24.12c4.39,25.46,25.92,33.69,25.92,59.56,0,14.92-6,29-11,38.14a23.61,23.61,0,0,0-1.09,20.63Z"/><path class="cls-3" d="M250.48,283.44v41.47l31,100.89h28.11v-1.44a19.62,19.62,0,0,0-9.93-17.06l-1.95-1.1-7.17-54.09a18.62,18.62,0,0,1,2.86-12.65c7.27-11.17,22.42-37.69,22.42-64.59"/><path class="cls-6" d="M312.61,428.8H279.28l-31.8-103.44V283.44h6v41l30.23,98.34h22.83a16.67,16.67,0,0,0-8.34-12.89L295,408.08l-7.37-55.58a21.7,21.7,0,0,1,3.31-14.68c6.6-10.14,21.94-36.56,21.94-62.95h6c0,28-16,55.64-22.91,66.22a15.72,15.72,0,0,0-2.4,10.62l7,52.62.65.36a22.67,22.67,0,0,1,11.45,19.67Z"/><path class="cls-6" d="M448.94,275a11.35,11.35,0,1,1,2.34-22.46h0a11.25,11.25,0,0,1,7.17,4.9A11.37,11.37,0,0,1,448.94,275Zm0-16.7a5.35,5.35,0,1,0,5.24,6.45A5.36,5.36,0,0,0,448.94,258.29Z"/><path class="cls-6" d="M391.53,313.89a8.81,8.81,0,1,1,7.37-13.61A8.76,8.76,0,0,1,391.53,313.89Zm0-11.6a2.8,2.8,0,1,0,2.73,3.37A2.81,2.81,0,0,0,391.54,302.29Z"/><path class="cls-3" d="M195.33,169.31l.3-6s2.16.11,5.82.07l.07,6C199.67,169.4,197.16,169.39,195.33,169.31Zm16.34-.31-.36-6c1.95-.11,3.94-.26,5.91-.44l.52,6C215.72,168.73,213.68,168.88,211.67,169Zm16.15-1.56-.79-5.95c2-.26,3.93-.55,5.87-.85l.94,5.92C231.85,166.88,229.83,167.17,227.82,167.44Zm16-2.71-1.22-5.87c1.93-.4,3.87-.83,5.78-1.29l1.38,5.84C247.8,163.88,245.8,164.32,243.82,164.73Zm15.76-3.92-1.68-5.75c1.9-.56,3.8-1.15,5.64-1.75l1.87,5.7C263.5,159.64,261.54,160.24,259.58,160.81ZM275,155.57,272.8,150c1.83-.72,3.66-1.48,5.44-2.25l2.4,5.5C278.79,154,276.89,154.83,275,155.57Zm14.86-6.7-2.75-5.33c1.74-.9,3.47-1.85,5.16-2.81l3,5.22C293.47,147,291.66,147.93,289.85,148.87Zm14.07-8.32-3.35-5c1.61-1.09,3.22-2.23,4.77-3.39l3.59,4.81C307.3,138.22,305.61,139.41,303.92,140.55Z"/></g></g></svg>