<svg xmlns="http://www.w3.org/2000/svg" xmlns:xlink="http://www.w3.org/1999/xlink" viewBox="0 0 512 512"><defs><style>.cls-1{isolation:isolate;}.cls-2{fill:#e1830e;}.cls-3{fill:#5e6175;}.cls-4,.cls-6,.cls-7,.cls-9{mix-blend-mode:multiply;}.cls-4{fill:url(#linear-gradient);}.cls-5{fill:#a9afc4;}.cls-6{fill:url(#linear-gradient-2);}.cls-7{fill:url(#linear-gradient-3);}.cls-8{fill:#f5f5f5;}.cls-9{fill:url(#linear-gradient-4);}</style><linearGradient id="linear-gradient" x1="230.01" y1="337.61" x2="230.01" y2="414.76" gradientUnits="userSpaceOnUse"><stop offset="0" stop-color="#cacfdd"/><stop offset="1" stop-color="#eef0f1"/></linearGradient><linearGradient id="linear-gradient-2" x1="239.75" y1="122.82" x2="374.42" y2="122.82" xlink:href="#linear-gradient"/><linearGradient id="linear-gradient-3" x1="262.38" y1="185.77" x2="262.38" y2="452.96" xlink:href="#linear-gradient"/><linearGradient id="linear-gradient-4" x1="345.94" y1="87.63" x2="351.44" y2="148.49" xlink:href="#linear-gradient"/></defs><title>Eagle</title><g class="cls-1"><g id="Eagle"><path class="cls-2" d="M386.14,301.34A19.46,19.46,0,0,1,405.6,320.8a19.47,19.47,0,0,1,19.46-19.46,19.45,19.45,0,0,1-19.46-19.45A19.45,19.45,0,0,1,386.14,301.34Z"/><path class="cls-3" d="M182.81,479a21,21,0,0,1-20.12-14.4l-.8,1.7a21,21,0,0,1-13.29,11.44c-14.19,4.42-27.35-4.8-28.94-18.34l-6.33,8.6c-7.15,9.52-19,10-27,5.51-12.41-7.36-15-27.92-1.65-38.87l80.57-66.57H223.7l-17.52,91.09c-2.26,11.53-12,18.18-20.58,19.67A21.68,21.68,0,0,1,182.81,479Zm-11.46-32.57-2.66,5.48c-2.11,4.31-1.42,10.22,1.71,14.69a14.84,14.84,0,0,0,14.28,6.3c6.56-1.17,13.91-6.21,15.61-14.88l16.15-83.95H167.37l-78.92,65.2c-9.81,8.08-8.33,23.17.83,29,5.76,3.15,14.18,2.83,19.23-3.89l15.32-20.79,4.84,3.56a16.25,16.25,0,0,0,4.76,23.58c7.1,4.35,19.1,1.83,23-7L163.9,448Z"/><path class="cls-3" d="M220.07,371.07H166.29c-.17,0-79.92,66-79.75,65.88-11.36,9.36-9.78,27,1.21,33.94h0c6.68,3.71,16.93,3.64,23.16-4.67l15.34-20.81a19.24,19.24,0,0,0,5.65,27.93c8.38,5.14,22.53,2.36,27.28-8.32l6.8-14.43h0c-5.17,10.56,3.12,27,19.09,25.29,8.13-1.41,16.25-7.63,18.14-17.29Z"/><path class="cls-3" d="M182.81,479a21,21,0,0,1-20.12-14.4l-.8,1.7a21,21,0,0,1-13.29,11.44c-14.19,4.42-27.35-4.8-28.94-18.34l-6.33,8.6c-7.15,9.52-19,10-27,5.51-12.41-7.36-15-27.92-1.65-38.87l80.57-66.57H223.7l-17.52,91.09c-2.26,11.53-12,18.18-20.58,19.67A21.68,21.68,0,0,1,182.81,479Zm-11.46-32.57-2.66,5.48c-2.11,4.31-1.42,10.22,1.71,14.69a14.84,14.84,0,0,0,14.28,6.3c6.56-1.17,13.91-6.21,15.61-14.88l16.15-83.95H167.37l-78.92,65.2c-9.81,8.08-8.33,23.17.83,29,5.76,3.15,14.18,2.83,19.23-3.89l15.32-20.79,4.84,3.56a16.25,16.25,0,0,0,4.76,23.58c7.1,4.35,19.1,1.83,23-7L163.9,448Z"/><path class="cls-3" d="M182.81,479a21,21,0,0,1-20.12-14.4l-.8,1.7a21,21,0,0,1-13.29,11.44c-14.19,4.42-27.35-4.8-28.94-18.34l-6.33,8.6c-7.15,9.52-19,10-27,5.51-12.41-7.36-15-27.92-1.65-38.87l80.57-66.57H223.7l-17.52,91.09c-2.26,11.53-12,18.18-20.58,19.67A21.68,21.68,0,0,1,182.81,479Zm-11.46-32.57-2.66,5.48c-2.11,4.31-1.42,10.22,1.71,14.69a14.84,14.84,0,0,0,14.28,6.3c6.56-1.17,13.91-6.21,15.61-14.88l16.15-83.95H167.37l-78.92,65.2c-9.81,8.08-8.33,23.17.83,29,5.76,3.15,14.18,2.83,19.23-3.89l15.32-20.79,4.84,3.56a16.25,16.25,0,0,0,4.76,23.58c7.1,4.35,19.1,1.83,23-7L163.9,448Z"/><path class="cls-3" d="M249.45,337.58A156.26,156.26,0,0,1,221,334.86l83.68-165.59a53.36,53.36,0,0,1,47.87-29.45c40.23,0,66.09,42.6,47.65,78.27-25,48.33-21,40.74-23.81,45.7A146.37,146.37,0,0,1,249.45,337.58Zm-19.4-7.34a140.32,140.32,0,0,0,141.12-69.43c2.74-4.79-1.32,2.91,23.69-45.48,16.41-31.74-6.66-69.51-42.32-69.51A47.41,47.41,0,0,0,310,172Z"/><path class="cls-3" d="M352.54,142.82c37.91,0,62.42,40.16,45,73.89l-21.74,42.06-2,3.53a143.35,143.35,0,0,1-148.26,70.27l81.83-161.95A50.65,50.65,0,0,1,352.54,142.82Z"/><path class="cls-3" d="M249.45,337.58A156.26,156.26,0,0,1,221,334.86l83.68-165.59a53.36,53.36,0,0,1,47.87-29.45c40.23,0,66.09,42.6,47.65,78.27-25,48.33-21,40.74-23.81,45.7A146.37,146.37,0,0,1,249.45,337.58Zm-19.4-7.34a140.32,140.32,0,0,0,141.12-69.43c2.74-4.79-1.32,2.91,23.69-45.48,16.41-31.74-6.66-69.51-42.32-69.51A47.41,47.41,0,0,0,310,172Z"/><path class="cls-3" d="M249.45,337.58A156.26,156.26,0,0,1,221,334.86l83.68-165.59a53.36,53.36,0,0,1,47.87-29.45c40.23,0,66.09,42.6,47.65,78.27-25,48.33-21,40.74-23.81,45.7A146.37,146.37,0,0,1,249.45,337.58Zm-19.4-7.34a140.32,140.32,0,0,0,141.12-69.43c2.74-4.79-1.32,2.91,23.69-45.48,16.41-31.74-6.66-69.51-42.32-69.51A47.41,47.41,0,0,0,310,172Z"/><path class="cls-3" d="M161.58,361.46V270.27A120,120,0,0,1,281.45,150.39h81.73V230c0,72.5-59,131.49-131.49,131.49ZM281.45,156.39A114,114,0,0,0,167.58,270.27v85.19h64.11A125.63,125.63,0,0,0,357.18,230V156.39Z"/><rect class="cls-2" x="84.38" y="358.46" width="348.87" height="24.31"/><rect class="cls-2" x="84.37" y="358.46" width="348.88" height="24.32"/><path class="cls-4" d="M304.74,382.78H155.28c0-.25,0-23.12,0-24.32h149.4C304.79,359.66,304.75,382.58,304.74,382.78Z"/><path class="cls-5" d="M360.18,153.39H281.45A116.88,116.88,0,0,0,164.58,270.27v88.19h67.11A128.49,128.49,0,0,0,360.18,230Z"/><path class="cls-6" d="M239.75,173.56s29.72-22.15,29.72-60.12V103.33a52.48,52.48,0,0,1,105,0v75a16.51,16.51,0,0,1-16.51,16.51h-.86a16.51,16.51,0,0,1-16.51-16.51v0a16.51,16.51,0,0,1-33,0v0A16.51,16.51,0,0,1,291,194.79h-1a16.51,16.51,0,0,1-16.5-16.51v0A16.51,16.51,0,0,1,257,194.79h-.74a16.51,16.51,0,0,1-16.51-16.51Z"/><path class="cls-7" d="M360.18,191.25V230a128.5,128.5,0,0,1-128.5,128.5h-67.1V319.75h67.1A128.48,128.48,0,0,0,360.18,191.25Z"/><path class="cls-3" d="M161.58,361.46V270.27A120,120,0,0,1,281.45,150.39h81.73V230c0,72.5-59,131.49-131.49,131.49ZM281.45,156.39A114,114,0,0,0,167.58,270.27v85.19h64.11A125.63,125.63,0,0,0,357.18,230V156.39Z"/><path class="cls-3" d="M161.58,361.46V270.27A120,120,0,0,1,281.45,150.39h81.73V230c0,72.5-59,131.49-131.49,131.49ZM281.45,156.39A114,114,0,0,0,167.58,270.27v85.19h64.11A125.63,125.63,0,0,0,357.18,230V156.39Z"/><rect class="cls-3" x="84.38" y="379.78" width="348.88" height="6"/><rect class="cls-3" x="84.38" y="355.46" width="348.88" height="6"/><path class="cls-2" d="M202.6,392a9.85,9.85,0,0,1-9.85-9.86V360a9.86,9.86,0,1,1,19.71,0v22.1A9.85,9.85,0,0,1,202.6,392Z"/><path class="cls-2" d="M182.89,392a9.86,9.86,0,0,1-9.86-9.86V360a9.86,9.86,0,0,1,19.72,0v22.1A9.86,9.86,0,0,1,182.89,392Z"/><path class="cls-3" d="M202.6,395a12.87,12.87,0,0,1-12.85-12.86V360a12.86,12.86,0,1,1,25.71,0v22.1A12.88,12.88,0,0,1,202.6,395Zm0-41.82a6.86,6.86,0,0,0-6.85,6.86v22.1a6.86,6.86,0,1,0,13.71,0V360A6.87,6.87,0,0,0,202.6,353.16Z"/><path class="cls-3" d="M182.89,395A12.88,12.88,0,0,1,170,382.12V360a12.86,12.86,0,0,1,25.72,0v22.1A12.88,12.88,0,0,1,182.89,395Zm0-41.82A6.87,6.87,0,0,0,176,360v22.1a6.86,6.86,0,0,0,13.72,0V360A6.87,6.87,0,0,0,182.89,353.16Z"/><path class="cls-2" d="M277.14,392a9.85,9.85,0,0,1-9.86-9.86V360A9.86,9.86,0,1,1,287,360v22.1A9.85,9.85,0,0,1,277.14,392Z"/><path class="cls-2" d="M257.42,392a9.86,9.86,0,0,1-9.86-9.86V360a9.86,9.86,0,1,1,19.72,0v22.1A9.86,9.86,0,0,1,257.42,392Z"/><path class="cls-3" d="M277.14,395a12.88,12.88,0,0,1-12.86-12.86V360A12.86,12.86,0,1,1,290,360v22.1A12.87,12.87,0,0,1,277.14,395Zm0-41.82a6.86,6.86,0,0,0-6.86,6.86v22.1a6.86,6.86,0,1,0,13.71,0V360A6.86,6.86,0,0,0,277.14,353.16Z"/><path class="cls-3" d="M257.42,395a12.88,12.88,0,0,1-12.86-12.86V360a12.86,12.86,0,1,1,25.72,0v22.1A12.88,12.88,0,0,1,257.42,395Zm0-41.82a6.87,6.87,0,0,0-6.86,6.86v22.1a6.86,6.86,0,0,0,13.72,0V360A6.87,6.87,0,0,0,257.42,353.16Z"/><path class="cls-8" d="M239.75,158.71s29.72-22.16,29.72-60.13V88.48a52.48,52.48,0,1,1,105,0v74.94a16.51,16.51,0,0,1-16.51,16.51h-.86a16.51,16.51,0,0,1-16.51-16.51v0a16.51,16.51,0,0,1-33,0v0A16.51,16.51,0,0,1,291,179.93h-1a16.51,16.51,0,0,1-16.5-16.51v0A16.51,16.51,0,0,1,257,179.93h-.74a16.51,16.51,0,0,1-16.51-16.51Z"/><path class="cls-9" d="M374.42,110.64v16.19c-4.39.85-3.78.64-37.31.64a15.29,15.29,0,0,1-15.29-15.28v-13C325.09,99.15,354.24,105.6,374.42,110.64Z"/><path class="cls-3" d="M357.91,182.93h-.86a19.5,19.5,0,0,1-16.51-9.12,19.51,19.51,0,0,1-33,0A19.51,19.51,0,0,1,291,182.93h-1a19.48,19.48,0,0,1-16.5-9.12A19.51,19.51,0,0,1,257,182.93h-.74a19.53,19.53,0,0,1-19.51-19.51V157.2l1.2-.9c.29-.21,28.52-21.78,28.52-57.72V88.48a55.48,55.48,0,1,1,111,0v74.94A19.53,19.53,0,0,1,357.91,182.93Zm-14.37-27.36v7.85a13.52,13.52,0,0,0,13.51,13.51h.86a13.52,13.52,0,0,0,13.51-13.51V88.48a49.48,49.48,0,1,0-98.95,0v10.1c0,35.05-23.93,56.83-29.72,61.58v3.26a13.52,13.52,0,0,0,13.51,13.51H257a13.52,13.52,0,0,0,13.51-13.51v-7.85h6v7.85A13.52,13.52,0,0,0,290,176.93h1a13.52,13.52,0,0,0,13.51-13.51V156h6v7.42a13.51,13.51,0,0,0,27,0v-7.85Z"/><path class="cls-3" d="M119.12,331.12c-.1,0,71.82-152.06,71.78-152a55.89,55.89,0,0,1,101.66,46.46l-25.32,50.31A111.76,111.76,0,0,1,119.12,331.12Z"/><path class="cls-3" d="M119.12,331.12c-.1,0,71.82-152.06,71.78-152a55.89,55.89,0,0,1,101.66,46.46l-25.32,50.31A111.76,111.76,0,0,1,119.12,331.12Z"/><path class="cls-3" d="M117.87,333.85l-2.76-1.26,73.07-154.71a58.89,58.89,0,0,1,108.73,4c5.72,15.35,4.62,32.12-1.67,45.14L270,277.23C243.74,334.49,175.66,360.27,117.87,333.85Zm5.28-4.23a108.91,108.91,0,0,0,141.37-54.94c1-2.13-4.89,9.71,25.33-50.36a52.89,52.89,0,0,0-96.23-43.91Z"/><path class="cls-2" d="M357.19,70.67a20,20,0,0,0-18,10.86c-4.89,9.83-15.25,16.35-17.37,17.62v.23h58.09a25.52,25.52,0,0,1,18.25,7.68l7.44,7.61v-4.53a39.47,39.47,0,0,0-39.46-39.47Z"/><path class="cls-2" d="M393.61,103.37l-1,1a35.26,35.26,0,0,1-24.91,10.31H337.11a15.29,15.29,0,0,1-15.29-15.29c0-.1-1.52,0,58.08,0A25.51,25.51,0,0,1,393.61,103.37Z"/><path class="cls-3" d="M408.6,122,396,109.16a22.64,22.64,0,0,0-16.1-6.78H318.82V97.44l1.46-.87c1.92-1.14,11.7-7.28,16.22-16.37a23.15,23.15,0,0,1,20.69-12.53h8.95a42.51,42.51,0,0,1,42.46,42.47ZM330.76,96.38h49.15A28.68,28.68,0,0,1,400.3,105l2.18,2.23a36.51,36.51,0,0,0-36.34-33.52h-8.95a17.09,17.09,0,0,0-15.31,9.2A44.35,44.35,0,0,1,330.76,96.38Z"/><path class="cls-3" d="M367.7,117.67H337.11a18.31,18.31,0,0,1-18.29-18.29v-3H379.9a28.45,28.45,0,0,1,15.32,4.46l3.15,2-3.64,3.64A38,38,0,0,1,367.7,117.67Zm-42.51-15.29a12.32,12.32,0,0,0,11.92,9.29H367.7a32,32,0,0,0,20.79-7.59,22.46,22.46,0,0,0-8.59-1.7Z"/><path class="cls-3" d="M305.36,83a10.73,10.73,0,1,1,10.73-10.73A10.74,10.74,0,0,1,305.36,83Zm0-15.46a4.73,4.73,0,1,0,4.73,4.73A4.73,4.73,0,0,0,305.36,67.58Z"/><path class="cls-3" d="M331.12,75.38h-4.69a17.91,17.91,0,0,1-12.75-5.28,12.63,12.63,0,0,0-17.5,0l-4.34,4.33-4.24-4.24,4.33-4.33a18.58,18.58,0,0,1,26,0,12,12,0,0,0,8.51,3.52h4.69Z"/><path class="cls-3" d="M196,107.1a11.57,11.57,0,1,1,19.09,9.62A11.56,11.56,0,0,1,196,107.1Zm11.53-4.72a5.57,5.57,0,1,0,3.64,9.79A5.56,5.56,0,0,0,207.52,102.38Z"/><path class="cls-3" d="M154.83,166.88a9,9,0,1,1,.64-17.88h0a9,9,0,0,1-.64,17.88Zm-3-9.17A3,3,0,1,0,155,155h0A3,3,0,0,0,151.87,157.71Z"/><rect class="cls-3" x="264.07" y="408.37" width="6" height="17.15"/><rect class="cls-3" x="286.49" y="402.21" width="6" height="17.15" transform="translate(-205.68 325.02) rotate(-45)"/><rect class="cls-3" x="236.49" y="408.85" width="17.15" height="6" transform="translate(-219.44 293.91) rotate(-45)"/><path class="cls-5" d="M96.46,326.14l-5.38-2.65,2.64-5.38,5.39,2.65Zm7.06-14.36-5.38-2.64,2.65-5.39,5.38,2.65Zm7.07-14.35-5.39-2.65,2.65-5.38,5.39,2.65Zm7.06-14.36-5.38-2.65,2.65-5.38,5.38,2.65Zm7.06-14.35-5.38-2.65,2.65-5.39,5.38,2.65Zm7.07-14.36-5.38-2.65,2.64-5.38,5.39,2.65Z"/></g></g></svg>