<svg xmlns="http://www.w3.org/2000/svg" viewBox="0 0 536.58 850"><defs><style>.cls-1{fill:#b57247;}.cls-2{opacity:0.25;}.cls-3{fill:#754e4e;}.cls-4{fill:#c07d52;}.cls-5{fill:#f8c590;}.cls-6{fill:#d62b40;}.cls-7{fill:#ec2e3e;}.cls-8{fill:#d87f71;}.cls-9{fill:#473636;}.cls-10{fill:#544132;}</style></defs><g id="Layer_2" data-name="Layer 2"><g id="Bear"><path class="cls-1" d="M186.23,273.72c0-2.21-2.86-2.6-3.85-1.17a53.53,53.53,0,0,0-24.29,11.06l0,0-.17.12a447,447,0,0,0-61.56,62.08A459.37,459.37,0,0,0,14.18,498.28Q7.69,519.06,3.24,540.4c-2.75,13.25-5.42,28.06-.47,41.13A31.57,31.57,0,0,0,15,597a38.27,38.27,0,0,0,18.64,5.73c15.13.88,29-6.25,41.13-14.62,2.89-2,5.72-4.09,8.54-6.19C92,577.59,97.83,569.45,103,561.51q8.94-13.72,17-28a519.36,519.36,0,0,0,28.48-59.38,519.89,519.89,0,0,0,20.68-62.24,522.25,522.25,0,0,0,12.73-64.64,507.62,507.62,0,0,0,4.43-65.43C186.28,279.1,186.26,276.41,186.23,273.72Z"/><g class="cls-2"><path class="cls-3" d="M186.23,273.72c0-2.21-2.86-2.6-3.85-1.17a53.53,53.53,0,0,0-24.29,11.06l0,0-.17.12a447,447,0,0,0-61.56,62.08q-3.51,4.31-6.9,8.7,2.11,14.58,3.48,29.28c2,21.23,2.79,42.57,2.81,63.89,0,21.48-.78,43-2.1,64.4s-3.18,42.9-5.27,64.31c-.09.85-.18,1.71-.26,2.57,6.13-4.58,10.75-11.09,14.9-17.47q8.94-13.72,17-28a519.36,519.36,0,0,0,28.48-59.38,519.89,519.89,0,0,0,20.68-62.24,522.25,522.25,0,0,0,12.73-64.64,507.62,507.62,0,0,0,4.43-65.43C186.28,279.1,186.26,276.41,186.23,273.72Z"/></g><path class="cls-1" d="M350.35,273.72c0-2.21,2.86-2.6,3.85-1.17a53.48,53.48,0,0,1,24.29,11.06l0,0a1,1,0,0,1,.17.12,446.46,446.46,0,0,1,61.56,62.08,460.8,460.8,0,0,1,48.34,72.32,457.71,457.71,0,0,1,33.82,80.13q6.51,20.78,11,42.12c2.75,13.25,5.42,28.06.47,41.13A31.63,31.63,0,0,1,521.58,597a38.33,38.33,0,0,1-18.64,5.73c-15.13.88-29-6.25-41.14-14.62-2.89-2-5.72-4.09-8.54-6.19-8.63-4.37-14.51-12.51-19.68-20.45q-8.94-13.72-16.95-28a520.49,520.49,0,0,1-61.89-186.26,509.41,509.41,0,0,1-4.43-65.43C350.3,279.1,350.32,276.41,350.35,273.72Z"/><g class="cls-2"><path class="cls-3" d="M429.06,479.12c3.07-20.68,6.29-41.34,10.1-61.9,3.55-19.17,7.56-38.25,12.15-57.2q-5.4-7.18-11.07-14.19a446.46,446.46,0,0,0-61.56-62.08,1,1,0,0,0-.17-.12l0,0a53.48,53.48,0,0,0-24.29-11.06c-1-1.43-3.82-1-3.85,1.17,0,2.69-.05,5.38,0,8.07a509.41,509.41,0,0,0,4.43,65.43,520.91,520.91,0,0,0,61.89,186.26q2.3,4.08,4.67,8.12C423.27,520.7,426,499.88,429.06,479.12Z"/></g><path class="cls-4" d="M457.41,46.29A64.2,64.2,0,0,0,426,7.65c-15.21-7.95-33.57-10-50-4.77a54.85,54.85,0,0,0-23.06,14,42.92,42.92,0,0,0-11.7,24.47,36.27,36.27,0,0,0-.11,6.91,2.06,2.06,0,0,0,1,1.64L357.6,66.24l55.47,58.62a1.82,1.82,0,0,0,.79.51,1.77,1.77,0,0,0,2.21.79,66.31,66.31,0,0,0,36.5-31A64.08,64.08,0,0,0,457.41,46.29Z"/><path class="cls-5" d="M440.14,51.47a44.33,44.33,0,0,0-21.7-26.69,45.59,45.59,0,0,0-34.53-3.29A37.74,37.74,0,0,0,368,31.12,29.59,29.59,0,0,0,359.91,48a23.86,23.86,0,0,0-.1,4.39,2,2,0,0,0-.08,2.93l39.6,39.59q5.25,5.26,10.52,10.52a1.29,1.29,0,0,0,1.51,1.23,2.11,2.11,0,0,0,2.35-.85A45.86,45.86,0,0,0,436.8,85.19,44.28,44.28,0,0,0,440.14,51.47Z"/><path class="cls-5" d="M412,107.83a2.74,2.74,0,0,1-.7-.09,2.18,2.18,0,0,1-1.47-.42,2.46,2.46,0,0,1-.91-1.35L359,56.08a3,3,0,0,1-.92-2.15,3.18,3.18,0,0,1,.67-1.89,24.68,24.68,0,0,1,.13-4.14,30.73,30.73,0,0,1,8.36-17.5,38.83,38.83,0,0,1,16.37-9.91,46.49,46.49,0,0,1,35.33,3.36,45.52,45.52,0,0,1,22.21,27.32h0a45.58,45.58,0,0,1-3.42,34.51,46.72,46.72,0,0,1-23.36,21A3.2,3.2,0,0,1,412,107.83Zm-.53-2.23.26.09a1.09,1.09,0,0,0,1.17-.47l.18-.24.28-.12a44.58,44.58,0,0,0,22.55-20.17,43.48,43.48,0,0,0,3.26-32.92h0A43.41,43.41,0,0,0,418,25.71a44.42,44.42,0,0,0-33.73-3.23,36.76,36.76,0,0,0-15.49,9.37A28.68,28.68,0,0,0,361,48.15a23.25,23.25,0,0,0-.1,4.19l0,.48-.35.34a1.12,1.12,0,0,0-.37.78.93.93,0,0,0,.31.66L410.84,105l0,.36a.45.45,0,0,0,.15.31s.05,0,.14,0Z"/><g class="cls-2"><path class="cls-3" d="M430.48,108.19A171.19,171.19,0,0,0,413.9,76.05a121.53,121.53,0,0,0-23-26.12,85.42,85.42,0,0,0-28.74-16.09,77.61,77.61,0,0,0-18.09-3.45,41.7,41.7,0,0,0-2.86,10.91,36.27,36.27,0,0,0-.11,6.91,2.06,2.06,0,0,0,1,1.64L357.6,66.24l55.47,58.62a1.82,1.82,0,0,0,.79.51,1.77,1.77,0,0,0,2.21.79,64.78,64.78,0,0,0,17.59-9.3C432.67,114,431.61,111.05,430.48,108.19Z"/></g><path class="cls-4" d="M79.17,46.29A64.22,64.22,0,0,1,110.6,7.65c15.2-7.95,33.57-10,50-4.77a54.73,54.73,0,0,1,23.06,14,42.85,42.85,0,0,1,11.7,24.47,35.47,35.47,0,0,1,.12,6.91,2.07,2.07,0,0,1-1,1.64L179,66.24l-55.46,58.62a1.94,1.94,0,0,1-.79.51,1.78,1.78,0,0,1-2.22.79,66.37,66.37,0,0,1-36.5-31A64.17,64.17,0,0,1,79.17,46.29Z"/><path class="cls-5" d="M96.44,51.47a44.36,44.36,0,0,1,21.7-26.69,45.6,45.6,0,0,1,34.53-3.29,37.77,37.77,0,0,1,15.93,9.63A29.65,29.65,0,0,1,176.68,48a24.78,24.78,0,0,1,.1,4.39,2,2,0,0,1,.07,2.93L137.26,94.93l-10.52,10.52a1.31,1.31,0,0,1-1.52,1.23,2.11,2.11,0,0,1-2.35-.85A45.88,45.88,0,0,1,99.79,85.19,44.28,44.28,0,0,1,96.44,51.47Z"/><path class="cls-5" d="M124.62,107.83a3.18,3.18,0,0,1-2.39-1.13,46.6,46.6,0,0,1-23.36-21,45.86,45.86,0,0,1,18.79-61.83A46.49,46.49,0,0,1,153,20.49a38.73,38.73,0,0,1,16.36,9.91,30.76,30.76,0,0,1,8.36,17.5,25.69,25.69,0,0,1,.14,4.14,3.17,3.17,0,0,1,.66,1.89,3,3,0,0,1-.92,2.15L127.7,106a2.53,2.53,0,0,1-.92,1.35,2.19,2.19,0,0,1-1.47.42A2.72,2.72,0,0,1,124.62,107.83Zm15-87.3a45.34,45.34,0,0,0-21,5.18,43.77,43.77,0,0,0-17.93,59,44.64,44.64,0,0,0,22.56,20.17l.28.12.17.24a1.09,1.09,0,0,0,1.17.47l.26-.09.27.05c.09,0,.12,0,.14,0a.47.47,0,0,0,.15-.31l0-.36,10.77-10.77L176.11,54.6a.93.93,0,0,0,.31-.66,1.12,1.12,0,0,0-.37-.78l-.34-.34,0-.48a24.2,24.2,0,0,0-.1-4.19,28.63,28.63,0,0,0-7.8-16.3,36.73,36.73,0,0,0-15.48-9.37A42.51,42.51,0,0,0,139.58,20.53Z"/><g class="cls-2"><path class="cls-3" d="M185.55,19c-2.34,1.17-4.65,2.41-6.91,3.72a154.76,154.76,0,0,0-27.37,20.54A180.05,180.05,0,0,0,129.62,67a149.55,149.55,0,0,0-17.73,30.75,169.28,169.28,0,0,0-6,16.63c-.4,1.27-.75,2.53-1.08,3.79a64.6,64.6,0,0,0,15.74,8,1.78,1.78,0,0,0,2.22-.79,1.94,1.94,0,0,0,.79-.51L179,66.24l15.51-16.39a2.07,2.07,0,0,0,1-1.64,35.47,35.47,0,0,0-.12-6.91A42.54,42.54,0,0,0,185.55,19Z"/></g><path class="cls-4" d="M457.54,434.62a290.07,290.07,0,0,0-31-78.41,267.28,267.28,0,0,0-52.18-64.95A1.9,1.9,0,0,0,374,291a2,2,0,0,0-.55-.8,109.63,109.63,0,0,0-19.83-14.27C398.84,252,429,209.71,429,161.58c0-74.39-72-134.9-160.53-134.9S108,87.19,108,161.58c0,47.91,29.88,90.06,74.79,114a119.31,119.31,0,0,0-21.67,17l-.18.23a267.73,267.73,0,0,0-50.83,63.7,289.94,289.94,0,0,0-31,78.42,284.65,284.65,0,0,0-6.78,86.34,294.36,294.36,0,0,0,19.45,85.17,278.11,278.11,0,0,0,43.14,74.31q3.34,4.1,6.85,8a1.93,1.93,0,0,0,.54.43q5.5,23.91,11.91,47.58,7.49,27.52,16.2,54.62,4.19,13,8.66,25.85a34.07,34.07,0,0,0-13.53-1.84,34.78,34.78,0,0,0-25.24,14.39,39.73,39.73,0,0,0-7.07,15.92,2.54,2.54,0,0,0,0,.61c-1,1.14-.6,3.61,1.33,3.61h85.37a1.75,1.75,0,0,0,1.1-.36,3,3,0,0,0,.69-.21c7.72-3.54,13.11-11.67,14.14-20.53a2.11,2.11,0,0,0,.37-1.25V719.94a1.56,1.56,0,0,0,0-.38c0-.23,0-.45,0-.68v-1a2.29,2.29,0,0,0,0-.47A147.37,147.37,0,0,1,237.72,691a68.71,68.71,0,0,1,2.95-13.29c1.27-3.43,3.53-6.79,6.9-8.06a2,2,0,0,0,1.18-1.18c3.53.41,7.07.76,10.62,1a207.19,207.19,0,0,0,29.48-.24l.16.08c3.37,1.27,5.63,4.63,6.91,8.07a67.86,67.86,0,0,1,2.94,13.28A147.43,147.43,0,0,1,300.49,717a2.34,2.34,0,0,0-.05.47v1c0,.23,0,.46,0,.69s0,.25,0,.38V827.3a2.09,2.09,0,0,0,.38,1.25c1,8.86,6.41,17,14.14,20.53a2.43,2.43,0,0,0,.68.21,1.77,1.77,0,0,0,1.1.36h85.37c1.94,0,2.37-2.47,1.33-3.61a2.52,2.52,0,0,0,0-.61,39.63,39.63,0,0,0-7.07-15.91,34.74,34.74,0,0,0-25.24-14.39A33.91,33.91,0,0,0,357.56,817q4.47-12.87,8.66-25.85Q375,764,382.43,736.49q6.42-23.64,11.9-47.58a1.76,1.76,0,0,0,.54-.43q3.51-3.94,6.86-8a278.19,278.19,0,0,0,43.13-74.31A294.36,294.36,0,0,0,464.31,521,284.64,284.64,0,0,0,457.54,434.62Z"/><ellipse class="cls-5" cx="268.29" cy="458.04" rx="144.61" ry="169.93"/><path class="cls-5" d="M268.29,629C188,629,122.67,552.29,122.67,458S188,287.1,268.29,287.1,413.91,363.78,413.91,458,348.59,629,268.29,629Zm0-339.85c-79.18,0-143.6,75.78-143.6,168.92S189.11,627,268.29,627,411.89,551.18,411.89,458,347.47,289.12,268.29,289.12Z"/><path class="cls-6" d="M371.48,296.83a48.29,48.29,0,0,0,8.08-14.28c3-9,1.26-20.19-7.11-25.75s-19.43-3.11-28.24-.2a113.65,113.65,0,0,0-49.93,33.25,2.06,2.06,0,0,0-1.17.84A70.24,70.24,0,0,0,283,312.79,48.24,48.24,0,0,0,281,325a9.9,9.9,0,0,0,3.88,8.28,2,2,0,0,0,.48.74q2.76,2.79,5.69,5.4a130.65,130.65,0,0,0,54.76,29.07c9.37,2.35,21.68,4.89,28.5-4,6.45-8.42,3.75-19.58-1.25-27.95-4.84-8.12-14.76-16.86-10.4-27.22C364.66,304.58,368.39,300.81,371.48,296.83Z"/><path class="cls-6" d="M360.1,371.25A60.85,60.85,0,0,1,345.7,369a130.88,130.88,0,0,1-55-29.18c-1.9-1.69-3.83-3.51-5.72-5.42a2.69,2.69,0,0,1-.54-.77c-2.53-1.84-3.94-4.89-4-8.62a48.21,48.21,0,0,1,2-12.34,70.24,70.24,0,0,1,10.22-22.26,2.68,2.68,0,0,1,1.3-1A113.8,113.8,0,0,1,344,256.1c8.11-2.68,19.91-5.57,28.7.27,9,6,10.11,17.85,7.31,26.35-1.51,4.61-4.11,9.19-8.16,14.43h0c-.76,1-1.56,2-2.36,2.92-2.41,2.92-4.9,5.94-6.37,9.42-3.24,7.7,1.68,14.46,6.43,21,1.45,2,2.82,3.87,3.94,5.76,6.33,10.6,6.78,21.27,1.22,28.54C371,369.67,365.78,371.25,360.1,371.25ZM360.31,254c-5.65,0-11.39,1.58-15.94,3.08a112.8,112.8,0,0,0-49.7,33.1l-.1.12-.15,0a1.57,1.57,0,0,0-.88.64,69.25,69.25,0,0,0-10.07,21.93A47.79,47.79,0,0,0,281.54,325c0,3.45,1.33,6.24,3.66,7.86l.14.09.05.16a1.59,1.59,0,0,0,.36.55c1.88,1.89,3.79,3.7,5.67,5.38A130,130,0,0,0,346,368c10.15,2.55,21.52,4.57,28-3.84,7.84-10.25,1-23.54-1.28-27.36-1.11-1.85-2.46-3.71-3.89-5.68-4.7-6.45-10-13.77-6.55-22,1.52-3.62,4.06-6.7,6.52-9.67.8-1,1.59-1.93,2.34-2.9a47.36,47.36,0,0,0,8-14.12c2.67-8.13,1.65-19.47-6.9-25.15A21,21,0,0,0,360.31,254Z"/><path class="cls-6" d="M254.6,312.57c-1.86-7.85-6.26-14.83-10.59-21.53a2,2,0,0,0-1.49-1,113.73,113.73,0,0,0-50.14-33.49c-8.82-2.91-19.91-5.34-28.24.2s-10.08,16.73-7.11,25.75a47.86,47.86,0,0,0,8.08,14.28c3.08,4,6.81,7.75,8.79,12.46,4.37,10.36-5.56,19.1-10.4,27.22-5,8.37-7.69,19.53-1.25,27.95,6.83,8.92,19.13,6.38,28.51,4a130.61,130.61,0,0,0,54.75-29.07c1.6-1.42,3.16-2.9,4.68-4.41a2,2,0,0,0,1.63-1C255.85,327.69,256.31,319.76,254.6,312.57Z"/><path class="cls-6" d="M176.49,371.25c-5.69,0-10.91-1.58-14.65-6.47-5.57-7.27-5.11-17.94,1.21-28.54,1.13-1.89,2.5-3.77,3.94-5.76,4.76-6.53,9.68-13.29,6.43-21-1.46-3.48-3.95-6.5-6.36-9.42-.81-1-1.6-1.94-2.36-2.92-4.06-5.24-6.65-9.82-8.17-14.43-2.79-8.5-1.69-20.37,7.32-26.35,8.78-5.84,20.58-3,28.69-.27a113.75,113.75,0,0,1,50.25,33.5,2.55,2.55,0,0,1,1.66,1.16c3.88,6,8.71,13.47,10.66,21.69s.92,15.93-2.85,21.87a2.51,2.51,0,0,1-1.84,1.2c-1.65,1.62-3.14,3-4.56,4.29a131,131,0,0,1-55,29.18A60.77,60.77,0,0,1,176.49,371.25ZM176.27,254a21.05,21.05,0,0,0-11.85,3.23c-8.55,5.68-9.57,17-6.9,25.15a47.36,47.36,0,0,0,8,14.12c.76,1,1.55,1.93,2.34,2.9,2.46,3,5,6,6.53,9.67,3.47,8.25-1.85,15.57-6.55,22-1.43,2-2.79,3.83-3.89,5.68-2.29,3.82-9.13,17.11-1.28,27.36,6.43,8.41,17.8,6.39,28,3.84a129.9,129.9,0,0,0,54.53-29c1.45-1.29,3-2.72,4.67-4.39l.14-.14h.2a1.46,1.46,0,0,0,1.21-.73c3.62-5.7,4.58-13.19,2.71-21.07-1.91-8.05-6.68-15.43-10.51-21.37a1.49,1.49,0,0,0-1.11-.71l-.21,0-.13-.16a112.66,112.66,0,0,0-49.92-33.34C187.66,255.59,181.92,254,176.27,254Z"/><path class="cls-7" d="M296,309.88q0-5.33-.26-10.64a32.07,32.07,0,0,0-1.09-8.78,11.32,11.32,0,0,0-4.92-6.37,19.62,19.62,0,0,0-8.41-2.17,87.32,87.32,0,0,0-20.87.85c-5.17.81-10.58,2.21-14.86,5.36a16.89,16.89,0,0,0-5.65,6.8,22.49,22.49,0,0,0-1.51,10.37,100.12,100.12,0,0,0,4.33,22.55,1.9,1.9,0,0,0,.82,1.1,1.78,1.78,0,0,0,.33.51c3.81,4.37,9.61,5.83,15.16,6.42a100.37,100.37,0,0,0,20.21-.08c5.67-.56,12.13-1.51,14.91-7.23a21.11,21.11,0,0,0,1.75-8.48C296,316.69,296,313.28,296,309.88Z"/><path class="cls-7" d="M268.33,336.88a87.66,87.66,0,0,1-9.35-.48c-4.61-.49-11.24-1.71-15.5-6.59a2.58,2.58,0,0,1-.34-.5,2.48,2.48,0,0,1-.91-1.31,99.73,99.73,0,0,1-4.35-22.67,22.67,22.67,0,0,1,1.56-10.61,17.33,17.33,0,0,1,5.81-7c4.78-3.52,10.9-4.8,15.09-5.46a88,88,0,0,1,21-.85,20,20,0,0,1,8.62,2.24,11.77,11.77,0,0,1,5.15,6.66,29.89,29.89,0,0,1,1.1,8.35l0,.57c.14,3.54.23,7.13.26,10.66H296l.52.05c0,3.34.07,6.79-.06,10.18a22,22,0,0,1-1.8,8.69c-2.83,5.82-9.12,6.91-15.33,7.52Q273.62,336.88,268.33,336.88Zm6.22-54.72a90.45,90.45,0,0,0-14.05,1.13c-4.08.64-10,1.88-14.63,5.27a16.46,16.46,0,0,0-5.48,6.57,21.88,21.88,0,0,0-1.47,10.14,99.3,99.3,0,0,0,4.31,22.43,1.39,1.39,0,0,0,.6.81l.13.08.06.14a2,2,0,0,0,.25.39c4,4.61,10.39,5.77,14.82,6.24a99.43,99.43,0,0,0,20.1-.08c5.92-.59,11.91-1.6,14.5-6.94a20.8,20.8,0,0,0,1.69-8.27c.13-3.37.1-6.8.07-10.13v-.05c0-3.52-.11-7.1-.25-10.63l0-.57a29.84,29.84,0,0,0-1.05-8.07,10.78,10.78,0,0,0-4.69-6.08,19.12,19.12,0,0,0-8.18-2.1C279.05,282.25,276.81,282.16,274.55,282.16Z"/><path class="cls-8" d="M148,240.82c.91-.09,1.31-.14,2-.25a42.44,42.44,0,0,0,18.19-7.52c10.14-7.15,17.67-19.07,17.26-31.6a28.68,28.68,0,0,0-1.88-9.37,34.52,34.52,0,0,0-4.91-8.67,41.67,41.67,0,0,0-7.68-7.63,36.6,36.6,0,0,0-8.54-4.7,40.69,40.69,0,0,0-36.3,4.35,34.93,34.93,0,0,0-12.16,13.35,30.14,30.14,0,0,0-2,5.22,125.69,125.69,0,0,0,25.57,46.32c1,.2,1.93.35,2.66.43a39.42,39.42,0,0,0,5.21.22Q146.66,240.94,148,240.82Z"/><path class="cls-8" d="M424.62,189.86c-.21-.72-.46-1.44-.72-2.16l-.36-.92,0-.07c-.06-.15-.12-.29-.19-.43a30.69,30.69,0,0,0-1.84-3.5c-.36-.6-.74-1.19-1.15-1.76-.17-.25-.36-.5-.54-.75l-.06-.08-.24-.3a29.87,29.87,0,0,0-11.77-8.95l-.52-.23h0l-.84-.34c-.57-.22-1.15-.42-1.72-.61-1.24-.41-2.5-.76-3.77-1-.64-.15-1.28-.28-1.92-.4l-.92-.15-.82-.12-.8-.1-.93-.08c-.62-.06-1.25-.1-1.88-.13a49,49,0,0,0-8,.32l-.15,0h-.1l-.47.07-.95.16c-.62.1-1.25.22-1.87.36-1.33.28-2.64.62-3.94,1a38.62,38.62,0,0,0-7,2.79,42.87,42.87,0,0,0-6.69,4.19l-.67.53-.73.62c-.48.42-1,.84-1.42,1.28a39.17,39.17,0,0,0-2.8,3,35,35,0,0,0-4.35,6.52c-.32.63-.63,1.27-.92,1.91l-.19.45,0,.09-.37.94a41,41,0,0,0-1.3,4.21,36.52,36.52,0,0,0-1.12,11.73,33.62,33.62,0,0,0,8.93,19.83,48.61,48.61,0,0,0,30.74,14.74,23.22,23.22,0,0,0,6.21-.26A125.54,125.54,0,0,0,424.66,190,.74.74,0,0,0,424.62,189.86Z"/><path class="cls-9" d="M209.75,142.05a11.75,11.75,0,0,1-21,3c-1.5-2.22-5.13-.13-3.61,2.11a16,16,0,0,0,28.66-4C214.61,140.59,210.58,139.49,209.75,142.05Z"/><path class="cls-9" d="M198.7,156.54a18.59,18.59,0,0,1-15.31-8.18,3.86,3.86,0,0,1-.34-3.91,4.46,4.46,0,0,1,3.65-2.4,4.18,4.18,0,0,1,3.77,1.86,9.67,9.67,0,0,0,17.29-2.51h0a4.07,4.07,0,0,1,3.06-2.8,4.43,4.43,0,0,1,4.17,1.31,3.88,3.88,0,0,1,.79,3.89,17.85,17.85,0,0,1-17.08,12.74Zm7.8-6.75a14,14,0,0,1-3.64,1.89A13.57,13.57,0,0,0,206.5,149.79Zm5.24-7.11h0Z"/><path class="cls-9" d="M325.9,142.05a11.75,11.75,0,0,0,21,3c1.5-2.22,5.13-.13,3.61,2.11a16,16,0,0,1-28.66-4C321,140.59,325.07,139.49,325.9,142.05Z"/><path class="cls-9" d="M337,156.54a18,18,0,0,1-2.64-.2,18.28,18.28,0,0,1-14.44-12.54,3.86,3.86,0,0,1,.79-3.89,4.4,4.4,0,0,1,4.16-1.31,4.08,4.08,0,0,1,3.07,2.8,9.67,9.67,0,0,0,17.29,2.51,4.19,4.19,0,0,1,3.77-1.86,4.43,4.43,0,0,1,3.64,2.4,3.82,3.82,0,0,1-.34,3.91A18.57,18.57,0,0,1,337,156.54ZM329.49,150a14.15,14.15,0,0,0,3.27,1.65A15,15,0,0,1,329.49,150Zm19.16-3.8h0l-.23.32Z"/><path class="cls-9" d="M291.18,219.74a2.19,2.19,0,0,0-2.86.7,10.22,10.22,0,0,1-9.33,5.43,10.09,10.09,0,0,1-8.6-5.52V189.8c0-2.53-4.18-2.53-4.18,0v30.73a1.41,1.41,0,0,0,0,.41v.13a1.3,1.3,0,0,0-.1.15,8.86,8.86,0,0,1-15.65.43c-1.26-2.24-4.87-.25-3.61,2a13.21,13.21,0,0,0,11.71,6.44,13.41,13.41,0,0,0,10.08-5.14,14.32,14.32,0,0,0,23.29-2.5A1.94,1.94,0,0,0,291.18,219.74Z"/><path class="cls-9" d="M258.13,232.17a15.3,15.3,0,0,1-13.1-7.51,4,4,0,0,1,1.62-5.51,4,4,0,0,1,5.63,1.47,6.9,6.9,0,0,0,6.21,3.43,6.82,6.82,0,0,0,5.62-3.52c0-.05,0-.09,0-.13V189.8a4.19,4.19,0,0,1,8.37,0v30.06a8,8,0,0,0,6.56,3.92,8.13,8.13,0,0,0,7.42-4.3,3.84,3.84,0,0,1,2.35-1.89,4.38,4.38,0,0,1,3.37.32h0a4,4,0,0,1,1.6,5.49A16.41,16.41,0,0,1,268.73,228a15.5,15.5,0,0,1-10.09,4.21Zm9.78-9.87-.27.48.87-1.15.48.54c-.18-.31-.35-.63-.5-1l-.19-.41v.91Zm-.06.08h0Zm.13-.22h0Zm22.2-.59h0l1-1.83-1,1.83Zm-21.89-.83v0Z"/><path class="cls-10" d="M297.42,177.2c-1-3.92-5.14-7.76-9.28-10.46a23.3,23.3,0,0,0-12.91-3.8,4.05,4.05,0,0,0-1.48-.22c-10.72.29-22.38,1.18-29.29,7.52-6.05,5.56-3.43,12.85,4.09,17,9,5,21.17,4.35,31.8,2.53C289.23,188.28,299.33,184.62,297.42,177.2Z"/></g></g></svg>