<?xml version="1.0" encoding="utf-8"?>
<!-- Generator: Adobe Illustrator 24.0.0, SVG Export Plug-In . SVG Version: 6.00 Build 0)  -->
<svg version="1.1" xmlns="http://www.w3.org/2000/svg" xmlns:xlink="http://www.w3.org/1999/xlink" x="0px" y="0px"
	 viewBox="0 0 64 64" style="enable-background:new 0 0 64 64;" xml:space="preserve">
<style type="text/css">
	.st0{fill:#BFCBD8;}
	.st1{fill:#FFFFFF;}
	.st2{fill:#454852;}
	.st3{fill:#F15642;}
	.st4{fill:#EF403A;}
	.st5{fill:#C72932;}
	.st6{fill:#81C56D;}
	.st7{fill:#4EA258;}
	.st8{fill:#F6978F;}
	.st9{opacity:0.8;}
	.st10{fill:#982433;}
	.st11{fill:#5BAA5E;}
	.st12{fill:#E2E8F0;}
	.st13{fill:#ABBBC9;}
	.st14{fill:#CE2B34;}
	.st15{fill:#D27C2B;}
	.st16{fill:#A05223;}
	.st17{fill:#F19920;}
	.st18{fill:#BCDA86;}
	.st19{fill:#FFCC5C;}
	.st20{fill:#FBAC38;}
	.st21{fill:#E5891F;}
	.st22{fill:#F15B44;}
	.st23{fill:#FFEDAA;}
	.st24{fill:#50BEE8;}
	.st25{fill:#B9E5FB;}
	.st26{fill:#E1F4FD;}
	.st27{fill:#C7EAFB;}
	.st28{fill:#ABE1FA;}
	.st29{fill:#CAD1D8;}
	.st30{fill:#F79549;}
	.st31{fill:#F9A659;}
	.st32{fill:#FFD25D;}
	.st33{fill:#F26A5F;}
	.st34{fill:#FDDBD0;}
	.st35{fill:#F9B9AE;}
	.st36{fill:#2D3242;}
	.st37{fill:#676A75;}
	.st38{fill:#310E31;}
	.st39{fill:#6B2943;}
	.st40{opacity:0.6;}
	.st41{fill:#F04B4D;}
	.st42{fill:#4F525D;}
	.st43{fill:#EF948F;}
	.st44{fill:#A5A5A6;}
	.st45{fill:#FCD063;}
	.st46{fill:none;}
	.st47{fill:#D57E28;}
</style>
<g id="snowman_x5F_2">
</g>
<g id="holly">
</g>
<g id="sock">
</g>
<g id="xmas_x5F_tree">
</g>
<g id="winter_x5F_tree">
</g>
<g id="snowman_x5F_1">
	<g>
		<g>
			<g>
				<path class="st7" d="M39.41,31.56c-1.66-1.23-4.35-1.23-6.01,0c-0.02,0.01-0.03,0.02-0.05,0.04c-2.31,1.65-5.23-1.16-3.71-3.53
					l12.77-19.8l12.77,19.8c1.52,2.36-1.4,5.18-3.71,3.53c-0.02-0.01-0.03-0.02-0.05-0.04c-1.66-1.23-4.35-1.23-6.01,0
					C43.76,32.78,41.07,32.78,39.41,31.56z"/>
			</g>
			<g>
				<path class="st6" d="M40.3,20.46c-1.17-0.89-3.07-0.89-4.24,0c-0.01,0.01-0.02,0.02-0.04,0.03c-1.63,1.19-3.69-0.84-2.62-2.55
					l9.01-14.32l9.01,14.32c1.08,1.71-0.99,3.75-2.62,2.55c-0.01-0.01-0.02-0.02-0.04-0.03c-1.17-0.89-3.07-0.89-4.24,0
					C43.36,21.35,41.47,21.35,40.3,20.46z"/>
			</g>
			<g>
				<path class="st18" d="M34.97,20.95c-0.69,0-1.37-0.42-1.73-1.07c-0.13-0.24-0.05-0.55,0.2-0.68c0.24-0.13,0.54-0.05,0.68,0.2
					c0.18,0.33,0.53,0.55,0.85,0.55h0c0.18,0,0.36-0.07,0.55-0.21c0.71-0.54,1.66-0.84,2.65-0.84c0.28,0,0.5,0.22,0.5,0.5
					s-0.22,0.5-0.5,0.5c-0.78,0-1.51,0.23-2.05,0.64C35.75,20.82,35.38,20.95,34.97,20.95C34.97,20.95,34.97,20.95,34.97,20.95z"/>
			</g>
			<g>
				<path class="st7" d="M51.46,17.98L43.49,5.32l-1.08-1.71l0,0l0,0v0h0l0.31,2.5l1.81,14.35c1.17-0.89,3.07-0.89,4.24,0
					C50.43,21.69,52.55,19.72,51.46,17.98z"/>
			</g>
		</g>
		<g>
			<g>
				<path class="st6" d="M26.49,19.12c-1.17-0.89-3.07-0.89-4.24,0c-0.01,0.01-0.02,0.02-0.04,0.03c-1.63,1.19-3.69-0.84-2.62-2.55
					l9.01-14.32l9.01,14.32c1.08,1.71-0.99,3.75-2.62,2.55c-0.01-0.01-0.02-0.02-0.04-0.03c-1.17-0.89-3.07-0.89-4.24,0
					C29.56,20.01,27.66,20.01,26.49,19.12z"/>
			</g>
			<g>
				<path class="st18" d="M21.17,19.61c-0.69,0-1.37-0.42-1.73-1.07c-0.13-0.24-0.05-0.55,0.2-0.68c0.24-0.13,0.55-0.05,0.68,0.2
					c0.18,0.33,0.53,0.55,0.85,0.55h0c0.12,0,0.3-0.02,0.55-0.21c0.71-0.54,1.66-0.84,2.65-0.84c0.28,0,0.5,0.22,0.5,0.5
					s-0.22,0.5-0.5,0.5c-0.78,0-1.51,0.23-2.05,0.64C21.94,19.48,21.61,19.6,21.17,19.61z"/>
			</g>
			<g>
				<path class="st7" d="M37.65,16.64L29.69,3.98l-1.08-1.71l0,0l0,0v0h0l0.31,2.5l1.47,11.65c0.15,1.21,1.21,2.04,2.42,2.03
					c0.78-0.01,1.56,0.21,2.16,0.66C36.62,20.35,38.75,18.38,37.65,16.64z"/>
			</g>
			<g>
				<path class="st6" d="M28.61,19.9c-0.28,0-0.5-0.22-0.5-0.5s0.22-0.5,0.5-0.5c0.61,0,1.17-0.17,1.58-0.49
					c0.72-0.54,1.66-0.84,2.66-0.84c0.28,0,0.5,0.22,0.5,0.5s-0.22,0.5-0.5,0.5c-0.78,0-1.51,0.23-2.05,0.64
					C30.21,19.65,29.44,19.9,28.61,19.9z"/>
			</g>
		</g>
		<g>
			<g>
				<path class="st7" d="M6.57,57.17c0.03,0.02,0.05,0.04,0.08,0.06c2.64,2.05,6.92,2.05,9.57,0c2.64-2.05,6.92-2.05,9.57,0
					c2.64,2.05,6.92,2.05,9.57,0c0.03-0.02,0.05-0.04,0.08-0.06v-9H6.57V57.17z"/>
			</g>
			<g>
				<path class="st15" d="M22,64H12v-1h0c1.1,0,2-0.9,2-2v-2h6v2c0,1.1,0.9,2,2,2h0V64z"/>
			</g>
			<g>
				<path class="st16" d="M20,61v-0.5V59v-1l-6-1v3.5c0,0.24,0.99,0.44,2.32,0.49c0.1,0,0.37,0,0.67,0c0.52,0,0.95,0.39,1,0.91
					l0.05,0.51c0.04,0.4,0.16,0.75,0.28,1.02c0.16,0.35,0.52,0.58,0.91,0.58L22,64v-1C20.9,63,20,62.1,20,61z"/>
			</g>
			<g>
				<path class="st6" d="M16.22,58.46c-2.64-2.05-6.92-2.05-9.57,0c-0.03,0.02-0.05,0.04-0.08,0.06c-3.67,2.76-8.33-1.95-5.9-5.9
					L21,19.5l20.33,33.12c2.43,3.95-2.23,8.66-5.9,5.9c-0.03-0.02-0.05-0.04-0.08-0.06c-2.64-2.05-6.92-2.05-9.57,0
					C23.14,60.51,18.86,60.51,16.22,58.46z"/>
			</g>
			<g>
				<path class="st7" d="M41.33,52.62l-7.21-11.75l-2.31-3.77L21,27.6l-10.81,9.5l-3.07,5c-0.89,1.45,0.58,3.19,2.16,2.56l0.04-0.02
					l0.06-0.03c2.14-0.89,5.64-0.86,7.79,0.02c1.06,0.44,2.45,0.65,3.83,0.65c0.65,0,1.64-0.18,2.54-0.39
					c1.13-0.26,2.23,0.5,2.41,1.64l1.24,7.91c0.24,1.51,1.59,2.53,3.12,2.48c1.81-0.06,3.65,0.44,5.04,1.52
					c0.03,0.02,0.05,0.04,0.08,0.06C39.1,61.28,43.76,56.57,41.33,52.62z"/>
			</g>
			<g>
				<path class="st6" d="M17.13,42.02c-2.14-1.58-5.61-1.58-7.74,0c-0.02,0.02-0.04,0.03-0.06,0.05c-2.97,2.13-6.74-1.5-4.78-4.55
					L21,12l16.46,25.52c1.96,3.05-1.81,6.67-4.78,4.55c-0.02-0.02-0.04-0.03-0.06-0.05c-2.14-1.58-5.61-1.58-7.74,0
					C22.73,43.6,19.27,43.6,17.13,42.02z"/>
			</g>
			<g>
				<path class="st18" d="M7.41,42.7c-1.21,0-2.4-0.73-3.01-1.85c-0.13-0.24-0.04-0.55,0.2-0.68c0.24-0.13,0.55-0.04,0.68,0.2
					c0.44,0.81,1.28,1.33,2.13,1.33c0.47,0,0.91-0.16,1.38-0.49c1.2-0.89,2.79-1.38,4.46-1.38c0.28,0,0.5,0.22,0.5,0.5
					s-0.22,0.5-0.5,0.5c-1.46,0-2.84,0.42-3.87,1.19C8.74,42.48,8.1,42.7,7.41,42.7z"/>
			</g>
			<g>
				<path class="st6" d="M21,60c-0.28,0-0.5-0.22-0.5-0.5S20.72,59,21,59c1.59,0,3.07-0.47,4.17-1.33c1.45-1.13,3.37-1.75,5.4-1.75
					c0.28,0,0.5,0.22,0.5,0.5s-0.22,0.5-0.5,0.5c-1.81,0-3.5,0.55-4.78,1.54C24.51,59.45,22.81,60,21,60z"/>
			</g>
			<g>
				<path class="st7" d="M37.46,37.52l-4.99-7.74l0,0l-3.06-4.75L21,17c0,0-8.4,8.03-8.4,8.03l-1.78,2.76
					c-0.84,1.3,0.52,2.9,1.94,2.29l0,0l0.05-0.02c1.52-0.68,3.99-0.64,5.52,0.03c0.93,0.41,2.18,0.56,3.36,0.46
					c1.03-0.09,1.93,0.69,2.08,1.71l0.88,6.1c0.23,1.61,1.7,2.72,3.31,2.54c1.65-0.18,3.38,0.19,4.65,1.13
					c0.02,0.02,0.04,0.03,0.06,0.05C35.65,44.19,39.42,40.56,37.46,37.52z"/>
			</g>
			<g>
				<path class="st6" d="M18.27,27.72c-1.51-1.14-3.96-1.14-5.47,0c-0.02,0.01-0.03,0.02-0.05,0.03c-2.1,1.54-4.76-1.09-3.37-3.29
					L21,6l11.62,18.46c1.39,2.2-1.27,4.83-3.37,3.29c-0.02-0.01-0.03-0.02-0.05-0.03c-1.51-1.14-3.96-1.14-5.47,0
					C22.22,28.86,19.78,28.86,18.27,27.72z"/>
			</g>
			<g>
				<path class="st18" d="M11.41,28.21c-0.84,0-1.66-0.51-2.1-1.3c-0.13-0.24-0.05-0.55,0.2-0.68c0.24-0.13,0.55-0.05,0.68,0.2
					c0.26,0.48,0.75,0.79,1.23,0.79h0c0.27,0,0.52-0.09,0.79-0.3c0.9-0.68,2.08-1.06,3.33-1.06c0.28,0,0.5,0.22,0.5,0.5
					s-0.22,0.5-0.5,0.5c-1.03,0-2,0.3-2.73,0.86C12.35,28.05,11.89,28.21,11.41,28.21C11.41,28.21,11.41,28.21,11.41,28.21z"/>
			</g>
			<g>
				<path class="st7" d="M32.65,24.52L22.39,8.21L21,6l0,0l0,0v0h0l0.41,3.22l1.89,15.02c0.2,1.56,1.55,2.63,3.12,2.62
					c1.01-0.01,2.02,0.28,2.78,0.86C31.33,29.3,34.07,26.76,32.65,24.52z"/>
			</g>
			<g>
				<path class="st6" d="M21,28.57c-0.28,0-0.5-0.22-0.5-0.5s0.22-0.5,0.5-0.5c0.82,0,1.57-0.23,2.13-0.65
					c0.9-0.68,2.09-1.06,3.34-1.06c0.28,0,0.5,0.22,0.5,0.5s-0.22,0.5-0.5,0.5c-1.03,0-2,0.3-2.73,0.86
					C23,28.27,22.03,28.57,21,28.57z"/>
			</g>
			<g>
				<path class="st18" d="M4.21,59.35c-1.44,0-2.87-0.89-3.64-2.27c-0.13-0.24-0.05-0.55,0.19-0.68c0.24-0.13,0.54-0.05,0.68,0.19
					c0.6,1.07,1.69,1.76,2.77,1.76c0,0,0,0,0,0c0.63,0,1.21-0.22,1.83-0.68c1.45-1.12,3.36-1.74,5.39-1.74c0.28,0,0.5,0.22,0.5,0.5
					s-0.22,0.5-0.5,0.5c-1.81,0-3.5,0.55-4.78,1.54C5.86,59.06,5.06,59.35,4.21,59.35C4.22,59.35,4.22,59.35,4.21,59.35z"/>
			</g>
			<g>
				<path class="st6" d="M21,43.2c-0.28,0-0.5-0.22-0.5-0.5s0.22-0.5,0.5-0.5c1.25,0,2.42-0.35,3.28-0.99
					c1.21-0.89,2.79-1.38,4.46-1.38c0.28,0,0.5,0.22,0.5,0.5s-0.22,0.5-0.5,0.5c-1.46,0-2.84,0.42-3.87,1.19S22.46,43.2,21,43.2z"/>
			</g>
		</g>
		<g>
			<g>
				<path class="st7" d="M36.51,58.7c0.02,0.02,0.04,0.03,0.06,0.05c2.05,1.59,5.37,1.59,7.42,0c2.05-1.59,5.16-0.89,7.21,0.7
					c2.05,1.59,5.59,0.89,7.64-0.7c0.02-0.02,0.04-0.03,0.06-0.05v-6.98H36.51V58.7z"/>
			</g>
			<g>
				<path class="st16" d="M54.76,64H47v-0.78l0,0c0.86,0,1.55-0.69,1.55-1.55v-1.55h4.66v1.55c0,0.86,0.69,1.55,1.55,1.55h0V64z"/>
			</g>
			<g>
				<path class="st16" d="M53.21,61.67v-0.39v-1.16V58l-4.66,1.34v1.94c0,0.18,0.77,0.34,1.8,0.38c0.07,0,0.28,0,0.52,0
					c0.4,0,0.74,0.3,0.78,0.7l0.04,0.39c0.03,0.31,0.12,0.58,0.22,0.79c0.13,0.28,0.4,0.45,0.7,0.45l2.15,0v-0.78
					C53.9,63.22,53.21,62.53,53.21,61.67z"/>
			</g>
			<g>
				<path class="st7" d="M44,59.7c-2.05-1.59-5.37-1.59-7.42,0c-0.02,0.02-0.04,0.03-0.06,0.05c-2.85,2.14-6.46-1.51-4.58-4.58
					l15.77-25.7l15.77,25.7c1.88,3.07-1.73,6.72-4.58,4.58c-0.02-0.02-0.04-0.03-0.06-0.05c-2.05-1.59-5.37-1.59-7.42,0
					S46.05,61.29,44,59.7z"/>
			</g>
			<g>
				<path class="st7" d="M44.7,46.95c-1.66-1.23-4.35-1.23-6.01,0c-0.02,0.01-0.03,0.02-0.05,0.04c-2.31,1.65-5.23-1.16-3.71-3.53
					l12.77-19.8l12.77,19.8c1.52,2.36-1.4,5.18-3.71,3.53c-0.02-0.01-0.03-0.02-0.05-0.04c-1.66-1.23-4.35-1.23-6.01,0
					C49.05,48.17,46.36,48.17,44.7,46.95z"/>
			</g>
			<g>
				<path class="st18" d="M37.17,47.59c-0.98,0-1.94-0.59-2.43-1.49c-0.13-0.24-0.04-0.55,0.2-0.68c0.24-0.13,0.55-0.04,0.68,0.2
					c0.5,0.92,1.6,1.3,2.56,0.61c0.95-0.7,2.2-1.09,3.53-1.09c0.28,0,0.5,0.22,0.5,0.5s-0.22,0.5-0.5,0.5
					c-1.11,0-2.15,0.32-2.94,0.9C38.24,47.41,37.72,47.59,37.17,47.59z"/>
			</g>
			<g>
				<path class="st6" d="M45.59,35.85c-1.17-0.89-3.07-0.89-4.24,0c-0.01,0.01-0.02,0.02-0.04,0.03c-1.63,1.19-3.69-0.84-2.62-2.55
					L47.71,19l9.01,14.32c1.08,1.71-0.99,3.75-2.62,2.55c-0.01-0.01-0.02-0.02-0.04-0.03c-1.17-0.89-3.07-0.89-4.24,0
					C48.66,36.73,46.76,36.73,45.59,35.85z"/>
			</g>
			<g>
				<path class="st18" d="M40.26,36.34c-0.69,0-1.37-0.42-1.73-1.07c-0.13-0.24-0.05-0.55,0.2-0.68c0.24-0.13,0.54-0.05,0.68,0.2
					c0.18,0.33,0.53,0.55,0.85,0.55h0c0.18,0,0.36-0.07,0.55-0.21c0.71-0.54,1.66-0.84,2.65-0.84c0.28,0,0.5,0.22,0.5,0.5
					s-0.22,0.5-0.5,0.5c-0.78,0-1.51,0.23-2.05,0.64C41.04,36.21,40.67,36.34,40.26,36.34C40.27,36.34,40.26,36.34,40.26,36.34z"/>
			</g>
			<g>
				<path class="st7" d="M56.75,33.37l-7.97-12.66L47.71,19l0,0l0,0v0h0l0.31,2.5l1.47,11.65c0.15,1.21,1.21,2.04,2.42,2.03
					c0.78-0.01,1.56,0.21,2.16,0.66C55.72,37.08,57.84,35.11,56.75,33.37z"/>
			</g>
			<g>
				<path class="st6" d="M47.71,36.63c-0.28,0-0.5-0.22-0.5-0.5s0.22-0.5,0.5-0.5c0.61,0,1.17-0.17,1.58-0.48
					c0.72-0.54,1.66-0.85,2.66-0.85c0.28,0,0.5,0.22,0.5,0.5s-0.22,0.5-0.5,0.5c-0.78,0-1.51,0.23-2.05,0.64
					C49.31,36.38,48.53,36.63,47.71,36.63z"/>
			</g>
			<g>
				<path class="st18" d="M34.68,60.5c-1.16,0-2.31-0.71-2.92-1.82c-0.13-0.24-0.05-0.55,0.19-0.68c0.24-0.13,0.55-0.05,0.68,0.19
					c0.45,0.79,1.25,1.31,2.05,1.31h0c0.46,0,0.89-0.16,1.35-0.51c1.14-0.89,2.65-1.38,4.25-1.38c0.28,0,0.5,0.22,0.5,0.5
					s-0.22,0.5-0.5,0.5c-1.38,0-2.67,0.42-3.64,1.17C36.01,60.27,35.37,60.5,34.68,60.5C34.69,60.5,34.68,60.5,34.68,60.5z"/>
			</g>
			<g>
				<path class="st6" d="M47.71,47.98c-0.28,0-0.5-0.22-0.5-0.5s0.22-0.5,0.5-0.5c0.95,0,1.83-0.27,2.48-0.75
					c0.95-0.71,2.21-1.09,3.53-1.09c0.28,0,0.5,0.22,0.5,0.5s-0.22,0.5-0.5,0.5c-1.11,0-2.15,0.32-2.94,0.9
					C49.96,47.64,48.86,47.98,47.71,47.98z"/>
			</g>
		</g>
		<g>
			<path class="st0" d="M30.76,27h8.48c3.4-1.6,5.76-5.04,5.76-9.05c0-5.52-4.48-10-10-10s-10,4.48-10,10
				C25,21.96,27.36,25.4,30.76,27z"/>
		</g>
		<g>
			<path class="st1" d="M16,64c0-2.76,2.46-5,5.5-5s5.5,2.24,5.5,5H16z"/>
		</g>
		<g>
			<path class="st0" d="M26.1,64h17.8C51.04,60.65,56,53.41,56,45c0-11.6-9.4-21-21-21s-21,9.4-21,21C14,53.41,18.96,60.65,26.1,64z
				"/>
		</g>
		<g>
			<path class="st1" d="M40,64c0-2.76,2.46-5,5.5-5s5.5,2.24,5.5,5H40z"/>
		</g>
		<g>
			<path class="st0" d="M47.93,59.51c-1-0.45-2.12,0.35-2.04,1.43c0.01,0.12,0.02,0.24,0.03,0.36c0.06,0.91-0.66,1.69-1.57,1.69
				H43.5c-0.28,0-0.5,0.22-0.5,0.5c0,0.28,0.22,0.5,0.5,0.5H46h0.5H51C51,62.03,49.75,60.33,47.93,59.51z"/>
		</g>
		<g>
			<path class="st0" d="M23.93,59.51c-1-0.45-2.12,0.35-2.04,1.43c0.01,0.12,0.02,0.24,0.03,0.36c0.06,0.91-0.66,1.69-1.57,1.69
				H19.5c-0.28,0-0.5,0.22-0.5,0.5c0,0.28,0.22,0.5,0.5,0.5H22h0.5H27C27,62.03,25.75,60.33,23.93,59.51z"/>
		</g>
		<g>
			<path class="st1" d="M41,38h-2V24.4c-2.68-0.52-5.53-0.56-8.48,0.07C21.7,26.37,15,33.9,14.11,42.88
				c-0.27,2.7-0.02,5.31,0.66,7.73c1.08,3.87,4.58,6.68,8.59,6.76c5.5,0.11,11.7-2.43,16.64-7.37c1.89-1.89,3.44-3.85,4.61-5.89
				C46.18,41.39,44.14,38,41,38L41,38z"/>
		</g>
		<g>
			<circle class="st0" cx="24" cy="42" r="1"/>
		</g>
		<g>
			<circle class="st0" cx="24" cy="48" r="1"/>
		</g>
		<g>
			<circle class="st0" cx="26" cy="36" r="1"/>
		</g>
		<g>
			<circle class="st0" cx="26" cy="54" r="1"/>
		</g>
		<g>
			<g>
				<path class="st1" d="M30.81,8.88c0.25-0.12,0.5-0.22,0.76-0.32C31.32,8.66,31.06,8.76,30.81,8.88z"/>
			</g>
			<g>
				<path class="st1" d="M31.84,8.47c0.23-0.08,0.46-0.15,0.7-0.21C32.3,8.33,32.07,8.4,31.84,8.47z"/>
			</g>
			<g>
				<path class="st1" d="M32.81,8.2c0.32-0.07,0.65-0.13,0.98-0.17C33.46,8.06,33.13,8.13,32.81,8.2z"/>
			</g>
			<g>
				<path class="st1" d="M29.79,9.43c0.29-0.18,0.59-0.34,0.9-0.49C30.38,9.09,30.08,9.25,29.79,9.43z"/>
			</g>
			<g>
				<path class="st1" d="M36.98,12.72c-1.8-0.85-3.69-1.48-5.65-1.87l-0.02,0c-0.74-0.15-1.31-0.71-1.52-1.42
					c-2.56,1.57-4.37,4.27-4.72,7.37c-0.15,1.32-0.04,2.6,0.29,3.78c0.52,1.9,2.29,3.26,4.26,3.27c2.58,0,5.46-1.21,7.77-3.51
					c0.44-0.44,0.84-0.9,1.19-1.37c1.56-2.07,0.78-5.11-1.57-6.23C37,12.73,36.99,12.72,36.98,12.72z"/>
			</g>
		</g>
		<g>
			<g>
				<path class="st4" d="M43.33,13l-13.6-3.33l4.79-8.63c0.44-0.79,1.35-1.19,2.23-0.97l4.8,1.18c0.88,0.21,1.5,0.99,1.52,1.89
					L43.33,13z"/>
			</g>
			<g>
				<g>
					<path class="st5" d="M39.2,3.25l-1.7,8.32L43.33,13l-0.25-9.87l-2.65-0.65C39.87,2.34,39.32,2.69,39.2,3.25z"/>
				</g>
			</g>
			<g>
				<path class="st4" d="M44.3,13.24L28.76,9.42c-0.54-0.13-0.86-0.67-0.73-1.21l0,0c0.13-0.54,0.67-0.86,1.21-0.73l15.54,3.81
					c0.54,0.13,0.86,0.67,0.73,1.21v0C45.38,13.04,44.84,13.37,44.3,13.24z"/>
			</g>
			<g>
				<path class="st5" d="M44.78,11.29l-4.86-1.19c-0.13,0.54-0.67,0.86-1.21,0.73l-9.23-2.26c-0.27-0.07-0.54,0.1-0.6,0.37
					c-0.07,0.27,0.1,0.54,0.37,0.6l10.2,2.5l0.49,0.12l4.37,1.07c0.54,0.13,1.08-0.2,1.21-0.73C45.64,11.97,45.31,11.42,44.78,11.29
					z"/>
			</g>
		</g>
		<g>
			<path class="st4" d="M44,26H26c-0.55,0-1-0.45-1-1v-2c0-0.55,0.45-1,1-1h18c0.55,0,1,0.45,1,1v2C45,25.55,44.55,26,44,26z"/>
		</g>
		<g>
			<path class="st4" d="M36,26v12.5V39v1.5c0,0.28,0.22,0.5,0.5,0.5s0.5-0.22,0.5-0.5v-1c0-0.28,0.22-0.5,0.5-0.5l0,0
				c0.28,0,0.5,0.22,0.5,0.5v1c0,0.28,0.22,0.5,0.5,0.5s0.5-0.22,0.5-0.5v-1c0-0.28,0.22-0.5,0.5-0.5l0,0c0.28,0,0.5,0.22,0.5,0.5v1
				c0,0.28,0.22,0.5,0.5,0.5s0.5-0.22,0.5-0.5V39v-0.5V26H36z"/>
		</g>
		<path class="st5" d="M36,23c-0.55,0-1,0.45-1,1c0,0.55-0.45,1-1,1h-9c0,0.55,0.45,1,1,1h10v1h0.5c0.28,0,0.5,0.22,0.5,0.5v10
			c0,0.28,0.22,0.5,0.5,0.5s0.5-0.22,0.5-0.5v-10c0-0.28,0.22-0.5,0.5-0.5s0.5,0.22,0.5,0.5V37c0,0.55,0.45,1,1,1h1V27v-1h3
			c0.55,0,1-0.45,1-1v-2H36z"/>
		<g>
			<circle class="st2" cx="29" cy="15" r="1"/>
		</g>
		<g>
			<path class="st0" d="M33.5,15.5c-0.28,0-0.5-0.22-0.5-0.5c0-1.1,0.9-2,2-2c0.28,0,0.5,0.22,0.5,0.5S35.28,14,35,14
				c-0.55,0-1,0.45-1,1C34,15.28,33.78,15.5,33.5,15.5z"/>
		</g>
		<g>
			<circle class="st2" cx="35" cy="15" r="1"/>
		</g>
		<g>
			<path class="st0" d="M27.45,15.5c-0.28,0-0.5-0.22-0.5-0.5c0-1.1,0.9-2,2-2c0.28,0,0.5,0.22,0.5,0.5s-0.22,0.5-0.5,0.5
				c-0.55,0-1,0.45-1,1C27.95,15.28,27.73,15.5,27.45,15.5z"/>
		</g>
		<g>
			<polygon class="st4" points="31,19.88 27,18 31,16.11 			"/>
		</g>
		<g>
			<path class="st0" d="M31.5,21c-0.28,0-0.5-0.22-0.5-0.5s0.22-0.5,0.5-0.5c0.83,0,1.5-0.9,1.5-2c0-0.28,0.22-0.5,0.5-0.5
				S34,17.72,34,18C34,19.65,32.88,21,31.5,21z"/>
		</g>
		<g>
			<ellipse class="st4" cx="31.5" cy="18" rx="1.5" ry="2"/>
		</g>
		<g>
			<path class="st5" d="M31,19.88c0.16,0.07,0.32,0.12,0.5,0.12c0.83,0,1.5-0.9,1.5-2h-6L31,19.88L31,19.88z"/>
		</g>
	</g>
</g>
<g id="candy">
</g>
<g id="candle">
</g>
<g id="decoration">
</g>
<g id="santa">
</g>
<g id="mistletoe">
</g>
<g id="champagne">
</g>
</svg>
