<svg xmlns="http://www.w3.org/2000/svg" xmlns:xlink="http://www.w3.org/1999/xlink" viewBox="0 0 512 512"><defs><style>.cls-1{isolation:isolate;}.cls-2{fill:#f5f5f5;}.cls-3{mix-blend-mode:multiply;fill:url(#linear-gradient);}.cls-4{fill:#5e6175;}.cls-5{fill:#a9afc4;}.cls-6{fill:#e1830e;}</style><linearGradient id="linear-gradient" x1="241.13" y1="288.98" x2="241.13" y2="425.3" gradientUnits="userSpaceOnUse"><stop offset="0" stop-color="#cacfdd"/><stop offset="1" stop-color="#eef0f1"/></linearGradient></defs><title>Panda</title><g class="cls-1"><g id="Panda"><path class="cls-2" d="M323.78,149.72A377.21,377.21,0,0,0,164.42,185l-11.34,5.29L138.38,239a135.82,135.82,0,0,0-2.55,68.72h0c6.06,27.29-25,2.16-35.62,27.83l16.1,10.22a149.88,149.88,0,0,0,80.31,23.34H321.89A149.84,149.84,0,0,0,382,356.54c.1,0,0,4.48,0-206.82Z"/><path class="cls-3" d="M382,328.33c0,28.56.09,28.11,0,28.21a149.7,149.7,0,0,1-60.11,12.58H196.61a149.9,149.9,0,0,1-80.31-23.33l-16.09-10.21c3.65-8.83,9.72-14,15.86-18.13l.23.14a149.9,149.9,0,0,0,80.31,23.33H321.89A149.87,149.87,0,0,0,382,328.34Z"/><path class="cls-4" d="M321.89,372.13H196.62a152.65,152.65,0,0,1-81.92-23.81L96.48,336.76l1-2.33c8.9-21.54,31.3-11.91,35.33-17.14.74-1,1.37-3.3.13-8.9a139.13,139.13,0,0,1,2.61-70.23l15.08-50,12.56-5.86a382.87,382.87,0,0,1,160.63-35.59H385V358.54l-1.86.77A151.89,151.89,0,0,1,321.89,372.13ZM104.06,334.46l13.85,8.79a146.59,146.59,0,0,0,78.71,22.88H321.89A145.92,145.92,0,0,0,379,354.56V152.72H323.78a376.69,376.69,0,0,0-158.09,35l-10.13,4.72-14.31,47.42a133.14,133.14,0,0,0-2.49,67.2c1.44,6.49,1.05,10.9-1.24,13.87C130.56,330,112.29,319.24,104.06,334.46Z"/><path class="cls-4" d="M124.34,378.75a6.39,6.39,0,0,0,0,5.82l6.09,11.72a17.55,17.55,0,0,1-15.58,25.64H99.19a51.19,51.19,0,0,1-45.7-28.12l-.64-1.26a51.22,51.22,0,0,1-5.49-23.08V362a165.93,165.93,0,0,1,15.42-69.86l9.89-21.31a165.9,165.9,0,0,1,80.4-80.52L138.38,239a135.89,135.89,0,0,0-2.56,68.71C142.54,337.36,138.59,351.07,124.34,378.75Z"/><path class="cls-4" d="M310.79,404.39V361.71a30.38,30.38,0,0,1,2.3-11.6l5.06-12.22a30.33,30.33,0,0,1,56-.13l5.51,13.15A30.25,30.25,0,0,1,382,362.63v41.76a17.55,17.55,0,0,0,17.55,17.55h6a51.23,51.23,0,0,0,51.2-51.2V330.83a162.19,162.19,0,0,0-15.16-68.44L382,149.72H291.88l-41.3,59.35a162.09,162.09,0,0,0-29,92.56v65.79a51.16,51.16,0,0,0,6.11,24.25l1.78,3.32a51.23,51.23,0,0,0,45.1,26.95h18.7A17.55,17.55,0,0,0,310.79,404.39Z"/><path class="cls-4" d="M405.59,424.94h-6A20.57,20.57,0,0,1,379,404.39V362.63a27.18,27.18,0,0,0-2.13-10.56l-5.51-13.15a27.33,27.33,0,0,0-50.45.12l-5.06,12.22a27.18,27.18,0,0,0-2.08,10.45v42.68a20.57,20.57,0,0,1-20.55,20.55h-18.7a54.15,54.15,0,0,1-47.74-28.53L225,393.09a54.36,54.36,0,0,1-6.47-25.67V301.63a164.32,164.32,0,0,1,29.57-94.27l42.19-60.64h93.51l60.53,114.41a166.15,166.15,0,0,1,15.44,69.7v39.91A54.35,54.35,0,0,1,405.59,424.94ZM346.18,316.16a33.25,33.25,0,0,1,30.74,20.44l5.51,13.15A33.14,33.14,0,0,1,385,362.63v41.76a14.56,14.56,0,0,0,14.55,14.55h6a48.33,48.33,0,0,0,48.2-48.2V330.83a160.16,160.16,0,0,0-14.85-67.1l-58.73-111H293.45l-40.4,58.07a158.32,158.32,0,0,0-28.5,90.84v65.79a48.37,48.37,0,0,0,5.75,22.83l1.78,3.32a48.15,48.15,0,0,0,42.46,25.37h18.7a14.57,14.57,0,0,0,14.55-14.55V361.71A33.17,33.17,0,0,1,310.32,349l5.06-12.23A33.24,33.24,0,0,1,346.18,316.16Z"/><path class="cls-4" d="M114.88,424.93H99.19a53.93,53.93,0,0,1-48.38-29.76l-.63-1.26a54.45,54.45,0,0,1-5.82-24.44V362a170.08,170.08,0,0,1,15.7-71.12L70,269.58a169.14,169.14,0,0,1,81.85-82l6.08-2.83L141.25,239.9a133.18,133.18,0,0,0-2.5,67.18c6.76,29.82,3,44.4-11.73,73a3.39,3.39,0,0,0,0,3.07l6.09,11.72A20.55,20.55,0,0,1,114.88,424.93Zm33.33-228.88a163.21,163.21,0,0,0-72.82,76.06L65.5,293.42A164,164,0,0,0,50.36,362v7.46a48.5,48.5,0,0,0,5.17,21.73l.64,1.26a48,48,0,0,0,43,26.47h15.69a14.55,14.55,0,0,0,12.92-21.25L121.71,386a9.4,9.4,0,0,1,0-8.56c15.64-29.32,16.93-43.82,11.23-69a139.05,139.05,0,0,1,2.61-70.24Z"/><path class="cls-4" d="M417.52,188.17l-14.59-5.38a24.05,24.05,0,0,1-14.26-30.92l2.61-7.09a32.06,32.06,0,0,1,41.19-19l7.09,2.62a24.07,24.07,0,0,1,14.26,30.92l-5.38,14.58A24.06,24.06,0,0,1,417.52,188.17Zm3.84-58.38a26.1,26.1,0,0,0-24.45,17.07L394.3,154A18.06,18.06,0,0,0,405,177.16l14.59,5.38a18.07,18.07,0,0,0,23.22-10.7l5.38-14.59A18.11,18.11,0,0,0,437.48,134C430.38,131.41,427,129.79,421.36,129.79Z"/><path class="cls-4" d="M404,180l14.58,5.38a21.08,21.08,0,0,0,27.07-12.49L451,158.29a21.08,21.08,0,0,0-12.48-27.07l-7.09-2.62a29.08,29.08,0,0,0-37.33,17.22l-2.62,7.09A21.08,21.08,0,0,0,404,180Z"/><path class="cls-2" d="M433.2,178.28a64.69,64.69,0,0,0-60-40.56H343.49a64.7,64.7,0,0,0-60,40.56l-6.84,17a107,107,0,0,0-7.73,39.95,57.2,57.2,0,0,0,45.19,55.92A30.37,30.37,0,0,1,325,295.9a30.34,30.34,0,0,0,17.28,5.4h32.15a30.29,30.29,0,0,0,17.27-5.4,29.47,29.47,0,0,1,10.91-4.72,57.2,57.2,0,0,0,45.19-55.92,107.21,107.21,0,0,0-7.73-39.95Z"/><path class="cls-4" d="M374.41,304.3H342.26a33.22,33.22,0,0,1-19-5.93,27.35,27.35,0,0,0-9.82-4.26,60.5,60.5,0,0,1-47.56-58.85,109.7,109.7,0,0,1,7.94-41.07l6.85-17a67.39,67.39,0,0,1,62.81-42.44h29.69A67.4,67.4,0,0,1,436,177.16l6.84,17a109.71,109.71,0,0,1,7.95,41.07,60.5,60.5,0,0,1-47.56,58.85,27.29,27.29,0,0,0-9.83,4.26A33.19,33.19,0,0,1,374.41,304.3ZM343.49,140.72a61.4,61.4,0,0,0-57.24,38.68l-6.85,17a103.75,103.75,0,0,0-7.51,38.83,54.48,54.48,0,0,0,42.82,53,33.11,33.11,0,0,1,12,5.19,27.25,27.25,0,0,0,15.57,4.86h32.15A27.25,27.25,0,0,0,390,293.44a32.94,32.94,0,0,1,12-5.19,54.48,54.48,0,0,0,42.82-53,103.57,103.57,0,0,0-7.52-38.83l-6.84-17a61.41,61.41,0,0,0-57.24-38.68Z"/><ellipse class="cls-4" cx="334.81" cy="215.91" rx="24.42" ry="19.87" transform="translate(-11.68 412.53) rotate(-62.39)"/><ellipse class="cls-4" cx="401.58" cy="214.63" rx="19.06" ry="23.42" transform="translate(-53.74 210.55) rotate(-27.61)"/><path class="cls-4" d="M309.81,156.74A48.61,48.61,0,0,0,291,179.36a7,7,0,0,1-5.17,4.31,24.25,24.25,0,0,1-27.09-15.47l-3.17-8.63a24.24,24.24,0,0,1,14.35-31.14,33.43,33.43,0,0,1,43,19.87A7.15,7.15,0,0,1,309.81,156.74Z"/><path class="cls-4" d="M255.87,169.24l-3.17-8.63a27.22,27.22,0,0,1,16.13-35,36.49,36.49,0,0,1,46.81,21.58,10.19,10.19,0,0,1-4.22,12.08h0a45.45,45.45,0,0,0-17.69,21.2,9.94,9.94,0,0,1-7.41,6.15A27.21,27.21,0,0,1,255.87,169.24Zm25.58-39.89c-19.19,0-28,16-23.12,29.18l3.17,8.64a21.2,21.2,0,0,0,23.74,13.55,4,4,0,0,0,2.92-2.48,51.63,51.63,0,0,1,20-24h0a4.19,4.19,0,0,0,1.79-5A30.58,30.58,0,0,0,281.45,129.35Z"/><path class="cls-4" d="M371.2,263.39h-1.36a9.34,9.34,0,0,1-7.4-3.68l-5-6.64a9.28,9.28,0,0,1,7.4-14.86h11.39a9.34,9.34,0,0,1,7.4,3.68h0a9.33,9.33,0,0,1,0,11.18l-5,6.64A9.34,9.34,0,0,1,371.2,263.39Zm-6.37-19.18a3.27,3.27,0,0,0-2.61,5.24l5,6.64a3.26,3.26,0,0,0,2.61,1.3h1.36a3.26,3.26,0,0,0,2.61-1.3l5-6.64a3.27,3.27,0,0,0-2.61-5.24Z"/><path class="cls-4" d="M358.91,283.64a14.52,14.52,0,0,1-10.33-4.28l-2.52-2.52,4.24-4.24,2.52,2.52a8.63,8.63,0,0,0,14.7-6.09v-8.64h6V269A14.63,14.63,0,0,1,358.91,283.64Z"/><path class="cls-4" d="M382.13,283.64A14.63,14.63,0,0,1,367.52,269v-8.64h6V269a8.63,8.63,0,0,0,14.7,6.09l2.52-2.52,4.25,4.24-2.52,2.52A14.52,14.52,0,0,1,382.13,283.64Z"/><rect class="cls-4" x="36" y="418.94" width="431.53" height="6"/><path class="cls-4" d="M36.15,243.25a11.27,11.27,0,1,1,20.83.09A11.29,11.29,0,0,1,36.15,243.25Zm10.43-9.56a5.28,5.28,0,1,0,2,10.18h0a5.29,5.29,0,0,0-2-10.18Z"/><path class="cls-4" d="M94.86,199.06a8.75,8.75,0,1,1,3.32-.66A8.59,8.59,0,0,1,94.86,199.06Zm0-11.51a2.75,2.75,0,1,0,1,5.3h0a2.75,2.75,0,0,0-1-5.3Z"/><path class="cls-5" d="M469.86,179.12l-5.68-1.93,1.93-5.68,5.68,1.93ZM475,164,469.34,162l1.93-5.67,5.69,1.92Zm3.93-16.3-6-.3a34.45,34.45,0,0,0-.18-5.5l6-.68A39.25,39.25,0,0,1,479,147.68ZM470.51,133a34.22,34.22,0,0,0-2.48-4.91l5.11-3.14a41.24,41.24,0,0,1,2.93,5.78Zm-8.29-12a33.06,33.06,0,0,0-4.33-3.4l3.31-5a40.28,40.28,0,0,1,5.1,4Z"/><path class="cls-6" d="M213.55,108.21a18.14,18.14,0,0,1,18.14,18.14,18.15,18.15,0,0,1,18.15-18.14,18.16,18.16,0,0,1-18.15-18.15A18.15,18.15,0,0,1,213.55,108.21Z"/></g></g></svg>