<?xml version="1.0" encoding="utf-8"?>
<!-- Generator: Adobe Illustrator 24.0.0, SVG Export Plug-In . SVG Version: 6.00 Build 0)  -->
<svg version="1.1" xmlns="http://www.w3.org/2000/svg" xmlns:xlink="http://www.w3.org/1999/xlink" x="0px" y="0px"
	 viewBox="0 0 64 64" style="enable-background:new 0 0 64 64;" xml:space="preserve">
<style type="text/css">
	.st0{fill:#BFCBD8;}
	.st1{fill:#FFFFFF;}
	.st2{fill:#454852;}
	.st3{fill:#F15642;}
	.st4{fill:#EF403A;}
	.st5{fill:#C72932;}
	.st6{fill:#81C56D;}
	.st7{fill:#4EA258;}
	.st8{fill:#F6978F;}
	.st9{opacity:0.8;}
	.st10{fill:#982433;}
	.st11{fill:#5BAA5E;}
	.st12{fill:#E2E8F0;}
	.st13{fill:#ABBBC9;}
	.st14{fill:#CE2B34;}
	.st15{fill:#D27C2B;}
	.st16{fill:#A05223;}
	.st17{fill:#F19920;}
	.st18{fill:#BCDA86;}
	.st19{fill:#FFCC5C;}
	.st20{fill:#FBAC38;}
	.st21{fill:#E5891F;}
	.st22{fill:#F15B44;}
	.st23{fill:#FFEDAA;}
	.st24{fill:#50BEE8;}
	.st25{fill:#B9E5FB;}
	.st26{fill:#E1F4FD;}
	.st27{fill:#C7EAFB;}
	.st28{fill:#ABE1FA;}
	.st29{fill:#CAD1D8;}
	.st30{fill:#F79549;}
	.st31{fill:#F9A659;}
	.st32{fill:#FFD25D;}
	.st33{fill:#F26A5F;}
	.st34{fill:#FDDBD0;}
	.st35{fill:#F9B9AE;}
	.st36{fill:#2D3242;}
	.st37{fill:#676A75;}
	.st38{fill:#310E31;}
	.st39{fill:#6B2943;}
	.st40{opacity:0.6;}
	.st41{fill:#F04B4D;}
	.st42{fill:#4F525D;}
	.st43{fill:#EF948F;}
	.st44{fill:#A5A5A6;}
	.st45{fill:#FCD063;}
	.st46{fill:none;}
	.st47{fill:#D57E28;}
</style>
<g id="snowman_x5F_2">
	<g>
		<g>
			<path class="st0" d="M27.76,27.05h8.48C39.64,25.45,42,22.01,42,18c0-5.52-4.48-10-10-10s-10,4.48-10,10
				C22,22.01,24.36,25.45,27.76,27.05z"/>
		</g>
		<g>
			<g>
				<path class="st1" d="M34.01,12.78L34.01,12.78c-1.79-0.85-3.68-1.48-5.63-1.87l-0.07-0.01c0,0-0.01,0-0.01,0
					c-0.89-0.19-1.83-0.03-2.49,0.6C24.08,13.12,23,15.44,23,18c0,2.04,0.72,3.98,1.95,5.54c0.52,0.22,1.08,0.35,1.66,0.35
					c2.58,0,5.46-1.21,7.77-3.51c0.46-0.46,0.88-0.95,1.25-1.45C37.17,16.86,36.33,13.88,34.01,12.78z"/>
			</g>
		</g>
		<g>
			<path class="st1" d="M13,64c0-2.76,2.46-5,5.5-5s5.5,2.24,5.5,5H13z"/>
		</g>
		<g>
			<path class="st0" d="M23.47,64h-9.94c-0.14,0-0.28-0.06-0.37-0.17c-0.1-0.11-0.14-0.25-0.12-0.39C13.35,60.91,15.7,59,18.5,59
				s5.15,1.91,5.47,4.44c0.02,0.14-0.03,0.28-0.12,0.39C23.75,63.94,23.61,64,23.47,64z M14.14,63h8.72c-0.5-1.74-2.28-3-4.36-3
				S14.64,61.26,14.14,63z"/>
		</g>
		<g>
			<path class="st0" d="M20.93,59.51c-1-0.45-2.12,0.35-2.04,1.43c0.01,0.12,0.02,0.24,0.03,0.36c0.06,0.91-0.66,1.69-1.57,1.69
				H16.5c-0.28,0-0.5,0.22-0.5,0.5c0,0.28,0.22,0.5,0.5,0.5H19h0.5H24C24,62.03,22.75,60.33,20.93,59.51z"/>
		</g>
		<g>
			<path class="st0" d="M23.1,64h17.8C48.04,60.65,53,53.41,53,45c0-11.6-9.4-21-21-21s-21,9.4-21,21C11,53.41,15.96,60.65,23.1,64z
				"/>
		</g>
		<path class="st1" d="M38,38h-2V24.39c-1.29-0.25-2.63-0.38-4-0.38V25c-11.03,0-20,8.97-20,20c0,2.79,0.6,5.5,1.69,7.99
			c1.16,2.62,3.74,4.32,6.6,4.39l0.06,0c5.5,0.11,11.7-2.43,16.64-7.37c1.66-1.66,3.04-3.45,4.15-5.32c1.54-2.6,0.08-5.99-2.87-6.64
			C38.15,38.02,38.06,38,38,38z"/>
		<g>
			<circle class="st0" cx="21" cy="42" r="1"/>
		</g>
		<g>
			<circle class="st0" cx="21" cy="48" r="1"/>
		</g>
		<g>
			<circle class="st0" cx="23" cy="36" r="1"/>
		</g>
		<g>
			<circle class="st0" cx="23" cy="54" r="1"/>
		</g>
		<g>
			<path class="st1" d="M37,64c0-2.76,2.46-5,5.5-5s5.5,2.24,5.5,5H37z"/>
		</g>
		<g>
			<path class="st0" d="M44.93,59.51c-1-0.45-2.12,0.35-2.04,1.43c0.01,0.12,0.02,0.24,0.03,0.36c0.06,0.91-0.66,1.69-1.57,1.69
				H40.5c-0.28,0-0.5,0.22-0.5,0.5c0,0.28,0.22,0.5,0.5,0.5H43h0.5H48C48,62.03,46.75,60.33,44.93,59.51z"/>
		</g>
		<g>
			<circle class="st2" cx="26" cy="15" r="1"/>
		</g>
		<g>
			<circle class="st2" cx="32" cy="15" r="1"/>
		</g>
		<g>
			<polygon class="st3" points="28,19.88 24,18 28,16.11 			"/>
		</g>
		<g>
			<ellipse class="st3" cx="28.5" cy="18" rx="1.5" ry="2"/>
		</g>
		<g>
			<path class="st4" d="M41,26H23c-0.55,0-1-0.45-1-1v-2c0-0.55,0.45-1,1-1h18c0.55,0,1,0.45,1,1v2C42,25.55,41.55,26,41,26z"/>
		</g>
		<g>
			<path class="st4" d="M33,26v12.5V39v1.5c0,0.28,0.22,0.5,0.5,0.5s0.5-0.22,0.5-0.5v-1c0-0.28,0.22-0.5,0.5-0.5l0,0
				c0.28,0,0.5,0.22,0.5,0.5v1c0,0.28,0.22,0.5,0.5,0.5s0.5-0.22,0.5-0.5v-1c0-0.28,0.22-0.5,0.5-0.5l0,0c0.28,0,0.5,0.22,0.5,0.5v1
				c0,0.28,0.22,0.5,0.5,0.5s0.5-0.22,0.5-0.5V39v-0.5V26H33z"/>
		</g>
		<path class="st5" d="M33,23c-0.55,0-1,0.45-1,1c0,0.55-0.45,1-1,1h-9c0,0.55,0.45,1,1,1h10v1h0.5c0.28,0,0.5,0.22,0.5,0.5v10
			c0,0.28,0.22,0.5,0.5,0.5s0.5-0.22,0.5-0.5v-10c0-0.28,0.22-0.5,0.5-0.5s0.5,0.22,0.5,0.5V37c0,0.55,0.45,1,1,1h1V27v-1h3
			c0.55,0,1-0.45,1-1v-2H33z"/>
		<g>
			<g>
				<path class="st4" d="M40.33,13l-13.6-3.33l4.79-8.63c0.44-0.79,1.35-1.19,2.23-0.97l4.8,1.18c0.88,0.21,1.5,0.99,1.52,1.89
					L40.33,13z"/>
			</g>
			<g>
				<g>
					<path class="st5" d="M36.2,3.25l-1.7,8.32L40.33,13l-0.25-9.87l-2.65-0.65C36.87,2.34,36.32,2.69,36.2,3.25z"/>
				</g>
			</g>
			<g>
				<path class="st4" d="M41.3,13.24L25.76,9.42c-0.54-0.13-0.86-0.67-0.73-1.21l0,0c0.13-0.54,0.67-0.86,1.21-0.73l15.54,3.81
					c0.54,0.13,0.86,0.67,0.73,1.21v0C42.38,13.04,41.84,13.37,41.3,13.24z"/>
			</g>
			<g>
				<path class="st5" d="M41.78,11.29l-4.86-1.19c-0.13,0.54-0.67,0.86-1.21,0.73l-9.23-2.26c-0.27-0.07-0.54,0.1-0.6,0.37
					c-0.07,0.27,0.1,0.54,0.37,0.6l10.2,2.5l0.49,0.12l4.37,1.07c0.54,0.13,1.08-0.2,1.21-0.73C42.64,11.97,42.31,11.42,41.78,11.29
					z"/>
			</g>
		</g>
		<g>
			<rect x="36" y="63" class="st0" width="6" height="1"/>
		</g>
		<g>
			<path class="st0" d="M30.5,15.5c-0.28,0-0.5-0.22-0.5-0.5c0-1.1,0.9-2,2-2c0.28,0,0.5,0.22,0.5,0.5S32.28,14,32,14
				c-0.55,0-1,0.45-1,1C31,15.28,30.78,15.5,30.5,15.5z"/>
		</g>
		<g>
			<path class="st0" d="M24.5,15.5c-0.28,0-0.5-0.22-0.5-0.5c0-1.1,0.9-2,2-2c0.28,0,0.5,0.22,0.5,0.5S26.28,14,26,14
				c-0.55,0-1,0.45-1,1C25,15.28,24.78,15.5,24.5,15.5z"/>
		</g>
		<g>
			<path class="st0" d="M28.5,21c-0.28,0-0.5-0.22-0.5-0.5s0.22-0.5,0.5-0.5c0.83,0,1.5-0.9,1.5-2c0-0.28,0.22-0.5,0.5-0.5
				S31,17.72,31,18C31,19.65,29.88,21,28.5,21z"/>
		</g>
		<g>
			<path class="st5" d="M28,19.88c0.16,0.07,0.32,0.12,0.5,0.12c0.83,0,1.5-0.9,1.5-2h-6L28,19.88L28,19.88z"/>
		</g>
	</g>
</g>
<g id="holly">
</g>
<g id="sock">
</g>
<g id="xmas_x5F_tree">
</g>
<g id="winter_x5F_tree">
</g>
<g id="snowman_x5F_1">
</g>
<g id="candy">
</g>
<g id="candle">
</g>
<g id="decoration">
</g>
<g id="santa">
</g>
<g id="mistletoe">
</g>
<g id="champagne">
</g>
</svg>
