<?xml version="1.0" encoding="utf-8"?>
<!-- Generator: Adobe Illustrator 24.0.0, SVG Export Plug-In . SVG Version: 6.00 Build 0)  -->
<svg version="1.1" xmlns="http://www.w3.org/2000/svg" xmlns:xlink="http://www.w3.org/1999/xlink" x="0px" y="0px"
	 viewBox="0 0 64 64" style="enable-background:new 0 0 64 64;" xml:space="preserve">
<style type="text/css">
	.st0{fill:#BFCBD8;}
	.st1{fill:#FFFFFF;}
	.st2{fill:#454852;}
	.st3{fill:#F15642;}
	.st4{fill:#EF403A;}
	.st5{fill:#C72932;}
	.st6{fill:#81C56D;}
	.st7{fill:#4EA258;}
	.st8{fill:#F6978F;}
	.st9{opacity:0.8;}
	.st10{fill:#982433;}
	.st11{fill:#5BAA5E;}
	.st12{fill:#E2E8F0;}
	.st13{fill:#ABBBC9;}
	.st14{fill:#CE2B34;}
	.st15{fill:#D27C2B;}
	.st16{fill:#A05223;}
	.st17{fill:#F19920;}
	.st18{fill:#BCDA86;}
	.st19{fill:#FFCC5C;}
	.st20{fill:#FBAC38;}
	.st21{fill:#E5891F;}
	.st22{fill:#F15B44;}
	.st23{fill:#FFEDAA;}
	.st24{fill:#50BEE8;}
	.st25{fill:#B9E5FB;}
	.st26{fill:#E1F4FD;}
	.st27{fill:#C7EAFB;}
	.st28{fill:#ABE1FA;}
	.st29{fill:#CAD1D8;}
	.st30{fill:#F79549;}
	.st31{fill:#F9A659;}
	.st32{fill:#FFD25D;}
	.st33{fill:#F26A5F;}
	.st34{fill:#FDDBD0;}
	.st35{fill:#F9B9AE;}
	.st36{fill:#2D3242;}
	.st37{fill:#676A75;}
	.st38{fill:#310E31;}
	.st39{fill:#6B2943;}
	.st40{opacity:0.6;}
	.st41{fill:#F04B4D;}
	.st42{fill:#4F525D;}
	.st43{fill:#EF948F;}
	.st44{fill:#A5A5A6;}
	.st45{fill:#FCD063;}
	.st46{fill:none;}
	.st47{fill:#D57E28;}
</style>
<g id="snowman_x5F_2">
</g>
<g id="holly">
</g>
<g id="sock">
</g>
<g id="xmas_x5F_tree">
</g>
<g id="winter_x5F_tree">
</g>
<g id="snowman_x5F_1">
</g>
<g id="candy">
</g>
<g id="candle">
</g>
<g id="decoration">
</g>
<g id="santa">
	<g>
		<g>
			<g>
				<rect x="14" y="52" class="st4" width="8" height="12"/>
			</g>
			<g>
				<polygon class="st5" points="18,64 16,64 22,58 22,60 				"/>
			</g>
			<g>
				<polygon class="st5" points="14,64 14,62 22,54 22,56 				"/>
			</g>
			<g>
				<polygon class="st5" points="16,52 18,52 14,56 14,54 				"/>
			</g>
			<g>
				<polygon class="st5" points="20,52 21,52 22,52 14,60 14,58 				"/>
			</g>
		</g>
		<g>
			<g>
				<rect x="29" y="50" transform="matrix(-1.836970e-16 1 -1 -1.836970e-16 93 27)" class="st19" width="8" height="20"/>
			</g>
			<g>
				<polygon class="st21" points="23,62 23,60 27,64 25,64 				"/>
			</g>
			<g>
				<polygon class="st21" points="23,58 23,56 31,64 29,64 				"/>
			</g>
			<g>
				<polygon class="st19" points="23,62 23,60 19,64 21,64 				"/>
			</g>
			<g>
				<polygon class="st19" points="17,58 17,60 21,56 19,56 				"/>
			</g>
			<g>
				<polygon class="st19" points="23,58 23,56 17,62 17,64 				"/>
			</g>
			<g>
				<polygon class="st21" points="43,60 43,62 37,56 39,56 				"/>
			</g>
			<g>
				<polygon class="st23" points="23,60 23,58 17,64 19,64 				"/>
			</g>
			<g>
				<polygon class="st23" points="23,56 21,56 17,60 17,62 				"/>
			</g>
			<g>
				<polygon class="st21" points="43,58 41,56 43,56 				"/>
			</g>
			<g>
				<polygon class="st23" points="21,64 23,62 23,64 				"/>
			</g>
			<g>
				<polygon class="st23" points="19,56 17,58 17,56 				"/>
			</g>
			<g>
				<polygon class="st21" points="35,64 33,64 25,56 27,56 				"/>
			</g>
			<g>
				<polygon class="st21" points="39,64 37,64 29,56 31,56 				"/>
			</g>
			<g>
				<polygon class="st21" points="43,64 41,64 33,56 35,56 				"/>
			</g>
		</g>
		<g>
			<g>
				<path class="st4" d="M9,35L9,35c0-1.66,1.34-3,3-3h17c1.66,0,3,1.34,3,3v0c0,1.66-1.34,3-3,3H12C10.34,38,9,36.66,9,35z"/>
			</g>
			<g>
				<g>
					<path class="st4" d="M6,35L6,35c0-1.66,1.34-3,3-3h3v6H9C7.34,38,6,36.66,6,35z"/>
				</g>
				<g>
					<path class="st4" d="M10,33v-2c0-0.55,0.45-1,1-1h0c0.55,0,1,0.45,1,1v2c0,0.55-0.45,1-1,1h0C10.45,34,10,33.55,10,33z"/>
				</g>
				<g>
					<path class="st4" d="M7.5,33.5L7.5,33.5C7.5,32.67,8.17,32,9,32h3v3H9C8.17,35,7.5,34.33,7.5,33.5z"/>
				</g>
			</g>
			<g>
				<path class="st5" d="M24,38v-3H9c-0.83,0-1.5,0.67-1.5,1.5v0C7.5,37.33,8.17,38,9,38H24z"/>
			</g>
			<g>
				<path class="st1" d="M12,38v-6c0-0.55,0.45-1,1-1h0c0.55,0,1,0.45,1,1v6H12z"/>
			</g>
			<g>
				<path class="st0" d="M12,33v4h1v-3C13,33.45,12.55,33,12,33z"/>
			</g>
		</g>
		<g>
			<path class="st5" d="M45.96,19c-3.12-3.67-7.77-6-12.96-6s-9.84,2.33-12.96,6C17.52,21.96,16,25.8,16,30
				c0,6.2,3.32,11.63,8.29,14.6C26.56,45.96,28,48.35,28,51v5h4v-7c0-1.1,0.9-2,2-2s2,0.9,2,2v7h4v-5c0-3.05,1.4-5.92,3.76-7.85
				C47.57,40.03,50,35.3,50,30C50,25.8,48.48,21.96,45.96,19z"/>
		</g>
		<g>
			<path class="st4" d="M28,29v-9h5.34c-2.03-2.33-4.97-3.91-8.58-4.02c-0.82-0.03-1.44,0.06-1.76,0.29
				c-3.74,2.74-6.34,6.96-6.89,11.76c-0.25,2.23-0.07,4.37,0.47,6.37c0.86,3.2,3.68,5.54,6.99,5.61c2.61,0.05,5.42-0.63,8.1-2.02
				c0.21-0.11,0.5-0.34,0.87-0.69c0.03-0.02,0.05-0.05,0.07-0.07c3.11-2.97,0.87-8.24-3.43-8.24H28z"/>
		</g>
		<g>
			<rect x="22" y="9" class="st34" width="12" height="12"/>
		</g>
		<g>
			<path class="st35" d="M29,10h-7v1h6c0.55,0,1,0.45,1,1v3h2v-5H29z"/>
		</g>
		<g>
			<path class="st4" d="M24,64h5v-4l-4.37,1.75C24.25,61.9,24,62.27,24,62.68V64z"/>
		</g>
		<g>
			<g>
				<path class="st36" d="M29,64h3v-7h-4v3.4l-3.37,1.35C24.25,61.9,24,62.27,24,62.68V64h4H29z"/>
			</g>
		</g>
		<g>
			<path class="st37" d="M29,60h-1v-3h2v2C30,59.55,29.55,60,29,60z"/>
		</g>
		<g>
			<path class="st37" d="M27,64h-3v-1c0-0.55,0.45-1,1-1h1c0.55,0,1,0.45,1,1V64z"/>
		</g>
		<g>
			<path class="st4" d="M32,64h5v-4l-4.37,1.75C32.25,61.9,32,62.27,32,62.68V64z"/>
		</g>
		<g>
			<g>
				<path class="st36" d="M37,64h3v-7h-4v3.4l-3.37,1.35C32.25,61.9,32,62.27,32,62.68V64h4H37z"/>
			</g>
		</g>
		<g>
			<path class="st37" d="M37,60h-1v-3h2v2C38,59.55,37.55,60,37,60z"/>
		</g>
		<g>
			<path class="st4" d="M29,52h-1v5h2v-4C30,52.45,29.55,52,29,52z"/>
		</g>
		<g>
			<path class="st4" d="M37,52h-1v5h2v-4C38,52.45,37.55,52,37,52z"/>
		</g>
		<g>
			<path class="st37" d="M35,64h-3v-1c0-0.55,0.45-1,1-1h1c0.55,0,1,0.45,1,1V64z"/>
		</g>
		<g>
			<polygon class="st4" points="35,2 31,4 30,1 35,1 			"/>
		</g>
		<g>
			<polygon class="st5" points="30.61,2.83 31,4 35,2 35,1.57 			"/>
		</g>
		<g>
			<g>
				<ellipse class="st38" cx="26.5" cy="12" rx="0.5" ry="1"/>
			</g>
		</g>
		<g>
			<g>
				<ellipse class="st38" cx="23.5" cy="12" rx="0.5" ry="1"/>
			</g>
		</g>
		<g>
			<path class="st12" d="M34,10H22c-0.55,0-1-0.45-1-1v0c0-0.55,0.45-1,1-1h12c0.55,0,1,0.45,1,1v0C35,9.55,34.55,10,34,10z"/>
		</g>
		<g>
			<path class="st0" d="M22,9v1h12c0.55,0,1-0.45,1-1H22z"/>
		</g>
		<g>
			<path class="st4" d="M33,8H23l2.22-5.18C25.69,1.72,26.78,1,27.98,1H30L33,8z"/>
		</g>
		<g>
			<circle class="st1" cx="36" cy="2" r="2"/>
		</g>
		<g>
			<path class="st0" d="M36.95,1.33c-0.02,0.09-0.04,0.18-0.07,0.27c-0.2,0.6-0.68,1.08-1.28,1.28c-0.09,0.03-0.18,0.05-0.28,0.07
				c-0.46,0.09-0.58,0.71-0.15,0.89c0.41,0.18,0.89,0.22,1.39,0.07c0.64-0.18,1.16-0.7,1.34-1.34c0.14-0.5,0.1-0.98-0.07-1.39
				C37.66,0.75,37.04,0.87,36.95,1.33z"/>
		</g>
		<g>
			<rect x="31" y="10" class="st1" width="3" height="10"/>
		</g>
		<g>
			<path class="st1" d="M27.5,29L27.5,29c-3.59,0-6.5-2.91-6.5-6.5v-7c0-0.49,0.36-0.91,0.84-0.99L25,14l9,1v7.5
				C34,26.09,31.09,29,27.5,29z"/>
		</g>
		<g>
			<path class="st39" d="M23.67,16c-0.33,0-0.59,0.33-0.48,0.64C23.45,17.43,24.2,18,25.08,18s1.63-0.57,1.89-1.36
				c0.11-0.32-0.15-0.64-0.48-0.64H23.67z"/>
		</g>
		<g class="st40">
			<path class="st41" d="M26.2,17.59c-0.32-0.22-0.7-0.34-1.12-0.34c-0.41,0-0.8,0.13-1.12,0.34c0.3,0.25,0.69,0.41,1.12,0.41
				C25.51,18,25.89,17.84,26.2,17.59z"/>
		</g>
		<g>
			<g>
				<circle class="st14" cx="24.71" cy="14" r="1"/>
			</g>
			<g>
				<path class="st4" d="M24.41,14.59c0.17-0.09,0.34-0.21,0.51-0.38c0.17-0.17,0.31-0.36,0.39-0.53c0,0,0,0,0,0
					c0.11-0.23,0-0.51-0.24-0.6c-0.16-0.06-0.34-0.09-0.53-0.06c-0.42,0.07-0.75,0.4-0.82,0.82c-0.03,0.19-0.01,0.37,0.06,0.53
					c0.09,0.23,0.36,0.34,0.58,0.25C24.37,14.61,24.39,14.6,24.41,14.59z"/>
			</g>
		</g>
		<g>
			<path class="st36" d="M18,38h30c0.34-0.64,0.63-1.31,0.89-2H17.11C17.37,36.69,17.66,37.36,18,38z"/>
		</g>
		<g>
			<path class="st42" d="M17.24,36c0.4,0.75,0.91,1.43,1.52,2h12.92c0.21-0.11,0.5-0.34,0.87-0.69c0.03-0.02,0.05-0.05,0.07-0.07
				c0.4-0.38,0.71-0.8,0.94-1.24H17.24z"/>
		</g>
		<g>
			<g>
				<path class="st4" d="M40,46L40,46c-1.66,0-3-1.34-3-3V26c0-1.66,1.34-3,3-3h0c1.66,0,3,1.34,3,3v17C43,44.66,41.66,46,40,46z"/>
			</g>
			<g>
				<g>
					<path class="st5" d="M40,49L40,49c-1.66,0-3-1.34-3-3v-3h6v3C43,47.66,41.66,49,40,49z"/>
				</g>
				<g>
					<path class="st4" d="M38,45h-2c-0.55,0-1-0.45-1-1l0,0c0-0.55,0.45-1,1-1h2c0.55,0,1,0.45,1,1l0,0C39,44.55,38.55,45,38,45z"/>
				</g>
				<g>
					<path class="st4" d="M38.5,47.5L38.5,47.5c-0.83,0-1.5-0.67-1.5-1.5v-3h3v3C40,46.83,39.33,47.5,38.5,47.5z"/>
				</g>
			</g>
			<g>
				<path class="st5" d="M43,41h-3V26c0-0.83,0.67-1.5,1.5-1.5l0,0c0.83,0,1.5,0.67,1.5,1.5V41z"/>
			</g>
			<g>
				<path class="st1" d="M43,43h-6c-0.55,0-1-0.45-1-1l0,0c0-0.55,0.45-1,1-1h6c0.55,0,1,0.45,1,1l0,0C44,42.55,43.55,43,43,43z"/>
			</g>
			<g>
				<path class="st0" d="M43,43h-3v-2h3c0.55,0,1,0.45,1,1l0,0C44,42.55,43.55,43,43,43z"/>
			</g>
			<g>
				<path class="st0" d="M38,43h4v-1h-3C38.45,42,38,42.45,38,43z"/>
			</g>
		</g>
		<g>
			<g>
				<path class="st19" d="M24,39h-1c-0.55,0-1-0.45-1-1v-2c0-0.55,0.45-1,1-1h1c0.55,0,1,0.45,1,1v2C25,38.55,24.55,39,24,39z"/>
			</g>
			<g>
				<path class="st21" d="M23,39h1c0.55,0,1-0.45,1-1v-2h-1c-0.55,0-1,0.45-1,1V39z"/>
			</g>
		</g>
		<g>
			<path class="st0" d="M27.5,29c0.52,0,1.02-0.07,1.5-0.18V22c0,2.21-1.79,4-4,4s-4-1.79-4-4v0.5C21,26.09,23.91,29,27.5,29z"/>
		</g>
		<g>
			<path class="st0" d="M31,10v2.73c0,1-0.88,1.78-1.88,1.66L29,14.37v2.22V19v9.82c2.87-0.68,5-3.25,5-6.32V18v-3v-5H31z"/>
		</g>
		<g>
			<circle class="st35" cx="31" cy="12.5" r="1.5"/>
		</g>
		<g>
			<circle class="st43" cx="31" cy="12.5" r="0.5"/>
		</g>
		<g>
			<path class="st5" d="M28.58,3.09L29,8h4l-2.24-5.22C30.56,2.31,30.09,2,29.58,2h0C28.99,2,28.53,2.5,28.58,3.09z"/>
		</g>
		<g>
			<path class="st1" d="M40,57h-4c-0.55,0-1-0.45-1-1l0,0c0-0.55,0.45-1,1-1h4c0.55,0,1,0.45,1,1l0,0C41,56.55,40.55,57,40,57z"/>
		</g>
		<g>
			<path class="st0" d="M40,57h-2v-2h2c0.55,0,1,0.45,1,1l0,0C41,56.55,40.55,57,40,57z"/>
		</g>
		<g>
			<path class="st0" d="M37,57h3v-1h-2C37.45,56,37,56.45,37,57z"/>
		</g>
		<g>
			<path class="st1" d="M32,57h-4c-0.55,0-1-0.45-1-1l0,0c0-0.55,0.45-1,1-1h4c0.55,0,1,0.45,1,1l0,0C33,56.55,32.55,57,32,57z"/>
		</g>
		<g>
			<path class="st0" d="M32,57h-2v-2h2c0.55,0,1,0.45,1,1l0,0C33,56.55,32.55,57,32,57z"/>
		</g>
		<g>
			<path class="st0" d="M29,57h3v-1h-2C29.45,56,29,56.45,29,57z"/>
		</g>
		<g>
			<g>
				<rect x="46" y="48" class="st19" width="4" height="1"/>
			</g>
			<g>
				<path class="st37" d="M57,62h-0.03c-0.53,0-0.97-0.4-1-0.93c-0.16-2.96-1.03-6.94-2.53-9.19L53,51.22
					c-0.65-0.97-1.89-1.85-3-2.22h-4c-1.08,0.36-2.47,1.43-3.1,2.37l-0.34,0.5c-1.5,2.26-2.38,6.23-2.53,9.19
					C40,61.6,39.56,62,39.03,62H39c-0.55,0-1,0.45-1,1c0,0.55,0.45,1,1,1h18c0.55,0,1-0.45,1-1C58,62.45,57.55,62,57,62z"/>
			</g>
			<g>
				<path class="st37" d="M51.43,44.57v0.1c0,0.52-0.1,1.03-0.3,1.49C50.94,46.63,50.37,47.63,50,48h-4
					c-0.73-0.73-1.43-2.29-1.43-3.33v-0.1c0-0.31,0.46-0.57,1.03-0.57c0.86,0,2.4,0.57,2.4,0.57s1.54,0.57,2.4,0.57
					C50.97,45.14,51.43,44.89,51.43,44.57z"/>
			</g>
			<g>
				<g>
					<path class="st36" d="M50.4,45.14l-0.53,0c-0.49,0-0.94,0.4-0.99,0.88c-0.1,0.8-0.23,1.75-0.29,1.98H50
						c0.37-0.37,0.94-1.37,1.13-1.84c0.19-0.47,0.3-0.97,0.3-1.49v-0.1C51.43,44.89,50.97,45.14,50.4,45.14z"/>
				</g>
			</g>
			<g>
				<path class="st44" d="M51.43,44.57c0,0.31-0.46,0.57-1.03,0.57c-0.86,0-2.4-0.57-2.4-0.57S49.54,44,50.4,44
					C50.97,44,51.43,44.26,51.43,44.57z"/>
			</g>
			<g>
				<rect x="48.58" y="48" class="st21" width="1.42" height="1"/>
			</g>
			<g>
				<path class="st36" d="M57,62h-0.03c-0.52,0-0.97-0.43-1-0.95c-0.16-2.96-1.03-6.92-2.53-9.17L53,51.22
					c-0.65-0.97-1.89-1.85-3-2.22h-1h-0.66H46c0.45,0.45,1.3,0.76,2.08,0.9c0.35,0.07,0.63,0.34,0.68,0.7
					c0.09,0.57,0.18,1.27,0.18,1.27c0.26,2.26,0.43,6.23,0.43,9.19c0,0.45,0.32,0.68,0.66,0.8c0.03,0.01,0.06,0.02,0.09,0.04
					C50.68,62.16,50.5,63,49.89,63H39c-0.28,0-0.5,0.22-0.5,0.5c0,0.28,0.22,0.5,0.5,0.5h11.83H55h1.95c0.5,0,0.96-0.34,1.04-0.83
					C58.09,62.54,57.61,62,57,62z"/>
			</g>
		</g>
		<g>
			<path class="st0" d="M12,38v-3h2v3c0,0.55-0.45,1-1,1h0C12.45,39,12,38.55,12,38z"/>
		</g>
	</g>
</g>
<g id="mistletoe">
</g>
<g id="champagne">
</g>
</svg>
