<svg xmlns="http://www.w3.org/2000/svg" xmlns:xlink="http://www.w3.org/1999/xlink" viewBox="0 0 512 512"><defs><style>.cls-1{isolation:isolate;}.cls-2{fill:#e1830e;}.cls-3{fill:#a9afc4;}.cls-4{fill:#5e6175;}.cls-5,.cls-6,.cls-7{mix-blend-mode:multiply;}.cls-5{fill:url(#linear-gradient);}.cls-6{fill:url(#linear-gradient-2);}.cls-7{fill:url(#linear-gradient-3);}.cls-8{fill:#dee1ec;}.cls-9{fill:#f5f5f5;}</style><linearGradient id="linear-gradient" x1="234.58" y1="334.46" x2="234.58" y2="398.38" gradientUnits="userSpaceOnUse"><stop offset="0" stop-color="#cacfdd"/><stop offset="1" stop-color="#eef0f1"/></linearGradient><linearGradient id="linear-gradient-2" x1="132.82" y1="346.59" x2="236.43" y2="346.59" xlink:href="#linear-gradient"/><linearGradient id="linear-gradient-3" x1="328.78" y1="247.9" x2="408.75" y2="247.9" xlink:href="#linear-gradient"/></defs><title>Bear</title><g class="cls-1"><g id="Bear"><path class="cls-2" d="M448.92,356.24a17.84,17.84,0,0,1,17.84-17.85,17.85,17.85,0,0,1-17.84-17.85,17.85,17.85,0,0,1-17.85,17.85,17.85,17.85,0,0,1,17.85,17.85"/><path class="cls-3" d="M54.35,211.79l-5.71-1.87a36.65,36.65,0,0,1,2.81-6l5.2,3A29.89,29.89,0,0,0,54.35,211.79Zm7.83-12.32-4.35-4.14A42.38,42.38,0,0,1,62.62,191l3.67,4.75A35,35,0,0,0,62.18,199.47Zm12.05-8.29L72,185.63a41,41,0,0,1,6.13-2l1.41,5.83A36.71,36.71,0,0,0,74.23,191.18Zm14.56-2.37-.1-6a43.88,43.88,0,0,0,5.6-.45l.85,5.95A54.14,54.14,0,0,1,88.79,188.81Zm16.63-3.06-2-5.65a48.27,48.27,0,0,0,5.2-2.21l2.67,5.38A55.27,55.27,0,0,1,105.42,185.75Zm14.67-7.09-2.6-5.4c1.84-.89,3.72-1.74,5.59-2.54l2.35,5.52C123.65,177,121.85,177.82,120.09,178.66Zm14.46-5.89-1.91-5.69c1.93-.65,3.89-1.25,5.81-1.79l1.63,5.77C138.25,171.58,136.39,172.15,134.55,172.77Z"/><circle class="cls-3" cx="88.19" cy="225.2" r="18.63" transform="translate(-146.12 285.11) rotate(-82.96)"/><path class="cls-4" d="M88.19,246.83a21.63,21.63,0,1,1,21.63-21.63A21.66,21.66,0,0,1,88.19,246.83Zm0-37.26a15.63,15.63,0,1,0,15.63,15.63A15.65,15.65,0,0,0,88.19,209.57Z"/><path class="cls-3" d="M312.22,409.27H251.7c8.63-42.62,5.79-28.59,13.47-66.54H317.3c-17.14,32.93-11,21-24.55,47.18C310.27,392.7,312.22,409.27,312.22,409.27Z"/><path class="cls-3" d="M151.85,342.72v66.56h60.51s-2.64-18-19.46-19.37L204,342.72Z"/><path class="cls-3" d="M265.17,342.72,251.7,409.28h60.51s-1.94-16.58-19.46-19.37l24.56-47.19Z"/><path class="cls-3" d="M212.37,409.27H151.85V342.73H204c-9,38.11-6.55,27.85-11.1,47.18C209.72,391.31,212.37,409.27,212.37,409.27Z"/><path class="cls-5" d="M265.17,342.73c-6.95,34.31-6.56,31.87-6.27,31.87a209,209,0,0,0,44.29-4.75l14.11-27.12ZM151.85,370.06a209.36,209.36,0,0,0,44.65,4.54l7.5-31.87H151.85Z"/><path class="cls-4" d="M215.84,412.28h-67V339.72h58.93l-11.22,47.72c12.68,2.85,17.82,14.92,18.77,21.4Zm-61-6H208.5c-1.58-4.68-5.74-12.54-15.85-13.38l-3.46-.29,11-46.89H154.85Z"/><path class="cls-4" d="M315.58,412.28H248l14.67-72.56h59.54L297.2,387.86a25.93,25.93,0,0,1,18,21.07Zm-60.21-6h53a19.56,19.56,0,0,0-16.12-13.41l-4.11-.66,24.2-46.49H267.62Z"/><path class="cls-3" d="M408.75,193,345,153a59.23,59.23,0,0,0-62.3-.43l-34.12,20.78A86.63,86.63,0,0,1,203.44,186H180c-60.05,0-109.43,33.47-109.43,94.22,0,46.29-32.27,79.38-32.27,79.38l18.24,49.69H116s-2.3-17.39-20.77-17.39L92.07,371s20.65-3.41,40.94-20.86a209.41,209.41,0,0,0,62.17,9.46H258.9a209,209,0,0,0,57.17-8v8l25.25,49.69h53s-1.31-19-20.41-19l-6.55-24.17V326.85l9.61-7.88a87.14,87.14,0,0,0,31.82-67.32Z"/><path class="cls-6" d="M236.43,359.59H195.18A209.41,209.41,0,0,1,133,350.13l-.19-.24a99,99,0,0,0,15.5-16.29C161.06,341.38,195.3,359.59,236.43,359.59Z"/><rect class="cls-4" x="36" y="406.28" width="406.39" height="6"/><path class="cls-4" d="M92.68,373.93c-.76-3.7-.45-2.18-1.21-5.87.13,0,13.65-2.93,29-12.82C141,342,155,323.32,162,299.58l5.75,1.69a104.1,104.1,0,0,1-44.19,59.15C107.25,370.85,93.27,373.81,92.68,373.93Z"/><rect class="cls-4" x="313.07" y="308.69" width="6" height="42.93"/><path class="cls-7" d="M408.75,193v58.66A87.11,87.11,0,0,1,376.93,319l-6.58,5.39-14.6-15.47a62.72,62.72,0,0,1-22.42-34.25C331,265,331,262.17,328.94,237.25a38,38,0,0,1,4.54-21.68,31.87,31.87,0,0,1,46.65-39.08c.5-.17,1-.35,1.5-.51Z"/><path class="cls-4" d="M397.5,412.28h-58l-26.41-52v-4.76a212.13,212.13,0,0,1-54.17,7H195.18a212.15,212.15,0,0,1-61.48-9.11,98.27,98.27,0,0,1-38.24,19.85L97.8,389c14.73,1.28,20.28,13.34,21.15,19.88l.45,3.39h-65L34.83,358.85l1.32-1.36c.31-.32,31.41-32.81,31.41-77.28,0-62,50.17-97.22,112.43-97.22h23.45A83.67,83.67,0,0,0,247,170.76L281.12,150a62.25,62.25,0,0,1,65.46.44l65.17,40.92v60.31a89.78,89.78,0,0,1-32.92,69.63l-8.51,7v37.4l5.87,21.66c15.5,1.21,20.59,14.54,21.08,21.74Zm-54.34-6h47.53c-1.26-4.75-5.15-13-16.82-13h-2.3l-7.25-26.77v-41l10.7-8.79a83.82,83.82,0,0,0,30.73-65v-57l-62.36-39.15a56.22,56.22,0,0,0-59.15-.4l-34.12,20.78A89.68,89.68,0,0,1,203.44,189H180c-58.61,0-106.43,32.36-106.43,91.22,0,42.17-25.6,73.17-31.82,80.07l16.89,46h53.45c-1.63-4.37-6-11.38-16.88-11.38H92.61l-3.94-26.37,2.91-.49c.2,0,20.12-3.53,39.47-20.18l1.26-1.08a206.29,206.29,0,0,0,62.87,9.82H258.9a206.2,206.2,0,0,0,56.35-7.86l3.82-1.08v11.22Z"/><path class="cls-3" d="M462.89,213.93l4.05-4.31a13.49,13.49,0,1,0-19.69-18.45l-4.65,5Z"/><path class="cls-4" d="M463.09,218.09,438.3,196.37l6.76-7.25a16.49,16.49,0,1,1,24.07,22.55Zm-16.18-22.15,15.78,13.82,2.07-2.2a10.49,10.49,0,1,0-15.31-14.34Z"/><rect class="cls-4" x="452.04" y="198.01" width="9.13" height="6" transform="translate(-8.42 381.69) rotate(-44.99)"/><path class="cls-3" d="M468.74,218.38l-20.82-19.15a44.21,44.21,0,0,0-29-10.84H400a44.23,44.23,0,0,0-29,10.84l-19.61,18a22.48,22.48,0,0,0-7.19,18.71l2,23.35a39.63,39.63,0,0,0,1.75,10.59s0,0,0,0c2.65,11.42,8.78,20.47,18.16,27.69l2.51,2.64V279.7l30.17,31.94a20.3,20.3,0,0,0,29.46,0l30.18-31.94v20.47l4.26-4.5c8.33-8.82,10.22-31.77,10.22-31.77l2.93-26.19A22.47,22.47,0,0,0,468.74,218.38Z"/><path class="cls-4" d="M396.6,313.7l-25-26.45v20.47l-7.53-8c-10-7.75-16.21-17.23-19-29l-.68-1.65.2-.2a43.61,43.61,0,0,1-1.42-9.67l-1.95-23.12A25.57,25.57,0,0,1,349.38,215L369,197a47.26,47.26,0,0,1,31-11.63h18.88a47.16,47.16,0,0,1,31,11.58l20.88,19.2a25.53,25.53,0,0,1,8,21.91l-2.92,26.15c-.07.89-2.06,24-11,33.5l-9.44,10V287.25l-25,26.45A23.31,23.31,0,0,1,396.6,313.7Zm-31-41.54L401,309.58a17.3,17.3,0,0,0,25.1,0l35.36-37.42v20.36c5.58-7.23,8-23.08,8.49-28.87l2.93-26.28a19.53,19.53,0,0,0-6.13-16.79l-20.82-19.14a41.15,41.15,0,0,0-27-10.05H400a41.25,41.25,0,0,0-27,10.11l-19.54,17.89a19.59,19.59,0,0,0-6.24,16.22c2.36,27.94,2.3,26.63,2.2,26.63.21,1.53.53,3.15.87,4.6.17,0-.12-.21,1,3.86l-.05.05a43.83,43.83,0,0,0,14.35,22.51Z"/><path class="cls-8" d="M429.46,247.07a23.16,23.16,0,0,0-31.6,0l-5.72,5.32a23.17,23.17,0,0,0-7.37,16.95v6.31A23.17,23.17,0,0,0,408,298.82h11.42a23.17,23.17,0,0,0,23.17-23.17v-6.31a23.17,23.17,0,0,0-7.37-16.95Z"/><path class="cls-3" d="M355.84,220l-5-5.29A16.56,16.56,0,1,1,375,192l5.71,6.12Z"/><path class="cls-4" d="M353.65,222l-5-5.29A19.56,19.56,0,1,1,377.22,190l5.71,6.13-4.38,4.09-5.71-6.12a13.56,13.56,0,1,0-19.79,18.54l5,5.29Z"/><path class="cls-4" d="M434.07,277.13H393.25V264.29a25,25,0,0,1,2.45-10.74L401,242.5a5.49,5.49,0,0,0-1.06-6.26L391.67,228H371.9v-6h22.25L404.2,232a11.51,11.51,0,0,1,2.23,13.11c-7.87,16.34-7.18,13.09-7.18,26h28.82v-6.84a19,19,0,0,0-1.86-8.14l-5.32-11A11.49,11.49,0,0,1,423.12,232L433.17,222h22.25v6H435.65l-8.29,8.29a5.49,5.49,0,0,0-1.07,6.26l5.32,11.05a24.84,24.84,0,0,1,2.46,10.74Z"/><path class="cls-4" d="M402.19,288.47a12.09,12.09,0,0,1-8.94-11.69v-5.65h40.82v5.65a12.1,12.1,0,0,1-8.94,11.69A49.4,49.4,0,0,1,402.19,288.47Zm-2.93-11.34a6.08,6.08,0,0,0,4.46,5.53,43.08,43.08,0,0,0,19.88,0,6.09,6.09,0,0,0,4.46-5.53Z"/><circle class="cls-9" cx="390.43" cy="230.6" r="5.65"/><path class="cls-4" d="M390.43,239.26a8.66,8.66,0,1,1,8.65-8.66A8.68,8.68,0,0,1,390.43,239.26Zm0-11.31a2.66,2.66,0,1,0,2.65,2.65A2.66,2.66,0,0,0,390.43,228Z"/><circle class="cls-9" cx="436.74" cy="230.6" r="5.65"/><path class="cls-4" d="M436.74,239.26a8.66,8.66,0,1,1,8.65-8.66A8.68,8.68,0,0,1,436.74,239.26Zm0-11.31a2.66,2.66,0,1,0,2.65,2.65A2.66,2.66,0,0,0,436.74,228Z"/><path class="cls-4" d="M407.61,273.66l-3.8-6.56a7,7,0,0,1,6-10.45h7.66a7,7,0,0,1,6,10.5l-3.87,6.55A7,7,0,0,1,407.61,273.66Zm2.22-11a1,1,0,0,0-.83,1.44l3.8,6.56a1,1,0,0,0,1.65,0l3.87-6.56a1,1,0,0,0-.83-1.45Z"/><rect class="cls-4" x="361.17" y="197.99" width="6" height="12.36" transform="translate(-37.7 317.32) rotate(-45)"/><path class="cls-4" d="M300.75,122.3a11.28,11.28,0,1,1,10.51-15.46A11.25,11.25,0,0,1,300.75,122.3Zm0-16.57a5.29,5.29,0,1,0,4.85,7.37A5.29,5.29,0,0,0,300.78,105.73Z"/><path class="cls-4" d="M234.07,151.22a8.75,8.75,0,1,1,16.17.22A8.76,8.76,0,0,1,234.07,151.22Zm5.57-2.22a2.76,2.76,0,1,0,3.65-3.55h0A2.76,2.76,0,0,0,239.64,149Z"/></g></g></svg>