<svg xmlns="http://www.w3.org/2000/svg" xmlns:xlink="http://www.w3.org/1999/xlink" viewBox="0 0 512 512"><defs><style>.cls-1{isolation:isolate;}.cls-2{fill:#e1830e;}.cls-3{fill:#a9afc4;}.cls-4{fill:#5e6175;}.cls-11,.cls-5,.cls-6,.cls-7,.cls-8,.cls-9{mix-blend-mode:multiply;}.cls-5{fill:url(#linear-gradient);}.cls-6{fill:url(#linear-gradient-2);}.cls-7{fill:url(#linear-gradient-3);}.cls-8{fill:url(#linear-gradient-4);}.cls-9{fill:url(#linear-gradient-5);}.cls-10{fill:#f5f5f5;}.cls-11{fill:url(#linear-gradient-6);}</style><linearGradient id="linear-gradient" x1="182.15" y1="274.1" x2="182.15" y2="398.14" gradientUnits="userSpaceOnUse"><stop offset="0" stop-color="#cacfdd"/><stop offset="1" stop-color="#eef0f1"/></linearGradient><linearGradient id="linear-gradient-2" x1="334.13" y1="274.1" x2="334.13" y2="398.14" xlink:href="#linear-gradient"/><linearGradient id="linear-gradient-3" x1="250.99" y1="264.68" x2="399.18" y2="264.68" xlink:href="#linear-gradient"/><linearGradient id="linear-gradient-4" x1="96.67" y1="347.89" x2="120.44" y2="347.89" xlink:href="#linear-gradient"/><linearGradient id="linear-gradient-5" x1="134.91" y1="312.73" x2="254.42" y2="312.73" xlink:href="#linear-gradient"/><linearGradient id="linear-gradient-6" x1="414.05" y1="300.09" x2="414.05" y2="343.97" xlink:href="#linear-gradient"/></defs><title>Bull</title><g class="cls-1"><g id="Bull"><path class="cls-2" d="M43.75,173.14A21.36,21.36,0,0,1,65.11,194.5a21.37,21.37,0,0,1,21.36-21.36,21.36,21.36,0,0,1-21.36-21.36A21.36,21.36,0,0,1,43.75,173.14Z"/><path class="cls-3" d="M417.68,267.29h32l-5.6-7.56a32.84,32.84,0,0,0-26.36-13.26Z"/><path class="cls-4" d="M455.6,270.29H414.68V243.47h3A36,36,0,0,1,446.45,258Zm-34.92-6h23l-2.05-2.77a30,30,0,0,0-20.95-11.9Z"/><path class="cls-3" d="M309.13,288,314,344.22l-.29,42.32s9,4.49,12.65,13.9h31.78s-6.91-8.49-16.43-11V339.39L359.13,288Z"/><path class="cls-3" d="M204.5,400.44H172.62l-2.25-4.56a15.3,15.3,0,0,0-13.74-8.57l-18.06-41.38L178.79,288l38.6,8.71c-8.45,42.24-45.86,57.14-45.86,57.14l17.15,35.63C201,393.46,204.5,400.44,204.5,400.44Z"/><path class="cls-5" d="M178.79,288l38.6,8.71a78.43,78.43,0,0,1-25.78,44.14,212.7,212.7,0,0,1-44.7-6.93Z"/><path class="cls-6" d="M359.13,288l-15.79,44.08a44.45,44.45,0,0,1-22.36,6h-7.49L309.13,288Z"/><path class="cls-4" d="M209.38,403.44H170.75l-3.07-6.24a12.38,12.38,0,0,0-11.05-6.89h-2l-19.51-44.72,42.33-61,43.43,9.8-.58,2.87c-7.36,36.83-35.5,53.45-44.77,58L190.84,387c12.36,4.39,16.18,11.73,16.34,12Zm-34.9-6h23.28a34,34,0,0,0-11.23-5.5l-19.1-39.69,3-1.19c.35-.14,34.31-14.17,43.4-52.08l-33.72-7.61L142,346.26l16.65,38.16a18.45,18.45,0,0,1,14.42,10.13Z"/><path class="cls-4" d="M364.47,403.44H324.32l-.74-1.92c-3.19-8.23-11.1-12.26-11.18-12.3l-1.68-.83.3-44.05L305.86,285h57.45l-18.58,54.89v47.38c9.15,3.26,15.47,10.93,15.76,11.28Zm-36.13-6h22.32a27.6,27.6,0,0,0-11.93-5.64V338.9L354.94,291H312.4L317,344.1l-.27,40.71A32,32,0,0,1,328.34,397.44Z"/><path class="cls-3" d="M399.18,223.1v53l-51.51,38.47A44.57,44.57,0,0,1,321,323.45a35.13,35.13,0,0,0-33.33,24l-1.59,4.77.41,37.22c8.6,2.47,13.63,11,13.63,11H268.31c-.14-9.41-8.49-13.9-8.49-13.9l-8.7-39.6,3.3-23.94c-71.56,10.54-112.26-5.11-117.59-6.9C127.4,351.43,96.37,353,96.37,353l14.2,36.52a24.67,24.67,0,0,1,13.59,11H94.32L92,395.75a15.08,15.08,0,0,0-13.55-8.44l-17.26-40.5L68.48,328a49.8,49.8,0,0,0,3.33-17.9V278.26c0-50.42,41.11-92.42,92.42-92.42h26.25a57.46,57.46,0,0,0,40.44-17.09,57.07,57.07,0,0,1,40.19-17h32.46a58.16,58.16,0,0,1,41.05,17Z"/><path class="cls-7" d="M399.18,223.1v53l-44.36,33.13-22.45-26.05H276.08l16-21.57a34.83,34.83,0,0,1-22.6-15.9c-15.74-25.5-14.67-23.68-15.66-25.61H396.18Z"/><path class="cls-8" d="M96.67,352.94a48.6,48.6,0,0,0,23.77-10.11A45.66,45.66,0,0,1,96.67,352.94Z"/><path class="cls-9" d="M254.42,323c-71.56,10.54-112.26-5.11-117.59-6.9q-.86,3.16-1.92,6a68.72,68.72,0,0,0,3.66-23.25S175,319.34,254.42,323Z"/><path class="cls-4" d="M305.37,403.44h-40l0-2.95c-.12-7.47-6.65-11.16-6.93-11.32l-1.19-.65c-.48-2.08-.07-.25-9.13-41.46l2.84-20.55c-44.22,5.82-80,3.71-112.07-6.59-6.39,20.12-21.27,32.21-38.3,35.49l12.32,31.69a27.86,27.86,0,0,1,13.9,11.84l2.61,4.5H92.45l-3.12-6.36a12.18,12.18,0,0,0-10.86-6.77h-2L58,346.87l7.71-20a46.46,46.46,0,0,0,3.13-16.82V278.26c0-53.38,43.72-95.41,95.42-95.41h25.5a54.8,54.8,0,0,0,39-16.15,59.77,59.77,0,0,1,42.38-17.92h32.47a60.75,60.75,0,0,1,43.16,17.83l55.46,55.25v55.75L349.46,317A47.91,47.91,0,0,1,321,326.46a32.07,32.07,0,0,0-30.48,22l-1.43,4.28.38,34.62c8.3,3.38,13,11.21,13.23,11.57Zm-34.33-6h22.78a19.65,19.65,0,0,0-8.18-5.07l-2.15-.62-.43-40,1.74-5.23A38.09,38.09,0,0,1,321,320.46a41.88,41.88,0,0,0,24.89-8.27l50.32-37.58V224.35L342.5,170.86a54.82,54.82,0,0,0-38.93-16.08H271.1A53.81,53.81,0,0,0,233,171a60.76,60.76,0,0,1-43.23,17.9h-25.5c-50.08,0-89.42,41-89.42,89.41v31.82a52.62,52.62,0,0,1-3.53,19l-6.83,17.7,16,37.67a18.2,18.2,0,0,1,14.21,10l1.48,3H118a21.61,21.61,0,0,0-8.26-5.06l-1.45-.41c-.87-2.18.66,1.73-16.26-41.8l4.15-.2c1.17-.07,29-2,37.71-34.65l.82-3.1c42.15,14.32,79.06,13.46,123.19,7.26l-3.78,27.34,8.32,37.85C264.84,386.29,269.81,390.46,271,397.44Z"/><path class="cls-10" d="M402.23,217.86h27.12a19.17,19.17,0,0,0,13.55-5.61l11.17-11.17a19.16,19.16,0,0,0,5.62-13.56v-7.64l10.69,10.7a19.16,19.16,0,0,1,2.76,23.62l-14.29,23.16a19.16,19.16,0,0,1-16.31,9.11H402.23Z"/><path class="cls-10" d="M339.66,217.86H312.54A19.2,19.2,0,0,1,299,212.25l-11.17-11.17a19.2,19.2,0,0,1-5.61-13.56v-7.64l-10.7,10.7a19.16,19.16,0,0,0-2.76,23.62L283,237.36a19.18,19.18,0,0,0,16.32,9.11h40.31Z"/><path class="cls-4" d="M442.54,249.47H399.23V214.86h30.12a16,16,0,0,0,11.43-4.74L452,199a16.11,16.11,0,0,0,4.74-11.44V172.64l15.81,15.82a22.15,22.15,0,0,1,3.2,27.32l-14.29,23.16A22,22,0,0,1,442.54,249.47Zm-37.31-6h37.31a16.07,16.07,0,0,0,13.76-7.68l14.29-23.16a16.16,16.16,0,0,0-2.33-19.93l-5.57-5.58a22,22,0,0,1-6.5,16.08L445,214.37a22,22,0,0,1-15.68,6.49H405.23Z"/><path class="cls-4" d="M342.66,249.47H299.35a22,22,0,0,1-18.87-10.53l-14.29-23.16a22.15,22.15,0,0,1,3.19-27.32l15.82-15.82v14.88A16.1,16.1,0,0,0,289.93,199l11.17,11.16a16.07,16.07,0,0,0,11.44,4.74h30.12ZM279.2,187.12l-5.58,5.58a16.17,16.17,0,0,0-2.33,19.93l14.29,23.16a16.08,16.08,0,0,0,13.77,7.68h37.31V220.86H312.54a22,22,0,0,1-15.68-6.49L285.69,203.2A22,22,0,0,1,279.2,187.12Z"/><path class="cls-3" d="M339.66,217.86l5.74-5.74a29.73,29.73,0,0,1,21-8.71h23.49a29.77,29.77,0,0,1,21,8.71l6.74,6.75v48.42l14.46,20.59a13.79,13.79,0,0,1-1.53,17.67l-9.35,9.34a15.19,15.19,0,0,1-10.75,4.45h-19A15.2,15.2,0,0,1,380,314.07l-40.31-46.78Z"/><path class="cls-4" d="M410.51,322.34h-19A18.2,18.2,0,0,1,377.7,316l-41-47.63V216.62l6.61-6.62a32.54,32.54,0,0,1,23.15-9.59h23.49A32.53,32.53,0,0,1,413.06,210l7.62,7.62v48.72l13.92,19.82a16.76,16.76,0,0,1-1.87,21.51L423.38,317A18,18,0,0,1,410.51,322.34Zm-67.85-56.17,39.58,45.94a12.2,12.2,0,0,0,9.25,4.23h19a12.13,12.13,0,0,0,8.63-3.57l9.35-9.34a10.79,10.79,0,0,0,1.2-13.83l-15-21.37V220.11l-5.87-5.87a26.53,26.53,0,0,0-18.9-7.83H366.42a26.53,26.53,0,0,0-18.9,7.83l-4.86,4.86Z"/><path class="cls-3" d="M339.66,267.29h-32l5.61-7.56a32.84,32.84,0,0,1,26.36-13.26Z"/><path class="cls-4" d="M342.66,270.29H301.73L310.89,258a36,36,0,0,1,28.77-14.48h3Zm-29-6h23V249.62a30,30,0,0,0-21,11.9Z"/><path class="cls-11" d="M434.59,297a13.77,13.77,0,0,0-2.45-9.1l-4.9-7a6,6,0,0,0-4.29,1.78l-6,6L411.29,283a6,6,0,0,0-4.29-1.78h-7.48a6.07,6.07,0,0,0-6.07,6.07V297Z"/><path class="cls-4" d="M432.73,307.67l-4.24-4.25a10.76,10.76,0,0,0,1.2-13.81l-3.79-5.4c-.66.32-.18-.06-8.92,8.68l-7.81-7.8a3.09,3.09,0,0,0-2.17-.9h-7.48a3.07,3.07,0,0,0-3.07,3.07v9.92h-6v-9.92a9.08,9.08,0,0,1,9.07-9.07H407a9,9,0,0,1,6.42,2.66l3.56,3.56,3.85-3.85a9,9,0,0,1,6.41-2.66h1.56l5.8,8.26A16.76,16.76,0,0,1,432.73,307.67Z"/><polygon class="cls-4" points="380.59 248.29 371.18 238.88 356.54 238.88 356.54 232.88 373.67 232.88 384.83 244.05 380.59 248.29"/><polygon class="cls-4" points="397.29 248.29 393.05 244.05 404.21 232.88 417.68 232.88 417.68 238.88 406.7 238.88 397.29 248.29"/><rect class="cls-4" x="402.41" y="293.73" width="6" height="5.48"/><rect class="cls-4" x="422.75" y="293.73" width="6" height="5.48"/><path class="cls-4" d="M129.37,403.44H92.45l-3.12-6.36a12.18,12.18,0,0,0-10.86-6.77h-2L58,346.87l7.71-20a46.51,46.51,0,0,0,3.14-16.82V284.64h6v25.44a52.63,52.63,0,0,1-3.54,19l-6.83,17.7,16,37.67a18.2,18.2,0,0,1,14.21,10l1.48,3h21.87a21.07,21.07,0,0,0-8.27-5.06l-1.47-.39L92.11,350.27l4-.3c1.6-.12,39.42-3.64,39.42-51.13h6c0,43.72-30.12,54.14-41.07,56.48l12.36,31.78a27.86,27.86,0,0,1,13.9,11.84Z"/><path class="cls-8" d="M120.44,342.83a45.66,45.66,0,0,1-23.77,10.11A48.6,48.6,0,0,0,120.44,342.83Z"/><circle class="cls-10" cx="369.3" cy="242.94" r="7.06"/><path class="cls-4" d="M369.3,253a10.06,10.06,0,1,1,10.05-10.05A10.07,10.07,0,0,1,369.3,253Zm0-14.11a4.06,4.06,0,1,0,4.05,4.06A4.06,4.06,0,0,0,369.3,238.88Z"/><circle class="cls-10" cx="408.43" cy="242.94" r="7.06"/><path class="cls-4" d="M408.43,253a10.06,10.06,0,1,1,10.06-10.05A10.06,10.06,0,0,1,408.43,253Zm0-14.11a4.06,4.06,0,1,0,4.06,4.06A4.06,4.06,0,0,0,408.43,238.88Z"/><rect class="cls-4" x="396.23" y="305.52" width="31.41" height="6"/><path class="cls-4" d="M203.4,163.9A11.59,11.59,0,1,1,211,143.52C219,150.47,214.22,163.9,203.4,163.9Zm0-17.19a5.6,5.6,0,1,0,.41,11.18h0a5.6,5.6,0,0,0-.41-11.18Z"/><path class="cls-4" d="M259.79,126.5a9,9,0,1,1,5.87-15.76A9,9,0,0,1,259.79,126.5Zm0-11.94a3,3,0,1,0,2.24,4.91A3,3,0,0,0,259.81,114.56Z"/><path class="cls-3" d="M409.31,343.08h-6v-6h6Zm-16,0h-6v-6h6ZM419.9,342l-1.32-5.86a36.41,36.41,0,0,0,5.3-1.62l2.18,5.58A43.47,43.47,0,0,1,419.9,342Zm15.58-7-3.5-4.88a36.1,36.1,0,0,0,4.25-3.56l4.19,4.29A42.56,42.56,0,0,1,435.48,335Zm12-11.24-4.24-4.24,4.24-4.25,4.24,4.25Z"/><path class="cls-4" d="M47.68,251.09h-6a50.74,50.74,0,0,1,50.67-50.68h17.81v6H92.35A44.72,44.72,0,0,0,47.68,251.09Z"/><path class="cls-4" d="M36,259.77a23.92,23.92,0,0,0,2.54,11.52l6.14,12.22,6.15-12.22a23.84,23.84,0,0,0,2.53-10.68v-.84a8.68,8.68,0,0,0-17.36,0Z"/><path class="cls-4" d="M44.68,290.19l-8.82-17.55A27,27,0,0,1,33,259.77a11.68,11.68,0,0,1,23.36,0,27,27,0,0,1-2.86,12.87Zm0-36.1A5.68,5.68,0,0,0,39,259.77,21.12,21.12,0,0,0,41.22,270l3.46,6.88c4-7.94,5.68-10.15,5.68-17.06A5.68,5.68,0,0,0,44.68,254.09Z"/><rect class="cls-4" x="44.68" y="397.44" width="391.05" height="6"/></g></g></svg>