<?xml version="1.0" encoding="utf-8"?>
<!-- Generator: Adobe Illustrator 24.0.0, SVG Export Plug-In . SVG Version: 6.00 Build 0)  -->
<svg version="1.1" xmlns="http://www.w3.org/2000/svg" xmlns:xlink="http://www.w3.org/1999/xlink" x="0px" y="0px"
	 viewBox="0 0 64 64" style="enable-background:new 0 0 64 64;" xml:space="preserve">
<style type="text/css">
	.st0{fill:#BFCBD8;}
	.st1{fill:#FFFFFF;}
	.st2{fill:#454852;}
	.st3{fill:#F15642;}
	.st4{fill:#EF403A;}
	.st5{fill:#C72932;}
	.st6{fill:#81C56D;}
	.st7{fill:#4EA258;}
	.st8{fill:#F6978F;}
	.st9{opacity:0.8;}
	.st10{fill:#982433;}
	.st11{fill:#5BAA5E;}
	.st12{fill:#E2E8F0;}
	.st13{fill:#ABBBC9;}
	.st14{fill:#CE2B34;}
	.st15{fill:#D27C2B;}
	.st16{fill:#A05223;}
	.st17{fill:#F19920;}
	.st18{fill:#BCDA86;}
	.st19{fill:#FFCC5C;}
	.st20{fill:#FBAC38;}
	.st21{fill:#E5891F;}
	.st22{fill:#F15B44;}
	.st23{fill:#FFEDAA;}
	.st24{fill:#50BEE8;}
	.st25{fill:#B9E5FB;}
	.st26{fill:#E1F4FD;}
	.st27{fill:#C7EAFB;}
	.st28{fill:#ABE1FA;}
	.st29{fill:#CAD1D8;}
	.st30{fill:#F79549;}
	.st31{fill:#F9A659;}
	.st32{fill:#FFD25D;}
	.st33{fill:#F26A5F;}
	.st34{fill:#FDDBD0;}
	.st35{fill:#F9B9AE;}
	.st36{fill:#2D3242;}
	.st37{fill:#676A75;}
	.st38{fill:#310E31;}
	.st39{fill:#6B2943;}
	.st40{opacity:0.6;}
	.st41{fill:#F04B4D;}
	.st42{fill:#4F525D;}
	.st43{fill:#EF948F;}
	.st44{fill:#A5A5A6;}
	.st45{fill:#FCD063;}
	.st46{fill:none;}
	.st47{fill:#D57E28;}
</style>
<g id="snowman_x5F_2">
</g>
<g id="holly">
</g>
<g id="sock">
</g>
<g id="xmas_x5F_tree">
</g>
<g id="winter_x5F_tree">
	<g>
		<g>
			<g>
				<path class="st19" d="M32,63c-2.76,0-5-0.45-5-1s2.24-1,5-1V63z"/>
			</g>
			<g>
				<path class="st17" d="M32,61c2.76,0,5,0.45,5,1s-2.24,1-5,1V61z"/>
			</g>
			<g>
				<path class="st19" d="M37,63H27v-1h0c1.1,0,2-0.9,2-2v-2h6v2c0,1.1,0.9,2,2,2h0V63z"/>
			</g>
			<g>
				<path class="st17" d="M35,60v-0.5V58v-1h-6v2.5c0,0.24,0.99,0.44,2.32,0.49c0.1,0,0.37,0,0.67,0c0.52,0,0.95,0.39,1,0.91
					l0.05,0.51c0.04,0.4,0.16,0.75,0.28,1.02c0.16,0.35,0.52,0.58,0.91,0.58L37,63v-1C35.9,62,35,61.1,35,60z"/>
			</g>
			<g>
				<path class="st19" d="M27,62c0,0.55,2.24,1,5,1s5-0.45,5-1v1c0,0.55-2.24,1-5,1s-5-0.45-5-1V62z"/>
			</g>
			<g>
				<path class="st17" d="M34,62.92v1c1.76-0.15,3-0.51,3-0.92v-1C37,62.41,35.76,62.76,34,62.92z"/>
			</g>
			<g>
				<path class="st23" d="M28,63.59c0.72,0.19,1.77,0.34,3,0.39v-1c-1.23-0.05-2.28-0.19-3-0.39V63.59z"/>
			</g>
			<g>
				<path class="st24" d="M17.57,56.17c0.03,0.02,0.05,0.04,0.08,0.06c2.64,2.05,6.92,2.05,9.57,0c2.64-2.05,6.92-2.05,9.57,0
					c2.64,2.05,6.92,2.05,9.57,0c0.03-0.02,0.05-0.04,0.08-0.06v-9H17.57V56.17z"/>
			</g>
			<g>
				<path class="st25" d="M27.22,57.46c-2.64-2.05-6.92-2.05-9.57,0c-0.03,0.02-0.05,0.04-0.08,0.06c-3.67,2.76-8.33-1.95-5.9-5.9
					L32,18.5l20.33,33.12c2.43,3.95-2.23,8.66-5.9,5.9c-0.03-0.02-0.05-0.04-0.08-0.06c-2.64-2.05-6.92-2.05-9.57,0
					C34.14,59.51,29.86,59.51,27.22,57.46z"/>
			</g>
			<g>
				<path class="st24" d="M52.33,51.62l-7.21-11.75l-2.31-3.77L32,26.6l-10.81,9.5l-3.07,5c-0.89,1.45,0.58,3.19,2.16,2.56
					l0.04-0.02l0.06-0.03c2.14-0.89,5.64-0.86,7.79,0.02c1.06,0.44,2.45,0.65,3.83,0.65c0.65,0,1.64-0.18,2.54-0.39
					c1.13-0.26,2.23,0.5,2.41,1.64l1.24,7.91c0.24,1.51,1.59,2.53,3.12,2.48c1.81-0.06,3.65,0.44,5.04,1.52
					c0.03,0.02,0.05,0.04,0.08,0.06C50.1,60.28,54.76,55.57,52.33,51.62z"/>
			</g>
			<g>
				<path class="st25" d="M28.13,41.02c-2.14-1.58-5.61-1.58-7.74,0c-0.02,0.02-0.04,0.03-0.06,0.05c-2.97,2.13-6.74-1.5-4.78-4.55
					L32,11l16.46,25.52c1.96,3.05-1.81,6.67-4.78,4.55c-0.02-0.02-0.04-0.03-0.06-0.05c-2.14-1.58-5.61-1.58-7.74,0
					C33.73,42.6,30.27,42.6,28.13,41.02z"/>
			</g>
			<g>
				<path class="st1" d="M18.41,41.7c-1.21,0-2.4-0.73-3.01-1.85c-0.13-0.24-0.04-0.55,0.2-0.68c0.24-0.13,0.55-0.04,0.68,0.2
					c0.44,0.81,1.28,1.33,2.13,1.33c0.47,0,0.91-0.16,1.38-0.49c1.2-0.89,2.79-1.38,4.46-1.38c0.28,0,0.5,0.22,0.5,0.5
					s-0.22,0.5-0.5,0.5c-1.46,0-2.84,0.42-3.87,1.19C19.74,41.48,19.1,41.7,18.41,41.7z"/>
			</g>
			<g>
				<path class="st25" d="M32,59c-0.28,0-0.5-0.22-0.5-0.5S31.72,58,32,58c1.59,0,3.07-0.47,4.17-1.33c1.45-1.13,3.37-1.75,5.4-1.75
					c0.28,0,0.5,0.22,0.5,0.5s-0.22,0.5-0.5,0.5c-1.81,0-3.5,0.55-4.78,1.54C35.51,58.45,33.81,59,32,59z"/>
			</g>
			<g>
				<path class="st24" d="M48.46,36.52l-4.99-7.74l0,0l-3.06-4.75L32,16c0,0-8.4,8.03-8.4,8.03l-1.78,2.76
					c-0.84,1.3,0.52,2.9,1.94,2.29l0,0l0.05-0.02c1.52-0.68,3.99-0.64,5.52,0.03c0.93,0.41,2.18,0.56,3.36,0.46
					c1.03-0.09,1.93,0.69,2.08,1.71l0.88,6.1c0.23,1.61,1.7,2.72,3.31,2.54c1.65-0.18,3.38,0.19,4.65,1.13
					c0.02,0.02,0.04,0.03,0.06,0.05C46.65,43.19,50.42,39.56,48.46,36.52z"/>
			</g>
			<g>
				<path class="st25" d="M29.27,26.72c-1.51-1.14-3.96-1.14-5.47,0c-0.02,0.01-0.03,0.02-0.05,0.03c-2.1,1.54-4.76-1.09-3.37-3.29
					L32,5l11.62,18.46c1.39,2.2-1.27,4.83-3.37,3.29c-0.02-0.01-0.03-0.02-0.05-0.03c-1.51-1.14-3.96-1.14-5.47,0
					C33.22,27.86,30.78,27.86,29.27,26.72z"/>
			</g>
			<g>
				<path class="st1" d="M22.41,27.21c-0.84,0-1.66-0.51-2.1-1.3c-0.13-0.24-0.05-0.55,0.2-0.68c0.24-0.14,0.55-0.05,0.68,0.2
					c0.26,0.48,0.75,0.79,1.23,0.79c0,0,0,0,0,0c0.27,0,0.52-0.09,0.79-0.3c0.9-0.68,2.08-1.05,3.33-1.05c0.28,0,0.5,0.22,0.5,0.5
					s-0.22,0.5-0.5,0.5c-1.03,0-2,0.3-2.73,0.86C23.35,27.05,22.89,27.21,22.41,27.21C22.41,27.21,22.41,27.21,22.41,27.21z"/>
			</g>
			<g>
				<path class="st24" d="M43.65,23.52L33.39,7.21L32,5l0,0l0,0v0h0l-2.51,3.98c0,0.01,0,0,0.01,0.01c0.01,0,0.02-0.01,0.03-0.01
					c1.54-0.4,3.06,0.72,3.26,2.3l1.5,11.96c0.2,1.56,1.55,2.63,3.12,2.62c1.01-0.01,2.02,0.28,2.78,0.86
					C42.33,28.3,45.07,25.76,43.65,23.52z"/>
			</g>
			<g>
				<path class="st19" d="M34.61,9c-0.04,0-0.09-0.01-0.13-0.03L32.51,7.8c-0.31-0.19-0.7-0.19-1.02,0l-1.97,1.16
					c-0.09,0.05-0.21,0.04-0.3-0.02c-0.09-0.07-0.13-0.18-0.11-0.29l0.39-2.39c0.05-0.31-0.05-0.63-0.27-0.86l-1.65-1.68
					c-0.08-0.08-0.1-0.2-0.07-0.3c0.03-0.11,0.12-0.19,0.23-0.2l2.24-0.34c0.33-0.05,0.61-0.26,0.75-0.56l1.01-2.15
					C31.79,0.06,31.89,0,32,0l0,0c0.11,0,0.2,0.06,0.25,0.16l1.01,2.15c0.14,0.3,0.42,0.51,0.75,0.56l2.24,0.34
					c0.11,0.02,0.19,0.09,0.23,0.2c0.03,0.11,0,0.22-0.07,0.3L34.76,5.4c-0.22,0.23-0.32,0.55-0.27,0.86l0.39,2.39
					c0.02,0.11-0.02,0.22-0.11,0.29C34.72,8.98,34.66,9,34.61,9z"/>
			</g>
			<g>
				<path class="st17" d="M27.59,3.72l1.65,1.68c0.16,0.16,0.25,0.37,0.28,0.59l0.42-0.17c0.69-0.27,0.64-1.26-0.07-1.47
					C28.72,4.02,27.55,3.68,27.59,3.72z"/>
			</g>
			<g>
				<path class="st17" d="M34.12,3.49c-0.71,0.02-1.36,0.38-1.75,0.97L32,5l-2.66,3.99C29.4,9,29.47,9,29.52,8.97l1.97-1.16
					c0.31-0.19,0.7-0.19,1.02,0l1.97,1.16C34.52,8.99,34.56,9,34.61,9c0.06,0,0.12-0.02,0.17-0.06c0.09-0.07,0.13-0.18,0.11-0.29
					l-0.39-2.39c-0.05-0.31,0.05-0.63,0.27-0.86l1.65-1.68c0.08-0.08,0.07-0.3,0.07-0.3L34.12,3.49z"/>
			</g>
			<g>
				<path class="st19" d="M34.13,5.86c-0.63-0.25-1.2,0.47-0.81,1.02l1.45,2.07c0,0,0,0,0.01,0c0.09-0.07,0.13-0.18,0.11-0.29
					l-0.39-2.39c-0.01-0.09-0.01-0.18,0-0.26L34.13,5.86z"/>
			</g>
			<g>
				<path class="st25" d="M32,27.57c-0.28,0-0.5-0.22-0.5-0.5s0.22-0.5,0.5-0.5c0.82,0,1.57-0.23,2.13-0.65
					c0.9-0.68,2.09-1.06,3.34-1.06c0.28,0,0.5,0.22,0.5,0.5s-0.22,0.5-0.5,0.5c-1.03,0-2,0.3-2.73,0.86
					C34,27.27,33.03,27.57,32,27.57z"/>
			</g>
			<g>
				<path class="st1" d="M15.22,58.35c-1.44,0-2.87-0.89-3.64-2.27c-0.13-0.24-0.05-0.55,0.19-0.68s0.54-0.05,0.68,0.19
					c0.6,1.07,1.69,1.76,2.77,1.76c0,0,0,0,0,0c0.63,0,1.21-0.22,1.83-0.68c1.45-1.12,3.36-1.74,5.39-1.74c0.28,0,0.5,0.22,0.5,0.5
					s-0.22,0.5-0.5,0.5c-1.81,0-3.5,0.55-4.78,1.54C16.86,58.06,16.06,58.35,15.22,58.35C15.22,58.35,15.22,58.35,15.22,58.35z"/>
			</g>
			<g>
				<path class="st25" d="M32,42.2c-0.28,0-0.5-0.22-0.5-0.5s0.22-0.5,0.5-0.5c1.25,0,2.41-0.35,3.28-0.99
					c1.2-0.89,2.79-1.38,4.46-1.38c0.28,0,0.5,0.22,0.5,0.5s-0.22,0.5-0.5,0.5c-1.46,0-2.84,0.42-3.87,1.19
					C34.84,41.78,33.46,42.2,32,42.2z"/>
			</g>
		</g>
		<g>
			<path class="st24" d="M42.87,8.53v-0.4C42.87,8.06,42.93,8,43,8l0,0c0.07,0,0.13,0.06,0.13,0.13v0.4c0,0.74,0.6,1.33,1.33,1.33
				c0,0,0.4,0,0.4,0C44.94,9.87,45,9.93,45,10v0c0,0.07-0.06,0.13-0.13,0.13h-0.4c-0.74,0-1.33,0.6-1.33,1.33v0v0.4
				c0,0.07-0.06,0.13-0.13,0.13l0,0c-0.07,0-0.13-0.06-0.13-0.13v-0.4v0c0-0.74-0.6-1.33-1.33-1.33c0,0-0.4,0-0.4,0
				C41.06,10.13,41,10.07,41,10v0c0-0.07,0.06-0.13,0.13-0.13c0,0,0.4,0,0.4,0C42.27,9.87,42.87,9.27,42.87,8.53"/>
		</g>
		<g>
			<path class="st24" d="M22.87,8.53v-0.4C22.87,8.06,22.93,8,23,8l0,0c0.07,0,0.13,0.06,0.13,0.13v0.4c0,0.74,0.6,1.33,1.33,1.33
				c0,0,0.4,0,0.4,0C24.94,9.87,25,9.93,25,10l0,0c0,0.07-0.06,0.13-0.13,0.13h-0.4c-0.74,0-1.33,0.6-1.33,1.33v0v0.4
				c0,0.07-0.06,0.13-0.13,0.13l0,0c-0.07,0-0.13-0.06-0.13-0.13v-0.4v0c0-0.74-0.6-1.33-1.33-1.33c0,0-0.4,0-0.4,0
				C21.06,10.13,21,10.07,21,10l0,0c0-0.07,0.06-0.13,0.13-0.13c0,0,0.4,0,0.4,0C22.27,9.87,22.87,9.27,22.87,8.53"/>
		</g>
		<g>
			<path class="st24" d="M14.33,25.67v-0.5c0-0.09,0.07-0.17,0.17-0.17h0c0.09,0,0.17,0.07,0.17,0.17v0.5
				c0,0.92,0.75,1.67,1.67,1.67c0,0,0.5,0,0.5,0c0.09,0,0.17,0.07,0.17,0.17l0,0c0,0.09-0.07,0.17-0.17,0.17h-0.5
				c-0.92,0-1.67,0.75-1.67,1.67v0v0.5c0,0.09-0.07,0.17-0.17,0.17h0c-0.09,0-0.17-0.07-0.17-0.17v-0.5v0
				c0-0.92-0.75-1.67-1.67-1.67c0,0-0.5,0-0.5,0c-0.09,0-0.17-0.07-0.17-0.17l0,0c0-0.09,0.07-0.17,0.17-0.17c0,0,0.5,0,0.5,0
				C13.59,27.33,14.33,26.59,14.33,25.67"/>
		</g>
		<g>
			<path class="st24" d="M48.33,25.67v-0.5c0-0.09,0.07-0.17,0.17-0.17l0,0c0.09,0,0.17,0.07,0.17,0.17v0.5
				c0,0.92,0.75,1.67,1.67,1.67c0,0,0.5,0,0.5,0c0.09,0,0.17,0.07,0.17,0.17l0,0c0,0.09-0.07,0.17-0.17,0.17h-0.5
				c-0.92,0-1.67,0.75-1.67,1.67v0v0.5c0,0.09-0.07,0.17-0.17,0.17l0,0c-0.09,0-0.17-0.07-0.17-0.17v-0.5v0
				c0-0.92-0.75-1.67-1.67-1.67c0,0-0.5,0-0.5,0c-0.09,0-0.17-0.07-0.17-0.17l0,0c0-0.09,0.07-0.17,0.17-0.17c0,0,0.5,0,0.5,0
				C47.59,27.33,48.33,26.59,48.33,25.67"/>
		</g>
		<g>
			<path class="st24" d="M50.87,41.53v-0.4c0-0.07,0.06-0.13,0.13-0.13l0,0c0.07,0,0.13,0.06,0.13,0.13v0.4
				c0,0.74,0.6,1.33,1.33,1.33c0,0,0.4,0,0.4,0c0.07,0,0.13,0.06,0.13,0.13v0c0,0.07-0.06,0.13-0.13,0.13h-0.4
				c-0.74,0-1.33,0.6-1.33,1.33l0,0v0.4c0,0.07-0.06,0.13-0.13,0.13l0,0c-0.07,0-0.13-0.06-0.13-0.13v-0.4l0,0
				c0-0.74-0.6-1.33-1.33-1.33c0,0-0.4,0-0.4,0C49.06,43.13,49,43.07,49,43v0c0-0.07,0.06-0.13,0.13-0.13c0,0,0.4,0,0.4,0
				C50.27,42.87,50.87,42.27,50.87,41.53"/>
		</g>
		<g>
			<path class="st25" d="M41.4,13.4v-0.3c0-0.06,0.04-0.1,0.1-0.1l0,0c0.06,0,0.1,0.04,0.1,0.1v0.3c0,0.55,0.45,1,1,1
				c0,0,0.3,0,0.3,0c0.06,0,0.1,0.04,0.1,0.1v0c0,0.06-0.04,0.1-0.1,0.1h-0.3c-0.55,0-1,0.45-1,1v0v0.3c0,0.06-0.04,0.1-0.1,0.1l0,0
				c-0.06,0-0.1-0.04-0.1-0.1v-0.3v0c0-0.55-0.45-1-1-1c0,0-0.3,0-0.3,0c-0.06,0-0.1-0.04-0.1-0.1v0c0-0.06,0.04-0.1,0.1-0.1
				c0,0,0.3,0,0.3,0C40.95,14.4,41.4,13.95,41.4,13.4"/>
		</g>
		<g>
			<path class="st25" d="M46.4,21.4v-0.3c0-0.06,0.04-0.1,0.1-0.1l0,0c0.06,0,0.1,0.04,0.1,0.1v0.3c0,0.55,0.45,1,1,1
				c0,0,0.3,0,0.3,0c0.06,0,0.1,0.04,0.1,0.1l0,0c0,0.06-0.04,0.1-0.1,0.1h-0.3c-0.55,0-1,0.45-1,1v0v0.3c0,0.06-0.04,0.1-0.1,0.1
				l0,0c-0.06,0-0.1-0.04-0.1-0.1v-0.3v0c0-0.55-0.45-1-1-1c0,0-0.3,0-0.3,0c-0.06,0-0.1-0.04-0.1-0.1l0,0c0-0.06,0.04-0.1,0.1-0.1
				c0,0,0.3,0,0.3,0C45.95,22.4,46.4,21.95,46.4,21.4"/>
		</g>
		<g>
			<path class="st25" d="M17.4,20.4v-0.3c0-0.06,0.04-0.1,0.1-0.1l0,0c0.06,0,0.1,0.04,0.1,0.1v0.3c0,0.55,0.45,1,1,1
				c0,0,0.3,0,0.3,0c0.06,0,0.1,0.04,0.1,0.1l0,0c0,0.06-0.04,0.1-0.1,0.1h-0.3c-0.55,0-1,0.45-1,1v0v0.3c0,0.06-0.04,0.1-0.1,0.1
				l0,0c-0.06,0-0.1-0.04-0.1-0.1v-0.3v0c0-0.55-0.45-1-1-1c0,0-0.3,0-0.3,0c-0.06,0-0.1-0.04-0.1-0.1l0,0c0-0.06,0.04-0.1,0.1-0.1
				c0,0,0.3,0,0.3,0C16.95,21.4,17.4,20.95,17.4,20.4"/>
		</g>
		<g>
			<path class="st25" d="M13.4,33.4v-0.3c0-0.06,0.04-0.1,0.1-0.1l0,0c0.06,0,0.1,0.04,0.1,0.1v0.3c0,0.55,0.45,1,1,1
				c0,0,0.3,0,0.3,0c0.06,0,0.1,0.04,0.1,0.1l0,0c0,0.06-0.04,0.1-0.1,0.1h-0.3c-0.55,0-1,0.45-1,1l0,0v0.3c0,0.06-0.04,0.1-0.1,0.1
				l0,0c-0.06,0-0.1-0.04-0.1-0.1v-0.3l0,0c0-0.55-0.45-1-1-1c0,0-0.3,0-0.3,0c-0.06,0-0.1-0.04-0.1-0.1l0,0
				c0-0.06,0.04-0.1,0.1-0.1c0,0,0.3,0,0.3,0C12.95,34.4,13.4,33.95,13.4,33.4"/>
		</g>
		<g>
			<path class="st25" d="M13.4,41.4v-0.3c0-0.06,0.04-0.1,0.1-0.1l0,0c0.06,0,0.1,0.04,0.1,0.1v0.3c0,0.55,0.45,1,1,1
				c0,0,0.3,0,0.3,0c0.06,0,0.1,0.04,0.1,0.1l0,0c0,0.06-0.04,0.1-0.1,0.1h-0.3c-0.55,0-1,0.45-1,1l0,0v0.3c0,0.06-0.04,0.1-0.1,0.1
				l0,0c-0.06,0-0.1-0.04-0.1-0.1v-0.3l0,0c0-0.55-0.45-1-1-1c0,0-0.3,0-0.3,0c-0.06,0-0.1-0.04-0.1-0.1l0,0
				c0-0.06,0.04-0.1,0.1-0.1c0,0,0.3,0,0.3,0C12.95,42.4,13.4,41.95,13.4,41.4"/>
		</g>
		<g>
			<path class="st25" d="M25.4,5.4V5.1c0-0.06,0.04-0.1,0.1-0.1l0,0c0.06,0,0.1,0.04,0.1,0.1v0.3c0,0.55,0.45,1,1,1c0,0,0.3,0,0.3,0
				c0.06,0,0.1,0.04,0.1,0.1v0c0,0.06-0.04,0.1-0.1,0.1h-0.3c-0.55,0-1,0.45-1,1v0v0.3c0,0.06-0.04,0.1-0.1,0.1l0,0
				c-0.06,0-0.1-0.04-0.1-0.1V7.6v0c0-0.55-0.45-1-1-1c0,0-0.3,0-0.3,0c-0.06,0-0.1-0.04-0.1-0.1v0c0-0.06,0.04-0.1,0.1-0.1
				c0,0,0.3,0,0.3,0C24.95,6.4,25.4,5.95,25.4,5.4"/>
		</g>
		<g>
			<g>
				<g>
					<path class="st1" d="M40.17,22.99c-0.56-0.01-1-0.46-0.99-1.01l0,0c0.01-0.56,0.47-1,1.02-0.99l0,0
						c0.55,0.01,0.99,0.47,0.98,1.02l0,0C41.17,22.56,40.73,22.99,40.17,22.99L40.17,22.99L40.17,22.99z M36.29,22.8L36.29,22.8
						c-0.55-0.05-0.96-0.53-0.91-1.08l0,0c0.04-0.56,0.52-0.96,1.07-0.92l0,0c0,0,0,0,0.01,0l0,0c0.55,0.05,0.95,0.53,0.91,1.08l0,0
						c-0.05,0.53-0.48,0.92-1,0.92l0,0C36.34,22.8,36.31,22.8,36.29,22.8z M32.43,22.33c-0.54-0.08-0.92-0.59-0.83-1.13l0,0
						c0.08-0.55,0.59-0.93,1.14-0.84l0,0c0.54,0.08,0.91,0.59,0.83,1.14l0,0c-0.08,0.49-0.5,0.85-0.99,0.85l0,0
						C32.53,22.35,32.48,22.34,32.43,22.33z M28.61,21.61c-0.53-0.12-0.87-0.65-0.75-1.19l0,0c0.12-0.54,0.66-0.88,1.19-0.76l0,0
						c0.54,0.12,0.88,0.66,0.76,1.2l0,0c-0.11,0.46-0.52,0.78-0.98,0.78l0,0C28.76,21.64,28.69,21.63,28.61,21.61z M24.86,20.63
						c-0.53-0.16-0.83-0.72-0.67-1.24l0,0c0.15-0.53,0.71-0.83,1.24-0.67l0,0c0,0,0,0,0-0.01l0,0c0.53,0.16,0.83,0.72,0.67,1.25l0,0
						c-0.13,0.43-0.53,0.71-0.96,0.71l0,0C25.05,20.67,24.95,20.66,24.86,20.63z"/>
				</g>
			</g>
		</g>
		<g>
			<g>
				<g>
					<path class="st1" d="M17.25,37c-0.01-0.55,0.44-1,0.99-1l0,0c0.56,0,1,0.44,1.01,1l0,0c0,0.55-0.45,1-1,1l0,0
						C17.7,38,17.25,37.55,17.25,37z M21.48,36.89c-0.05-0.55,0.36-1.03,0.91-1.08l0,0c0.55-0.05,1.03,0.35,1.08,0.9l0,0
						c0.05,0.55-0.35,1.04-0.9,1.09l0,0c-0.03,0-0.06,0-0.09,0l0,0C21.96,37.8,21.53,37.41,21.48,36.89z M25.69,36.41
						c-0.1-0.54,0.26-1.06,0.81-1.16l0,0c0.54-0.1,1.06,0.26,1.16,0.8l0,0c0.1,0.55-0.26,1.07-0.81,1.17l0,0
						c-0.06,0.01-0.12,0.01-0.18,0.01l0,0C26.2,37.23,25.78,36.89,25.69,36.41z M31.77,35.03c0.14,0.53-0.17,1.08-0.7,1.22l0,0
						c0,0,0,0,0,0.01l0,0c-0.09,0.02-0.18,0.03-0.26,0.03l0,0c-0.45,0-0.85-0.29-0.97-0.73c-0.15-0.54,0.17-1.09,0.7-1.23l0,0
						 M33.9,34.34c-0.2-0.52,0.07-1.1,0.59-1.29l0,0c0.51-0.19,1.09,0.07,1.28,0.59l0,0c0.19,0.52-0.07,1.09-0.59,1.29l0,0
						c-0.11,0.04-0.23,0.06-0.35,0.06l0,0C34.43,34.99,34.05,34.74,33.9,34.34z M37.83,32.76c-0.24-0.49-0.03-1.09,0.47-1.33l0,0
						c0.5-0.24,1.09-0.03,1.33,0.47l0,0c0.24,0.5,0.03,1.09-0.47,1.33l0,0l0,0l0,0c-0.14,0.07-0.28,0.1-0.43,0.1l0,0
						C38.36,33.33,38,33.12,37.83,32.76z M41.6,30.84c-0.28-0.47-0.12-1.09,0.35-1.37l0,0c0.48-0.28,1.09-0.13,1.37,0.35l0,0
						c0.28,0.47,0.13,1.08-0.34,1.37l0,0l0,0l0,0c-0.16,0.1-0.34,0.14-0.51,0.14l0,0C42.12,31.33,41.79,31.16,41.6,30.84z"/>
				</g>
			</g>
		</g>
		<g>
			<g>
				<g>
					<path class="st1" d="M50.17,53c0-0.55,0.44-1,1-1l0,0c0.55,0,0.99,0.45,0.99,1l0,0c0,0.55-0.44,1-0.99,1l0,0
						C50.61,54,50.17,53.55,50.17,53z M47.3,53.94c-0.56-0.03-0.99-0.49-0.96-1.04l0,0c0.01-0.55,0.48-0.99,1.03-0.96l0,0
						c0.55,0.02,0.98,0.48,0.96,1.03l0,0c-0.02,0.54-0.46,0.97-1,0.97l0,0C47.32,53.94,47.31,53.94,47.3,53.94z M43.43,53.7
						c-0.55-0.04-0.96-0.52-0.92-1.07l0,0c0.05-0.55,0.53-0.96,1.08-0.92l0,0l0,0l0,0c0.55,0.05,0.96,0.53,0.92,1.08l0,0
						c-0.05,0.52-0.49,0.92-1,0.92l0,0C43.48,53.71,43.46,53.71,43.43,53.7z M39.57,53.31c-0.55-0.08-0.93-0.57-0.86-1.12l0,0
						c0.06-0.55,0.56-0.94,1.11-0.87l0,0l0,0l0,0c0.55,0.07,0.94,0.57,0.87,1.12l0,0c-0.06,0.5-0.49,0.87-0.99,0.87l0,0
						C39.66,53.31,39.62,53.31,39.57,53.31z M35.74,52.74L35.74,52.74c-0.55-0.09-0.91-0.61-0.82-1.15l0,0
						c0.09-0.55,0.61-0.91,1.16-0.82l0,0c0.54,0.09,0.91,0.61,0.81,1.15l0,0c-0.08,0.49-0.5,0.83-0.98,0.83l0,0
						C35.85,52.75,35.8,52.75,35.74,52.74z M31.94,52.01c-0.54-0.12-0.89-0.65-0.77-1.19l0,0c0.11-0.54,0.65-0.88,1.19-0.77l0,0
						c0.54,0.12,0.88,0.65,0.76,1.19l0,0c-0.1,0.47-0.51,0.79-0.97,0.79l0,0C32.08,52.03,32.01,52.02,31.94,52.01z M28.17,51.11
						L28.17,51.11c-0.54-0.14-0.86-0.68-0.72-1.22l0,0c0.14-0.53,0.68-0.85,1.22-0.71l0,0l0,0l0,0c0.54,0.14,0.86,0.68,0.72,1.22
						l0,0c-0.12,0.45-0.53,0.75-0.97,0.75l0,0C28.33,51.15,28.25,51.14,28.17,51.11z M24.44,50.05L24.44,50.05
						c-0.53-0.16-0.83-0.72-0.66-1.25l0,0c0.16-0.53,0.72-0.82,1.25-0.66l0,0l0,0l0,0c0.52,0.16,0.82,0.72,0.66,1.25l0,0
						c-0.13,0.43-0.53,0.71-0.96,0.71l0,0C24.64,50.1,24.54,50.08,24.44,50.05z M20.76,48.83L20.76,48.83
						c-0.52-0.19-0.79-0.76-0.6-1.28l0,0c0.18-0.52,0.75-0.79,1.27-0.6l0,0c0.52,0.18,0.79,0.75,0.61,1.27l0,0
						c-0.15,0.41-0.53,0.67-0.94,0.67l0,0C20.98,48.89,20.87,48.87,20.76,48.83z M17.14,47.45L17.14,47.45
						c-0.51-0.21-0.76-0.79-0.55-1.3l0,0c0.21-0.52,0.79-0.76,1.31-0.55l0,0l0,0l0,0c0.51,0.2,0.75,0.79,0.54,1.3l0,0
						c-0.15,0.39-0.53,0.62-0.92,0.62l0,0C17.39,47.52,17.26,47.5,17.14,47.45z"/>
				</g>
			</g>
		</g>
	</g>
</g>
<g id="snowman_x5F_1">
</g>
<g id="candy">
</g>
<g id="candle">
</g>
<g id="decoration">
</g>
<g id="santa">
</g>
<g id="mistletoe">
</g>
<g id="champagne">
</g>
</svg>
